M48
; DRILL file {KiCad 8.0.1} date 2024-05-28T12:59:48-0300
; FORMAT={-:-/ absolute / inch / decimal}
; #@! TF.CreationDate,2024-05-28T12:59:48-03:00
; #@! TF.GenerationSoftware,Kicad,Pcbnew,8.0.1
; #@! TF.FileFunction,Plated,1,2,PTH
FMAT,2
INCH
; #@! TA.AperFunction,Plated,PTH,ViaDrill
T1C0.0118
; #@! TA.AperFunction,Plated,PTH,ComponentDrill
T2C0.0295
; #@! TA.AperFunction,Plated,PTH,ComponentDrill
T3C0.0315
; #@! TA.AperFunction,Plated,PTH,ComponentDrill
T4C0.0394
%
G90
G05
T1
X4.9705Y-3.9469
X5.0689Y-4.439
X5.1378Y-3.5138
X5.18Y-3.18
X5.2657Y-4.1142
X5.2657Y-4.5472
X5.3937Y-3.7205
X5.6102Y-3.5728
X5.6201Y-3.4744
X5.748Y-4.3898
X5.7677Y-3.1693
X5.7677Y-4.498
X5.7874Y-3.3071
X5.8465Y-3.1496
X5.8661Y-3.9173
X5.8661Y-4.4094
X5.9843Y-3.4055
X6.0531Y-3.1299
T2
X5.5058Y-4.07
X5.5058Y-4.12
X5.5058Y-4.17
T3
X5.92Y-4.2587
X5.92Y-4.3587
X5.92Y-4.4587
X5.92Y-4.5587
T4
X4.88Y-3.1827
X4.88Y-3.2827
X4.88Y-3.3827
X4.88Y-3.4827
X4.88Y-3.5827
X4.88Y-3.6827
X4.88Y-3.7827
X4.88Y-3.8827
X4.88Y-3.9827
X4.88Y-4.0827
X4.88Y-4.1827
X4.88Y-4.2827
X4.88Y-4.3827
X4.88Y-4.4827
X4.88Y-4.5827
X5.7Y-4.0898
X5.7Y-4.1898
X5.96Y-3.92
X5.96Y-4.02
X5.9646Y-3.6211
X5.9646Y-3.7211
M30
