%TF.GenerationSoftware,KiCad,Pcbnew,8.0.1*%
%TF.CreationDate,2024-05-28T12:59:40-03:00*%
%TF.ProjectId,ESP32C6-dev-board,45535033-3243-4362-9d64-65762d626f61,rev?*%
%TF.SameCoordinates,Original*%
%TF.FileFunction,Legend,Bot*%
%TF.FilePolarity,Positive*%
%FSLAX46Y46*%
G04 Gerber Fmt 4.6, Leading zero omitted, Abs format (unit mm)*
G04 Created by KiCad (PCBNEW 8.0.1) date 2024-05-28 12:59:40*
%MOMM*%
%LPD*%
G01*
G04 APERTURE LIST*
%ADD10C,0.187500*%
%ADD11C,0.162500*%
G04 APERTURE END LIST*
D10*
G36*
X156245000Y-101673290D02*
G01*
X154720924Y-101673290D01*
X154720924Y-102692149D01*
X154896779Y-102692149D01*
X154896779Y-101872958D01*
X155377449Y-101872958D01*
X155377449Y-102581873D01*
X155553304Y-102581873D01*
X155553304Y-101872958D01*
X156245000Y-101872958D01*
X156245000Y-101673290D01*
G37*
G36*
X156245000Y-102919295D02*
G01*
X155142976Y-102919295D01*
X155142976Y-103086357D01*
X155311870Y-103086357D01*
X155246203Y-103125233D01*
X155184264Y-103172884D01*
X155156898Y-103203960D01*
X155125696Y-103272223D01*
X155119528Y-103323394D01*
X155129445Y-103400082D01*
X155156201Y-103471729D01*
X155179612Y-103513904D01*
X155352903Y-103450157D01*
X155322952Y-103382013D01*
X155312969Y-103313869D01*
X155328905Y-103239412D01*
X155349972Y-103204692D01*
X155406930Y-103155119D01*
X155451821Y-103135816D01*
X155528912Y-103116839D01*
X155604195Y-103107138D01*
X155669075Y-103104675D01*
X156245000Y-103104675D01*
X156245000Y-102919295D01*
G37*
G36*
X154931950Y-103621615D02*
G01*
X154720924Y-103621615D01*
X154720924Y-103806995D01*
X154931950Y-103806995D01*
X154931950Y-103621615D01*
G37*
G36*
X156245000Y-103621615D02*
G01*
X155142976Y-103621615D01*
X155142976Y-103806995D01*
X156245000Y-103806995D01*
X156245000Y-103621615D01*
G37*
G36*
X156075006Y-104491364D02*
G01*
X156245000Y-104518108D01*
X156262585Y-104443920D01*
X156268447Y-104378157D01*
X156263126Y-104303498D01*
X156241968Y-104232194D01*
X156236207Y-104221353D01*
X156187578Y-104164624D01*
X156150844Y-104142951D01*
X156075705Y-104126910D01*
X155997080Y-104121673D01*
X155928461Y-104120603D01*
X155289521Y-104120603D01*
X155289521Y-103984316D01*
X155142976Y-103984316D01*
X155142976Y-104120603D01*
X154876995Y-104120603D01*
X154767819Y-104304884D01*
X155142976Y-104304884D01*
X155142976Y-104491364D01*
X155289521Y-104491364D01*
X155289521Y-104304884D01*
X155943482Y-104304884D01*
X156019528Y-104308242D01*
X156047896Y-104314410D01*
X156084898Y-104346284D01*
X156098454Y-104410031D01*
X156079197Y-104482058D01*
X156075006Y-104491364D01*
G37*
G36*
X156245000Y-104571964D02*
G01*
X156095889Y-104571964D01*
X155289155Y-105268422D01*
X155292701Y-105190148D01*
X155294891Y-105112362D01*
X155295383Y-105059228D01*
X155295383Y-104612997D01*
X155142976Y-104612997D01*
X155142976Y-105507292D01*
X155265708Y-105507292D01*
X155967662Y-104914881D01*
X156095889Y-104800575D01*
X156091059Y-104876925D01*
X156088018Y-104950269D01*
X156086739Y-105027477D01*
X156086730Y-105034316D01*
X156086730Y-105540265D01*
X156245000Y-105540265D01*
X156245000Y-104571964D01*
G37*
G36*
X155752381Y-105658371D02*
G01*
X155829771Y-105665928D01*
X155914943Y-105684063D01*
X155991716Y-105712090D01*
X156060091Y-105750008D01*
X156120069Y-105797819D01*
X156138037Y-105815792D01*
X156184984Y-105874366D01*
X156221499Y-105939921D01*
X156247581Y-106012457D01*
X156263230Y-106091973D01*
X156268447Y-106178471D01*
X156268086Y-106202020D01*
X156261144Y-106280271D01*
X156245366Y-106352036D01*
X156216515Y-106426111D01*
X156176123Y-106491713D01*
X156170280Y-106499308D01*
X156118279Y-106554635D01*
X156056936Y-106600299D01*
X155986250Y-106636300D01*
X155916737Y-106659874D01*
X155893290Y-106467899D01*
X155941227Y-106448029D01*
X156009294Y-106407276D01*
X156062916Y-106353593D01*
X156078220Y-106330315D01*
X156107272Y-106257425D01*
X156116039Y-106179570D01*
X156115674Y-106162619D01*
X156102902Y-106083142D01*
X156071882Y-106012467D01*
X156022616Y-105950593D01*
X155970570Y-105909880D01*
X155899701Y-105876231D01*
X155825758Y-105857123D01*
X155752606Y-105848743D01*
X155752606Y-106665003D01*
X155702048Y-106665736D01*
X155634745Y-106663560D01*
X155556075Y-106654723D01*
X155483470Y-106639088D01*
X155404348Y-106611354D01*
X155333959Y-106573830D01*
X155272302Y-106526517D01*
X155220383Y-106471614D01*
X155173387Y-106400398D01*
X155141012Y-106321468D01*
X155124899Y-106247674D01*
X155119677Y-106170411D01*
X155271936Y-106170411D01*
X155273688Y-106204855D01*
X155290438Y-106276368D01*
X155329851Y-106346106D01*
X155384043Y-106400122D01*
X155448100Y-106436924D01*
X155524741Y-106459526D01*
X155600198Y-106470097D01*
X155600198Y-105859002D01*
X155572700Y-105861467D01*
X155496540Y-105877016D01*
X155423067Y-105908637D01*
X155361329Y-105955355D01*
X155355829Y-105960845D01*
X155310434Y-106020107D01*
X155280666Y-106094469D01*
X155271936Y-106170411D01*
X155119677Y-106170411D01*
X155119528Y-106168213D01*
X155120127Y-106140196D01*
X155129100Y-106060113D01*
X155148840Y-105985980D01*
X155179349Y-105917797D01*
X155220625Y-105855565D01*
X155272669Y-105799284D01*
X155323557Y-105758333D01*
X155392628Y-105718353D01*
X155470432Y-105688369D01*
X155541939Y-105671017D01*
X155619511Y-105660605D01*
X155703147Y-105657135D01*
X155752381Y-105658371D01*
G37*
G36*
X156245000Y-106887020D02*
G01*
X155142976Y-106887020D01*
X155142976Y-107053715D01*
X155297581Y-107053715D01*
X155237071Y-107102690D01*
X155189080Y-107159211D01*
X155148914Y-107234693D01*
X155128049Y-107307568D01*
X155119702Y-107387990D01*
X155119528Y-107402128D01*
X155125454Y-107479839D01*
X155143231Y-107552228D01*
X155155432Y-107583845D01*
X155190875Y-107648549D01*
X155242029Y-107702748D01*
X155249221Y-107708042D01*
X155316929Y-107744998D01*
X155386974Y-107765928D01*
X155463884Y-107773932D01*
X155544693Y-107776096D01*
X155568325Y-107776186D01*
X156245000Y-107776186D01*
X156245000Y-107590806D01*
X155573087Y-107590806D01*
X155495498Y-107587766D01*
X155421406Y-107575417D01*
X155402362Y-107569190D01*
X155340395Y-107529004D01*
X155311870Y-107492254D01*
X155284319Y-107424286D01*
X155277798Y-107362927D01*
X155286759Y-107285381D01*
X155313643Y-107215454D01*
X155353635Y-107158496D01*
X155414379Y-107113094D01*
X155491868Y-107086609D01*
X155567084Y-107075427D01*
X155641964Y-107072400D01*
X156245000Y-107072400D01*
X156245000Y-106887020D01*
G37*
G36*
X156245000Y-108070376D02*
G01*
X154720924Y-108070376D01*
X154720924Y-108270411D01*
X156069145Y-108270411D01*
X156069145Y-109014131D01*
X156245000Y-109014131D01*
X156245000Y-108070376D01*
G37*
G36*
X155969026Y-109160321D02*
G01*
X156048817Y-109173545D01*
X156118949Y-109205659D01*
X156179420Y-109256664D01*
X156218369Y-109310405D01*
X156248885Y-109383290D01*
X156264187Y-109459121D01*
X156268447Y-109534002D01*
X156266157Y-109587720D01*
X156254136Y-109665034D01*
X156231810Y-109738433D01*
X156227028Y-109750414D01*
X156193457Y-109817334D01*
X156152270Y-109879673D01*
X156106514Y-109937002D01*
X156171970Y-109948052D01*
X156245000Y-109974005D01*
X156245000Y-110167812D01*
X156184372Y-110139910D01*
X156112742Y-110120551D01*
X156092535Y-110117803D01*
X156015870Y-110112537D01*
X155939980Y-110110212D01*
X155860365Y-110109113D01*
X155783747Y-110108827D01*
X155534986Y-110108827D01*
X155519760Y-110108791D01*
X155440969Y-110107074D01*
X155363161Y-110099668D01*
X155300960Y-110080474D01*
X155236032Y-110041782D01*
X155232912Y-110039172D01*
X155185015Y-109980899D01*
X155152868Y-109913189D01*
X155150816Y-109907665D01*
X155131282Y-109833399D01*
X155122166Y-109760255D01*
X155119528Y-109685676D01*
X155119676Y-109668132D01*
X155123987Y-109592479D01*
X155135780Y-109514741D01*
X155157264Y-109436915D01*
X155175156Y-109392514D01*
X155213006Y-109327573D01*
X155264242Y-109273150D01*
X155306640Y-109243906D01*
X155373899Y-109212668D01*
X155446325Y-109191817D01*
X155471238Y-109373168D01*
X155444448Y-109381182D01*
X155371928Y-109414186D01*
X155315900Y-109465491D01*
X155292716Y-109511108D01*
X155276229Y-109583511D01*
X155271936Y-109658565D01*
X155276892Y-109732017D01*
X155296408Y-109806914D01*
X155334584Y-109869958D01*
X155350629Y-109885050D01*
X155418190Y-109914980D01*
X155493220Y-109922348D01*
X155541580Y-109921615D01*
X155688126Y-109921615D01*
X155757002Y-109921615D01*
X155794329Y-109920882D01*
X155871798Y-109913136D01*
X155944581Y-109891573D01*
X155969491Y-109878241D01*
X156030199Y-109829394D01*
X156074640Y-109768841D01*
X156093055Y-109731299D01*
X156115255Y-109655440D01*
X156121901Y-109578332D01*
X156121117Y-109552119D01*
X156107736Y-109478078D01*
X156071709Y-109413834D01*
X156019100Y-109373600D01*
X155946046Y-109357780D01*
X155927821Y-109358682D01*
X155856287Y-109383426D01*
X155839585Y-109395823D01*
X155795104Y-109456699D01*
X155789946Y-109469647D01*
X155770575Y-109542279D01*
X155757369Y-109618632D01*
X155744288Y-109702127D01*
X155730050Y-109775981D01*
X155712362Y-109848578D01*
X155688126Y-109921615D01*
X155541580Y-109921615D01*
X155546211Y-109907872D01*
X155566059Y-109834588D01*
X155582340Y-109753730D01*
X155595533Y-109670846D01*
X155606060Y-109590788D01*
X155607759Y-109577221D01*
X155619010Y-109499641D01*
X155634270Y-109425924D01*
X155658195Y-109359501D01*
X155695819Y-109292201D01*
X155742897Y-109238804D01*
X155803531Y-109196580D01*
X155807735Y-109194326D01*
X155878798Y-109167994D01*
X155951908Y-109159944D01*
X155969026Y-109160321D01*
G37*
G36*
X156245000Y-110562020D02*
G01*
X156106880Y-110562020D01*
X156144747Y-110590888D01*
X156198866Y-110647661D01*
X156237522Y-110712394D01*
X156260716Y-110785085D01*
X156268447Y-110865736D01*
X156264681Y-110925275D01*
X156246757Y-111004033D01*
X156214071Y-111077425D01*
X156166625Y-111145453D01*
X156114207Y-111199494D01*
X156062877Y-111239600D01*
X155993016Y-111278756D01*
X155914139Y-111308122D01*
X155841521Y-111325116D01*
X155762642Y-111335313D01*
X155677501Y-111338712D01*
X155604515Y-111335492D01*
X155527535Y-111324512D01*
X155454019Y-111305739D01*
X155409650Y-111290104D01*
X155340442Y-111257672D01*
X155275233Y-111214515D01*
X155248653Y-111191549D01*
X155199105Y-111134104D01*
X155160561Y-111066137D01*
X155144573Y-111026199D01*
X155125299Y-110949330D01*
X155119528Y-110875261D01*
X155120163Y-110858775D01*
X155271936Y-110858775D01*
X155284058Y-110937443D01*
X155320422Y-111007712D01*
X155374518Y-111064305D01*
X155387783Y-111074598D01*
X155458420Y-111112697D01*
X155536244Y-111135274D01*
X155615948Y-111146314D01*
X155692889Y-111149302D01*
X155705953Y-111149215D01*
X155791692Y-111143760D01*
X155867439Y-111129821D01*
X155941771Y-111103500D01*
X156009794Y-111060642D01*
X156022659Y-111049430D01*
X156074537Y-110989510D01*
X156105664Y-110923149D01*
X156116039Y-110850348D01*
X156110977Y-110796471D01*
X156084403Y-110723819D01*
X156035050Y-110660961D01*
X155972058Y-110613311D01*
X155921042Y-110589909D01*
X155847227Y-110571575D01*
X155767016Y-110562381D01*
X155685561Y-110559822D01*
X155673083Y-110559908D01*
X155590925Y-110565363D01*
X155517848Y-110579303D01*
X155445451Y-110605624D01*
X155378182Y-110648482D01*
X155365316Y-110659693D01*
X155313438Y-110719614D01*
X155282312Y-110785974D01*
X155271936Y-110858775D01*
X155120163Y-110858775D01*
X155120823Y-110841622D01*
X155133911Y-110767563D01*
X155166128Y-110690523D01*
X155209420Y-110629763D01*
X155266807Y-110575209D01*
X154720924Y-110575209D01*
X154720924Y-110389829D01*
X156245000Y-110389829D01*
X156245000Y-110562020D01*
G37*
G36*
X156245000Y-111611287D02*
G01*
X156033974Y-111611287D01*
X156033974Y-111822679D01*
X156245000Y-111822679D01*
X156245000Y-111611287D01*
G37*
G36*
X155846395Y-112856193D02*
G01*
X155870209Y-113038642D01*
X155948080Y-113021046D01*
X156018201Y-112994544D01*
X156088852Y-112953351D01*
X156149383Y-112900526D01*
X156162934Y-112885502D01*
X156209096Y-112820426D01*
X156242069Y-112748299D01*
X156261852Y-112669118D01*
X156268344Y-112594050D01*
X156268447Y-112582885D01*
X156263269Y-112501758D01*
X156247736Y-112426814D01*
X156221847Y-112358052D01*
X156178555Y-112285643D01*
X156130229Y-112230277D01*
X156121168Y-112221650D01*
X156061306Y-112175333D01*
X155992454Y-112138600D01*
X155914612Y-112111449D01*
X155842876Y-112096143D01*
X155764896Y-112087492D01*
X155698018Y-112085362D01*
X155622258Y-112088167D01*
X155540914Y-112098242D01*
X155465157Y-112115645D01*
X155394986Y-112140374D01*
X155386608Y-112143981D01*
X155316692Y-112181970D01*
X155257383Y-112229581D01*
X155208681Y-112286813D01*
X155186207Y-112322766D01*
X155153975Y-112392012D01*
X155132291Y-112464562D01*
X155121156Y-112540416D01*
X155119528Y-112583984D01*
X155123859Y-112658922D01*
X155139412Y-112736923D01*
X155166277Y-112806773D01*
X155210020Y-112875610D01*
X155266921Y-112933032D01*
X155335819Y-112977529D01*
X155407134Y-113006232D01*
X155466842Y-113021057D01*
X155494685Y-112840806D01*
X155424904Y-112818247D01*
X155359291Y-112779531D01*
X155327990Y-112749214D01*
X155287756Y-112682040D01*
X155272429Y-112608449D01*
X155271936Y-112591311D01*
X155279934Y-112516556D01*
X155307584Y-112443283D01*
X155354982Y-112380314D01*
X155373053Y-112363433D01*
X155439233Y-112321106D01*
X155513680Y-112295111D01*
X155590879Y-112281344D01*
X155666008Y-112276214D01*
X155692889Y-112275872D01*
X155771882Y-112278847D01*
X155853263Y-112289839D01*
X155932060Y-112312319D01*
X156002588Y-112350254D01*
X156015655Y-112360502D01*
X156068592Y-112418405D01*
X156101923Y-112486325D01*
X156115647Y-112564263D01*
X156116039Y-112581053D01*
X156106766Y-112657835D01*
X156075789Y-112729504D01*
X156050094Y-112763136D01*
X155990365Y-112810569D01*
X155918053Y-112840833D01*
X155846395Y-112856193D01*
G37*
G36*
X155761559Y-113124389D02*
G01*
X155840291Y-113133389D01*
X155912656Y-113149311D01*
X155991086Y-113177557D01*
X156060346Y-113215772D01*
X156120436Y-113263956D01*
X156138359Y-113282023D01*
X156185191Y-113340343D01*
X156221615Y-113404846D01*
X156247633Y-113475532D01*
X156263243Y-113552399D01*
X156268447Y-113635450D01*
X156266810Y-113679669D01*
X156255614Y-113756514D01*
X156233811Y-113829824D01*
X156201402Y-113899598D01*
X156179012Y-113936081D01*
X156132039Y-113994627D01*
X156076488Y-114044015D01*
X156012358Y-114084246D01*
X155980536Y-114099101D01*
X155908408Y-114122869D01*
X155836017Y-114137167D01*
X155754966Y-114145399D01*
X155678600Y-114147627D01*
X155630483Y-114146368D01*
X155554723Y-114138674D01*
X155471132Y-114120208D01*
X155395527Y-114091670D01*
X155327907Y-114053061D01*
X155268272Y-114004378D01*
X155250260Y-113986150D01*
X155203197Y-113927602D01*
X155166592Y-113863258D01*
X155140446Y-113793118D01*
X155124758Y-113717182D01*
X155119528Y-113635450D01*
X155271936Y-113635450D01*
X155272863Y-113660745D01*
X155289350Y-113739341D01*
X155326444Y-113809137D01*
X155377449Y-113864427D01*
X155390981Y-113875607D01*
X155461512Y-113916991D01*
X155537441Y-113941514D01*
X155614097Y-113953505D01*
X155687393Y-113956751D01*
X155714070Y-113956393D01*
X155788899Y-113951027D01*
X155866334Y-113936626D01*
X155941822Y-113909435D01*
X156010160Y-113865160D01*
X156029082Y-113847578D01*
X156078713Y-113783063D01*
X156107664Y-113709461D01*
X156116039Y-113635450D01*
X156115115Y-113609765D01*
X156098686Y-113530195D01*
X156061720Y-113459927D01*
X156010893Y-113404640D01*
X155990175Y-113388272D01*
X155925798Y-113352494D01*
X155848140Y-113328165D01*
X155769296Y-113316269D01*
X155693621Y-113313049D01*
X155667525Y-113313407D01*
X155594268Y-113318773D01*
X155518341Y-113333174D01*
X155444146Y-113360365D01*
X155376716Y-113404640D01*
X155357991Y-113422232D01*
X155308875Y-113486918D01*
X155280224Y-113560907D01*
X155271936Y-113635450D01*
X155119528Y-113635450D01*
X155121435Y-113585676D01*
X155133944Y-113503227D01*
X155158130Y-113426704D01*
X155193991Y-113356106D01*
X155241528Y-113291434D01*
X155250887Y-113281020D01*
X155313518Y-113225482D01*
X155387252Y-113181844D01*
X155457178Y-113154571D01*
X155534813Y-113135562D01*
X155620160Y-113124818D01*
X155693988Y-113122173D01*
X155761559Y-113124389D01*
G37*
G36*
X156245000Y-114359385D02*
G01*
X155142976Y-114359385D01*
X155142976Y-114525348D01*
X155295383Y-114525348D01*
X155236165Y-114572646D01*
X155187105Y-114631189D01*
X155167889Y-114662002D01*
X155138419Y-114729596D01*
X155122551Y-114803785D01*
X155119528Y-114856908D01*
X155125416Y-114935336D01*
X155145268Y-115009044D01*
X155169354Y-115056210D01*
X155220595Y-115115656D01*
X155287123Y-115157430D01*
X155308939Y-115166120D01*
X155244569Y-115217511D01*
X155193517Y-115274415D01*
X155150789Y-115347770D01*
X155126187Y-115428628D01*
X155119528Y-115503907D01*
X155125207Y-115580706D01*
X155145171Y-115655829D01*
X155184212Y-115725295D01*
X155210387Y-115754501D01*
X155276533Y-115800675D01*
X155352460Y-115827611D01*
X155432992Y-115839924D01*
X155489556Y-115842062D01*
X156245000Y-115842062D01*
X156245000Y-115657414D01*
X155549274Y-115657414D01*
X155473831Y-115654890D01*
X155400971Y-115643670D01*
X155387707Y-115639462D01*
X155326641Y-115598326D01*
X155308206Y-115573883D01*
X155281391Y-115504753D01*
X155277798Y-115462875D01*
X155286976Y-115388166D01*
X155317922Y-115317232D01*
X155355467Y-115271266D01*
X155419652Y-115227881D01*
X155497161Y-115204067D01*
X155572306Y-115195732D01*
X155603496Y-115195062D01*
X156245000Y-115195062D01*
X156245000Y-115009316D01*
X155527292Y-115009316D01*
X155449014Y-115003948D01*
X155375480Y-114983762D01*
X155340446Y-114963886D01*
X155293460Y-114904352D01*
X155278043Y-114828518D01*
X155277798Y-114815875D01*
X155288239Y-114740404D01*
X155319563Y-114670795D01*
X155370671Y-114613551D01*
X155436220Y-114576354D01*
X155441196Y-114574441D01*
X155517819Y-114555227D01*
X155592723Y-114547113D01*
X155672006Y-114544766D01*
X156245000Y-114544766D01*
X156245000Y-114359385D01*
G37*
G36*
X156245000Y-116160066D02*
G01*
X156033974Y-116160066D01*
X156033974Y-116371458D01*
X156245000Y-116371458D01*
X156245000Y-116160066D01*
G37*
G36*
X156245000Y-116862020D02*
G01*
X156106880Y-116862020D01*
X156144747Y-116890888D01*
X156198866Y-116947661D01*
X156237522Y-117012394D01*
X156260716Y-117085085D01*
X156268447Y-117165736D01*
X156264681Y-117225275D01*
X156246757Y-117304033D01*
X156214071Y-117377425D01*
X156166625Y-117445453D01*
X156114207Y-117499494D01*
X156062877Y-117539600D01*
X155993016Y-117578756D01*
X155914139Y-117608122D01*
X155841521Y-117625116D01*
X155762642Y-117635313D01*
X155677501Y-117638712D01*
X155604515Y-117635492D01*
X155527535Y-117624512D01*
X155454019Y-117605739D01*
X155409650Y-117590104D01*
X155340442Y-117557672D01*
X155275233Y-117514515D01*
X155248653Y-117491549D01*
X155199105Y-117434104D01*
X155160561Y-117366137D01*
X155144573Y-117326199D01*
X155125299Y-117249330D01*
X155119528Y-117175261D01*
X155120163Y-117158775D01*
X155271936Y-117158775D01*
X155284058Y-117237443D01*
X155320422Y-117307712D01*
X155374518Y-117364305D01*
X155387783Y-117374598D01*
X155458420Y-117412697D01*
X155536244Y-117435274D01*
X155615948Y-117446314D01*
X155692889Y-117449302D01*
X155705953Y-117449215D01*
X155791692Y-117443760D01*
X155867439Y-117429821D01*
X155941771Y-117403500D01*
X156009794Y-117360642D01*
X156022659Y-117349430D01*
X156074537Y-117289510D01*
X156105664Y-117223149D01*
X156116039Y-117150348D01*
X156110977Y-117096471D01*
X156084403Y-117023819D01*
X156035050Y-116960961D01*
X155972058Y-116913311D01*
X155921042Y-116889909D01*
X155847227Y-116871575D01*
X155767016Y-116862381D01*
X155685561Y-116859822D01*
X155673083Y-116859908D01*
X155590925Y-116865363D01*
X155517848Y-116879303D01*
X155445451Y-116905624D01*
X155378182Y-116948482D01*
X155365316Y-116959693D01*
X155313438Y-117019614D01*
X155282312Y-117085974D01*
X155271936Y-117158775D01*
X155120163Y-117158775D01*
X155120823Y-117141622D01*
X155133911Y-117067563D01*
X155166128Y-116990523D01*
X155209420Y-116929763D01*
X155266807Y-116875209D01*
X154720924Y-116875209D01*
X154720924Y-116689829D01*
X156245000Y-116689829D01*
X156245000Y-116862020D01*
G37*
G36*
X156245000Y-117856699D02*
G01*
X155142976Y-117856699D01*
X155142976Y-118023761D01*
X155311870Y-118023761D01*
X155246203Y-118062637D01*
X155184264Y-118110288D01*
X155156898Y-118141364D01*
X155125696Y-118209627D01*
X155119528Y-118260799D01*
X155129445Y-118337486D01*
X155156201Y-118409133D01*
X155179612Y-118451308D01*
X155352903Y-118387561D01*
X155322952Y-118319417D01*
X155312969Y-118251273D01*
X155328905Y-118176816D01*
X155349972Y-118142096D01*
X155406930Y-118092523D01*
X155451821Y-118073220D01*
X155528912Y-118054243D01*
X155604195Y-118044542D01*
X155669075Y-118042079D01*
X156245000Y-118042079D01*
X156245000Y-117856699D01*
G37*
G36*
X154245000Y-101673290D02*
G01*
X152720924Y-101673290D01*
X152720924Y-102692149D01*
X152896779Y-102692149D01*
X152896779Y-101872958D01*
X153377449Y-101872958D01*
X153377449Y-102581873D01*
X153553304Y-102581873D01*
X153553304Y-101872958D01*
X154245000Y-101872958D01*
X154245000Y-101673290D01*
G37*
G36*
X154245000Y-102919295D02*
G01*
X153142976Y-102919295D01*
X153142976Y-103086357D01*
X153311870Y-103086357D01*
X153246203Y-103125233D01*
X153184264Y-103172884D01*
X153156898Y-103203960D01*
X153125696Y-103272223D01*
X153119528Y-103323394D01*
X153129445Y-103400082D01*
X153156201Y-103471729D01*
X153179612Y-103513904D01*
X153352903Y-103450157D01*
X153322952Y-103382013D01*
X153312969Y-103313869D01*
X153328905Y-103239412D01*
X153349972Y-103204692D01*
X153406930Y-103155119D01*
X153451821Y-103135816D01*
X153528912Y-103116839D01*
X153604195Y-103107138D01*
X153669075Y-103104675D01*
X154245000Y-103104675D01*
X154245000Y-102919295D01*
G37*
G36*
X152931950Y-103621615D02*
G01*
X152720924Y-103621615D01*
X152720924Y-103806995D01*
X152931950Y-103806995D01*
X152931950Y-103621615D01*
G37*
G36*
X154245000Y-103621615D02*
G01*
X153142976Y-103621615D01*
X153142976Y-103806995D01*
X154245000Y-103806995D01*
X154245000Y-103621615D01*
G37*
G36*
X154075006Y-104491364D02*
G01*
X154245000Y-104518108D01*
X154262585Y-104443920D01*
X154268447Y-104378157D01*
X154263126Y-104303498D01*
X154241968Y-104232194D01*
X154236207Y-104221353D01*
X154187578Y-104164624D01*
X154150844Y-104142951D01*
X154075705Y-104126910D01*
X153997080Y-104121673D01*
X153928461Y-104120603D01*
X153289521Y-104120603D01*
X153289521Y-103984316D01*
X153142976Y-103984316D01*
X153142976Y-104120603D01*
X152876995Y-104120603D01*
X152767819Y-104304884D01*
X153142976Y-104304884D01*
X153142976Y-104491364D01*
X153289521Y-104491364D01*
X153289521Y-104304884D01*
X153943482Y-104304884D01*
X154019528Y-104308242D01*
X154047896Y-104314410D01*
X154084898Y-104346284D01*
X154098454Y-104410031D01*
X154079197Y-104482058D01*
X154075006Y-104491364D01*
G37*
G36*
X154245000Y-104571964D02*
G01*
X154095889Y-104571964D01*
X153289155Y-105268422D01*
X153292701Y-105190148D01*
X153294891Y-105112362D01*
X153295383Y-105059228D01*
X153295383Y-104612997D01*
X153142976Y-104612997D01*
X153142976Y-105507292D01*
X153265708Y-105507292D01*
X153967662Y-104914881D01*
X154095889Y-104800575D01*
X154091059Y-104876925D01*
X154088018Y-104950269D01*
X154086739Y-105027477D01*
X154086730Y-105034316D01*
X154086730Y-105540265D01*
X154245000Y-105540265D01*
X154245000Y-104571964D01*
G37*
G36*
X153752381Y-105658371D02*
G01*
X153829771Y-105665928D01*
X153914943Y-105684063D01*
X153991716Y-105712090D01*
X154060091Y-105750008D01*
X154120069Y-105797819D01*
X154138037Y-105815792D01*
X154184984Y-105874366D01*
X154221499Y-105939921D01*
X154247581Y-106012457D01*
X154263230Y-106091973D01*
X154268447Y-106178471D01*
X154268086Y-106202020D01*
X154261144Y-106280271D01*
X154245366Y-106352036D01*
X154216515Y-106426111D01*
X154176123Y-106491713D01*
X154170280Y-106499308D01*
X154118279Y-106554635D01*
X154056936Y-106600299D01*
X153986250Y-106636300D01*
X153916737Y-106659874D01*
X153893290Y-106467899D01*
X153941227Y-106448029D01*
X154009294Y-106407276D01*
X154062916Y-106353593D01*
X154078220Y-106330315D01*
X154107272Y-106257425D01*
X154116039Y-106179570D01*
X154115674Y-106162619D01*
X154102902Y-106083142D01*
X154071882Y-106012467D01*
X154022616Y-105950593D01*
X153970570Y-105909880D01*
X153899701Y-105876231D01*
X153825758Y-105857123D01*
X153752606Y-105848743D01*
X153752606Y-106665003D01*
X153702048Y-106665736D01*
X153634745Y-106663560D01*
X153556075Y-106654723D01*
X153483470Y-106639088D01*
X153404348Y-106611354D01*
X153333959Y-106573830D01*
X153272302Y-106526517D01*
X153220383Y-106471614D01*
X153173387Y-106400398D01*
X153141012Y-106321468D01*
X153124899Y-106247674D01*
X153119677Y-106170411D01*
X153271936Y-106170411D01*
X153273688Y-106204855D01*
X153290438Y-106276368D01*
X153329851Y-106346106D01*
X153384043Y-106400122D01*
X153448100Y-106436924D01*
X153524741Y-106459526D01*
X153600198Y-106470097D01*
X153600198Y-105859002D01*
X153572700Y-105861467D01*
X153496540Y-105877016D01*
X153423067Y-105908637D01*
X153361329Y-105955355D01*
X153355829Y-105960845D01*
X153310434Y-106020107D01*
X153280666Y-106094469D01*
X153271936Y-106170411D01*
X153119677Y-106170411D01*
X153119528Y-106168213D01*
X153120127Y-106140196D01*
X153129100Y-106060113D01*
X153148840Y-105985980D01*
X153179349Y-105917797D01*
X153220625Y-105855565D01*
X153272669Y-105799284D01*
X153323557Y-105758333D01*
X153392628Y-105718353D01*
X153470432Y-105688369D01*
X153541939Y-105671017D01*
X153619511Y-105660605D01*
X153703147Y-105657135D01*
X153752381Y-105658371D01*
G37*
G36*
X154245000Y-106887020D02*
G01*
X153142976Y-106887020D01*
X153142976Y-107053715D01*
X153297581Y-107053715D01*
X153237071Y-107102690D01*
X153189080Y-107159211D01*
X153148914Y-107234693D01*
X153128049Y-107307568D01*
X153119702Y-107387990D01*
X153119528Y-107402128D01*
X153125454Y-107479839D01*
X153143231Y-107552228D01*
X153155432Y-107583845D01*
X153190875Y-107648549D01*
X153242029Y-107702748D01*
X153249221Y-107708042D01*
X153316929Y-107744998D01*
X153386974Y-107765928D01*
X153463884Y-107773932D01*
X153544693Y-107776096D01*
X153568325Y-107776186D01*
X154245000Y-107776186D01*
X154245000Y-107590806D01*
X153573087Y-107590806D01*
X153495498Y-107587766D01*
X153421406Y-107575417D01*
X153402362Y-107569190D01*
X153340395Y-107529004D01*
X153311870Y-107492254D01*
X153284319Y-107424286D01*
X153277798Y-107362927D01*
X153286759Y-107285381D01*
X153313643Y-107215454D01*
X153353635Y-107158496D01*
X153414379Y-107113094D01*
X153491868Y-107086609D01*
X153567084Y-107075427D01*
X153641964Y-107072400D01*
X154245000Y-107072400D01*
X154245000Y-106887020D01*
G37*
G36*
X154245000Y-108070376D02*
G01*
X152720924Y-108070376D01*
X152720924Y-108270411D01*
X154069145Y-108270411D01*
X154069145Y-109014131D01*
X154245000Y-109014131D01*
X154245000Y-108070376D01*
G37*
G36*
X153969026Y-109160321D02*
G01*
X154048817Y-109173545D01*
X154118949Y-109205659D01*
X154179420Y-109256664D01*
X154218369Y-109310405D01*
X154248885Y-109383290D01*
X154264187Y-109459121D01*
X154268447Y-109534002D01*
X154266157Y-109587720D01*
X154254136Y-109665034D01*
X154231810Y-109738433D01*
X154227028Y-109750414D01*
X154193457Y-109817334D01*
X154152270Y-109879673D01*
X154106514Y-109937002D01*
X154171970Y-109948052D01*
X154245000Y-109974005D01*
X154245000Y-110167812D01*
X154184372Y-110139910D01*
X154112742Y-110120551D01*
X154092535Y-110117803D01*
X154015870Y-110112537D01*
X153939980Y-110110212D01*
X153860365Y-110109113D01*
X153783747Y-110108827D01*
X153534986Y-110108827D01*
X153519760Y-110108791D01*
X153440969Y-110107074D01*
X153363161Y-110099668D01*
X153300960Y-110080474D01*
X153236032Y-110041782D01*
X153232912Y-110039172D01*
X153185015Y-109980899D01*
X153152868Y-109913189D01*
X153150816Y-109907665D01*
X153131282Y-109833399D01*
X153122166Y-109760255D01*
X153119528Y-109685676D01*
X153119676Y-109668132D01*
X153123987Y-109592479D01*
X153135780Y-109514741D01*
X153157264Y-109436915D01*
X153175156Y-109392514D01*
X153213006Y-109327573D01*
X153264242Y-109273150D01*
X153306640Y-109243906D01*
X153373899Y-109212668D01*
X153446325Y-109191817D01*
X153471238Y-109373168D01*
X153444448Y-109381182D01*
X153371928Y-109414186D01*
X153315900Y-109465491D01*
X153292716Y-109511108D01*
X153276229Y-109583511D01*
X153271936Y-109658565D01*
X153276892Y-109732017D01*
X153296408Y-109806914D01*
X153334584Y-109869958D01*
X153350629Y-109885050D01*
X153418190Y-109914980D01*
X153493220Y-109922348D01*
X153541580Y-109921615D01*
X153688126Y-109921615D01*
X153757002Y-109921615D01*
X153794329Y-109920882D01*
X153871798Y-109913136D01*
X153944581Y-109891573D01*
X153969491Y-109878241D01*
X154030199Y-109829394D01*
X154074640Y-109768841D01*
X154093055Y-109731299D01*
X154115255Y-109655440D01*
X154121901Y-109578332D01*
X154121117Y-109552119D01*
X154107736Y-109478078D01*
X154071709Y-109413834D01*
X154019100Y-109373600D01*
X153946046Y-109357780D01*
X153927821Y-109358682D01*
X153856287Y-109383426D01*
X153839585Y-109395823D01*
X153795104Y-109456699D01*
X153789946Y-109469647D01*
X153770575Y-109542279D01*
X153757369Y-109618632D01*
X153744288Y-109702127D01*
X153730050Y-109775981D01*
X153712362Y-109848578D01*
X153688126Y-109921615D01*
X153541580Y-109921615D01*
X153546211Y-109907872D01*
X153566059Y-109834588D01*
X153582340Y-109753730D01*
X153595533Y-109670846D01*
X153606060Y-109590788D01*
X153607759Y-109577221D01*
X153619010Y-109499641D01*
X153634270Y-109425924D01*
X153658195Y-109359501D01*
X153695819Y-109292201D01*
X153742897Y-109238804D01*
X153803531Y-109196580D01*
X153807735Y-109194326D01*
X153878798Y-109167994D01*
X153951908Y-109159944D01*
X153969026Y-109160321D01*
G37*
G36*
X154245000Y-110562020D02*
G01*
X154106880Y-110562020D01*
X154144747Y-110590888D01*
X154198866Y-110647661D01*
X154237522Y-110712394D01*
X154260716Y-110785085D01*
X154268447Y-110865736D01*
X154264681Y-110925275D01*
X154246757Y-111004033D01*
X154214071Y-111077425D01*
X154166625Y-111145453D01*
X154114207Y-111199494D01*
X154062877Y-111239600D01*
X153993016Y-111278756D01*
X153914139Y-111308122D01*
X153841521Y-111325116D01*
X153762642Y-111335313D01*
X153677501Y-111338712D01*
X153604515Y-111335492D01*
X153527535Y-111324512D01*
X153454019Y-111305739D01*
X153409650Y-111290104D01*
X153340442Y-111257672D01*
X153275233Y-111214515D01*
X153248653Y-111191549D01*
X153199105Y-111134104D01*
X153160561Y-111066137D01*
X153144573Y-111026199D01*
X153125299Y-110949330D01*
X153119528Y-110875261D01*
X153120163Y-110858775D01*
X153271936Y-110858775D01*
X153284058Y-110937443D01*
X153320422Y-111007712D01*
X153374518Y-111064305D01*
X153387783Y-111074598D01*
X153458420Y-111112697D01*
X153536244Y-111135274D01*
X153615948Y-111146314D01*
X153692889Y-111149302D01*
X153705953Y-111149215D01*
X153791692Y-111143760D01*
X153867439Y-111129821D01*
X153941771Y-111103500D01*
X154009794Y-111060642D01*
X154022659Y-111049430D01*
X154074537Y-110989510D01*
X154105664Y-110923149D01*
X154116039Y-110850348D01*
X154110977Y-110796471D01*
X154084403Y-110723819D01*
X154035050Y-110660961D01*
X153972058Y-110613311D01*
X153921042Y-110589909D01*
X153847227Y-110571575D01*
X153767016Y-110562381D01*
X153685561Y-110559822D01*
X153673083Y-110559908D01*
X153590925Y-110565363D01*
X153517848Y-110579303D01*
X153445451Y-110605624D01*
X153378182Y-110648482D01*
X153365316Y-110659693D01*
X153313438Y-110719614D01*
X153282312Y-110785974D01*
X153271936Y-110858775D01*
X153120163Y-110858775D01*
X153120823Y-110841622D01*
X153133911Y-110767563D01*
X153166128Y-110690523D01*
X153209420Y-110629763D01*
X153266807Y-110575209D01*
X152720924Y-110575209D01*
X152720924Y-110389829D01*
X154245000Y-110389829D01*
X154245000Y-110562020D01*
G37*
G36*
X154245000Y-111611287D02*
G01*
X154033974Y-111611287D01*
X154033974Y-111822679D01*
X154245000Y-111822679D01*
X154245000Y-111611287D01*
G37*
G36*
X154245000Y-112142149D02*
G01*
X153142976Y-112142149D01*
X153142976Y-112308845D01*
X153297581Y-112308845D01*
X153237071Y-112357819D01*
X153189080Y-112414340D01*
X153148914Y-112489822D01*
X153128049Y-112562697D01*
X153119702Y-112643119D01*
X153119528Y-112657257D01*
X153125454Y-112734968D01*
X153143231Y-112807358D01*
X153155432Y-112838974D01*
X153190875Y-112903678D01*
X153242029Y-112957877D01*
X153249221Y-112963171D01*
X153316929Y-113000127D01*
X153386974Y-113021057D01*
X153463884Y-113029061D01*
X153544693Y-113031225D01*
X153568325Y-113031315D01*
X154245000Y-113031315D01*
X154245000Y-112845935D01*
X153573087Y-112845935D01*
X153495498Y-112842895D01*
X153421406Y-112830546D01*
X153402362Y-112824319D01*
X153340395Y-112784134D01*
X153311870Y-112747383D01*
X153284319Y-112679415D01*
X153277798Y-112618056D01*
X153286759Y-112540510D01*
X153313643Y-112470583D01*
X153353635Y-112413625D01*
X153414379Y-112368223D01*
X153491868Y-112341738D01*
X153567084Y-112330556D01*
X153641964Y-112327529D01*
X154245000Y-112327529D01*
X154245000Y-112142149D01*
G37*
G36*
X153752381Y-113249439D02*
G01*
X153829771Y-113256995D01*
X153914943Y-113275130D01*
X153991716Y-113303157D01*
X154060091Y-113341076D01*
X154120069Y-113388886D01*
X154138037Y-113406860D01*
X154184984Y-113465434D01*
X154221499Y-113530989D01*
X154247581Y-113603524D01*
X154263230Y-113683041D01*
X154268447Y-113769539D01*
X154268086Y-113793088D01*
X154261144Y-113871339D01*
X154245366Y-113943104D01*
X154216515Y-114017178D01*
X154176123Y-114082780D01*
X154170280Y-114090376D01*
X154118279Y-114145702D01*
X154056936Y-114191366D01*
X153986250Y-114227367D01*
X153916737Y-114250942D01*
X153893290Y-114058967D01*
X153941227Y-114039096D01*
X154009294Y-113998344D01*
X154062916Y-113944661D01*
X154078220Y-113921382D01*
X154107272Y-113848493D01*
X154116039Y-113770638D01*
X154115674Y-113753687D01*
X154102902Y-113674210D01*
X154071882Y-113603534D01*
X154022616Y-113541660D01*
X153970570Y-113500948D01*
X153899701Y-113467299D01*
X153825758Y-113448191D01*
X153752606Y-113439811D01*
X153752606Y-114256071D01*
X153702048Y-114256803D01*
X153634745Y-114254628D01*
X153556075Y-114245791D01*
X153483470Y-114230156D01*
X153404348Y-114202421D01*
X153333959Y-114164897D01*
X153272302Y-114117585D01*
X153220383Y-114062682D01*
X153173387Y-113991466D01*
X153141012Y-113912535D01*
X153124899Y-113838742D01*
X153119677Y-113761479D01*
X153271936Y-113761479D01*
X153273688Y-113795923D01*
X153290438Y-113867436D01*
X153329851Y-113937174D01*
X153384043Y-113991189D01*
X153448100Y-114027992D01*
X153524741Y-114050594D01*
X153600198Y-114061165D01*
X153600198Y-113450069D01*
X153572700Y-113452535D01*
X153496540Y-113468084D01*
X153423067Y-113499704D01*
X153361329Y-113546423D01*
X153355829Y-113551912D01*
X153310434Y-113611175D01*
X153280666Y-113685537D01*
X153271936Y-113761479D01*
X153119677Y-113761479D01*
X153119528Y-113759281D01*
X153120127Y-113731264D01*
X153129100Y-113651180D01*
X153148840Y-113577047D01*
X153179349Y-113508865D01*
X153220625Y-113446633D01*
X153272669Y-113390352D01*
X153323557Y-113349401D01*
X153392628Y-113309421D01*
X153470432Y-113279437D01*
X153541939Y-113262084D01*
X153619511Y-113251673D01*
X153703147Y-113248203D01*
X153752381Y-113249439D01*
G37*
G36*
X154075006Y-114882920D02*
G01*
X154245000Y-114909665D01*
X154262585Y-114835476D01*
X154268447Y-114769713D01*
X154263126Y-114695054D01*
X154241968Y-114623750D01*
X154236207Y-114612909D01*
X154187578Y-114556180D01*
X154150844Y-114534508D01*
X154075705Y-114518467D01*
X153997080Y-114513229D01*
X153928461Y-114512159D01*
X153289521Y-114512159D01*
X153289521Y-114375872D01*
X153142976Y-114375872D01*
X153142976Y-114512159D01*
X152876995Y-114512159D01*
X152767819Y-114696441D01*
X153142976Y-114696441D01*
X153142976Y-114882920D01*
X153289521Y-114882920D01*
X153289521Y-114696441D01*
X153943482Y-114696441D01*
X154019528Y-114699799D01*
X154047896Y-114705966D01*
X154084898Y-114737840D01*
X154098454Y-114801587D01*
X154079197Y-114873614D01*
X154075006Y-114882920D01*
G37*
G36*
X127432875Y-116160000D02*
G01*
X127745115Y-115347159D01*
X127629637Y-115347159D01*
X127420174Y-115938227D01*
X127406645Y-115977523D01*
X127394414Y-116015397D01*
X127382347Y-116055812D01*
X127377969Y-116071486D01*
X127365673Y-116029842D01*
X127353627Y-115992363D01*
X127340655Y-115954884D01*
X127334591Y-115938227D01*
X127116922Y-115347159D01*
X127008087Y-115347159D01*
X127323454Y-116160000D01*
X127432875Y-116160000D01*
G37*
G36*
X126949078Y-115459706D02*
G01*
X126949078Y-115347159D01*
X126850209Y-115347159D01*
X126850209Y-115459706D01*
X126949078Y-115459706D01*
G37*
G36*
X126949078Y-116160000D02*
G01*
X126949078Y-115572254D01*
X126850209Y-115572254D01*
X126850209Y-116160000D01*
X126949078Y-116160000D01*
G37*
G36*
X126701123Y-116160000D02*
G01*
X126701123Y-115572254D01*
X126612219Y-115572254D01*
X126612219Y-115654710D01*
X126586099Y-115622438D01*
X126555954Y-115596843D01*
X126515697Y-115575421D01*
X126476831Y-115564292D01*
X126433939Y-115559841D01*
X126426399Y-115559748D01*
X126384953Y-115562909D01*
X126346345Y-115572389D01*
X126329483Y-115578897D01*
X126294974Y-115597800D01*
X126266068Y-115625082D01*
X126263244Y-115628918D01*
X126243535Y-115665028D01*
X126232372Y-115702386D01*
X126228103Y-115743405D01*
X126226949Y-115786503D01*
X126226901Y-115799106D01*
X126226901Y-116160000D01*
X126325771Y-116160000D01*
X126325771Y-115801646D01*
X126327392Y-115760266D01*
X126333978Y-115720750D01*
X126337299Y-115710593D01*
X126358731Y-115677544D01*
X126378332Y-115662330D01*
X126414581Y-115647637D01*
X126447306Y-115644159D01*
X126488664Y-115648938D01*
X126525958Y-115663276D01*
X126556336Y-115684605D01*
X126580550Y-115717002D01*
X126594675Y-115758329D01*
X126600639Y-115798445D01*
X126602254Y-115838381D01*
X126602254Y-116160000D01*
X126701123Y-116160000D01*
G37*
G36*
X127667543Y-117504000D02*
G01*
X127360383Y-117504000D01*
X127350854Y-117503946D01*
X127310296Y-117502383D01*
X127269690Y-117498109D01*
X127230446Y-117490322D01*
X127214276Y-117485672D01*
X127176343Y-117470634D01*
X127142128Y-117449680D01*
X127129337Y-117438771D01*
X127102591Y-117407121D01*
X127083119Y-117373085D01*
X127072690Y-117347770D01*
X127062633Y-117307918D01*
X127059328Y-117266400D01*
X127169678Y-117266400D01*
X127172745Y-117299520D01*
X127185701Y-117336937D01*
X127197644Y-117356185D01*
X127226343Y-117383441D01*
X127250241Y-117395703D01*
X127287892Y-117406302D01*
X127321119Y-117409462D01*
X127360383Y-117410210D01*
X127560858Y-117410210D01*
X127560858Y-117122590D01*
X127374647Y-117122590D01*
X127338414Y-117123469D01*
X127295971Y-117127550D01*
X127256824Y-117136658D01*
X127220286Y-117155709D01*
X127192735Y-117185116D01*
X127191317Y-117187289D01*
X127174745Y-117225281D01*
X127169678Y-117266400D01*
X127059328Y-117266400D01*
X127059281Y-117265814D01*
X127059434Y-117256901D01*
X127064804Y-117214605D01*
X127077844Y-117176087D01*
X127098555Y-117141348D01*
X127106216Y-117131727D01*
X127136044Y-117103578D01*
X127172475Y-117081459D01*
X127210907Y-117066707D01*
X127184370Y-117051650D01*
X127151296Y-117024987D01*
X127126301Y-116993434D01*
X127116739Y-116976156D01*
X127102808Y-116937305D01*
X127099566Y-116908829D01*
X127203286Y-116908829D01*
X127207213Y-116943199D01*
X127223803Y-116979366D01*
X127249399Y-117003351D01*
X127285157Y-117019422D01*
X127305596Y-117023955D01*
X127346362Y-117027885D01*
X127386762Y-117028801D01*
X127560858Y-117028801D01*
X127560858Y-116784949D01*
X127399853Y-116784949D01*
X127359663Y-116785657D01*
X127318390Y-116788534D01*
X127277341Y-116796281D01*
X127251029Y-116808650D01*
X127222435Y-116838096D01*
X127208691Y-116868819D01*
X127203286Y-116908829D01*
X127099566Y-116908829D01*
X127098164Y-116896519D01*
X127100668Y-116865785D01*
X127111796Y-116825962D01*
X127129818Y-116790615D01*
X127151968Y-116761459D01*
X127181798Y-116735381D01*
X127217355Y-116715584D01*
X127243466Y-116706067D01*
X127282177Y-116697265D01*
X127321439Y-116692686D01*
X127365268Y-116691159D01*
X127667543Y-116691159D01*
X127667543Y-117504000D01*
G37*
G36*
X126691917Y-116903827D02*
G01*
X126732266Y-116906126D01*
X126773726Y-116912416D01*
X126815233Y-116923874D01*
X126838914Y-116933416D01*
X126873549Y-116953603D01*
X126902575Y-116980929D01*
X126918171Y-117003541D01*
X126934832Y-117039413D01*
X126945952Y-117078040D01*
X126849232Y-117091327D01*
X126844958Y-117077039D01*
X126827355Y-117038361D01*
X126799993Y-117008480D01*
X126775664Y-116996115D01*
X126737049Y-116987322D01*
X126697020Y-116985032D01*
X126657846Y-116987675D01*
X126617900Y-116998084D01*
X126584277Y-117018445D01*
X126576228Y-117027002D01*
X126560265Y-117063034D01*
X126556336Y-117103050D01*
X126556727Y-117128842D01*
X126564056Y-117131312D01*
X126603141Y-117141898D01*
X126646265Y-117150581D01*
X126690470Y-117157617D01*
X126733168Y-117163232D01*
X126740403Y-117164138D01*
X126781780Y-117170138D01*
X126821095Y-117178277D01*
X126856521Y-117191037D01*
X126892414Y-117211103D01*
X126920893Y-117236212D01*
X126943412Y-117268549D01*
X126944614Y-117270792D01*
X126958658Y-117308692D01*
X126962951Y-117347684D01*
X126962750Y-117356813D01*
X126955697Y-117399369D01*
X126938570Y-117436772D01*
X126911367Y-117469024D01*
X126882705Y-117489797D01*
X126843834Y-117506072D01*
X126803390Y-117514233D01*
X126763454Y-117516505D01*
X126734804Y-117515284D01*
X126693570Y-117508872D01*
X126654424Y-117496965D01*
X126648034Y-117494414D01*
X126612343Y-117476510D01*
X126579095Y-117454544D01*
X126548520Y-117430140D01*
X126542627Y-117465050D01*
X126528785Y-117504000D01*
X126425422Y-117504000D01*
X126440302Y-117471665D01*
X126450628Y-117433462D01*
X126452093Y-117422685D01*
X126454902Y-117381797D01*
X126456141Y-117341323D01*
X126456728Y-117298861D01*
X126456880Y-117257998D01*
X126456880Y-117207000D01*
X126556727Y-117207000D01*
X126556727Y-117243734D01*
X126557118Y-117263642D01*
X126561249Y-117304959D01*
X126572749Y-117343776D01*
X126579860Y-117357062D01*
X126605911Y-117389439D01*
X126638206Y-117413141D01*
X126658228Y-117422963D01*
X126698687Y-117434802D01*
X126739811Y-117438347D01*
X126753791Y-117437929D01*
X126793279Y-117430792D01*
X126827543Y-117411578D01*
X126849001Y-117383520D01*
X126857438Y-117344558D01*
X126856958Y-117334838D01*
X126843761Y-117296686D01*
X126837149Y-117287778D01*
X126804682Y-117264055D01*
X126797776Y-117261305D01*
X126759039Y-117250973D01*
X126718318Y-117243930D01*
X126673787Y-117236953D01*
X126634398Y-117229360D01*
X126595680Y-117219926D01*
X126556727Y-117207000D01*
X126456880Y-117207000D01*
X126456880Y-117125325D01*
X126456899Y-117117205D01*
X126457815Y-117075183D01*
X126461765Y-117033685D01*
X126472002Y-117000512D01*
X126492637Y-116965884D01*
X126494029Y-116964220D01*
X126525109Y-116938674D01*
X126561221Y-116921529D01*
X126564167Y-116920435D01*
X126603775Y-116910017D01*
X126642785Y-116905155D01*
X126682561Y-116903748D01*
X126691917Y-116903827D01*
G37*
G36*
X126090516Y-117413337D02*
G01*
X126076252Y-117504000D01*
X126115819Y-117513378D01*
X126150893Y-117516505D01*
X126190711Y-117513667D01*
X126228740Y-117502383D01*
X126234521Y-117499310D01*
X126264777Y-117473375D01*
X126276336Y-117453783D01*
X126284891Y-117413709D01*
X126287685Y-117371776D01*
X126288255Y-117335179D01*
X126288255Y-116994411D01*
X126360942Y-116994411D01*
X126360942Y-116916254D01*
X126288255Y-116916254D01*
X126288255Y-116774397D01*
X126189972Y-116716170D01*
X126189972Y-116916254D01*
X126090516Y-116916254D01*
X126090516Y-116994411D01*
X126189972Y-116994411D01*
X126189972Y-117343190D01*
X126188181Y-117383748D01*
X126184891Y-117398877D01*
X126167892Y-117418612D01*
X126133893Y-117425842D01*
X126095479Y-117415571D01*
X126090516Y-117413337D01*
G37*
G36*
X125779448Y-117413337D02*
G01*
X125765184Y-117504000D01*
X125804752Y-117513378D01*
X125839825Y-117516505D01*
X125879643Y-117513667D01*
X125917672Y-117502383D01*
X125923454Y-117499310D01*
X125953709Y-117473375D01*
X125965268Y-117453783D01*
X125973823Y-117413709D01*
X125976617Y-117371776D01*
X125977187Y-117335179D01*
X125977187Y-116994411D01*
X126049874Y-116994411D01*
X126049874Y-116916254D01*
X125977187Y-116916254D01*
X125977187Y-116774397D01*
X125878904Y-116716170D01*
X125878904Y-116916254D01*
X125779448Y-116916254D01*
X125779448Y-116994411D01*
X125878904Y-116994411D01*
X125878904Y-117343190D01*
X125877113Y-117383748D01*
X125873824Y-117398877D01*
X125856824Y-117418612D01*
X125822826Y-117425842D01*
X125784411Y-117415571D01*
X125779448Y-117413337D01*
G37*
G36*
X127698834Y-108902192D02*
G01*
X127599965Y-108888905D01*
X127589975Y-108927532D01*
X127575175Y-108964069D01*
X127551965Y-108998775D01*
X127542128Y-109008682D01*
X127508853Y-109030948D01*
X127470577Y-109042937D01*
X127442281Y-109045221D01*
X127400699Y-109040489D01*
X127363391Y-109026292D01*
X127330357Y-109002631D01*
X127324263Y-108996763D01*
X127298915Y-108964225D01*
X127282956Y-108927184D01*
X127276384Y-108885640D01*
X127276196Y-108876791D01*
X127280547Y-108836517D01*
X127295382Y-108797638D01*
X127320746Y-108764439D01*
X127354214Y-108739187D01*
X127393362Y-108724416D01*
X127433879Y-108720085D01*
X127474393Y-108724359D01*
X127503831Y-108731027D01*
X127492693Y-108637824D01*
X127476866Y-108638801D01*
X127434866Y-108634968D01*
X127395913Y-108623470D01*
X127363147Y-108606365D01*
X127334334Y-108579910D01*
X127316543Y-108541570D01*
X127312540Y-108506323D01*
X127318634Y-108465855D01*
X127338830Y-108429054D01*
X127349469Y-108417614D01*
X127382863Y-108394842D01*
X127423351Y-108383680D01*
X127444431Y-108382443D01*
X127484969Y-108387499D01*
X127522808Y-108404387D01*
X127540565Y-108418396D01*
X127565560Y-108450416D01*
X127581665Y-108488651D01*
X127589999Y-108526254D01*
X127688869Y-108508668D01*
X127678788Y-108467544D01*
X127664276Y-108430684D01*
X127642264Y-108393779D01*
X127614463Y-108362443D01*
X127606608Y-108355479D01*
X127572499Y-108331714D01*
X127534459Y-108314739D01*
X127492486Y-108304554D01*
X127452533Y-108301212D01*
X127446580Y-108301159D01*
X127406436Y-108303907D01*
X127364615Y-108313277D01*
X127325240Y-108329296D01*
X127290183Y-108351088D01*
X127261314Y-108377774D01*
X127240439Y-108406281D01*
X127222460Y-108443623D01*
X127212779Y-108482668D01*
X127210935Y-108509645D01*
X127215546Y-108550359D01*
X127229380Y-108588042D01*
X127238876Y-108604411D01*
X127266061Y-108636150D01*
X127299111Y-108660353D01*
X127321919Y-108672213D01*
X127284227Y-108684384D01*
X127248292Y-108704541D01*
X127218617Y-108731683D01*
X127210935Y-108741187D01*
X127190017Y-108776492D01*
X127176847Y-108816948D01*
X127171618Y-108857764D01*
X127171270Y-108872297D01*
X127174953Y-108917258D01*
X127186005Y-108959134D01*
X127204424Y-108997924D01*
X127230211Y-109033628D01*
X127248255Y-109052646D01*
X127278546Y-109077746D01*
X127317481Y-109100467D01*
X127360286Y-109116118D01*
X127400057Y-109123908D01*
X127442672Y-109126505D01*
X127487370Y-109123522D01*
X127528627Y-109114574D01*
X127566444Y-109099661D01*
X127600819Y-109078783D01*
X127618918Y-109064174D01*
X127646651Y-109035052D01*
X127668643Y-109002395D01*
X127684895Y-108966204D01*
X127695406Y-108926479D01*
X127698834Y-108902192D01*
G37*
G36*
X126806078Y-109114000D02*
G01*
X127118318Y-108301159D01*
X127002840Y-108301159D01*
X126793377Y-108892227D01*
X126779848Y-108931523D01*
X126767617Y-108969397D01*
X126755550Y-109009812D01*
X126751172Y-109025486D01*
X126738876Y-108983842D01*
X126726830Y-108946363D01*
X126713858Y-108908884D01*
X126707794Y-108892227D01*
X126490125Y-108301159D01*
X126381290Y-108301159D01*
X126696657Y-109114000D01*
X126806078Y-109114000D01*
G37*
G36*
X126329511Y-108902192D02*
G01*
X126230641Y-108888905D01*
X126220652Y-108927532D01*
X126205852Y-108964069D01*
X126182642Y-108998775D01*
X126172805Y-109008682D01*
X126139530Y-109030948D01*
X126101254Y-109042937D01*
X126072958Y-109045221D01*
X126031376Y-109040489D01*
X125994068Y-109026292D01*
X125961034Y-109002631D01*
X125954940Y-108996763D01*
X125929592Y-108964225D01*
X125913633Y-108927184D01*
X125907061Y-108885640D01*
X125906873Y-108876791D01*
X125911224Y-108836517D01*
X125926059Y-108797638D01*
X125951423Y-108764439D01*
X125984891Y-108739187D01*
X126024039Y-108724416D01*
X126064556Y-108720085D01*
X126105070Y-108724359D01*
X126134507Y-108731027D01*
X126123370Y-108637824D01*
X126107543Y-108638801D01*
X126065543Y-108634968D01*
X126026590Y-108623470D01*
X125993824Y-108606365D01*
X125965011Y-108579910D01*
X125947220Y-108541570D01*
X125943216Y-108506323D01*
X125949311Y-108465855D01*
X125969507Y-108429054D01*
X125980146Y-108417614D01*
X126013540Y-108394842D01*
X126054028Y-108383680D01*
X126075108Y-108382443D01*
X126115646Y-108387499D01*
X126153485Y-108404387D01*
X126171242Y-108418396D01*
X126196237Y-108450416D01*
X126212342Y-108488651D01*
X126220676Y-108526254D01*
X126319546Y-108508668D01*
X126309465Y-108467544D01*
X126294953Y-108430684D01*
X126272941Y-108393779D01*
X126245140Y-108362443D01*
X126237285Y-108355479D01*
X126203176Y-108331714D01*
X126165136Y-108314739D01*
X126123162Y-108304554D01*
X126083210Y-108301212D01*
X126077257Y-108301159D01*
X126037113Y-108303907D01*
X125995292Y-108313277D01*
X125955917Y-108329296D01*
X125920860Y-108351088D01*
X125891991Y-108377774D01*
X125871116Y-108406281D01*
X125853137Y-108443623D01*
X125843456Y-108482668D01*
X125841611Y-108509645D01*
X125846223Y-108550359D01*
X125860057Y-108588042D01*
X125869553Y-108604411D01*
X125896738Y-108636150D01*
X125929788Y-108660353D01*
X125952595Y-108672213D01*
X125914903Y-108684384D01*
X125878969Y-108704541D01*
X125849294Y-108731683D01*
X125841611Y-108741187D01*
X125820694Y-108776492D01*
X125807524Y-108816948D01*
X125802295Y-108857764D01*
X125801946Y-108872297D01*
X125805630Y-108917258D01*
X125816682Y-108959134D01*
X125835101Y-108997924D01*
X125860888Y-109033628D01*
X125878932Y-109052646D01*
X125909223Y-109077746D01*
X125948158Y-109100467D01*
X125990963Y-109116118D01*
X126030734Y-109123908D01*
X126073349Y-109126505D01*
X126118047Y-109123522D01*
X126159304Y-109114574D01*
X126197121Y-109099661D01*
X126231496Y-109078783D01*
X126249595Y-109064174D01*
X126277328Y-109035052D01*
X126299320Y-109002395D01*
X126315572Y-108966204D01*
X126326082Y-108926479D01*
X126329511Y-108902192D01*
G37*
D11*
G36*
X127536133Y-111263116D02*
G01*
X127536133Y-111169327D01*
X127194975Y-111168741D01*
X127194975Y-111469452D01*
X127229583Y-111495245D01*
X127264677Y-111518083D01*
X127300258Y-111537966D01*
X127336325Y-111554895D01*
X127357152Y-111563242D01*
X127399150Y-111576919D01*
X127441709Y-111586689D01*
X127484830Y-111592551D01*
X127528513Y-111594505D01*
X127572234Y-111592712D01*
X127614444Y-111587333D01*
X127655142Y-111578369D01*
X127694330Y-111565818D01*
X127732006Y-111549682D01*
X127744228Y-111543507D01*
X127778902Y-111522709D01*
X127810238Y-111498710D01*
X127842577Y-111466665D01*
X127866679Y-111435730D01*
X127887443Y-111401594D01*
X127890579Y-111395593D01*
X127907379Y-111358526D01*
X127920703Y-111319866D01*
X127930551Y-111279612D01*
X127936924Y-111237764D01*
X127939820Y-111194322D01*
X127940013Y-111179487D01*
X127938289Y-111135707D01*
X127933117Y-111093025D01*
X127924496Y-111051443D01*
X127912426Y-111010960D01*
X127896908Y-110971576D01*
X127890969Y-110958692D01*
X127870993Y-110922085D01*
X127847995Y-110889202D01*
X127821974Y-110860041D01*
X127787796Y-110830727D01*
X127749504Y-110806480D01*
X127713864Y-110789547D01*
X127676259Y-110776117D01*
X127636689Y-110766191D01*
X127595155Y-110759768D01*
X127551656Y-110756849D01*
X127536720Y-110756654D01*
X127494099Y-110758400D01*
X127453579Y-110763639D01*
X127415160Y-110772371D01*
X127378841Y-110784595D01*
X127341481Y-110802059D01*
X127305661Y-110825560D01*
X127275833Y-110853373D01*
X127268053Y-110862558D01*
X127244804Y-110896778D01*
X127227143Y-110932635D01*
X127212573Y-110973282D01*
X127207090Y-110992886D01*
X127303224Y-111019264D01*
X127316756Y-110980580D01*
X127333888Y-110945437D01*
X127348360Y-110923912D01*
X127376233Y-110896134D01*
X127410086Y-110875096D01*
X127425150Y-110868224D01*
X127464204Y-110855484D01*
X127506336Y-110848624D01*
X127536133Y-110847317D01*
X127575679Y-110849110D01*
X127615956Y-110855308D01*
X127655809Y-110867238D01*
X127662554Y-110869983D01*
X127699675Y-110888988D01*
X127733379Y-110914104D01*
X127748722Y-110929578D01*
X127772816Y-110960650D01*
X127793354Y-110996853D01*
X127799330Y-111010471D01*
X127812836Y-111049281D01*
X127822484Y-111089704D01*
X127828272Y-111131738D01*
X127830202Y-111175384D01*
X127828897Y-111215167D01*
X127824075Y-111258419D01*
X127815700Y-111298269D01*
X127801778Y-111339643D01*
X127793077Y-111358664D01*
X127772414Y-111393127D01*
X127744147Y-111426233D01*
X127710563Y-111453343D01*
X127685219Y-111468085D01*
X127649206Y-111483728D01*
X127607377Y-111495985D01*
X127564157Y-111502585D01*
X127534570Y-111503842D01*
X127491561Y-111501209D01*
X127449238Y-111493309D01*
X127411735Y-111481696D01*
X127399357Y-111476877D01*
X127361210Y-111459681D01*
X127326476Y-111439972D01*
X127299316Y-111419431D01*
X127299316Y-111263116D01*
X127536133Y-111263116D01*
G37*
G36*
X127043545Y-111582000D02*
G01*
X127043545Y-110769159D01*
X126934319Y-110769159D01*
X126511095Y-111407317D01*
X126511095Y-110769159D01*
X126408904Y-110769159D01*
X126408904Y-111582000D01*
X126518129Y-111582000D01*
X126941353Y-110943256D01*
X126941353Y-111582000D01*
X127043545Y-111582000D01*
G37*
G36*
X126234417Y-111582000D02*
G01*
X125943670Y-111582000D01*
X125934601Y-111581945D01*
X125895415Y-111580360D01*
X125854993Y-111576025D01*
X125814319Y-111568127D01*
X125790409Y-111561440D01*
X125753117Y-111547106D01*
X125717990Y-111527484D01*
X125700859Y-111514734D01*
X125670683Y-111485994D01*
X125644717Y-111453625D01*
X125640564Y-111447667D01*
X125619442Y-111411460D01*
X125602765Y-111373496D01*
X125589811Y-111335217D01*
X125579421Y-111293320D01*
X125573040Y-111253277D01*
X125569346Y-111210595D01*
X125568318Y-111171085D01*
X125568347Y-111169522D01*
X125678129Y-111169522D01*
X125678878Y-111203285D01*
X125682206Y-111245289D01*
X125689132Y-111288426D01*
X125699427Y-111327205D01*
X125712627Y-111361703D01*
X125732370Y-111398158D01*
X125758436Y-111430764D01*
X125761879Y-111434136D01*
X125794583Y-111457644D01*
X125830732Y-111473165D01*
X125833599Y-111474091D01*
X125873240Y-111482906D01*
X125913662Y-111487020D01*
X125955785Y-111488210D01*
X126127732Y-111488210D01*
X126127732Y-110862949D01*
X125958520Y-110862949D01*
X125941138Y-110863096D01*
X125899287Y-110864934D01*
X125860029Y-110869513D01*
X125820572Y-110879752D01*
X125806003Y-110886326D01*
X125772038Y-110908983D01*
X125744471Y-110936977D01*
X125719748Y-110972174D01*
X125705604Y-111000068D01*
X125692802Y-111037925D01*
X125683982Y-111081503D01*
X125679592Y-111123411D01*
X125678129Y-111169522D01*
X125568347Y-111169522D01*
X125568812Y-111144304D01*
X125572058Y-111099259D01*
X125578333Y-111056532D01*
X125587638Y-111016125D01*
X125599972Y-110978036D01*
X125617728Y-110937626D01*
X125639539Y-110901002D01*
X125665404Y-110868163D01*
X125695324Y-110839110D01*
X125701509Y-110833937D01*
X125734818Y-110811139D01*
X125772096Y-110793454D01*
X125813342Y-110780883D01*
X125829878Y-110777506D01*
X125869476Y-110772468D01*
X125912554Y-110769892D01*
X125956762Y-110769159D01*
X126234417Y-110769159D01*
X126234417Y-111582000D01*
G37*
D10*
G36*
X127203300Y-113869411D02*
G01*
X127099351Y-113860618D01*
X127090455Y-113900389D01*
X127074915Y-113937583D01*
X127050945Y-113969989D01*
X127045812Y-113974923D01*
X127011860Y-113998261D01*
X126973016Y-114010827D01*
X126944403Y-114013221D01*
X126901966Y-114007840D01*
X126863803Y-113991697D01*
X126829914Y-113964792D01*
X126823649Y-113958120D01*
X126799658Y-113924297D01*
X126783519Y-113884817D01*
X126775764Y-113844975D01*
X126774019Y-113812160D01*
X126776999Y-113771164D01*
X126787475Y-113730503D01*
X126805493Y-113695622D01*
X126821695Y-113675579D01*
X126854252Y-113649201D01*
X126892571Y-113632593D01*
X126931986Y-113625998D01*
X126946161Y-113625558D01*
X126986120Y-113629897D01*
X127025032Y-113644174D01*
X127032330Y-113648224D01*
X127064811Y-113672295D01*
X127090078Y-113702377D01*
X127092903Y-113706842D01*
X127185715Y-113694728D01*
X127107752Y-113281665D01*
X126706999Y-113281665D01*
X126706999Y-113375454D01*
X127028618Y-113375454D01*
X127071995Y-113591951D01*
X127035225Y-113571092D01*
X126997599Y-113556193D01*
X126959118Y-113547254D01*
X126919783Y-113544274D01*
X126875201Y-113547790D01*
X126833780Y-113558337D01*
X126795519Y-113575915D01*
X126760418Y-113600524D01*
X126741779Y-113617743D01*
X126713457Y-113651819D01*
X126692091Y-113689935D01*
X126677681Y-113732090D01*
X126670867Y-113771437D01*
X126669092Y-113806494D01*
X126671332Y-113846622D01*
X126679605Y-113890782D01*
X126693975Y-113932080D01*
X126714440Y-113970518D01*
X126732791Y-113996221D01*
X126763865Y-114029622D01*
X126798910Y-114056113D01*
X126837926Y-114075693D01*
X126880912Y-114088362D01*
X126919767Y-114093641D01*
X126944403Y-114094505D01*
X126984234Y-114092341D01*
X127027108Y-114084347D01*
X127066112Y-114070462D01*
X127101245Y-114050687D01*
X127123970Y-114032956D01*
X127151475Y-114004026D01*
X127173295Y-113971262D01*
X127189430Y-113934665D01*
X127199881Y-113894235D01*
X127203300Y-113869411D01*
G37*
G36*
X126309958Y-114082000D02*
G01*
X126622198Y-113269159D01*
X126506720Y-113269159D01*
X126297257Y-113860227D01*
X126283728Y-113899523D01*
X126271497Y-113937397D01*
X126259430Y-113977812D01*
X126255052Y-113993486D01*
X126242756Y-113951842D01*
X126230710Y-113914363D01*
X126217738Y-113876884D01*
X126211674Y-113860227D01*
X125994005Y-113269159D01*
X125885170Y-113269159D01*
X126200537Y-114082000D01*
X126309958Y-114082000D01*
G37*
G36*
X127163244Y-101582000D02*
G01*
X126872498Y-101582000D01*
X126863429Y-101581945D01*
X126824243Y-101580360D01*
X126783820Y-101576025D01*
X126743147Y-101568127D01*
X126719236Y-101561440D01*
X126681945Y-101547106D01*
X126646817Y-101527484D01*
X126629687Y-101514734D01*
X126599511Y-101485994D01*
X126573545Y-101453625D01*
X126569392Y-101447667D01*
X126548270Y-101411460D01*
X126531593Y-101373496D01*
X126518639Y-101335217D01*
X126508249Y-101293320D01*
X126501868Y-101253277D01*
X126498174Y-101210595D01*
X126497145Y-101171085D01*
X126497174Y-101169522D01*
X126606957Y-101169522D01*
X126607706Y-101203285D01*
X126611033Y-101245289D01*
X126617959Y-101288426D01*
X126628255Y-101327205D01*
X126641454Y-101361703D01*
X126661197Y-101398158D01*
X126687264Y-101430764D01*
X126690706Y-101434136D01*
X126723410Y-101457644D01*
X126759560Y-101473165D01*
X126762427Y-101474091D01*
X126802067Y-101482906D01*
X126842489Y-101487020D01*
X126884612Y-101488210D01*
X127056559Y-101488210D01*
X127056559Y-100862949D01*
X126887348Y-100862949D01*
X126869966Y-100863096D01*
X126828115Y-100864934D01*
X126788857Y-100869513D01*
X126749399Y-100879752D01*
X126734830Y-100886326D01*
X126700865Y-100908983D01*
X126673299Y-100936977D01*
X126648576Y-100972174D01*
X126634432Y-101000068D01*
X126621629Y-101037925D01*
X126612810Y-101081503D01*
X126608420Y-101123411D01*
X126606957Y-101169522D01*
X126497174Y-101169522D01*
X126497640Y-101144304D01*
X126500886Y-101099259D01*
X126507161Y-101056532D01*
X126516465Y-101016125D01*
X126528799Y-100978036D01*
X126546556Y-100937626D01*
X126568367Y-100901002D01*
X126594232Y-100868163D01*
X126624152Y-100839110D01*
X126630337Y-100833937D01*
X126663646Y-100811139D01*
X126700923Y-100793454D01*
X126742170Y-100780883D01*
X126758706Y-100777506D01*
X126798304Y-100772468D01*
X126841381Y-100769892D01*
X126885589Y-100769159D01*
X127163244Y-100769159D01*
X127163244Y-101582000D01*
G37*
G36*
X126145493Y-100769396D02*
G01*
X126188269Y-100773951D01*
X126227062Y-100784302D01*
X126266519Y-100803231D01*
X126300774Y-100829732D01*
X126328386Y-100861703D01*
X126348108Y-100897240D01*
X126359942Y-100936344D01*
X126363886Y-100979013D01*
X126362465Y-101003949D01*
X126353416Y-101042999D01*
X126334187Y-101080032D01*
X126314961Y-101102226D01*
X126281489Y-101127011D01*
X126242937Y-101144903D01*
X126256452Y-101148790D01*
X126293432Y-101164018D01*
X126328248Y-101187209D01*
X126356461Y-101217003D01*
X126365804Y-101230638D01*
X126383710Y-101268198D01*
X126393169Y-101306244D01*
X126396322Y-101348308D01*
X126395180Y-101374094D01*
X126387687Y-101416604D01*
X126373200Y-101455785D01*
X126351719Y-101491638D01*
X126323244Y-101524163D01*
X126294153Y-101548068D01*
X126256132Y-101569706D01*
X126213717Y-101584613D01*
X126173863Y-101592032D01*
X126130781Y-101594505D01*
X126094660Y-101592792D01*
X126054287Y-101586216D01*
X126011282Y-101572310D01*
X125972691Y-101551691D01*
X125938513Y-101524358D01*
X125921386Y-101506306D01*
X125896907Y-101472230D01*
X125879423Y-101434995D01*
X125868933Y-101394599D01*
X125865530Y-101352216D01*
X125966454Y-101352216D01*
X125966500Y-101356576D01*
X125971926Y-101397532D01*
X125988342Y-101437031D01*
X126012763Y-101467889D01*
X126015669Y-101470678D01*
X126050810Y-101495513D01*
X126087805Y-101508794D01*
X126129609Y-101513221D01*
X126135300Y-101513137D01*
X126176479Y-101507155D01*
X126214996Y-101491727D01*
X126219854Y-101488947D01*
X126251473Y-101463665D01*
X126274591Y-101430569D01*
X126275817Y-101428100D01*
X126289539Y-101390464D01*
X126294521Y-101349090D01*
X126294477Y-101344801D01*
X126289119Y-101304394D01*
X126272911Y-101265148D01*
X126248799Y-101234198D01*
X126242966Y-101228614D01*
X126210981Y-101206098D01*
X126174303Y-101192588D01*
X126132930Y-101188085D01*
X126124109Y-101188266D01*
X126082793Y-101194624D01*
X126046134Y-101210065D01*
X126014131Y-101234588D01*
X126008357Y-101240498D01*
X125985078Y-101272928D01*
X125971110Y-101310168D01*
X125966454Y-101352216D01*
X125865530Y-101352216D01*
X125865436Y-101351043D01*
X125865776Y-101337232D01*
X125870876Y-101298003D01*
X125883722Y-101258295D01*
X125904124Y-101222669D01*
X125914351Y-101209700D01*
X125944783Y-101181337D01*
X125978109Y-101160771D01*
X126017062Y-101144903D01*
X125992286Y-101134070D01*
X125956643Y-101111236D01*
X125927766Y-101080422D01*
X125916270Y-101061342D01*
X125902411Y-101022186D01*
X125898262Y-100981748D01*
X125898354Y-100980771D01*
X126000062Y-100980771D01*
X126001347Y-101000051D01*
X126012944Y-101037865D01*
X126036601Y-101070262D01*
X126053568Y-101084499D01*
X126090289Y-101101662D01*
X126130195Y-101106801D01*
X126154879Y-101105043D01*
X126192321Y-101093850D01*
X126225938Y-101070066D01*
X126240251Y-101052976D01*
X126257506Y-101015829D01*
X126262672Y-100975300D01*
X126261761Y-100959599D01*
X126249515Y-100919443D01*
X126225352Y-100887177D01*
X126208099Y-100872864D01*
X126171145Y-100855609D01*
X126131367Y-100850443D01*
X126110991Y-100851769D01*
X126071318Y-100863738D01*
X126037773Y-100888154D01*
X126023079Y-100905409D01*
X126005365Y-100941918D01*
X126000062Y-100980771D01*
X125898354Y-100980771D01*
X125902292Y-100938994D01*
X125914382Y-100899634D01*
X125934532Y-100863669D01*
X125962742Y-100831099D01*
X125975158Y-100820030D01*
X126011809Y-100795835D01*
X126048107Y-100781015D01*
X126088351Y-100772123D01*
X126132540Y-100769159D01*
X126145493Y-100769396D01*
G37*
G36*
X127798834Y-106286500D02*
G01*
X127508088Y-106286500D01*
X127499019Y-106286445D01*
X127459833Y-106284860D01*
X127419410Y-106280525D01*
X127378737Y-106272627D01*
X127354826Y-106265940D01*
X127317535Y-106251606D01*
X127282407Y-106231984D01*
X127265277Y-106219234D01*
X127235101Y-106190494D01*
X127209135Y-106158125D01*
X127204982Y-106152167D01*
X127183860Y-106115960D01*
X127167183Y-106077996D01*
X127154229Y-106039717D01*
X127143839Y-105997820D01*
X127137458Y-105957777D01*
X127133764Y-105915095D01*
X127132735Y-105875585D01*
X127132764Y-105874022D01*
X127242547Y-105874022D01*
X127243296Y-105907785D01*
X127246623Y-105949789D01*
X127253549Y-105992926D01*
X127263845Y-106031705D01*
X127277044Y-106066203D01*
X127296787Y-106102658D01*
X127322854Y-106135264D01*
X127326296Y-106138636D01*
X127359000Y-106162144D01*
X127395150Y-106177665D01*
X127398017Y-106178591D01*
X127437657Y-106187406D01*
X127478079Y-106191520D01*
X127520202Y-106192710D01*
X127692149Y-106192710D01*
X127692149Y-105567449D01*
X127522938Y-105567449D01*
X127505556Y-105567596D01*
X127463705Y-105569434D01*
X127424447Y-105574013D01*
X127384989Y-105584252D01*
X127370420Y-105590826D01*
X127336455Y-105613483D01*
X127308889Y-105641477D01*
X127284166Y-105676674D01*
X127270022Y-105704568D01*
X127257219Y-105742425D01*
X127248400Y-105786003D01*
X127244010Y-105827911D01*
X127242547Y-105874022D01*
X127132764Y-105874022D01*
X127133230Y-105848804D01*
X127136476Y-105803759D01*
X127142751Y-105761032D01*
X127152055Y-105720625D01*
X127164389Y-105682536D01*
X127182146Y-105642126D01*
X127203957Y-105605502D01*
X127229822Y-105572663D01*
X127259742Y-105543610D01*
X127265927Y-105538437D01*
X127299236Y-105515639D01*
X127336513Y-105497954D01*
X127377760Y-105485383D01*
X127394296Y-105482006D01*
X127433894Y-105476968D01*
X127476971Y-105474392D01*
X127521179Y-105473659D01*
X127798834Y-105473659D01*
X127798834Y-106286500D01*
G37*
G36*
X126658123Y-106286500D02*
G01*
X126756992Y-106286500D01*
X126756992Y-105653031D01*
X126786942Y-105678970D01*
X126819900Y-105702747D01*
X126850781Y-105722201D01*
X126885887Y-105742015D01*
X126921815Y-105759932D01*
X126954927Y-105773785D01*
X126954927Y-105673743D01*
X126919596Y-105656041D01*
X126881668Y-105633910D01*
X126846354Y-105609751D01*
X126813652Y-105583565D01*
X126809749Y-105580149D01*
X126780952Y-105552904D01*
X126753987Y-105522749D01*
X126730768Y-105489860D01*
X126721821Y-105473659D01*
X126658123Y-105473659D01*
X126658123Y-106286500D01*
G37*
G36*
X126177134Y-105475329D02*
G01*
X126216427Y-105482747D01*
X126256164Y-105498188D01*
X126291172Y-105521140D01*
X126318320Y-105547299D01*
X126341926Y-105578488D01*
X126361990Y-105614710D01*
X126378513Y-105655962D01*
X126383751Y-105672830D01*
X126393969Y-105716008D01*
X126400495Y-105757274D01*
X126404960Y-105802470D01*
X126407107Y-105843134D01*
X126407823Y-105886527D01*
X126407122Y-105928129D01*
X126405020Y-105967498D01*
X126400037Y-106016518D01*
X126392564Y-106061569D01*
X126382598Y-106102650D01*
X126370142Y-106139763D01*
X126351068Y-106180573D01*
X126328102Y-106215181D01*
X126301430Y-106243668D01*
X126265869Y-106269453D01*
X126225520Y-106287217D01*
X126187125Y-106296058D01*
X126145213Y-106299005D01*
X126113092Y-106297329D01*
X126073598Y-106289879D01*
X126033721Y-106274375D01*
X125998667Y-106251329D01*
X125971458Y-106225011D01*
X125947864Y-106193736D01*
X125927885Y-106157503D01*
X125911521Y-106116311D01*
X125906318Y-106099417D01*
X125896168Y-106056258D01*
X125889686Y-106015097D01*
X125885251Y-105970089D01*
X125883118Y-105929644D01*
X125882407Y-105886527D01*
X125882408Y-105886332D01*
X125984012Y-105886332D01*
X125984058Y-105898634D01*
X125985148Y-105945253D01*
X125987691Y-105987725D01*
X125992914Y-106034985D01*
X126000407Y-106075767D01*
X126012396Y-106116154D01*
X126030516Y-106151482D01*
X126039426Y-106163320D01*
X126068444Y-106191846D01*
X126104710Y-106211252D01*
X126145213Y-106217721D01*
X126157773Y-106217140D01*
X126196913Y-106206821D01*
X126231855Y-106183603D01*
X126259714Y-106151677D01*
X126265345Y-106142901D01*
X126282194Y-106103987D01*
X126293093Y-106060481D01*
X126299678Y-106017069D01*
X126303311Y-105977654D01*
X126305491Y-105934075D01*
X126306218Y-105886332D01*
X126306168Y-105873998D01*
X126304968Y-105827108D01*
X126302168Y-105784132D01*
X126296419Y-105735916D01*
X126288170Y-105693815D01*
X126274972Y-105651368D01*
X126255024Y-105612975D01*
X126252457Y-105609405D01*
X126223827Y-105579936D01*
X126186120Y-105560611D01*
X126146190Y-105554943D01*
X126133420Y-105555522D01*
X126093730Y-105565811D01*
X126058468Y-105588960D01*
X126030516Y-105620791D01*
X126024885Y-105629522D01*
X126008036Y-105668339D01*
X125997137Y-105711836D01*
X125990552Y-105755293D01*
X125986919Y-105794778D01*
X125984739Y-105838457D01*
X125984012Y-105886332D01*
X125882408Y-105886332D01*
X125882567Y-105864430D01*
X125883845Y-105822844D01*
X125886950Y-105778719D01*
X125892629Y-105734083D01*
X125900579Y-105695627D01*
X125902904Y-105686846D01*
X125914688Y-105649427D01*
X125930320Y-105611875D01*
X125950600Y-105575460D01*
X125967599Y-105552196D01*
X125997128Y-105522749D01*
X126031493Y-105499842D01*
X126063588Y-105486035D01*
X126102507Y-105476753D01*
X126145213Y-105473659D01*
X126177134Y-105475329D01*
G37*
G36*
X127163244Y-99082000D02*
G01*
X126872498Y-99082000D01*
X126863429Y-99081945D01*
X126824243Y-99080360D01*
X126783820Y-99076025D01*
X126743147Y-99068127D01*
X126719236Y-99061440D01*
X126681945Y-99047106D01*
X126646817Y-99027484D01*
X126629687Y-99014734D01*
X126599511Y-98985994D01*
X126573545Y-98953625D01*
X126569392Y-98947667D01*
X126548270Y-98911460D01*
X126531593Y-98873496D01*
X126518639Y-98835217D01*
X126508249Y-98793320D01*
X126501868Y-98753277D01*
X126498174Y-98710595D01*
X126497145Y-98671085D01*
X126497174Y-98669522D01*
X126606957Y-98669522D01*
X126607706Y-98703285D01*
X126611033Y-98745289D01*
X126617959Y-98788426D01*
X126628255Y-98827205D01*
X126641454Y-98861703D01*
X126661197Y-98898158D01*
X126687264Y-98930764D01*
X126690706Y-98934136D01*
X126723410Y-98957644D01*
X126759560Y-98973165D01*
X126762427Y-98974091D01*
X126802067Y-98982906D01*
X126842489Y-98987020D01*
X126884612Y-98988210D01*
X127056559Y-98988210D01*
X127056559Y-98362949D01*
X126887348Y-98362949D01*
X126869966Y-98363096D01*
X126828115Y-98364934D01*
X126788857Y-98369513D01*
X126749399Y-98379752D01*
X126734830Y-98386326D01*
X126700865Y-98408983D01*
X126673299Y-98436977D01*
X126648576Y-98472174D01*
X126634432Y-98500068D01*
X126621629Y-98537925D01*
X126612810Y-98581503D01*
X126608420Y-98623411D01*
X126606957Y-98669522D01*
X126497174Y-98669522D01*
X126497640Y-98644304D01*
X126500886Y-98599259D01*
X126507161Y-98556532D01*
X126516465Y-98516125D01*
X126528799Y-98478036D01*
X126546556Y-98437626D01*
X126568367Y-98401002D01*
X126594232Y-98368163D01*
X126624152Y-98339110D01*
X126630337Y-98333937D01*
X126663646Y-98311139D01*
X126700923Y-98293454D01*
X126742170Y-98280883D01*
X126758706Y-98277506D01*
X126798304Y-98272468D01*
X126841381Y-98269892D01*
X126885589Y-98269159D01*
X127163244Y-98269159D01*
X127163244Y-99082000D01*
G37*
G36*
X126388506Y-98375454D02*
G01*
X126388506Y-98281665D01*
X125866999Y-98281665D01*
X125866999Y-98358650D01*
X125895820Y-98391481D01*
X125924545Y-98428131D01*
X125948410Y-98461590D01*
X125972207Y-98497702D01*
X125995938Y-98536466D01*
X126019602Y-98577882D01*
X126042336Y-98620759D01*
X126063401Y-98664027D01*
X126082797Y-98707687D01*
X126100522Y-98751737D01*
X126116579Y-98796179D01*
X126130965Y-98841012D01*
X126136252Y-98859055D01*
X126146634Y-98897910D01*
X126155505Y-98938125D01*
X126162864Y-98979701D01*
X126168712Y-99022636D01*
X126173049Y-99066932D01*
X126174159Y-99082000D01*
X126275959Y-99082000D01*
X126273572Y-99038119D01*
X126268951Y-98997471D01*
X126261954Y-98954020D01*
X126254307Y-98915670D01*
X126245009Y-98875374D01*
X126238639Y-98850262D01*
X126226706Y-98808007D01*
X126213257Y-98766239D01*
X126198290Y-98724957D01*
X126181806Y-98684161D01*
X126163806Y-98643853D01*
X126144288Y-98604031D01*
X126136057Y-98588238D01*
X126114969Y-98549761D01*
X126093471Y-98513221D01*
X126071562Y-98478618D01*
X126049244Y-98445951D01*
X126021920Y-98409308D01*
X125994005Y-98375454D01*
X126388506Y-98375454D01*
G37*
G36*
X127163244Y-104082000D02*
G01*
X126872498Y-104082000D01*
X126863429Y-104081945D01*
X126824243Y-104080360D01*
X126783820Y-104076025D01*
X126743147Y-104068127D01*
X126719236Y-104061440D01*
X126681945Y-104047106D01*
X126646817Y-104027484D01*
X126629687Y-104014734D01*
X126599511Y-103985994D01*
X126573545Y-103953625D01*
X126569392Y-103947667D01*
X126548270Y-103911460D01*
X126531593Y-103873496D01*
X126518639Y-103835217D01*
X126508249Y-103793320D01*
X126501868Y-103753277D01*
X126498174Y-103710595D01*
X126497145Y-103671085D01*
X126497174Y-103669522D01*
X126606957Y-103669522D01*
X126607706Y-103703285D01*
X126611033Y-103745289D01*
X126617959Y-103788426D01*
X126628255Y-103827205D01*
X126641454Y-103861703D01*
X126661197Y-103898158D01*
X126687264Y-103930764D01*
X126690706Y-103934136D01*
X126723410Y-103957644D01*
X126759560Y-103973165D01*
X126762427Y-103974091D01*
X126802067Y-103982906D01*
X126842489Y-103987020D01*
X126884612Y-103988210D01*
X127056559Y-103988210D01*
X127056559Y-103362949D01*
X126887348Y-103362949D01*
X126869966Y-103363096D01*
X126828115Y-103364934D01*
X126788857Y-103369513D01*
X126749399Y-103379752D01*
X126734830Y-103386326D01*
X126700865Y-103408983D01*
X126673299Y-103436977D01*
X126648576Y-103472174D01*
X126634432Y-103500068D01*
X126621629Y-103537925D01*
X126612810Y-103581503D01*
X126608420Y-103623411D01*
X126606957Y-103669522D01*
X126497174Y-103669522D01*
X126497640Y-103644304D01*
X126500886Y-103599259D01*
X126507161Y-103556532D01*
X126516465Y-103516125D01*
X126528799Y-103478036D01*
X126546556Y-103437626D01*
X126568367Y-103401002D01*
X126594232Y-103368163D01*
X126624152Y-103339110D01*
X126630337Y-103333937D01*
X126663646Y-103311139D01*
X126700923Y-103293454D01*
X126742170Y-103280883D01*
X126758706Y-103277506D01*
X126798304Y-103272468D01*
X126841381Y-103269892D01*
X126885589Y-103269159D01*
X127163244Y-103269159D01*
X127163244Y-104082000D01*
G37*
G36*
X126168361Y-103270332D02*
G01*
X126212229Y-103278025D01*
X126252601Y-103292900D01*
X126289476Y-103314955D01*
X126322854Y-103344191D01*
X126351024Y-103379308D01*
X126372275Y-103419006D01*
X126384983Y-103456680D01*
X126392608Y-103497719D01*
X126395150Y-103542125D01*
X126393461Y-103578242D01*
X126386976Y-103618597D01*
X126373264Y-103661562D01*
X126352932Y-103700096D01*
X126325980Y-103734198D01*
X126308159Y-103751234D01*
X126274667Y-103775581D01*
X126238238Y-103792972D01*
X126198874Y-103803406D01*
X126156573Y-103806884D01*
X126120024Y-103804175D01*
X126081716Y-103794935D01*
X126045394Y-103779138D01*
X126021055Y-103764215D01*
X125989630Y-103737892D01*
X125964305Y-103706842D01*
X125963719Y-103726382D01*
X125965169Y-103763927D01*
X125970114Y-103804785D01*
X125978569Y-103845182D01*
X125983386Y-103862852D01*
X125996387Y-103900473D01*
X126015498Y-103937994D01*
X126040509Y-103968769D01*
X126071772Y-103992704D01*
X126073932Y-103993967D01*
X126111454Y-104008713D01*
X126151688Y-104013221D01*
X126164725Y-104012735D01*
X126205640Y-104003391D01*
X126239225Y-103982153D01*
X126258318Y-103958931D01*
X126275537Y-103921342D01*
X126285143Y-103881916D01*
X126380300Y-103890904D01*
X126379496Y-103896907D01*
X126371263Y-103936565D01*
X126356266Y-103976829D01*
X126335310Y-104011694D01*
X126308394Y-104041162D01*
X126304612Y-104044444D01*
X126271917Y-104066948D01*
X126234899Y-104082784D01*
X126193557Y-104091952D01*
X126153838Y-104094505D01*
X126110802Y-104091513D01*
X126070600Y-104082537D01*
X126033230Y-104067577D01*
X125998695Y-104046633D01*
X125994587Y-104043586D01*
X125964032Y-104016133D01*
X125937580Y-103983209D01*
X125915232Y-103944814D01*
X125899043Y-103906731D01*
X125889362Y-103876496D01*
X125879909Y-103836160D01*
X125872820Y-103791399D01*
X125868718Y-103750719D01*
X125866256Y-103706967D01*
X125865436Y-103660143D01*
X125865568Y-103641807D01*
X125867053Y-103598370D01*
X125870189Y-103558367D01*
X125872703Y-103539976D01*
X125975247Y-103539976D01*
X125975940Y-103561170D01*
X125982567Y-103604526D01*
X125996212Y-103641885D01*
X126019602Y-103676361D01*
X126022386Y-103679390D01*
X126052870Y-103704395D01*
X126091957Y-103720792D01*
X126132540Y-103725600D01*
X126136768Y-103725552D01*
X126176748Y-103719782D01*
X126215877Y-103702327D01*
X126247041Y-103676361D01*
X126255351Y-103666869D01*
X126277150Y-103631485D01*
X126289866Y-103590337D01*
X126293545Y-103548378D01*
X126291827Y-103516625D01*
X126284195Y-103477858D01*
X126268309Y-103439120D01*
X126244696Y-103405545D01*
X126238499Y-103398872D01*
X126205522Y-103371967D01*
X126169226Y-103355824D01*
X126129609Y-103350443D01*
X126087986Y-103356493D01*
X126050705Y-103374640D01*
X126020579Y-103401637D01*
X126005173Y-103422098D01*
X125988041Y-103457530D01*
X125978080Y-103498650D01*
X125975247Y-103539976D01*
X125872703Y-103539976D01*
X125876131Y-103514898D01*
X125886067Y-103470435D01*
X125899239Y-103432704D01*
X125913014Y-103404519D01*
X125934801Y-103370893D01*
X125963982Y-103338465D01*
X125998108Y-103311755D01*
X126018771Y-103299484D01*
X126057622Y-103282637D01*
X126098606Y-103272529D01*
X126141723Y-103269159D01*
X126168361Y-103270332D01*
G37*
G36*
X127163244Y-83332000D02*
G01*
X126872498Y-83332000D01*
X126863429Y-83331945D01*
X126824243Y-83330360D01*
X126783820Y-83326025D01*
X126743147Y-83318127D01*
X126719236Y-83311440D01*
X126681945Y-83297106D01*
X126646817Y-83277484D01*
X126629687Y-83264734D01*
X126599511Y-83235994D01*
X126573545Y-83203625D01*
X126569392Y-83197667D01*
X126548270Y-83161460D01*
X126531593Y-83123496D01*
X126518639Y-83085217D01*
X126508249Y-83043320D01*
X126501868Y-83003277D01*
X126498174Y-82960595D01*
X126497145Y-82921085D01*
X126497174Y-82919522D01*
X126606957Y-82919522D01*
X126607706Y-82953285D01*
X126611033Y-82995289D01*
X126617959Y-83038426D01*
X126628255Y-83077205D01*
X126641454Y-83111703D01*
X126661197Y-83148158D01*
X126687264Y-83180764D01*
X126690706Y-83184136D01*
X126723410Y-83207644D01*
X126759560Y-83223165D01*
X126762427Y-83224091D01*
X126802067Y-83232906D01*
X126842489Y-83237020D01*
X126884612Y-83238210D01*
X127056559Y-83238210D01*
X127056559Y-82612949D01*
X126887348Y-82612949D01*
X126869966Y-82613096D01*
X126828115Y-82614934D01*
X126788857Y-82619513D01*
X126749399Y-82629752D01*
X126734830Y-82636326D01*
X126700865Y-82658983D01*
X126673299Y-82686977D01*
X126648576Y-82722174D01*
X126634432Y-82750068D01*
X126621629Y-82787925D01*
X126612810Y-82831503D01*
X126608420Y-82873411D01*
X126606957Y-82919522D01*
X126497174Y-82919522D01*
X126497640Y-82894304D01*
X126500886Y-82849259D01*
X126507161Y-82806532D01*
X126516465Y-82766125D01*
X126528799Y-82728036D01*
X126546556Y-82687626D01*
X126568367Y-82651002D01*
X126594232Y-82618163D01*
X126624152Y-82589110D01*
X126630337Y-82583937D01*
X126663646Y-82561139D01*
X126700923Y-82543454D01*
X126742170Y-82530883D01*
X126758706Y-82527506D01*
X126798304Y-82522468D01*
X126841381Y-82519892D01*
X126885589Y-82519159D01*
X127163244Y-82519159D01*
X127163244Y-83332000D01*
G37*
G36*
X126022533Y-83332000D02*
G01*
X126121402Y-83332000D01*
X126121402Y-82698531D01*
X126151352Y-82724470D01*
X126184310Y-82748247D01*
X126215191Y-82767701D01*
X126250297Y-82787515D01*
X126286225Y-82805432D01*
X126319337Y-82819285D01*
X126319337Y-82719243D01*
X126284006Y-82701541D01*
X126246078Y-82679410D01*
X126210764Y-82655251D01*
X126178062Y-82629065D01*
X126174159Y-82625649D01*
X126145362Y-82598404D01*
X126118397Y-82568249D01*
X126095178Y-82535360D01*
X126086231Y-82519159D01*
X126022533Y-82519159D01*
X126022533Y-83332000D01*
G37*
G36*
X127163244Y-91082000D02*
G01*
X126872498Y-91082000D01*
X126863429Y-91081945D01*
X126824243Y-91080360D01*
X126783820Y-91076025D01*
X126743147Y-91068127D01*
X126719236Y-91061440D01*
X126681945Y-91047106D01*
X126646817Y-91027484D01*
X126629687Y-91014734D01*
X126599511Y-90985994D01*
X126573545Y-90953625D01*
X126569392Y-90947667D01*
X126548270Y-90911460D01*
X126531593Y-90873496D01*
X126518639Y-90835217D01*
X126508249Y-90793320D01*
X126501868Y-90753277D01*
X126498174Y-90710595D01*
X126497145Y-90671085D01*
X126497174Y-90669522D01*
X126606957Y-90669522D01*
X126607706Y-90703285D01*
X126611033Y-90745289D01*
X126617959Y-90788426D01*
X126628255Y-90827205D01*
X126641454Y-90861703D01*
X126661197Y-90898158D01*
X126687264Y-90930764D01*
X126690706Y-90934136D01*
X126723410Y-90957644D01*
X126759560Y-90973165D01*
X126762427Y-90974091D01*
X126802067Y-90982906D01*
X126842489Y-90987020D01*
X126884612Y-90988210D01*
X127056559Y-90988210D01*
X127056559Y-90362949D01*
X126887348Y-90362949D01*
X126869966Y-90363096D01*
X126828115Y-90364934D01*
X126788857Y-90369513D01*
X126749399Y-90379752D01*
X126734830Y-90386326D01*
X126700865Y-90408983D01*
X126673299Y-90436977D01*
X126648576Y-90472174D01*
X126634432Y-90500068D01*
X126621629Y-90537925D01*
X126612810Y-90581503D01*
X126608420Y-90623411D01*
X126606957Y-90669522D01*
X126497174Y-90669522D01*
X126497640Y-90644304D01*
X126500886Y-90599259D01*
X126507161Y-90556532D01*
X126516465Y-90516125D01*
X126528799Y-90478036D01*
X126546556Y-90437626D01*
X126568367Y-90401002D01*
X126594232Y-90368163D01*
X126624152Y-90339110D01*
X126630337Y-90333937D01*
X126663646Y-90311139D01*
X126700923Y-90293454D01*
X126742170Y-90280883D01*
X126758706Y-90277506D01*
X126798304Y-90272468D01*
X126841381Y-90269892D01*
X126885589Y-90269159D01*
X127163244Y-90269159D01*
X127163244Y-91082000D01*
G37*
G36*
X126427585Y-90794379D02*
G01*
X126427585Y-90885042D01*
X126078025Y-90885042D01*
X126078025Y-91082000D01*
X125979155Y-91082000D01*
X125979155Y-90885042D01*
X125870321Y-90885042D01*
X125870321Y-90794379D01*
X125979155Y-90794379D01*
X125979155Y-90428992D01*
X126078025Y-90428992D01*
X126078025Y-90794379D01*
X126330279Y-90794379D01*
X126078025Y-90428992D01*
X125979155Y-90428992D01*
X125979155Y-90269159D01*
X126059853Y-90269159D01*
X126427585Y-90794379D01*
G37*
G36*
X127128777Y-80114000D02*
G01*
X126838031Y-80114000D01*
X126828962Y-80113945D01*
X126789776Y-80112360D01*
X126749353Y-80108025D01*
X126708680Y-80100127D01*
X126684769Y-80093440D01*
X126647478Y-80079106D01*
X126612350Y-80059484D01*
X126595220Y-80046734D01*
X126565044Y-80017994D01*
X126539078Y-79985625D01*
X126534925Y-79979667D01*
X126513803Y-79943460D01*
X126497126Y-79905496D01*
X126484172Y-79867217D01*
X126473782Y-79825320D01*
X126467401Y-79785277D01*
X126463707Y-79742595D01*
X126462678Y-79703085D01*
X126462707Y-79701522D01*
X126572490Y-79701522D01*
X126573239Y-79735285D01*
X126576566Y-79777289D01*
X126583492Y-79820426D01*
X126593788Y-79859205D01*
X126606987Y-79893703D01*
X126626730Y-79930158D01*
X126652797Y-79962764D01*
X126656239Y-79966136D01*
X126688943Y-79989644D01*
X126725093Y-80005165D01*
X126727960Y-80006091D01*
X126767600Y-80014906D01*
X126808022Y-80019020D01*
X126850145Y-80020210D01*
X127022092Y-80020210D01*
X127022092Y-79394949D01*
X126852881Y-79394949D01*
X126835499Y-79395096D01*
X126793648Y-79396934D01*
X126754390Y-79401513D01*
X126714932Y-79411752D01*
X126700363Y-79418326D01*
X126666398Y-79440983D01*
X126638832Y-79468977D01*
X126614109Y-79504174D01*
X126599965Y-79532068D01*
X126587162Y-79569925D01*
X126578343Y-79613503D01*
X126573953Y-79655411D01*
X126572490Y-79701522D01*
X126462707Y-79701522D01*
X126463173Y-79676304D01*
X126466419Y-79631259D01*
X126472694Y-79588532D01*
X126481998Y-79548125D01*
X126494332Y-79510036D01*
X126512089Y-79469626D01*
X126533900Y-79433002D01*
X126559765Y-79400163D01*
X126589685Y-79371110D01*
X126595870Y-79365937D01*
X126629179Y-79343139D01*
X126666456Y-79325454D01*
X126707703Y-79312883D01*
X126724239Y-79309506D01*
X126763837Y-79304468D01*
X126806914Y-79301892D01*
X126851122Y-79301159D01*
X127128777Y-79301159D01*
X127128777Y-80114000D01*
G37*
G36*
X126129994Y-79302829D02*
G01*
X126169287Y-79310247D01*
X126209024Y-79325688D01*
X126244032Y-79348640D01*
X126271180Y-79374799D01*
X126294786Y-79405988D01*
X126314850Y-79442210D01*
X126331373Y-79483462D01*
X126336611Y-79500330D01*
X126346829Y-79543508D01*
X126353355Y-79584774D01*
X126357820Y-79629970D01*
X126359967Y-79670634D01*
X126360683Y-79714027D01*
X126359982Y-79755629D01*
X126357880Y-79794998D01*
X126352897Y-79844018D01*
X126345423Y-79889069D01*
X126335458Y-79930150D01*
X126323002Y-79967263D01*
X126303928Y-80008073D01*
X126280962Y-80042681D01*
X126254290Y-80071168D01*
X126218729Y-80096953D01*
X126178380Y-80114717D01*
X126139985Y-80123558D01*
X126098073Y-80126505D01*
X126065952Y-80124829D01*
X126026458Y-80117379D01*
X125986581Y-80101875D01*
X125951527Y-80078829D01*
X125924318Y-80052511D01*
X125900724Y-80021236D01*
X125880745Y-79985003D01*
X125864381Y-79943811D01*
X125859178Y-79926917D01*
X125849028Y-79883758D01*
X125842546Y-79842597D01*
X125838110Y-79797589D01*
X125835978Y-79757144D01*
X125835267Y-79714027D01*
X125835268Y-79713832D01*
X125936872Y-79713832D01*
X125936918Y-79726134D01*
X125938008Y-79772753D01*
X125940551Y-79815225D01*
X125945773Y-79862485D01*
X125953267Y-79903267D01*
X125965256Y-79943654D01*
X125983376Y-79978982D01*
X125992286Y-79990820D01*
X126021304Y-80019346D01*
X126057570Y-80038752D01*
X126098073Y-80045221D01*
X126110633Y-80044640D01*
X126149773Y-80034321D01*
X126184715Y-80011103D01*
X126212574Y-79979177D01*
X126218205Y-79970401D01*
X126235054Y-79931487D01*
X126245953Y-79887981D01*
X126252538Y-79844569D01*
X126256171Y-79805154D01*
X126258351Y-79761575D01*
X126259078Y-79713832D01*
X126259028Y-79701498D01*
X126257828Y-79654608D01*
X126255028Y-79611632D01*
X126249279Y-79563416D01*
X126241030Y-79521315D01*
X126227832Y-79478868D01*
X126207884Y-79440475D01*
X126205317Y-79436905D01*
X126176687Y-79407436D01*
X126138979Y-79388111D01*
X126099050Y-79382443D01*
X126086280Y-79383022D01*
X126046590Y-79393311D01*
X126011327Y-79416460D01*
X125983376Y-79448291D01*
X125977745Y-79457022D01*
X125960896Y-79495839D01*
X125949997Y-79539336D01*
X125943412Y-79582793D01*
X125939779Y-79622278D01*
X125937599Y-79665957D01*
X125936872Y-79713832D01*
X125835268Y-79713832D01*
X125835427Y-79691930D01*
X125836705Y-79650344D01*
X125839810Y-79606219D01*
X125845489Y-79561583D01*
X125853439Y-79523127D01*
X125855764Y-79514346D01*
X125867548Y-79476927D01*
X125883180Y-79439375D01*
X125903460Y-79402960D01*
X125920459Y-79379696D01*
X125949988Y-79350249D01*
X125984353Y-79327342D01*
X126016448Y-79313535D01*
X126055367Y-79304253D01*
X126098073Y-79301159D01*
X126129994Y-79302829D01*
G37*
G36*
X127163244Y-93582000D02*
G01*
X126872498Y-93582000D01*
X126863429Y-93581945D01*
X126824243Y-93580360D01*
X126783820Y-93576025D01*
X126743147Y-93568127D01*
X126719236Y-93561440D01*
X126681945Y-93547106D01*
X126646817Y-93527484D01*
X126629687Y-93514734D01*
X126599511Y-93485994D01*
X126573545Y-93453625D01*
X126569392Y-93447667D01*
X126548270Y-93411460D01*
X126531593Y-93373496D01*
X126518639Y-93335217D01*
X126508249Y-93293320D01*
X126501868Y-93253277D01*
X126498174Y-93210595D01*
X126497145Y-93171085D01*
X126497174Y-93169522D01*
X126606957Y-93169522D01*
X126607706Y-93203285D01*
X126611033Y-93245289D01*
X126617959Y-93288426D01*
X126628255Y-93327205D01*
X126641454Y-93361703D01*
X126661197Y-93398158D01*
X126687264Y-93430764D01*
X126690706Y-93434136D01*
X126723410Y-93457644D01*
X126759560Y-93473165D01*
X126762427Y-93474091D01*
X126802067Y-93482906D01*
X126842489Y-93487020D01*
X126884612Y-93488210D01*
X127056559Y-93488210D01*
X127056559Y-92862949D01*
X126887348Y-92862949D01*
X126869966Y-92863096D01*
X126828115Y-92864934D01*
X126788857Y-92869513D01*
X126749399Y-92879752D01*
X126734830Y-92886326D01*
X126700865Y-92908983D01*
X126673299Y-92936977D01*
X126648576Y-92972174D01*
X126634432Y-93000068D01*
X126621629Y-93037925D01*
X126612810Y-93081503D01*
X126608420Y-93123411D01*
X126606957Y-93169522D01*
X126497174Y-93169522D01*
X126497640Y-93144304D01*
X126500886Y-93099259D01*
X126507161Y-93056532D01*
X126516465Y-93016125D01*
X126528799Y-92978036D01*
X126546556Y-92937626D01*
X126568367Y-92901002D01*
X126594232Y-92868163D01*
X126624152Y-92839110D01*
X126630337Y-92833937D01*
X126663646Y-92811139D01*
X126700923Y-92793454D01*
X126742170Y-92780883D01*
X126758706Y-92777506D01*
X126798304Y-92772468D01*
X126841381Y-92769892D01*
X126885589Y-92769159D01*
X127163244Y-92769159D01*
X127163244Y-93582000D01*
G37*
G36*
X126395150Y-93369411D02*
G01*
X126291200Y-93360618D01*
X126282304Y-93400389D01*
X126266764Y-93437583D01*
X126242794Y-93469989D01*
X126237662Y-93474923D01*
X126203709Y-93498261D01*
X126164865Y-93510827D01*
X126136252Y-93513221D01*
X126093815Y-93507840D01*
X126055652Y-93491697D01*
X126021763Y-93464792D01*
X126015498Y-93458120D01*
X125991507Y-93424297D01*
X125975368Y-93384817D01*
X125967613Y-93344975D01*
X125965868Y-93312160D01*
X125968848Y-93271164D01*
X125979324Y-93230503D01*
X125997342Y-93195622D01*
X126013545Y-93175579D01*
X126046101Y-93149201D01*
X126084421Y-93132593D01*
X126123835Y-93125998D01*
X126138011Y-93125558D01*
X126177970Y-93129897D01*
X126216881Y-93144174D01*
X126224180Y-93148224D01*
X126256660Y-93172295D01*
X126281928Y-93202377D01*
X126284752Y-93206842D01*
X126377564Y-93194728D01*
X126299602Y-92781665D01*
X125898848Y-92781665D01*
X125898848Y-92875454D01*
X126220467Y-92875454D01*
X126263845Y-93091951D01*
X126227074Y-93071092D01*
X126189448Y-93056193D01*
X126150968Y-93047254D01*
X126111632Y-93044274D01*
X126067051Y-93047790D01*
X126025629Y-93058337D01*
X125987368Y-93075915D01*
X125952267Y-93100524D01*
X125933628Y-93117743D01*
X125905306Y-93151819D01*
X125883940Y-93189935D01*
X125869531Y-93232090D01*
X125862716Y-93271437D01*
X125860942Y-93306494D01*
X125863181Y-93346622D01*
X125871454Y-93390782D01*
X125885824Y-93432080D01*
X125906289Y-93470518D01*
X125924640Y-93496221D01*
X125955715Y-93529622D01*
X125990760Y-93556113D01*
X126029775Y-93575693D01*
X126072761Y-93588362D01*
X126111616Y-93593641D01*
X126136252Y-93594505D01*
X126176083Y-93592341D01*
X126218958Y-93584347D01*
X126257961Y-93570462D01*
X126293094Y-93550687D01*
X126315819Y-93532956D01*
X126343324Y-93504026D01*
X126365144Y-93471262D01*
X126381280Y-93434665D01*
X126391730Y-93394235D01*
X126395150Y-93369411D01*
G37*
G36*
X127163244Y-88582000D02*
G01*
X126872498Y-88582000D01*
X126863429Y-88581945D01*
X126824243Y-88580360D01*
X126783820Y-88576025D01*
X126743147Y-88568127D01*
X126719236Y-88561440D01*
X126681945Y-88547106D01*
X126646817Y-88527484D01*
X126629687Y-88514734D01*
X126599511Y-88485994D01*
X126573545Y-88453625D01*
X126569392Y-88447667D01*
X126548270Y-88411460D01*
X126531593Y-88373496D01*
X126518639Y-88335217D01*
X126508249Y-88293320D01*
X126501868Y-88253277D01*
X126498174Y-88210595D01*
X126497145Y-88171085D01*
X126497174Y-88169522D01*
X126606957Y-88169522D01*
X126607706Y-88203285D01*
X126611033Y-88245289D01*
X126617959Y-88288426D01*
X126628255Y-88327205D01*
X126641454Y-88361703D01*
X126661197Y-88398158D01*
X126687264Y-88430764D01*
X126690706Y-88434136D01*
X126723410Y-88457644D01*
X126759560Y-88473165D01*
X126762427Y-88474091D01*
X126802067Y-88482906D01*
X126842489Y-88487020D01*
X126884612Y-88488210D01*
X127056559Y-88488210D01*
X127056559Y-87862949D01*
X126887348Y-87862949D01*
X126869966Y-87863096D01*
X126828115Y-87864934D01*
X126788857Y-87869513D01*
X126749399Y-87879752D01*
X126734830Y-87886326D01*
X126700865Y-87908983D01*
X126673299Y-87936977D01*
X126648576Y-87972174D01*
X126634432Y-88000068D01*
X126621629Y-88037925D01*
X126612810Y-88081503D01*
X126608420Y-88123411D01*
X126606957Y-88169522D01*
X126497174Y-88169522D01*
X126497640Y-88144304D01*
X126500886Y-88099259D01*
X126507161Y-88056532D01*
X126516465Y-88016125D01*
X126528799Y-87978036D01*
X126546556Y-87937626D01*
X126568367Y-87901002D01*
X126594232Y-87868163D01*
X126624152Y-87839110D01*
X126630337Y-87833937D01*
X126663646Y-87811139D01*
X126700923Y-87793454D01*
X126742170Y-87780883D01*
X126758706Y-87777506D01*
X126798304Y-87772468D01*
X126841381Y-87769892D01*
X126885589Y-87769159D01*
X127163244Y-87769159D01*
X127163244Y-88582000D01*
G37*
G36*
X126394563Y-88370192D02*
G01*
X126295694Y-88356905D01*
X126285704Y-88395532D01*
X126270904Y-88432069D01*
X126247694Y-88466775D01*
X126237857Y-88476682D01*
X126204582Y-88498948D01*
X126166306Y-88510937D01*
X126138011Y-88513221D01*
X126096428Y-88508489D01*
X126059120Y-88494292D01*
X126026086Y-88470631D01*
X126019993Y-88464763D01*
X125994645Y-88432225D01*
X125978685Y-88395184D01*
X125972113Y-88353640D01*
X125971926Y-88344791D01*
X125976276Y-88304517D01*
X125991112Y-88265638D01*
X126016475Y-88232439D01*
X126049943Y-88207187D01*
X126089091Y-88192416D01*
X126129609Y-88188085D01*
X126170122Y-88192359D01*
X126199560Y-88199027D01*
X126188422Y-88105824D01*
X126172595Y-88106801D01*
X126130595Y-88102968D01*
X126091643Y-88091470D01*
X126058876Y-88074365D01*
X126030064Y-88047910D01*
X126012272Y-88009570D01*
X126008269Y-87974323D01*
X126014364Y-87933855D01*
X126034560Y-87897054D01*
X126045198Y-87885614D01*
X126078592Y-87862842D01*
X126119080Y-87851680D01*
X126140160Y-87850443D01*
X126180698Y-87855499D01*
X126218537Y-87872387D01*
X126236294Y-87886396D01*
X126261289Y-87918416D01*
X126277395Y-87956651D01*
X126285729Y-87994254D01*
X126384598Y-87976668D01*
X126374518Y-87935544D01*
X126360005Y-87898684D01*
X126337993Y-87861779D01*
X126310192Y-87830443D01*
X126302337Y-87823479D01*
X126268229Y-87799714D01*
X126230188Y-87782739D01*
X126188215Y-87772554D01*
X126148263Y-87769212D01*
X126142309Y-87769159D01*
X126102166Y-87771907D01*
X126060344Y-87781277D01*
X126020969Y-87797296D01*
X125985913Y-87819088D01*
X125957044Y-87845774D01*
X125936168Y-87874281D01*
X125918189Y-87911623D01*
X125908508Y-87950668D01*
X125906664Y-87977645D01*
X125911275Y-88018359D01*
X125925110Y-88056042D01*
X125934605Y-88072411D01*
X125961790Y-88104150D01*
X125994841Y-88128353D01*
X126017648Y-88140213D01*
X125979956Y-88152384D01*
X125944022Y-88172541D01*
X125914346Y-88199683D01*
X125906664Y-88209187D01*
X125885747Y-88244492D01*
X125872577Y-88284948D01*
X125867347Y-88325764D01*
X125866999Y-88340297D01*
X125870683Y-88385258D01*
X125881734Y-88427134D01*
X125900154Y-88465924D01*
X125925941Y-88501628D01*
X125943984Y-88520646D01*
X125974276Y-88545746D01*
X126013210Y-88568467D01*
X126056015Y-88584118D01*
X126095786Y-88591908D01*
X126138401Y-88594505D01*
X126183099Y-88591522D01*
X126224357Y-88582574D01*
X126262173Y-88567661D01*
X126296549Y-88546783D01*
X126314647Y-88532174D01*
X126342380Y-88503052D01*
X126364373Y-88470395D01*
X126380624Y-88434204D01*
X126391135Y-88394479D01*
X126394563Y-88370192D01*
G37*
G36*
X127163244Y-96082000D02*
G01*
X126872498Y-96082000D01*
X126863429Y-96081945D01*
X126824243Y-96080360D01*
X126783820Y-96076025D01*
X126743147Y-96068127D01*
X126719236Y-96061440D01*
X126681945Y-96047106D01*
X126646817Y-96027484D01*
X126629687Y-96014734D01*
X126599511Y-95985994D01*
X126573545Y-95953625D01*
X126569392Y-95947667D01*
X126548270Y-95911460D01*
X126531593Y-95873496D01*
X126518639Y-95835217D01*
X126508249Y-95793320D01*
X126501868Y-95753277D01*
X126498174Y-95710595D01*
X126497145Y-95671085D01*
X126497174Y-95669522D01*
X126606957Y-95669522D01*
X126607706Y-95703285D01*
X126611033Y-95745289D01*
X126617959Y-95788426D01*
X126628255Y-95827205D01*
X126641454Y-95861703D01*
X126661197Y-95898158D01*
X126687264Y-95930764D01*
X126690706Y-95934136D01*
X126723410Y-95957644D01*
X126759560Y-95973165D01*
X126762427Y-95974091D01*
X126802067Y-95982906D01*
X126842489Y-95987020D01*
X126884612Y-95988210D01*
X127056559Y-95988210D01*
X127056559Y-95362949D01*
X126887348Y-95362949D01*
X126869966Y-95363096D01*
X126828115Y-95364934D01*
X126788857Y-95369513D01*
X126749399Y-95379752D01*
X126734830Y-95386326D01*
X126700865Y-95408983D01*
X126673299Y-95436977D01*
X126648576Y-95472174D01*
X126634432Y-95500068D01*
X126621629Y-95537925D01*
X126612810Y-95581503D01*
X126608420Y-95623411D01*
X126606957Y-95669522D01*
X126497174Y-95669522D01*
X126497640Y-95644304D01*
X126500886Y-95599259D01*
X126507161Y-95556532D01*
X126516465Y-95516125D01*
X126528799Y-95478036D01*
X126546556Y-95437626D01*
X126568367Y-95401002D01*
X126594232Y-95368163D01*
X126624152Y-95339110D01*
X126630337Y-95333937D01*
X126663646Y-95311139D01*
X126700923Y-95293454D01*
X126742170Y-95280883D01*
X126758706Y-95277506D01*
X126798304Y-95272468D01*
X126841381Y-95269892D01*
X126885589Y-95269159D01*
X127163244Y-95269159D01*
X127163244Y-96082000D01*
G37*
G36*
X126126205Y-95269521D02*
G01*
X126170983Y-95274948D01*
X126212080Y-95286887D01*
X126249495Y-95305338D01*
X126283228Y-95330301D01*
X126313279Y-95361776D01*
X126338103Y-95398174D01*
X126358720Y-95440812D01*
X126372184Y-95479414D01*
X126382955Y-95522010D01*
X126391033Y-95568600D01*
X126396419Y-95619182D01*
X126398691Y-95659740D01*
X126399448Y-95702544D01*
X126398230Y-95753062D01*
X126394576Y-95799887D01*
X126388485Y-95843017D01*
X126379958Y-95882453D01*
X126365873Y-95926553D01*
X126347981Y-95964881D01*
X126321486Y-96003256D01*
X126311562Y-96014305D01*
X126279647Y-96043177D01*
X126244517Y-96065633D01*
X126206173Y-96081673D01*
X126164613Y-96091297D01*
X126119839Y-96094505D01*
X126110838Y-96094370D01*
X126067641Y-96089641D01*
X126027459Y-96078158D01*
X125990293Y-96059920D01*
X125979775Y-96053131D01*
X125947840Y-96026630D01*
X125920714Y-95994177D01*
X125900411Y-95959878D01*
X125890954Y-95939165D01*
X125877971Y-95900584D01*
X125870182Y-95860333D01*
X125867767Y-95821344D01*
X125968604Y-95821344D01*
X125969706Y-95848159D01*
X125976053Y-95887293D01*
X125989938Y-95925771D01*
X126013740Y-95961637D01*
X126043648Y-95988839D01*
X126080470Y-96007125D01*
X126121402Y-96013221D01*
X126126760Y-96013124D01*
X126165973Y-96006217D01*
X126203468Y-95988406D01*
X126215199Y-95980037D01*
X126243580Y-95950715D01*
X126264040Y-95915719D01*
X126271411Y-95897682D01*
X126282149Y-95857519D01*
X126285729Y-95815872D01*
X126285318Y-95801194D01*
X126279162Y-95760396D01*
X126263656Y-95720756D01*
X126239030Y-95687108D01*
X126236091Y-95684090D01*
X126204523Y-95659185D01*
X126165213Y-95642853D01*
X126125310Y-95638064D01*
X126121107Y-95638112D01*
X126081555Y-95643859D01*
X126043249Y-95661245D01*
X126013154Y-95687108D01*
X126000320Y-95703316D01*
X125981177Y-95741029D01*
X125971388Y-95781007D01*
X125968604Y-95821344D01*
X125867767Y-95821344D01*
X125867585Y-95818413D01*
X125869283Y-95783309D01*
X125875805Y-95743944D01*
X125889594Y-95701819D01*
X125910041Y-95663791D01*
X125937145Y-95629857D01*
X125954951Y-95612730D01*
X125988343Y-95588252D01*
X126024578Y-95570767D01*
X126063656Y-95560277D01*
X126105575Y-95556780D01*
X126133517Y-95558343D01*
X126174330Y-95566549D01*
X126213824Y-95581790D01*
X126244518Y-95599895D01*
X126274712Y-95625804D01*
X126301165Y-95657994D01*
X126300918Y-95643310D01*
X126298979Y-95601830D01*
X126294442Y-95558317D01*
X126286256Y-95515022D01*
X126273224Y-95474519D01*
X126254444Y-95437233D01*
X126229334Y-95403184D01*
X126199560Y-95376431D01*
X126192754Y-95371787D01*
X126155685Y-95355417D01*
X126116517Y-95350443D01*
X126088283Y-95353179D01*
X126050327Y-95367540D01*
X126017648Y-95394212D01*
X126008947Y-95405624D01*
X125991636Y-95441228D01*
X125980132Y-95481748D01*
X125881849Y-95473933D01*
X125882653Y-95467977D01*
X125890947Y-95428564D01*
X125906127Y-95388399D01*
X125927388Y-95353435D01*
X125954731Y-95323674D01*
X125958550Y-95320320D01*
X125991538Y-95297322D01*
X126028850Y-95281138D01*
X126070484Y-95271768D01*
X126110460Y-95269159D01*
X126126205Y-95269521D01*
G37*
G36*
X127163244Y-85832000D02*
G01*
X126872498Y-85832000D01*
X126863429Y-85831945D01*
X126824243Y-85830360D01*
X126783820Y-85826025D01*
X126743147Y-85818127D01*
X126719236Y-85811440D01*
X126681945Y-85797106D01*
X126646817Y-85777484D01*
X126629687Y-85764734D01*
X126599511Y-85735994D01*
X126573545Y-85703625D01*
X126569392Y-85697667D01*
X126548270Y-85661460D01*
X126531593Y-85623496D01*
X126518639Y-85585217D01*
X126508249Y-85543320D01*
X126501868Y-85503277D01*
X126498174Y-85460595D01*
X126497145Y-85421085D01*
X126497174Y-85419522D01*
X126606957Y-85419522D01*
X126607706Y-85453285D01*
X126611033Y-85495289D01*
X126617959Y-85538426D01*
X126628255Y-85577205D01*
X126641454Y-85611703D01*
X126661197Y-85648158D01*
X126687264Y-85680764D01*
X126690706Y-85684136D01*
X126723410Y-85707644D01*
X126759560Y-85723165D01*
X126762427Y-85724091D01*
X126802067Y-85732906D01*
X126842489Y-85737020D01*
X126884612Y-85738210D01*
X127056559Y-85738210D01*
X127056559Y-85112949D01*
X126887348Y-85112949D01*
X126869966Y-85113096D01*
X126828115Y-85114934D01*
X126788857Y-85119513D01*
X126749399Y-85129752D01*
X126734830Y-85136326D01*
X126700865Y-85158983D01*
X126673299Y-85186977D01*
X126648576Y-85222174D01*
X126634432Y-85250068D01*
X126621629Y-85287925D01*
X126612810Y-85331503D01*
X126608420Y-85373411D01*
X126606957Y-85419522D01*
X126497174Y-85419522D01*
X126497640Y-85394304D01*
X126500886Y-85349259D01*
X126507161Y-85306532D01*
X126516465Y-85266125D01*
X126528799Y-85228036D01*
X126546556Y-85187626D01*
X126568367Y-85151002D01*
X126594232Y-85118163D01*
X126624152Y-85089110D01*
X126630337Y-85083937D01*
X126663646Y-85061139D01*
X126700923Y-85043454D01*
X126742170Y-85030883D01*
X126758706Y-85027506D01*
X126798304Y-85022468D01*
X126841381Y-85019892D01*
X126885589Y-85019159D01*
X127163244Y-85019159D01*
X127163244Y-85832000D01*
G37*
G36*
X125875205Y-85738210D02*
G01*
X125875205Y-85832000D01*
X126407850Y-85832000D01*
X126404683Y-85792638D01*
X126396322Y-85763221D01*
X126379354Y-85725949D01*
X126358960Y-85692427D01*
X126333833Y-85659248D01*
X126331060Y-85655949D01*
X126302738Y-85624866D01*
X126272269Y-85595056D01*
X126241521Y-85567289D01*
X126206958Y-85537952D01*
X126201709Y-85533632D01*
X126170214Y-85507178D01*
X126134589Y-85476093D01*
X126103124Y-85447212D01*
X126070856Y-85415465D01*
X126040781Y-85382437D01*
X126024291Y-85361490D01*
X126001906Y-85326311D01*
X125985625Y-85288491D01*
X125978164Y-85248432D01*
X125977983Y-85241323D01*
X125983918Y-85199411D01*
X126001723Y-85162774D01*
X126020188Y-85141281D01*
X126052071Y-85118031D01*
X126089957Y-85104431D01*
X126129609Y-85100443D01*
X126171519Y-85104813D01*
X126211185Y-85119714D01*
X126244110Y-85145189D01*
X126268542Y-85180038D01*
X126282097Y-85218811D01*
X126287249Y-85259483D01*
X126287487Y-85269264D01*
X126389092Y-85258517D01*
X126383176Y-85216658D01*
X126373192Y-85178714D01*
X126356405Y-85139395D01*
X126334083Y-85105405D01*
X126310544Y-85080513D01*
X126278475Y-85056607D01*
X126241937Y-85038572D01*
X126200929Y-85026409D01*
X126162223Y-85020657D01*
X126127459Y-85019159D01*
X126085705Y-85021433D01*
X126041281Y-85029833D01*
X126001476Y-85044423D01*
X125966289Y-85065203D01*
X125943984Y-85083835D01*
X125917641Y-85113608D01*
X125895458Y-85151252D01*
X125881726Y-85192755D01*
X125876642Y-85232235D01*
X125876378Y-85244058D01*
X125879635Y-85283331D01*
X125889406Y-85322088D01*
X125896113Y-85339801D01*
X125914596Y-85375687D01*
X125938007Y-85409837D01*
X125961765Y-85438671D01*
X125992401Y-85470967D01*
X126022875Y-85500318D01*
X126053624Y-85528422D01*
X126088646Y-85559247D01*
X126114368Y-85581309D01*
X126145475Y-85607955D01*
X126176122Y-85634718D01*
X126206596Y-85662287D01*
X126228674Y-85683891D01*
X126254248Y-85714349D01*
X126270293Y-85738210D01*
X125875205Y-85738210D01*
G37*
G36*
X131484400Y-83709323D02*
G01*
X129960324Y-83709323D01*
X129960324Y-83914121D01*
X131156870Y-84707666D01*
X129960324Y-84707666D01*
X129960324Y-84899275D01*
X131484400Y-84899275D01*
X131484400Y-84694477D01*
X130286755Y-83900932D01*
X131484400Y-83900932D01*
X131484400Y-83709323D01*
G37*
G36*
X131000959Y-85135963D02*
G01*
X131079691Y-85144963D01*
X131152056Y-85160886D01*
X131230486Y-85189132D01*
X131299746Y-85227347D01*
X131359836Y-85275531D01*
X131377759Y-85293597D01*
X131424591Y-85351918D01*
X131461015Y-85416421D01*
X131487033Y-85487106D01*
X131502643Y-85563974D01*
X131507847Y-85647024D01*
X131506210Y-85691244D01*
X131495014Y-85768089D01*
X131473211Y-85841399D01*
X131440802Y-85911173D01*
X131418412Y-85947655D01*
X131371439Y-86006201D01*
X131315888Y-86055590D01*
X131251758Y-86095820D01*
X131219936Y-86110675D01*
X131147808Y-86134443D01*
X131075417Y-86148741D01*
X130994366Y-86156973D01*
X130918000Y-86159201D01*
X130869883Y-86157942D01*
X130794123Y-86150248D01*
X130710532Y-86131783D01*
X130634927Y-86103245D01*
X130567307Y-86064635D01*
X130507672Y-86015953D01*
X130489660Y-85997725D01*
X130442597Y-85939177D01*
X130405992Y-85874832D01*
X130379846Y-85804692D01*
X130364158Y-85728756D01*
X130358928Y-85647024D01*
X130511336Y-85647024D01*
X130512263Y-85672319D01*
X130528750Y-85750916D01*
X130565844Y-85820711D01*
X130616849Y-85876002D01*
X130630381Y-85887182D01*
X130700912Y-85928565D01*
X130776841Y-85953088D01*
X130853497Y-85965080D01*
X130926793Y-85968326D01*
X130953470Y-85967968D01*
X131028299Y-85962601D01*
X131105734Y-85948201D01*
X131181222Y-85921009D01*
X131249560Y-85876734D01*
X131268482Y-85859152D01*
X131318113Y-85794638D01*
X131347064Y-85721036D01*
X131355439Y-85647024D01*
X131354515Y-85621339D01*
X131338086Y-85541769D01*
X131301120Y-85471502D01*
X131250293Y-85416215D01*
X131229575Y-85399846D01*
X131165198Y-85364068D01*
X131087540Y-85339740D01*
X131008696Y-85327843D01*
X130933021Y-85324623D01*
X130906925Y-85324981D01*
X130833668Y-85330348D01*
X130757741Y-85344748D01*
X130683546Y-85371940D01*
X130616116Y-85416215D01*
X130597391Y-85433806D01*
X130548275Y-85498493D01*
X130519624Y-85572481D01*
X130511336Y-85647024D01*
X130358928Y-85647024D01*
X130360835Y-85597250D01*
X130373344Y-85514801D01*
X130397530Y-85438278D01*
X130433391Y-85367680D01*
X130480928Y-85303008D01*
X130490287Y-85292595D01*
X130552918Y-85237056D01*
X130626652Y-85193419D01*
X130696578Y-85166145D01*
X130774213Y-85147136D01*
X130859560Y-85136392D01*
X130933388Y-85133748D01*
X131000959Y-85135963D01*
G37*
G36*
X131314406Y-86775792D02*
G01*
X131484400Y-86802537D01*
X131501985Y-86728348D01*
X131507847Y-86662586D01*
X131502526Y-86587926D01*
X131481368Y-86516623D01*
X131475607Y-86505782D01*
X131426978Y-86449053D01*
X131390244Y-86427380D01*
X131315105Y-86411339D01*
X131236480Y-86406101D01*
X131167861Y-86405032D01*
X130528921Y-86405032D01*
X130528921Y-86268744D01*
X130382376Y-86268744D01*
X130382376Y-86405032D01*
X130116395Y-86405032D01*
X130007219Y-86589313D01*
X130382376Y-86589313D01*
X130382376Y-86775792D01*
X130528921Y-86775792D01*
X130528921Y-86589313D01*
X131182882Y-86589313D01*
X131258928Y-86592671D01*
X131287296Y-86598838D01*
X131324298Y-86630712D01*
X131337854Y-86694459D01*
X131318597Y-86766487D01*
X131314406Y-86775792D01*
G37*
G36*
X131484400Y-88254439D02*
G01*
X131323566Y-88254439D01*
X131386192Y-88203271D01*
X131435862Y-88145663D01*
X131472574Y-88081615D01*
X131496329Y-88011127D01*
X131507127Y-87934199D01*
X131507847Y-87907125D01*
X131501679Y-87830656D01*
X131483177Y-87758420D01*
X131470478Y-87726508D01*
X131434133Y-87661302D01*
X131383666Y-87606874D01*
X131376688Y-87601577D01*
X131309608Y-87565194D01*
X131238569Y-87544425D01*
X131161982Y-87535563D01*
X131086007Y-87533167D01*
X131064180Y-87533067D01*
X130382376Y-87533067D01*
X130382376Y-87718814D01*
X130994204Y-87718814D01*
X131069072Y-87719712D01*
X131145365Y-87723705D01*
X131191674Y-87730171D01*
X131261024Y-87759634D01*
X131307446Y-87804177D01*
X131340320Y-87872061D01*
X131349577Y-87944494D01*
X131340159Y-88020288D01*
X131311903Y-88091734D01*
X131306713Y-88100932D01*
X131259341Y-88160207D01*
X131193728Y-88202671D01*
X131189110Y-88204613D01*
X131117618Y-88224301D01*
X131039839Y-88233121D01*
X130973321Y-88235021D01*
X130382376Y-88235021D01*
X130382376Y-88420402D01*
X131484400Y-88420402D01*
X131484400Y-88254439D01*
G37*
G36*
X131161266Y-88631061D02*
G01*
X131132690Y-88814610D01*
X131206415Y-88833878D01*
X131270354Y-88872194D01*
X131297920Y-88900339D01*
X131335162Y-88967040D01*
X131352687Y-89045033D01*
X131355439Y-89097809D01*
X131350323Y-89171282D01*
X131330677Y-89242449D01*
X131303049Y-89287586D01*
X131245713Y-89334022D01*
X131179218Y-89349501D01*
X131107548Y-89325834D01*
X131079201Y-89294547D01*
X131048905Y-89222114D01*
X131027510Y-89149656D01*
X131015820Y-89105136D01*
X130996938Y-89033017D01*
X130976146Y-88960012D01*
X130951371Y-88883769D01*
X130926427Y-88822303D01*
X130884771Y-88756830D01*
X130826496Y-88705447D01*
X130822379Y-88702868D01*
X130752221Y-88672369D01*
X130675101Y-88662202D01*
X130600247Y-88671611D01*
X130539180Y-88695541D01*
X130478716Y-88737892D01*
X130435499Y-88786766D01*
X130399206Y-88853112D01*
X130381277Y-88904735D01*
X130365236Y-88977137D01*
X130359016Y-89054207D01*
X130358928Y-89064836D01*
X130362506Y-89142324D01*
X130374706Y-89220370D01*
X130395565Y-89290883D01*
X130429625Y-89361659D01*
X130475907Y-89419081D01*
X130494850Y-89434864D01*
X130562920Y-89472044D01*
X130637022Y-89493849D01*
X130662644Y-89498612D01*
X130687191Y-89317261D01*
X130613460Y-89293356D01*
X130557864Y-89245820D01*
X130524468Y-89179472D01*
X130512063Y-89104650D01*
X130511336Y-89078392D01*
X130516358Y-88999145D01*
X130535241Y-88927816D01*
X130553834Y-88895942D01*
X130612682Y-88849031D01*
X130653485Y-88841354D01*
X130718698Y-88864069D01*
X130763418Y-88923454D01*
X130768524Y-88935143D01*
X130790263Y-89006309D01*
X130811586Y-89082340D01*
X130816151Y-89098908D01*
X130838320Y-89179283D01*
X130861424Y-89257187D01*
X130884570Y-89327039D01*
X130902613Y-89373315D01*
X130940893Y-89439067D01*
X130996455Y-89492877D01*
X131000432Y-89495681D01*
X131067381Y-89527500D01*
X131142214Y-89539621D01*
X131159801Y-89540011D01*
X131233893Y-89531062D01*
X131304357Y-89504216D01*
X131335656Y-89485789D01*
X131392001Y-89438597D01*
X131437940Y-89377803D01*
X131462784Y-89329718D01*
X131488440Y-89256493D01*
X131502522Y-89184365D01*
X131507803Y-89106942D01*
X131507847Y-89098908D01*
X131504781Y-89022517D01*
X131493456Y-88942412D01*
X131470295Y-88862757D01*
X131436235Y-88795786D01*
X131420652Y-88773943D01*
X131364734Y-88717464D01*
X131295484Y-88673737D01*
X131222738Y-88645572D01*
X131161266Y-88631061D01*
G37*
G36*
X130171350Y-89755799D02*
G01*
X129960324Y-89755799D01*
X129960324Y-89941180D01*
X130171350Y-89941180D01*
X130171350Y-89755799D01*
G37*
G36*
X131484400Y-89755799D02*
G01*
X130382376Y-89755799D01*
X130382376Y-89941180D01*
X131484400Y-89941180D01*
X131484400Y-89755799D01*
G37*
G36*
X131484400Y-90220716D02*
G01*
X130382376Y-90220716D01*
X130382376Y-90387411D01*
X130536981Y-90387411D01*
X130476471Y-90436385D01*
X130428480Y-90492907D01*
X130388314Y-90568388D01*
X130367449Y-90641263D01*
X130359102Y-90721686D01*
X130358928Y-90735824D01*
X130364854Y-90813534D01*
X130382631Y-90885924D01*
X130394832Y-90917540D01*
X130430275Y-90982245D01*
X130481429Y-91036444D01*
X130488621Y-91041738D01*
X130556329Y-91078693D01*
X130626374Y-91099623D01*
X130703284Y-91107628D01*
X130784093Y-91109792D01*
X130807725Y-91109882D01*
X131484400Y-91109882D01*
X131484400Y-90924501D01*
X130812487Y-90924501D01*
X130734898Y-90921462D01*
X130660806Y-90909113D01*
X130641762Y-90902886D01*
X130579795Y-90862700D01*
X130551270Y-90825949D01*
X130523719Y-90757982D01*
X130517198Y-90696623D01*
X130526159Y-90619077D01*
X130553043Y-90549150D01*
X130593035Y-90492192D01*
X130653779Y-90446790D01*
X130731268Y-90420305D01*
X130806484Y-90409123D01*
X130881364Y-90406096D01*
X131484400Y-90406096D01*
X131484400Y-90220716D01*
G37*
G36*
X130956260Y-91318093D02*
G01*
X131038305Y-91325327D01*
X131115765Y-91341242D01*
X131188640Y-91365839D01*
X131256930Y-91399116D01*
X131320635Y-91441075D01*
X131376289Y-91491092D01*
X131426666Y-91558497D01*
X131461370Y-91635649D01*
X131478642Y-91709537D01*
X131484400Y-91790586D01*
X131483150Y-91824062D01*
X131470518Y-91898063D01*
X131439423Y-91975595D01*
X131397638Y-92037274D01*
X131342250Y-92093203D01*
X131425461Y-92092791D01*
X131507449Y-92089571D01*
X131581120Y-92080014D01*
X131603737Y-92073082D01*
X131672709Y-92037729D01*
X131725834Y-91985126D01*
X131753075Y-91935631D01*
X131772446Y-91861030D01*
X131777491Y-91786190D01*
X131775688Y-91743180D01*
X131761262Y-91667823D01*
X131726200Y-91597879D01*
X131676832Y-91556297D01*
X131604933Y-91534864D01*
X131578189Y-91354613D01*
X131641155Y-91357481D01*
X131715412Y-91374929D01*
X131785705Y-91413170D01*
X131841971Y-91471117D01*
X131852618Y-91486477D01*
X131888339Y-91553785D01*
X131913069Y-91630481D01*
X131925691Y-91705291D01*
X131929898Y-91787289D01*
X131927709Y-91847284D01*
X131917977Y-91921587D01*
X131897724Y-91997406D01*
X131867617Y-92064993D01*
X131859655Y-92078861D01*
X131814568Y-92141071D01*
X131760680Y-92191403D01*
X131697990Y-92229857D01*
X131652592Y-92247537D01*
X131575633Y-92265420D01*
X131492891Y-92275734D01*
X131410528Y-92280611D01*
X131333824Y-92281881D01*
X130382376Y-92281881D01*
X130382376Y-92110789D01*
X130514267Y-92110789D01*
X130477859Y-92078308D01*
X130425827Y-92016343D01*
X130388661Y-91947857D01*
X130366362Y-91872849D01*
X130360164Y-91804875D01*
X130511336Y-91804875D01*
X130511740Y-91820439D01*
X130525865Y-91893970D01*
X130560168Y-91960345D01*
X130614651Y-92019564D01*
X130621183Y-92025064D01*
X130688761Y-92066705D01*
X130762114Y-92091847D01*
X130836553Y-92104679D01*
X130920565Y-92108957D01*
X130933735Y-92108872D01*
X131019758Y-92103530D01*
X131094981Y-92089879D01*
X131167728Y-92064101D01*
X131232707Y-92022129D01*
X131244730Y-92011159D01*
X131293209Y-91951460D01*
X131322296Y-91883676D01*
X131331992Y-91807806D01*
X131331601Y-91791899D01*
X131317927Y-91717388D01*
X131284718Y-91651249D01*
X131231975Y-91593483D01*
X131219013Y-91583146D01*
X131149316Y-91544882D01*
X131071744Y-91522208D01*
X130991810Y-91511121D01*
X130914337Y-91508120D01*
X130901931Y-91508204D01*
X130820479Y-91513524D01*
X130748458Y-91527118D01*
X130677699Y-91552786D01*
X130612819Y-91594582D01*
X130606575Y-91600022D01*
X130555041Y-91658440D01*
X130521246Y-91731130D01*
X130511336Y-91804875D01*
X130360164Y-91804875D01*
X130358928Y-91791319D01*
X130360062Y-91755633D01*
X130370900Y-91679609D01*
X130393215Y-91609497D01*
X130431469Y-91538528D01*
X130450554Y-91512396D01*
X130506582Y-91454028D01*
X130567163Y-91410001D01*
X130637365Y-91374030D01*
X130696723Y-91352046D01*
X130776492Y-91331715D01*
X130850658Y-91321136D01*
X130927892Y-91317610D01*
X130956260Y-91318093D01*
G37*
G36*
X131484400Y-93155293D02*
G01*
X129960324Y-93155293D01*
X129960324Y-93355328D01*
X131308545Y-93355328D01*
X131308545Y-94099048D01*
X131484400Y-94099048D01*
X131484400Y-93155293D01*
G37*
G36*
X131484400Y-94325461D02*
G01*
X129960324Y-94325461D01*
X129960324Y-94626246D01*
X131041099Y-94983817D01*
X131111830Y-95006876D01*
X131186913Y-95030997D01*
X131257461Y-95053047D01*
X131267145Y-95055991D01*
X131193747Y-95079295D01*
X131115737Y-95104934D01*
X131042304Y-95129515D01*
X131022414Y-95136225D01*
X129960324Y-95497827D01*
X129960324Y-95766738D01*
X131484400Y-95766738D01*
X131484400Y-95574030D01*
X130206521Y-95574030D01*
X131484400Y-95135126D01*
X131484400Y-94954875D01*
X130184905Y-94517802D01*
X131484400Y-94517802D01*
X131484400Y-94325461D01*
G37*
G36*
X131087261Y-96005607D02*
G01*
X131062348Y-96190988D01*
X131134773Y-96209718D01*
X131203279Y-96237468D01*
X131268353Y-96280987D01*
X131286929Y-96299432D01*
X131328678Y-96361822D01*
X131351157Y-96433590D01*
X131355439Y-96486644D01*
X131346566Y-96564611D01*
X131319948Y-96634563D01*
X131275583Y-96696502D01*
X131264581Y-96707928D01*
X131203573Y-96755455D01*
X131134121Y-96785379D01*
X131056226Y-96797701D01*
X131039633Y-96798053D01*
X130964121Y-96789896D01*
X130891222Y-96762080D01*
X130828974Y-96714522D01*
X130781625Y-96651770D01*
X130753931Y-96578368D01*
X130745809Y-96502397D01*
X130753823Y-96426434D01*
X130766326Y-96371239D01*
X130591570Y-96392122D01*
X130593402Y-96421797D01*
X130586215Y-96500548D01*
X130564656Y-96573584D01*
X130532585Y-96635021D01*
X130482981Y-96689045D01*
X130411094Y-96722404D01*
X130345007Y-96729910D01*
X130269128Y-96718482D01*
X130200126Y-96680615D01*
X130178677Y-96660667D01*
X130135980Y-96598054D01*
X130115050Y-96522138D01*
X130112732Y-96482614D01*
X130122211Y-96406605D01*
X130153876Y-96335657D01*
X130180143Y-96302362D01*
X130240181Y-96255496D01*
X130311871Y-96225299D01*
X130382376Y-96209672D01*
X130349403Y-96024292D01*
X130272296Y-96043193D01*
X130203184Y-96070404D01*
X130133987Y-96111677D01*
X130075231Y-96163804D01*
X130062173Y-96178531D01*
X130017614Y-96242485D01*
X129985786Y-96313811D01*
X129966690Y-96392511D01*
X129960424Y-96467421D01*
X129960324Y-96478584D01*
X129965476Y-96553853D01*
X129983044Y-96632269D01*
X130013081Y-96706096D01*
X130053940Y-96771828D01*
X130103976Y-96825957D01*
X130157428Y-96865098D01*
X130227444Y-96898809D01*
X130300654Y-96916961D01*
X130351235Y-96920419D01*
X130427573Y-96911773D01*
X130498228Y-96885833D01*
X130528921Y-96868029D01*
X130588432Y-96817057D01*
X130633813Y-96755087D01*
X130656050Y-96712324D01*
X130678870Y-96782997D01*
X130716666Y-96850373D01*
X130767556Y-96906015D01*
X130785376Y-96920419D01*
X130851572Y-96959639D01*
X130927428Y-96984332D01*
X131003958Y-96994137D01*
X131031207Y-96994791D01*
X131115509Y-96987884D01*
X131194026Y-96967162D01*
X131266757Y-96932626D01*
X131333704Y-96884275D01*
X131369361Y-96850443D01*
X131416425Y-96793647D01*
X131459025Y-96720645D01*
X131488372Y-96640385D01*
X131502978Y-96565814D01*
X131507847Y-96485911D01*
X131502254Y-96402102D01*
X131485477Y-96324745D01*
X131457515Y-96253839D01*
X131418368Y-96189385D01*
X131390977Y-96155450D01*
X131336372Y-96103451D01*
X131275141Y-96062215D01*
X131207283Y-96031743D01*
X131132799Y-96012036D01*
X131087261Y-96005607D01*
G37*
G36*
X131085795Y-97172478D02*
G01*
X131069309Y-97367383D01*
X131143881Y-97384063D01*
X131213619Y-97413200D01*
X131274380Y-97458144D01*
X131283632Y-97467767D01*
X131327390Y-97531429D01*
X131350951Y-97604261D01*
X131355439Y-97657910D01*
X131345350Y-97737480D01*
X131315082Y-97809036D01*
X131264635Y-97872577D01*
X131252125Y-97884323D01*
X131188707Y-97929307D01*
X131114682Y-97959568D01*
X131039978Y-97974108D01*
X130978450Y-97977380D01*
X130901583Y-97971793D01*
X130825343Y-97952151D01*
X130759941Y-97918367D01*
X130722362Y-97887987D01*
X130672903Y-97826943D01*
X130641762Y-97755094D01*
X130629397Y-97681192D01*
X130628573Y-97654613D01*
X130636707Y-97579690D01*
X130663476Y-97506730D01*
X130671071Y-97493046D01*
X130716204Y-97432145D01*
X130772608Y-97384769D01*
X130780980Y-97379473D01*
X130758266Y-97205450D01*
X129983771Y-97351630D01*
X129983771Y-98103043D01*
X130159626Y-98103043D01*
X130159626Y-97500007D01*
X130565558Y-97418674D01*
X130526449Y-97487620D01*
X130498513Y-97558168D01*
X130481752Y-97630318D01*
X130476165Y-97704072D01*
X130482757Y-97787663D01*
X130502532Y-97865328D01*
X130535490Y-97937068D01*
X130581632Y-98002882D01*
X130613918Y-98037830D01*
X130677811Y-98090934D01*
X130749278Y-98130995D01*
X130828318Y-98158013D01*
X130902095Y-98170790D01*
X130967826Y-98174118D01*
X131043067Y-98169919D01*
X131125866Y-98154406D01*
X131203301Y-98127463D01*
X131275371Y-98089090D01*
X131323566Y-98054683D01*
X131386192Y-97996418D01*
X131435862Y-97930709D01*
X131472574Y-97857554D01*
X131496329Y-97776956D01*
X131506227Y-97704103D01*
X131507847Y-97657910D01*
X131503790Y-97583228D01*
X131488801Y-97502838D01*
X131462767Y-97429705D01*
X131425689Y-97363831D01*
X131392442Y-97321222D01*
X131338198Y-97269650D01*
X131276767Y-97228737D01*
X131208148Y-97198484D01*
X131132341Y-97178889D01*
X131085795Y-97172478D01*
G37*
G36*
X131109242Y-98739418D02*
G01*
X131053189Y-98738319D01*
X130974758Y-98742646D01*
X130899443Y-98757102D01*
X130863046Y-98769093D01*
X130794988Y-98803457D01*
X130741413Y-98842366D01*
X130686550Y-98894207D01*
X130632059Y-98952561D01*
X130611353Y-98975723D01*
X130561172Y-99029325D01*
X130506098Y-99079217D01*
X130474700Y-99100653D01*
X130403759Y-99126176D01*
X130363325Y-99129596D01*
X130285427Y-99117694D01*
X130214947Y-99081991D01*
X130172083Y-99044965D01*
X130124943Y-98982532D01*
X130097370Y-98911094D01*
X130089284Y-98838336D01*
X130098375Y-98761360D01*
X130129030Y-98687953D01*
X130166221Y-98640133D01*
X130229080Y-98592135D01*
X130303955Y-98559620D01*
X130376014Y-98541233D01*
X130405823Y-98536085D01*
X130383109Y-98345576D01*
X130305605Y-98358761D01*
X130224171Y-98383162D01*
X130152414Y-98417275D01*
X130090333Y-98461100D01*
X130051915Y-98498350D01*
X130007091Y-98558038D01*
X129973276Y-98625546D01*
X129950470Y-98700872D01*
X129938674Y-98784017D01*
X129936877Y-98835039D01*
X129941153Y-98915002D01*
X129953981Y-98988654D01*
X129979757Y-99066605D01*
X130017174Y-99135965D01*
X130058510Y-99188580D01*
X130114001Y-99239971D01*
X130183387Y-99283248D01*
X130259138Y-99310039D01*
X130341255Y-99320343D01*
X130351968Y-99320471D01*
X130430334Y-99312792D01*
X130503501Y-99289755D01*
X130535516Y-99273943D01*
X130597525Y-99231687D01*
X130654699Y-99181465D01*
X130710386Y-99124999D01*
X130739947Y-99092593D01*
X130790590Y-99037782D01*
X130843462Y-98986901D01*
X130859382Y-98974257D01*
X130926072Y-98939472D01*
X130947309Y-98932858D01*
X131023070Y-98921498D01*
X131102297Y-98917619D01*
X131109242Y-98917471D01*
X131109242Y-98739418D01*
G37*
G36*
X131484400Y-98728060D02*
G01*
X131273374Y-98728060D01*
X131273374Y-98939086D01*
X131484400Y-98939086D01*
X131484400Y-98728060D01*
G37*
G36*
X131484400Y-100141127D02*
G01*
X130382376Y-100141127D01*
X130382376Y-100308189D01*
X130551270Y-100308189D01*
X130485603Y-100347066D01*
X130423664Y-100394716D01*
X130396298Y-100425792D01*
X130365096Y-100494056D01*
X130358928Y-100545227D01*
X130368845Y-100621915D01*
X130395601Y-100693562D01*
X130419012Y-100735737D01*
X130592303Y-100671989D01*
X130562352Y-100603845D01*
X130552369Y-100535702D01*
X130568305Y-100461245D01*
X130589372Y-100426525D01*
X130646330Y-100376951D01*
X130691221Y-100357649D01*
X130768312Y-100338672D01*
X130843595Y-100328971D01*
X130908475Y-100326508D01*
X131484400Y-100326508D01*
X131484400Y-100141127D01*
G37*
G36*
X130991781Y-100781669D02*
G01*
X131069171Y-100789226D01*
X131154343Y-100807361D01*
X131231116Y-100835388D01*
X131299491Y-100873306D01*
X131359469Y-100921117D01*
X131377437Y-100939090D01*
X131424384Y-100997664D01*
X131460899Y-101063219D01*
X131486981Y-101135755D01*
X131502630Y-101215272D01*
X131507847Y-101301769D01*
X131507486Y-101325318D01*
X131500544Y-101403570D01*
X131484766Y-101475334D01*
X131455915Y-101549409D01*
X131415523Y-101615011D01*
X131409680Y-101622606D01*
X131357679Y-101677933D01*
X131296336Y-101723597D01*
X131225650Y-101759598D01*
X131156137Y-101783172D01*
X131132690Y-101591197D01*
X131180627Y-101571327D01*
X131248694Y-101530575D01*
X131302316Y-101476891D01*
X131317620Y-101453613D01*
X131346672Y-101380723D01*
X131355439Y-101302868D01*
X131355074Y-101285917D01*
X131342302Y-101206440D01*
X131311282Y-101135765D01*
X131262016Y-101073891D01*
X131209970Y-101033179D01*
X131139101Y-100999530D01*
X131065158Y-100980421D01*
X130992006Y-100972041D01*
X130992006Y-101788301D01*
X130941448Y-101789034D01*
X130874145Y-101786859D01*
X130795475Y-101778021D01*
X130722870Y-101762387D01*
X130643748Y-101734652D01*
X130573359Y-101697128D01*
X130511702Y-101649815D01*
X130459783Y-101594912D01*
X130412787Y-101523696D01*
X130380412Y-101444766D01*
X130364299Y-101370972D01*
X130359077Y-101293709D01*
X130511336Y-101293709D01*
X130513088Y-101328153D01*
X130529838Y-101399666D01*
X130569251Y-101469404D01*
X130623443Y-101523420D01*
X130687500Y-101560222D01*
X130764141Y-101582824D01*
X130839598Y-101593395D01*
X130839598Y-100982300D01*
X130812100Y-100984765D01*
X130735940Y-101000315D01*
X130662467Y-101031935D01*
X130600729Y-101078653D01*
X130595229Y-101084143D01*
X130549834Y-101143405D01*
X130520066Y-101217767D01*
X130511336Y-101293709D01*
X130359077Y-101293709D01*
X130358928Y-101291511D01*
X130359527Y-101263494D01*
X130368500Y-101183411D01*
X130388240Y-101109278D01*
X130418749Y-101041095D01*
X130460025Y-100978864D01*
X130512069Y-100922582D01*
X130562957Y-100881631D01*
X130632028Y-100841652D01*
X130709832Y-100811667D01*
X130781339Y-100794315D01*
X130858911Y-100783903D01*
X130942547Y-100780433D01*
X130991781Y-100781669D01*
G37*
G36*
X131484400Y-102010318D02*
G01*
X130382376Y-102010318D01*
X130382376Y-102176281D01*
X130534783Y-102176281D01*
X130475565Y-102223578D01*
X130426505Y-102282121D01*
X130407289Y-102312935D01*
X130377819Y-102380529D01*
X130361951Y-102454718D01*
X130358928Y-102507841D01*
X130364816Y-102586268D01*
X130384668Y-102659976D01*
X130408754Y-102707143D01*
X130459995Y-102766588D01*
X130526523Y-102808362D01*
X130548339Y-102817052D01*
X130483969Y-102868443D01*
X130432917Y-102925347D01*
X130390189Y-102998702D01*
X130365587Y-103079561D01*
X130358928Y-103154840D01*
X130364607Y-103231639D01*
X130384571Y-103306761D01*
X130423612Y-103376228D01*
X130449787Y-103405433D01*
X130515933Y-103451608D01*
X130591860Y-103478543D01*
X130672392Y-103490856D01*
X130728956Y-103492994D01*
X131484400Y-103492994D01*
X131484400Y-103308346D01*
X130788674Y-103308346D01*
X130713231Y-103305822D01*
X130640371Y-103294602D01*
X130627107Y-103290395D01*
X130566041Y-103249258D01*
X130547606Y-103224815D01*
X130520791Y-103155685D01*
X130517198Y-103113807D01*
X130526376Y-103039098D01*
X130557322Y-102968164D01*
X130594867Y-102922199D01*
X130659052Y-102878813D01*
X130736561Y-102854999D01*
X130811706Y-102846664D01*
X130842896Y-102845995D01*
X131484400Y-102845995D01*
X131484400Y-102660248D01*
X130766692Y-102660248D01*
X130688414Y-102654880D01*
X130614880Y-102634694D01*
X130579846Y-102614819D01*
X130532860Y-102555285D01*
X130517443Y-102479450D01*
X130517198Y-102466808D01*
X130527639Y-102391337D01*
X130558963Y-102321727D01*
X130610071Y-102264483D01*
X130675620Y-102227287D01*
X130680596Y-102225374D01*
X130757219Y-102206160D01*
X130832123Y-102198046D01*
X130911406Y-102195698D01*
X131484400Y-102195698D01*
X131484400Y-102010318D01*
G37*
G36*
X131000959Y-103691581D02*
G01*
X131079691Y-103700581D01*
X131152056Y-103716503D01*
X131230486Y-103744749D01*
X131299746Y-103782964D01*
X131359836Y-103831148D01*
X131377759Y-103849215D01*
X131424591Y-103907535D01*
X131461015Y-103972038D01*
X131487033Y-104042724D01*
X131502643Y-104119591D01*
X131507847Y-104202642D01*
X131506210Y-104246861D01*
X131495014Y-104323706D01*
X131473211Y-104397016D01*
X131440802Y-104466790D01*
X131418412Y-104503273D01*
X131371439Y-104561819D01*
X131315888Y-104611207D01*
X131251758Y-104651438D01*
X131219936Y-104666293D01*
X131147808Y-104690061D01*
X131075417Y-104704359D01*
X130994366Y-104712591D01*
X130918000Y-104714819D01*
X130869883Y-104713560D01*
X130794123Y-104705866D01*
X130710532Y-104687400D01*
X130634927Y-104658862D01*
X130567307Y-104620253D01*
X130507672Y-104571570D01*
X130489660Y-104553342D01*
X130442597Y-104494794D01*
X130405992Y-104430450D01*
X130379846Y-104360310D01*
X130364158Y-104284374D01*
X130358928Y-104202642D01*
X130511336Y-104202642D01*
X130512263Y-104227937D01*
X130528750Y-104306533D01*
X130565844Y-104376329D01*
X130616849Y-104431619D01*
X130630381Y-104442799D01*
X130700912Y-104484183D01*
X130776841Y-104508706D01*
X130853497Y-104520697D01*
X130926793Y-104523943D01*
X130953470Y-104523585D01*
X131028299Y-104518219D01*
X131105734Y-104503818D01*
X131181222Y-104476627D01*
X131249560Y-104432352D01*
X131268482Y-104414770D01*
X131318113Y-104350255D01*
X131347064Y-104276653D01*
X131355439Y-104202642D01*
X131354515Y-104176957D01*
X131338086Y-104097387D01*
X131301120Y-104027120D01*
X131250293Y-103971832D01*
X131229575Y-103955464D01*
X131165198Y-103919686D01*
X131087540Y-103895357D01*
X131008696Y-103883461D01*
X130933021Y-103880241D01*
X130906925Y-103880599D01*
X130833668Y-103885966D01*
X130757741Y-103900366D01*
X130683546Y-103927557D01*
X130616116Y-103971832D01*
X130597391Y-103989424D01*
X130548275Y-104054110D01*
X130519624Y-104128099D01*
X130511336Y-104202642D01*
X130358928Y-104202642D01*
X130360835Y-104152868D01*
X130373344Y-104070419D01*
X130397530Y-103993896D01*
X130433391Y-103923298D01*
X130480928Y-103858626D01*
X130490287Y-103848212D01*
X130552918Y-103792674D01*
X130626652Y-103749036D01*
X130696578Y-103721763D01*
X130774213Y-103702754D01*
X130859560Y-103692010D01*
X130933388Y-103689365D01*
X131000959Y-103691581D01*
G37*
G36*
X131484400Y-105230293D02*
G01*
X130382376Y-104814104D01*
X130382376Y-105010108D01*
X131043663Y-105244948D01*
X131118207Y-105270407D01*
X131194741Y-105294394D01*
X131266046Y-105314924D01*
X131195653Y-105336287D01*
X131122345Y-105360577D01*
X131056120Y-105383800D01*
X130382376Y-105627066D01*
X130382376Y-105817942D01*
X131484400Y-105403584D01*
X131484400Y-105230293D01*
G37*
G36*
X130991781Y-105915166D02*
G01*
X131069171Y-105922722D01*
X131154343Y-105940857D01*
X131231116Y-105968884D01*
X131299491Y-106006802D01*
X131359469Y-106054613D01*
X131377437Y-106072586D01*
X131424384Y-106131160D01*
X131460899Y-106196715D01*
X131486981Y-106269251D01*
X131502630Y-106348768D01*
X131507847Y-106435265D01*
X131507486Y-106458814D01*
X131500544Y-106537066D01*
X131484766Y-106608831D01*
X131455915Y-106682905D01*
X131415523Y-106748507D01*
X131409680Y-106756102D01*
X131357679Y-106811429D01*
X131296336Y-106857093D01*
X131225650Y-106893094D01*
X131156137Y-106916668D01*
X131132690Y-106724693D01*
X131180627Y-106704823D01*
X131248694Y-106664071D01*
X131302316Y-106610388D01*
X131317620Y-106587109D01*
X131346672Y-106514219D01*
X131355439Y-106436365D01*
X131355074Y-106419413D01*
X131342302Y-106339936D01*
X131311282Y-106269261D01*
X131262016Y-106207387D01*
X131209970Y-106166675D01*
X131139101Y-106133026D01*
X131065158Y-106113918D01*
X130992006Y-106105538D01*
X130992006Y-106921797D01*
X130941448Y-106922530D01*
X130874145Y-106920355D01*
X130795475Y-106911518D01*
X130722870Y-106895883D01*
X130643748Y-106868148D01*
X130573359Y-106830624D01*
X130511702Y-106783312D01*
X130459783Y-106728408D01*
X130412787Y-106657192D01*
X130380412Y-106578262D01*
X130364299Y-106504468D01*
X130359077Y-106427205D01*
X130511336Y-106427205D01*
X130513088Y-106461649D01*
X130529838Y-106533162D01*
X130569251Y-106602900D01*
X130623443Y-106656916D01*
X130687500Y-106693718D01*
X130764141Y-106716320D01*
X130839598Y-106726891D01*
X130839598Y-106115796D01*
X130812100Y-106118261D01*
X130735940Y-106133811D01*
X130662467Y-106165431D01*
X130600729Y-106212150D01*
X130595229Y-106217639D01*
X130549834Y-106276901D01*
X130520066Y-106351264D01*
X130511336Y-106427205D01*
X130359077Y-106427205D01*
X130358928Y-106425007D01*
X130359527Y-106396990D01*
X130368500Y-106316907D01*
X130388240Y-106242774D01*
X130418749Y-106174592D01*
X130460025Y-106112360D01*
X130512069Y-106056078D01*
X130562957Y-106015127D01*
X130632028Y-105975148D01*
X130709832Y-105945163D01*
X130781339Y-105927811D01*
X130858911Y-105917400D01*
X130942547Y-105913929D01*
X130991781Y-105915166D01*
G37*
G36*
X131063813Y-107648664D02*
G01*
X131038901Y-107828915D01*
X131116524Y-107835716D01*
X131194877Y-107853039D01*
X131261510Y-107886768D01*
X131269710Y-107893762D01*
X131314414Y-107957689D01*
X131331445Y-108034786D01*
X131331992Y-108053496D01*
X131322169Y-108127791D01*
X131297187Y-108183556D01*
X131243950Y-108238482D01*
X131202665Y-108258660D01*
X131130720Y-108273387D01*
X131050675Y-108278676D01*
X131011423Y-108279177D01*
X129960324Y-108279177D01*
X129960324Y-108479212D01*
X130997135Y-108479212D01*
X131076541Y-108477020D01*
X131157244Y-108469149D01*
X131235226Y-108453452D01*
X131293157Y-108433416D01*
X131359306Y-108395568D01*
X131413680Y-108344992D01*
X131452892Y-108287970D01*
X131484180Y-108215599D01*
X131501353Y-108142669D01*
X131507793Y-108062942D01*
X131507847Y-108054596D01*
X131502500Y-107972032D01*
X131486459Y-107898408D01*
X131455032Y-107825216D01*
X131409637Y-107763701D01*
X131396106Y-107750147D01*
X131333435Y-107704237D01*
X131257162Y-107672020D01*
X131179266Y-107655062D01*
X131104210Y-107648871D01*
X131063813Y-107648664D01*
G37*
G36*
X131308545Y-109699571D02*
G01*
X131484400Y-109699571D01*
X131484400Y-108700862D01*
X131410597Y-108706800D01*
X131355439Y-108722478D01*
X131285556Y-108754293D01*
X131222701Y-108792532D01*
X131160491Y-108839644D01*
X131154305Y-108844843D01*
X131096023Y-108897948D01*
X131040130Y-108955077D01*
X130988068Y-109012730D01*
X130933060Y-109077535D01*
X130924961Y-109087376D01*
X130875359Y-109146430D01*
X130817075Y-109213227D01*
X130762924Y-109272224D01*
X130703397Y-109332726D01*
X130641469Y-109389116D01*
X130602194Y-109420035D01*
X130536233Y-109462008D01*
X130465321Y-109492533D01*
X130390211Y-109506524D01*
X130376880Y-109506864D01*
X130298295Y-109495735D01*
X130229602Y-109462350D01*
X130189302Y-109427729D01*
X130145708Y-109367948D01*
X130120209Y-109296911D01*
X130112732Y-109222565D01*
X130120925Y-109143983D01*
X130148863Y-109069608D01*
X130196629Y-109007875D01*
X130261971Y-108962066D01*
X130334671Y-108936649D01*
X130410931Y-108926989D01*
X130429270Y-108926543D01*
X130409120Y-108736033D01*
X130330634Y-108747127D01*
X130259489Y-108765846D01*
X130185766Y-108797322D01*
X130122035Y-108839176D01*
X130075363Y-108883312D01*
X130030538Y-108943441D01*
X129996723Y-109011950D01*
X129973918Y-109088839D01*
X129963133Y-109161413D01*
X129960324Y-109226595D01*
X129964587Y-109304884D01*
X129980338Y-109388179D01*
X130007694Y-109462814D01*
X130046656Y-109528789D01*
X130081591Y-109570611D01*
X130137415Y-109620004D01*
X130207997Y-109661597D01*
X130285815Y-109687346D01*
X130359842Y-109696878D01*
X130382009Y-109697373D01*
X130455646Y-109691266D01*
X130528315Y-109672945D01*
X130561528Y-109660370D01*
X130628813Y-109625714D01*
X130692844Y-109581817D01*
X130746908Y-109537272D01*
X130807464Y-109479830D01*
X130862496Y-109422691D01*
X130915192Y-109365036D01*
X130972989Y-109299370D01*
X131014354Y-109251141D01*
X131064316Y-109192816D01*
X131114497Y-109135352D01*
X131166188Y-109078213D01*
X131206695Y-109036818D01*
X131263805Y-108988866D01*
X131308545Y-108958783D01*
X131308545Y-109699571D01*
G37*
G36*
X134004400Y-83709323D02*
G01*
X132480324Y-83709323D01*
X132480324Y-83914121D01*
X133676870Y-84707666D01*
X132480324Y-84707666D01*
X132480324Y-84899275D01*
X134004400Y-84899275D01*
X134004400Y-84694477D01*
X132806755Y-83900932D01*
X134004400Y-83900932D01*
X134004400Y-83709323D01*
G37*
G36*
X133520959Y-85135963D02*
G01*
X133599691Y-85144963D01*
X133672056Y-85160886D01*
X133750486Y-85189132D01*
X133819746Y-85227347D01*
X133879836Y-85275531D01*
X133897759Y-85293597D01*
X133944591Y-85351918D01*
X133981015Y-85416421D01*
X134007033Y-85487106D01*
X134022643Y-85563974D01*
X134027847Y-85647024D01*
X134026210Y-85691244D01*
X134015014Y-85768089D01*
X133993211Y-85841399D01*
X133960802Y-85911173D01*
X133938412Y-85947655D01*
X133891439Y-86006201D01*
X133835888Y-86055590D01*
X133771758Y-86095820D01*
X133739936Y-86110675D01*
X133667808Y-86134443D01*
X133595417Y-86148741D01*
X133514366Y-86156973D01*
X133438000Y-86159201D01*
X133389883Y-86157942D01*
X133314123Y-86150248D01*
X133230532Y-86131783D01*
X133154927Y-86103245D01*
X133087307Y-86064635D01*
X133027672Y-86015953D01*
X133009660Y-85997725D01*
X132962597Y-85939177D01*
X132925992Y-85874832D01*
X132899846Y-85804692D01*
X132884158Y-85728756D01*
X132878928Y-85647024D01*
X133031336Y-85647024D01*
X133032263Y-85672319D01*
X133048750Y-85750916D01*
X133085844Y-85820711D01*
X133136849Y-85876002D01*
X133150381Y-85887182D01*
X133220912Y-85928565D01*
X133296841Y-85953088D01*
X133373497Y-85965080D01*
X133446793Y-85968326D01*
X133473470Y-85967968D01*
X133548299Y-85962601D01*
X133625734Y-85948201D01*
X133701222Y-85921009D01*
X133769560Y-85876734D01*
X133788482Y-85859152D01*
X133838113Y-85794638D01*
X133867064Y-85721036D01*
X133875439Y-85647024D01*
X133874515Y-85621339D01*
X133858086Y-85541769D01*
X133821120Y-85471502D01*
X133770293Y-85416215D01*
X133749575Y-85399846D01*
X133685198Y-85364068D01*
X133607540Y-85339740D01*
X133528696Y-85327843D01*
X133453021Y-85324623D01*
X133426925Y-85324981D01*
X133353668Y-85330348D01*
X133277741Y-85344748D01*
X133203546Y-85371940D01*
X133136116Y-85416215D01*
X133117391Y-85433806D01*
X133068275Y-85498493D01*
X133039624Y-85572481D01*
X133031336Y-85647024D01*
X132878928Y-85647024D01*
X132880835Y-85597250D01*
X132893344Y-85514801D01*
X132917530Y-85438278D01*
X132953391Y-85367680D01*
X133000928Y-85303008D01*
X133010287Y-85292595D01*
X133072918Y-85237056D01*
X133146652Y-85193419D01*
X133216578Y-85166145D01*
X133294213Y-85147136D01*
X133379560Y-85136392D01*
X133453388Y-85133748D01*
X133520959Y-85135963D01*
G37*
G36*
X133834406Y-86775792D02*
G01*
X134004400Y-86802537D01*
X134021985Y-86728348D01*
X134027847Y-86662586D01*
X134022526Y-86587926D01*
X134001368Y-86516623D01*
X133995607Y-86505782D01*
X133946978Y-86449053D01*
X133910244Y-86427380D01*
X133835105Y-86411339D01*
X133756480Y-86406101D01*
X133687861Y-86405032D01*
X133048921Y-86405032D01*
X133048921Y-86268744D01*
X132902376Y-86268744D01*
X132902376Y-86405032D01*
X132636395Y-86405032D01*
X132527219Y-86589313D01*
X132902376Y-86589313D01*
X132902376Y-86775792D01*
X133048921Y-86775792D01*
X133048921Y-86589313D01*
X133702882Y-86589313D01*
X133778928Y-86592671D01*
X133807296Y-86598838D01*
X133844298Y-86630712D01*
X133857854Y-86694459D01*
X133838597Y-86766487D01*
X133834406Y-86775792D01*
G37*
G36*
X134004400Y-88254439D02*
G01*
X133843566Y-88254439D01*
X133906192Y-88203271D01*
X133955862Y-88145663D01*
X133992574Y-88081615D01*
X134016329Y-88011127D01*
X134027127Y-87934199D01*
X134027847Y-87907125D01*
X134021679Y-87830656D01*
X134003177Y-87758420D01*
X133990478Y-87726508D01*
X133954133Y-87661302D01*
X133903666Y-87606874D01*
X133896688Y-87601577D01*
X133829608Y-87565194D01*
X133758569Y-87544425D01*
X133681982Y-87535563D01*
X133606007Y-87533167D01*
X133584180Y-87533067D01*
X132902376Y-87533067D01*
X132902376Y-87718814D01*
X133514204Y-87718814D01*
X133589072Y-87719712D01*
X133665365Y-87723705D01*
X133711674Y-87730171D01*
X133781024Y-87759634D01*
X133827446Y-87804177D01*
X133860320Y-87872061D01*
X133869577Y-87944494D01*
X133860159Y-88020288D01*
X133831903Y-88091734D01*
X133826713Y-88100932D01*
X133779341Y-88160207D01*
X133713728Y-88202671D01*
X133709110Y-88204613D01*
X133637618Y-88224301D01*
X133559839Y-88233121D01*
X133493321Y-88235021D01*
X132902376Y-88235021D01*
X132902376Y-88420402D01*
X134004400Y-88420402D01*
X134004400Y-88254439D01*
G37*
G36*
X133681266Y-88631061D02*
G01*
X133652690Y-88814610D01*
X133726415Y-88833878D01*
X133790354Y-88872194D01*
X133817920Y-88900339D01*
X133855162Y-88967040D01*
X133872687Y-89045033D01*
X133875439Y-89097809D01*
X133870323Y-89171282D01*
X133850677Y-89242449D01*
X133823049Y-89287586D01*
X133765713Y-89334022D01*
X133699218Y-89349501D01*
X133627548Y-89325834D01*
X133599201Y-89294547D01*
X133568905Y-89222114D01*
X133547510Y-89149656D01*
X133535820Y-89105136D01*
X133516938Y-89033017D01*
X133496146Y-88960012D01*
X133471371Y-88883769D01*
X133446427Y-88822303D01*
X133404771Y-88756830D01*
X133346496Y-88705447D01*
X133342379Y-88702868D01*
X133272221Y-88672369D01*
X133195101Y-88662202D01*
X133120247Y-88671611D01*
X133059180Y-88695541D01*
X132998716Y-88737892D01*
X132955499Y-88786766D01*
X132919206Y-88853112D01*
X132901277Y-88904735D01*
X132885236Y-88977137D01*
X132879016Y-89054207D01*
X132878928Y-89064836D01*
X132882506Y-89142324D01*
X132894706Y-89220370D01*
X132915565Y-89290883D01*
X132949625Y-89361659D01*
X132995907Y-89419081D01*
X133014850Y-89434864D01*
X133082920Y-89472044D01*
X133157022Y-89493849D01*
X133182644Y-89498612D01*
X133207191Y-89317261D01*
X133133460Y-89293356D01*
X133077864Y-89245820D01*
X133044468Y-89179472D01*
X133032063Y-89104650D01*
X133031336Y-89078392D01*
X133036358Y-88999145D01*
X133055241Y-88927816D01*
X133073834Y-88895942D01*
X133132682Y-88849031D01*
X133173485Y-88841354D01*
X133238698Y-88864069D01*
X133283418Y-88923454D01*
X133288524Y-88935143D01*
X133310263Y-89006309D01*
X133331586Y-89082340D01*
X133336151Y-89098908D01*
X133358320Y-89179283D01*
X133381424Y-89257187D01*
X133404570Y-89327039D01*
X133422613Y-89373315D01*
X133460893Y-89439067D01*
X133516455Y-89492877D01*
X133520432Y-89495681D01*
X133587381Y-89527500D01*
X133662214Y-89539621D01*
X133679801Y-89540011D01*
X133753893Y-89531062D01*
X133824357Y-89504216D01*
X133855656Y-89485789D01*
X133912001Y-89438597D01*
X133957940Y-89377803D01*
X133982784Y-89329718D01*
X134008440Y-89256493D01*
X134022522Y-89184365D01*
X134027803Y-89106942D01*
X134027847Y-89098908D01*
X134024781Y-89022517D01*
X134013456Y-88942412D01*
X133990295Y-88862757D01*
X133956235Y-88795786D01*
X133940652Y-88773943D01*
X133884734Y-88717464D01*
X133815484Y-88673737D01*
X133742738Y-88645572D01*
X133681266Y-88631061D01*
G37*
G36*
X132691350Y-89755799D02*
G01*
X132480324Y-89755799D01*
X132480324Y-89941180D01*
X132691350Y-89941180D01*
X132691350Y-89755799D01*
G37*
G36*
X134004400Y-89755799D02*
G01*
X132902376Y-89755799D01*
X132902376Y-89941180D01*
X134004400Y-89941180D01*
X134004400Y-89755799D01*
G37*
G36*
X134004400Y-90220716D02*
G01*
X132902376Y-90220716D01*
X132902376Y-90387411D01*
X133056981Y-90387411D01*
X132996471Y-90436385D01*
X132948480Y-90492907D01*
X132908314Y-90568388D01*
X132887449Y-90641263D01*
X132879102Y-90721686D01*
X132878928Y-90735824D01*
X132884854Y-90813534D01*
X132902631Y-90885924D01*
X132914832Y-90917540D01*
X132950275Y-90982245D01*
X133001429Y-91036444D01*
X133008621Y-91041738D01*
X133076329Y-91078693D01*
X133146374Y-91099623D01*
X133223284Y-91107628D01*
X133304093Y-91109792D01*
X133327725Y-91109882D01*
X134004400Y-91109882D01*
X134004400Y-90924501D01*
X133332487Y-90924501D01*
X133254898Y-90921462D01*
X133180806Y-90909113D01*
X133161762Y-90902886D01*
X133099795Y-90862700D01*
X133071270Y-90825949D01*
X133043719Y-90757982D01*
X133037198Y-90696623D01*
X133046159Y-90619077D01*
X133073043Y-90549150D01*
X133113035Y-90492192D01*
X133173779Y-90446790D01*
X133251268Y-90420305D01*
X133326484Y-90409123D01*
X133401364Y-90406096D01*
X134004400Y-90406096D01*
X134004400Y-90220716D01*
G37*
G36*
X133476260Y-91318093D02*
G01*
X133558305Y-91325327D01*
X133635765Y-91341242D01*
X133708640Y-91365839D01*
X133776930Y-91399116D01*
X133840635Y-91441075D01*
X133896289Y-91491092D01*
X133946666Y-91558497D01*
X133981370Y-91635649D01*
X133998642Y-91709537D01*
X134004400Y-91790586D01*
X134003150Y-91824062D01*
X133990518Y-91898063D01*
X133959423Y-91975595D01*
X133917638Y-92037274D01*
X133862250Y-92093203D01*
X133945461Y-92092791D01*
X134027449Y-92089571D01*
X134101120Y-92080014D01*
X134123737Y-92073082D01*
X134192709Y-92037729D01*
X134245834Y-91985126D01*
X134273075Y-91935631D01*
X134292446Y-91861030D01*
X134297491Y-91786190D01*
X134295688Y-91743180D01*
X134281262Y-91667823D01*
X134246200Y-91597879D01*
X134196832Y-91556297D01*
X134124933Y-91534864D01*
X134098189Y-91354613D01*
X134161155Y-91357481D01*
X134235412Y-91374929D01*
X134305705Y-91413170D01*
X134361971Y-91471117D01*
X134372618Y-91486477D01*
X134408339Y-91553785D01*
X134433069Y-91630481D01*
X134445691Y-91705291D01*
X134449898Y-91787289D01*
X134447709Y-91847284D01*
X134437977Y-91921587D01*
X134417724Y-91997406D01*
X134387617Y-92064993D01*
X134379655Y-92078861D01*
X134334568Y-92141071D01*
X134280680Y-92191403D01*
X134217990Y-92229857D01*
X134172592Y-92247537D01*
X134095633Y-92265420D01*
X134012891Y-92275734D01*
X133930528Y-92280611D01*
X133853824Y-92281881D01*
X132902376Y-92281881D01*
X132902376Y-92110789D01*
X133034267Y-92110789D01*
X132997859Y-92078308D01*
X132945827Y-92016343D01*
X132908661Y-91947857D01*
X132886362Y-91872849D01*
X132880164Y-91804875D01*
X133031336Y-91804875D01*
X133031740Y-91820439D01*
X133045865Y-91893970D01*
X133080168Y-91960345D01*
X133134651Y-92019564D01*
X133141183Y-92025064D01*
X133208761Y-92066705D01*
X133282114Y-92091847D01*
X133356553Y-92104679D01*
X133440565Y-92108957D01*
X133453735Y-92108872D01*
X133539758Y-92103530D01*
X133614981Y-92089879D01*
X133687728Y-92064101D01*
X133752707Y-92022129D01*
X133764730Y-92011159D01*
X133813209Y-91951460D01*
X133842296Y-91883676D01*
X133851992Y-91807806D01*
X133851601Y-91791899D01*
X133837927Y-91717388D01*
X133804718Y-91651249D01*
X133751975Y-91593483D01*
X133739013Y-91583146D01*
X133669316Y-91544882D01*
X133591744Y-91522208D01*
X133511810Y-91511121D01*
X133434337Y-91508120D01*
X133421931Y-91508204D01*
X133340479Y-91513524D01*
X133268458Y-91527118D01*
X133197699Y-91552786D01*
X133132819Y-91594582D01*
X133126575Y-91600022D01*
X133075041Y-91658440D01*
X133041246Y-91731130D01*
X133031336Y-91804875D01*
X132880164Y-91804875D01*
X132878928Y-91791319D01*
X132880062Y-91755633D01*
X132890900Y-91679609D01*
X132913215Y-91609497D01*
X132951469Y-91538528D01*
X132970554Y-91512396D01*
X133026582Y-91454028D01*
X133087163Y-91410001D01*
X133157365Y-91374030D01*
X133216723Y-91352046D01*
X133296492Y-91331715D01*
X133370658Y-91321136D01*
X133447892Y-91317610D01*
X133476260Y-91318093D01*
G37*
G36*
X134004400Y-93708503D02*
G01*
X134004298Y-93725508D01*
X134001326Y-93798982D01*
X133993197Y-93874773D01*
X133978388Y-93951037D01*
X133965850Y-93995869D01*
X133938974Y-94065790D01*
X133902184Y-94131654D01*
X133878276Y-94163774D01*
X133824389Y-94220354D01*
X133763698Y-94269041D01*
X133752527Y-94276827D01*
X133684639Y-94316431D01*
X133613455Y-94347701D01*
X133541681Y-94371989D01*
X133463126Y-94391470D01*
X133388045Y-94403434D01*
X133308017Y-94410361D01*
X133233935Y-94412289D01*
X133183721Y-94411362D01*
X133099261Y-94405276D01*
X133019149Y-94393510D01*
X132943384Y-94376064D01*
X132871968Y-94352938D01*
X132796199Y-94319645D01*
X132727528Y-94278749D01*
X132665956Y-94230252D01*
X132611483Y-94174152D01*
X132601782Y-94162555D01*
X132559035Y-94100101D01*
X132525876Y-94030206D01*
X132502306Y-93952868D01*
X132495973Y-93921863D01*
X132486528Y-93847617D01*
X132481698Y-93766847D01*
X132480324Y-93683957D01*
X132480324Y-93363388D01*
X132656179Y-93363388D01*
X132656179Y-93680660D01*
X132656456Y-93713250D01*
X132659902Y-93791721D01*
X132668487Y-93865330D01*
X132687686Y-93939313D01*
X132700011Y-93966630D01*
X132742494Y-94030314D01*
X132794983Y-94082002D01*
X132860977Y-94128357D01*
X132913278Y-94154877D01*
X132984259Y-94178882D01*
X133065969Y-94195419D01*
X133144545Y-94203649D01*
X133231005Y-94206393D01*
X133294310Y-94204989D01*
X133373067Y-94198749D01*
X133453950Y-94185763D01*
X133526660Y-94166459D01*
X133591344Y-94141710D01*
X133659697Y-94104692D01*
X133720834Y-94055817D01*
X133727155Y-94049362D01*
X133771233Y-93988042D01*
X133800335Y-93920262D01*
X133802070Y-93914887D01*
X133818600Y-93840561D01*
X133826313Y-93764769D01*
X133828545Y-93685789D01*
X133828545Y-93363388D01*
X132656179Y-93363388D01*
X132480324Y-93363388D01*
X132480324Y-93163353D01*
X134004400Y-93163353D01*
X134004400Y-93708503D01*
G37*
G36*
X134004400Y-94684864D02*
G01*
X132480324Y-94684864D01*
X132480324Y-94884899D01*
X133113402Y-94884899D01*
X133113402Y-95670018D01*
X132480324Y-95670018D01*
X132480324Y-95870053D01*
X134004400Y-95870053D01*
X134004400Y-95670018D01*
X133289256Y-95670018D01*
X133289256Y-94884899D01*
X134004400Y-94884899D01*
X134004400Y-94684864D01*
G37*
G36*
X134004400Y-96578235D02*
G01*
X132656179Y-96578235D01*
X132656179Y-96080712D01*
X132480324Y-96080712D01*
X132480324Y-97277991D01*
X132656179Y-97277991D01*
X132656179Y-96778270D01*
X134004400Y-96778270D01*
X134004400Y-96578235D01*
G37*
G36*
X134004400Y-98099746D02*
G01*
X134004400Y-97914365D01*
X132816647Y-97914365D01*
X132865281Y-97858209D01*
X132909863Y-97796412D01*
X132946339Y-97738510D01*
X132983491Y-97672687D01*
X133017085Y-97605322D01*
X133043060Y-97543238D01*
X132855481Y-97543238D01*
X132822290Y-97609483D01*
X132780793Y-97680598D01*
X132735496Y-97746813D01*
X132686397Y-97808127D01*
X132679993Y-97815447D01*
X132628908Y-97869440D01*
X132572368Y-97920000D01*
X132510701Y-97963535D01*
X132480324Y-97980311D01*
X132480324Y-98099746D01*
X134004400Y-98099746D01*
G37*
G36*
X134004400Y-99110911D02*
G01*
X134004400Y-98925531D01*
X132816647Y-98925531D01*
X132865281Y-98869374D01*
X132909863Y-98807578D01*
X132946339Y-98749676D01*
X132983491Y-98683852D01*
X133017085Y-98616487D01*
X133043060Y-98554404D01*
X132855481Y-98554404D01*
X132822290Y-98620649D01*
X132780793Y-98691763D01*
X132735496Y-98757978D01*
X132686397Y-98819293D01*
X132679993Y-98826612D01*
X132628908Y-98880605D01*
X132572368Y-98931166D01*
X132510701Y-98974700D01*
X132480324Y-98991476D01*
X132480324Y-99110911D01*
X134004400Y-99110911D01*
G37*
G36*
X133629242Y-99979194D02*
G01*
X133573189Y-99978095D01*
X133494758Y-99982423D01*
X133419443Y-99996879D01*
X133383046Y-100008870D01*
X133314988Y-100043234D01*
X133261413Y-100082143D01*
X133206550Y-100133983D01*
X133152059Y-100192338D01*
X133131353Y-100215499D01*
X133081172Y-100269102D01*
X133026098Y-100318994D01*
X132994700Y-100340429D01*
X132923759Y-100365952D01*
X132883325Y-100369372D01*
X132805427Y-100357471D01*
X132734947Y-100321768D01*
X132692083Y-100284742D01*
X132644943Y-100222308D01*
X132617370Y-100150870D01*
X132609284Y-100078113D01*
X132618375Y-100001137D01*
X132649030Y-99927730D01*
X132686221Y-99879910D01*
X132749080Y-99831912D01*
X132823955Y-99799397D01*
X132896014Y-99781010D01*
X132925823Y-99775862D01*
X132903109Y-99585353D01*
X132825605Y-99598538D01*
X132744171Y-99622938D01*
X132672414Y-99657051D01*
X132610333Y-99700877D01*
X132571915Y-99738127D01*
X132527091Y-99797815D01*
X132493276Y-99865322D01*
X132470470Y-99940648D01*
X132458674Y-100023793D01*
X132456877Y-100074815D01*
X132461153Y-100154779D01*
X132473981Y-100228431D01*
X132499757Y-100306382D01*
X132537174Y-100375742D01*
X132578510Y-100428357D01*
X132634001Y-100479748D01*
X132703387Y-100523025D01*
X132779138Y-100549815D01*
X132861255Y-100560119D01*
X132871968Y-100560248D01*
X132950334Y-100552569D01*
X133023501Y-100529532D01*
X133055516Y-100513720D01*
X133117525Y-100471464D01*
X133174699Y-100421241D01*
X133230386Y-100364776D01*
X133259947Y-100332369D01*
X133310590Y-100277559D01*
X133363462Y-100226678D01*
X133379382Y-100214034D01*
X133446072Y-100179249D01*
X133467309Y-100172635D01*
X133543070Y-100161274D01*
X133622297Y-100157395D01*
X133629242Y-100157247D01*
X133629242Y-99979194D01*
G37*
G36*
X134004400Y-99967837D02*
G01*
X133793374Y-99967837D01*
X133793374Y-100178863D01*
X134004400Y-100178863D01*
X134004400Y-99967837D01*
G37*
G36*
X134004400Y-101380904D02*
G01*
X132902376Y-101380904D01*
X132902376Y-101547966D01*
X133071270Y-101547966D01*
X133005603Y-101586842D01*
X132943664Y-101634493D01*
X132916298Y-101665569D01*
X132885096Y-101733832D01*
X132878928Y-101785004D01*
X132888845Y-101861691D01*
X132915601Y-101933338D01*
X132939012Y-101975513D01*
X133112303Y-101911766D01*
X133082352Y-101843622D01*
X133072369Y-101775478D01*
X133088305Y-101701021D01*
X133109372Y-101666302D01*
X133166330Y-101616728D01*
X133211221Y-101597425D01*
X133288312Y-101578449D01*
X133363595Y-101568748D01*
X133428475Y-101566284D01*
X134004400Y-101566284D01*
X134004400Y-101380904D01*
G37*
G36*
X133511781Y-102021446D02*
G01*
X133589171Y-102029002D01*
X133674343Y-102047137D01*
X133751116Y-102075164D01*
X133819491Y-102113083D01*
X133879469Y-102160894D01*
X133897437Y-102178867D01*
X133944384Y-102237441D01*
X133980899Y-102302996D01*
X134006981Y-102375531D01*
X134022630Y-102455048D01*
X134027847Y-102541546D01*
X134027486Y-102565095D01*
X134020544Y-102643346D01*
X134004766Y-102715111D01*
X133975915Y-102789185D01*
X133935523Y-102854787D01*
X133929680Y-102862383D01*
X133877679Y-102917709D01*
X133816336Y-102963373D01*
X133745650Y-102999374D01*
X133676137Y-103022949D01*
X133652690Y-102830974D01*
X133700627Y-102811104D01*
X133768694Y-102770351D01*
X133822316Y-102716668D01*
X133837620Y-102693389D01*
X133866672Y-102620500D01*
X133875439Y-102542645D01*
X133875074Y-102525694D01*
X133862302Y-102446217D01*
X133831282Y-102375542D01*
X133782016Y-102313667D01*
X133729970Y-102272955D01*
X133659101Y-102239306D01*
X133585158Y-102220198D01*
X133512006Y-102211818D01*
X133512006Y-103028078D01*
X133461448Y-103028811D01*
X133394145Y-103026635D01*
X133315475Y-103017798D01*
X133242870Y-103002163D01*
X133163748Y-102974428D01*
X133093359Y-102936905D01*
X133031702Y-102889592D01*
X132979783Y-102834689D01*
X132932787Y-102763473D01*
X132900412Y-102684543D01*
X132884299Y-102610749D01*
X132879077Y-102533486D01*
X133031336Y-102533486D01*
X133033088Y-102567930D01*
X133049838Y-102639443D01*
X133089251Y-102709181D01*
X133143443Y-102763196D01*
X133207500Y-102799999D01*
X133284141Y-102822601D01*
X133359598Y-102833172D01*
X133359598Y-102222076D01*
X133332100Y-102224542D01*
X133255940Y-102240091D01*
X133182467Y-102271712D01*
X133120729Y-102318430D01*
X133115229Y-102323920D01*
X133069834Y-102383182D01*
X133040066Y-102457544D01*
X133031336Y-102533486D01*
X132879077Y-102533486D01*
X132878928Y-102531288D01*
X132879527Y-102503271D01*
X132888500Y-102423187D01*
X132908240Y-102349055D01*
X132938749Y-102280872D01*
X132980025Y-102218640D01*
X133032069Y-102162359D01*
X133082957Y-102121408D01*
X133152028Y-102081428D01*
X133229832Y-102051444D01*
X133301339Y-102034091D01*
X133378911Y-102023680D01*
X133462547Y-102020210D01*
X133511781Y-102021446D01*
G37*
G36*
X134004400Y-103250095D02*
G01*
X132902376Y-103250095D01*
X132902376Y-103416058D01*
X133054783Y-103416058D01*
X132995565Y-103463355D01*
X132946505Y-103521898D01*
X132927289Y-103552711D01*
X132897819Y-103620306D01*
X132881951Y-103694494D01*
X132878928Y-103747617D01*
X132884816Y-103826045D01*
X132904668Y-103899753D01*
X132928754Y-103946919D01*
X132979995Y-104006365D01*
X133046523Y-104048139D01*
X133068339Y-104056829D01*
X133003969Y-104108220D01*
X132952917Y-104165124D01*
X132910189Y-104238479D01*
X132885587Y-104319337D01*
X132878928Y-104394617D01*
X132884607Y-104471416D01*
X132904571Y-104546538D01*
X132943612Y-104616004D01*
X132969787Y-104645210D01*
X133035933Y-104691384D01*
X133111860Y-104718320D01*
X133192392Y-104730633D01*
X133248956Y-104732771D01*
X134004400Y-104732771D01*
X134004400Y-104548123D01*
X133308674Y-104548123D01*
X133233231Y-104545599D01*
X133160371Y-104534379D01*
X133147107Y-104530171D01*
X133086041Y-104489035D01*
X133067606Y-104464592D01*
X133040791Y-104395462D01*
X133037198Y-104353584D01*
X133046376Y-104278875D01*
X133077322Y-104207941D01*
X133114867Y-104161975D01*
X133179052Y-104118590D01*
X133256561Y-104094776D01*
X133331706Y-104086441D01*
X133362896Y-104085771D01*
X134004400Y-104085771D01*
X134004400Y-103900025D01*
X133286692Y-103900025D01*
X133208414Y-103894657D01*
X133134880Y-103874471D01*
X133099846Y-103854596D01*
X133052860Y-103795061D01*
X133037443Y-103719227D01*
X133037198Y-103706584D01*
X133047639Y-103631113D01*
X133078963Y-103561504D01*
X133130071Y-103504260D01*
X133195620Y-103467063D01*
X133200596Y-103465150D01*
X133277219Y-103445937D01*
X133352123Y-103437822D01*
X133431406Y-103435475D01*
X134004400Y-103435475D01*
X134004400Y-103250095D01*
G37*
G36*
X133520959Y-104931357D02*
G01*
X133599691Y-104940357D01*
X133672056Y-104956280D01*
X133750486Y-104984526D01*
X133819746Y-105022741D01*
X133879836Y-105070925D01*
X133897759Y-105088991D01*
X133944591Y-105147312D01*
X133981015Y-105211815D01*
X134007033Y-105282500D01*
X134022643Y-105359368D01*
X134027847Y-105442418D01*
X134026210Y-105486638D01*
X134015014Y-105563483D01*
X133993211Y-105636793D01*
X133960802Y-105706567D01*
X133938412Y-105743050D01*
X133891439Y-105801596D01*
X133835888Y-105850984D01*
X133771758Y-105891215D01*
X133739936Y-105906069D01*
X133667808Y-105929837D01*
X133595417Y-105944135D01*
X133514366Y-105952367D01*
X133438000Y-105954596D01*
X133389883Y-105953337D01*
X133314123Y-105945643D01*
X133230532Y-105927177D01*
X133154927Y-105898639D01*
X133087307Y-105860029D01*
X133027672Y-105811347D01*
X133009660Y-105793119D01*
X132962597Y-105734571D01*
X132925992Y-105670227D01*
X132899846Y-105600087D01*
X132884158Y-105524150D01*
X132878928Y-105442418D01*
X133031336Y-105442418D01*
X133032263Y-105467714D01*
X133048750Y-105546310D01*
X133085844Y-105616105D01*
X133136849Y-105671396D01*
X133150381Y-105682576D01*
X133220912Y-105723959D01*
X133296841Y-105748483D01*
X133373497Y-105760474D01*
X133446793Y-105763720D01*
X133473470Y-105763362D01*
X133548299Y-105757995D01*
X133625734Y-105743595D01*
X133701222Y-105716404D01*
X133769560Y-105672129D01*
X133788482Y-105654546D01*
X133838113Y-105590032D01*
X133867064Y-105516430D01*
X133875439Y-105442418D01*
X133874515Y-105416733D01*
X133858086Y-105337164D01*
X133821120Y-105266896D01*
X133770293Y-105211609D01*
X133749575Y-105195241D01*
X133685198Y-105159463D01*
X133607540Y-105135134D01*
X133528696Y-105123238D01*
X133453021Y-105120018D01*
X133426925Y-105120376D01*
X133353668Y-105125742D01*
X133277741Y-105140143D01*
X133203546Y-105167334D01*
X133136116Y-105211609D01*
X133117391Y-105229201D01*
X133068275Y-105293887D01*
X133039624Y-105367875D01*
X133031336Y-105442418D01*
X132878928Y-105442418D01*
X132880835Y-105392644D01*
X132893344Y-105310196D01*
X132917530Y-105233672D01*
X132953391Y-105163075D01*
X133000928Y-105098402D01*
X133010287Y-105087989D01*
X133072918Y-105032450D01*
X133146652Y-104988813D01*
X133216578Y-104961539D01*
X133294213Y-104942531D01*
X133379560Y-104931787D01*
X133453388Y-104929142D01*
X133520959Y-104931357D01*
G37*
G36*
X134004400Y-106470070D02*
G01*
X132902376Y-106053880D01*
X132902376Y-106249885D01*
X133563663Y-106484725D01*
X133638207Y-106510184D01*
X133714741Y-106534171D01*
X133786046Y-106554700D01*
X133715653Y-106576064D01*
X133642345Y-106600354D01*
X133576120Y-106623577D01*
X132902376Y-106866843D01*
X132902376Y-107057718D01*
X134004400Y-106643360D01*
X134004400Y-106470070D01*
G37*
G36*
X133511781Y-107154942D02*
G01*
X133589171Y-107162499D01*
X133674343Y-107180634D01*
X133751116Y-107208660D01*
X133819491Y-107246579D01*
X133879469Y-107294390D01*
X133897437Y-107312363D01*
X133944384Y-107370937D01*
X133980899Y-107436492D01*
X134006981Y-107509028D01*
X134022630Y-107588544D01*
X134027847Y-107675042D01*
X134027486Y-107698591D01*
X134020544Y-107776842D01*
X134004766Y-107848607D01*
X133975915Y-107922682D01*
X133935523Y-107988284D01*
X133929680Y-107995879D01*
X133877679Y-108051206D01*
X133816336Y-108096870D01*
X133745650Y-108132871D01*
X133676137Y-108156445D01*
X133652690Y-107964470D01*
X133700627Y-107944600D01*
X133768694Y-107903847D01*
X133822316Y-107850164D01*
X133837620Y-107826886D01*
X133866672Y-107753996D01*
X133875439Y-107676141D01*
X133875074Y-107659190D01*
X133862302Y-107579713D01*
X133831282Y-107509038D01*
X133782016Y-107447164D01*
X133729970Y-107406451D01*
X133659101Y-107372802D01*
X133585158Y-107353694D01*
X133512006Y-107345314D01*
X133512006Y-108161574D01*
X133461448Y-108162307D01*
X133394145Y-108160131D01*
X133315475Y-108151294D01*
X133242870Y-108135659D01*
X133163748Y-108107924D01*
X133093359Y-108070401D01*
X133031702Y-108023088D01*
X132979783Y-107968185D01*
X132932787Y-107896969D01*
X132900412Y-107818039D01*
X132884299Y-107744245D01*
X132879077Y-107666982D01*
X133031336Y-107666982D01*
X133033088Y-107701426D01*
X133049838Y-107772939D01*
X133089251Y-107842677D01*
X133143443Y-107896693D01*
X133207500Y-107933495D01*
X133284141Y-107956097D01*
X133359598Y-107966668D01*
X133359598Y-107355573D01*
X133332100Y-107358038D01*
X133255940Y-107373587D01*
X133182467Y-107405208D01*
X133120729Y-107451926D01*
X133115229Y-107457416D01*
X133069834Y-107516678D01*
X133040066Y-107591040D01*
X133031336Y-107666982D01*
X132879077Y-107666982D01*
X132878928Y-107664784D01*
X132879527Y-107636767D01*
X132888500Y-107556684D01*
X132908240Y-107482551D01*
X132938749Y-107414368D01*
X132980025Y-107352136D01*
X133032069Y-107295855D01*
X133082957Y-107254904D01*
X133152028Y-107214924D01*
X133229832Y-107184940D01*
X133301339Y-107167588D01*
X133378911Y-107157176D01*
X133462547Y-107153706D01*
X133511781Y-107154942D01*
G37*
G36*
X133583813Y-108888441D02*
G01*
X133558901Y-109068692D01*
X133636524Y-109075493D01*
X133714877Y-109092816D01*
X133781510Y-109126545D01*
X133789710Y-109133538D01*
X133834414Y-109197466D01*
X133851445Y-109274563D01*
X133851992Y-109293273D01*
X133842169Y-109367567D01*
X133817187Y-109423332D01*
X133763950Y-109478259D01*
X133722665Y-109498437D01*
X133650720Y-109513163D01*
X133570675Y-109518453D01*
X133531423Y-109518954D01*
X132480324Y-109518954D01*
X132480324Y-109718988D01*
X133517135Y-109718988D01*
X133596541Y-109716797D01*
X133677244Y-109708926D01*
X133755226Y-109693228D01*
X133813157Y-109673193D01*
X133879306Y-109635345D01*
X133933680Y-109584769D01*
X133972892Y-109527746D01*
X134004180Y-109455375D01*
X134021353Y-109382446D01*
X134027793Y-109302719D01*
X134027847Y-109294372D01*
X134022500Y-109211808D01*
X134006459Y-109138185D01*
X133975032Y-109064992D01*
X133929637Y-109003478D01*
X133916106Y-108989924D01*
X133853435Y-108944014D01*
X133777162Y-108911796D01*
X133699266Y-108894839D01*
X133624210Y-108888648D01*
X133583813Y-108888441D01*
G37*
G36*
X133607261Y-109965552D02*
G01*
X133582348Y-110150932D01*
X133654773Y-110169662D01*
X133723279Y-110197412D01*
X133788353Y-110240932D01*
X133806929Y-110259376D01*
X133848678Y-110321766D01*
X133871157Y-110393534D01*
X133875439Y-110446588D01*
X133866566Y-110524555D01*
X133839948Y-110594507D01*
X133795583Y-110656446D01*
X133784581Y-110667872D01*
X133723573Y-110715399D01*
X133654121Y-110745324D01*
X133576226Y-110757645D01*
X133559633Y-110757998D01*
X133484121Y-110749840D01*
X133411222Y-110722024D01*
X133348974Y-110674466D01*
X133301625Y-110611714D01*
X133273931Y-110538312D01*
X133265809Y-110462342D01*
X133273823Y-110386378D01*
X133286326Y-110331183D01*
X133111570Y-110352066D01*
X133113402Y-110381741D01*
X133106215Y-110460492D01*
X133084656Y-110533528D01*
X133052585Y-110594965D01*
X133002981Y-110648989D01*
X132931094Y-110682348D01*
X132865007Y-110689854D01*
X132789128Y-110678426D01*
X132720126Y-110640559D01*
X132698677Y-110620611D01*
X132655980Y-110557998D01*
X132635050Y-110482082D01*
X132632732Y-110442558D01*
X132642211Y-110366549D01*
X132673876Y-110295601D01*
X132700143Y-110262307D01*
X132760181Y-110215441D01*
X132831871Y-110185243D01*
X132902376Y-110169617D01*
X132869403Y-109984236D01*
X132792296Y-110003137D01*
X132723184Y-110030348D01*
X132653987Y-110071621D01*
X132595231Y-110123748D01*
X132582173Y-110138476D01*
X132537614Y-110202429D01*
X132505786Y-110273756D01*
X132486690Y-110352455D01*
X132480424Y-110427366D01*
X132480324Y-110438528D01*
X132485476Y-110513797D01*
X132503044Y-110592213D01*
X132533081Y-110666040D01*
X132573940Y-110731772D01*
X132623976Y-110785901D01*
X132677428Y-110825042D01*
X132747444Y-110858753D01*
X132820654Y-110876906D01*
X132871235Y-110880363D01*
X132947573Y-110871717D01*
X133018228Y-110845778D01*
X133048921Y-110827973D01*
X133108432Y-110777002D01*
X133153813Y-110715032D01*
X133176050Y-110672268D01*
X133198870Y-110742941D01*
X133236666Y-110810317D01*
X133287556Y-110865959D01*
X133305376Y-110880363D01*
X133371572Y-110919583D01*
X133447428Y-110944277D01*
X133523958Y-110954081D01*
X133551207Y-110954735D01*
X133635509Y-110947828D01*
X133714026Y-110927106D01*
X133786757Y-110892570D01*
X133853704Y-110844219D01*
X133889361Y-110810388D01*
X133936425Y-110753591D01*
X133979025Y-110680589D01*
X134008372Y-110600329D01*
X134022978Y-110525758D01*
X134027847Y-110445855D01*
X134022254Y-110362046D01*
X134005477Y-110284689D01*
X133977515Y-110213783D01*
X133938368Y-110149329D01*
X133910977Y-110115395D01*
X133856372Y-110063395D01*
X133795141Y-110022159D01*
X133727283Y-109991688D01*
X133652799Y-109971980D01*
X133607261Y-109965552D01*
G37*
G36*
X136524400Y-83709323D02*
G01*
X135000324Y-83709323D01*
X135000324Y-83914121D01*
X136196870Y-84707666D01*
X135000324Y-84707666D01*
X135000324Y-84899275D01*
X136524400Y-84899275D01*
X136524400Y-84694477D01*
X135326755Y-83900932D01*
X136524400Y-83900932D01*
X136524400Y-83709323D01*
G37*
G36*
X136040959Y-85135963D02*
G01*
X136119691Y-85144963D01*
X136192056Y-85160886D01*
X136270486Y-85189132D01*
X136339746Y-85227347D01*
X136399836Y-85275531D01*
X136417759Y-85293597D01*
X136464591Y-85351918D01*
X136501015Y-85416421D01*
X136527033Y-85487106D01*
X136542643Y-85563974D01*
X136547847Y-85647024D01*
X136546210Y-85691244D01*
X136535014Y-85768089D01*
X136513211Y-85841399D01*
X136480802Y-85911173D01*
X136458412Y-85947655D01*
X136411439Y-86006201D01*
X136355888Y-86055590D01*
X136291758Y-86095820D01*
X136259936Y-86110675D01*
X136187808Y-86134443D01*
X136115417Y-86148741D01*
X136034366Y-86156973D01*
X135958000Y-86159201D01*
X135909883Y-86157942D01*
X135834123Y-86150248D01*
X135750532Y-86131783D01*
X135674927Y-86103245D01*
X135607307Y-86064635D01*
X135547672Y-86015953D01*
X135529660Y-85997725D01*
X135482597Y-85939177D01*
X135445992Y-85874832D01*
X135419846Y-85804692D01*
X135404158Y-85728756D01*
X135398928Y-85647024D01*
X135551336Y-85647024D01*
X135552263Y-85672319D01*
X135568750Y-85750916D01*
X135605844Y-85820711D01*
X135656849Y-85876002D01*
X135670381Y-85887182D01*
X135740912Y-85928565D01*
X135816841Y-85953088D01*
X135893497Y-85965080D01*
X135966793Y-85968326D01*
X135993470Y-85967968D01*
X136068299Y-85962601D01*
X136145734Y-85948201D01*
X136221222Y-85921009D01*
X136289560Y-85876734D01*
X136308482Y-85859152D01*
X136358113Y-85794638D01*
X136387064Y-85721036D01*
X136395439Y-85647024D01*
X136394515Y-85621339D01*
X136378086Y-85541769D01*
X136341120Y-85471502D01*
X136290293Y-85416215D01*
X136269575Y-85399846D01*
X136205198Y-85364068D01*
X136127540Y-85339740D01*
X136048696Y-85327843D01*
X135973021Y-85324623D01*
X135946925Y-85324981D01*
X135873668Y-85330348D01*
X135797741Y-85344748D01*
X135723546Y-85371940D01*
X135656116Y-85416215D01*
X135637391Y-85433806D01*
X135588275Y-85498493D01*
X135559624Y-85572481D01*
X135551336Y-85647024D01*
X135398928Y-85647024D01*
X135400835Y-85597250D01*
X135413344Y-85514801D01*
X135437530Y-85438278D01*
X135473391Y-85367680D01*
X135520928Y-85303008D01*
X135530287Y-85292595D01*
X135592918Y-85237056D01*
X135666652Y-85193419D01*
X135736578Y-85166145D01*
X135814213Y-85147136D01*
X135899560Y-85136392D01*
X135973388Y-85133748D01*
X136040959Y-85135963D01*
G37*
G36*
X136354406Y-86775792D02*
G01*
X136524400Y-86802537D01*
X136541985Y-86728348D01*
X136547847Y-86662586D01*
X136542526Y-86587926D01*
X136521368Y-86516623D01*
X136515607Y-86505782D01*
X136466978Y-86449053D01*
X136430244Y-86427380D01*
X136355105Y-86411339D01*
X136276480Y-86406101D01*
X136207861Y-86405032D01*
X135568921Y-86405032D01*
X135568921Y-86268744D01*
X135422376Y-86268744D01*
X135422376Y-86405032D01*
X135156395Y-86405032D01*
X135047219Y-86589313D01*
X135422376Y-86589313D01*
X135422376Y-86775792D01*
X135568921Y-86775792D01*
X135568921Y-86589313D01*
X136222882Y-86589313D01*
X136298928Y-86592671D01*
X136327296Y-86598838D01*
X136364298Y-86630712D01*
X136377854Y-86694459D01*
X136358597Y-86766487D01*
X136354406Y-86775792D01*
G37*
G36*
X136524400Y-88254439D02*
G01*
X136363566Y-88254439D01*
X136426192Y-88203271D01*
X136475862Y-88145663D01*
X136512574Y-88081615D01*
X136536329Y-88011127D01*
X136547127Y-87934199D01*
X136547847Y-87907125D01*
X136541679Y-87830656D01*
X136523177Y-87758420D01*
X136510478Y-87726508D01*
X136474133Y-87661302D01*
X136423666Y-87606874D01*
X136416688Y-87601577D01*
X136349608Y-87565194D01*
X136278569Y-87544425D01*
X136201982Y-87535563D01*
X136126007Y-87533167D01*
X136104180Y-87533067D01*
X135422376Y-87533067D01*
X135422376Y-87718814D01*
X136034204Y-87718814D01*
X136109072Y-87719712D01*
X136185365Y-87723705D01*
X136231674Y-87730171D01*
X136301024Y-87759634D01*
X136347446Y-87804177D01*
X136380320Y-87872061D01*
X136389577Y-87944494D01*
X136380159Y-88020288D01*
X136351903Y-88091734D01*
X136346713Y-88100932D01*
X136299341Y-88160207D01*
X136233728Y-88202671D01*
X136229110Y-88204613D01*
X136157618Y-88224301D01*
X136079839Y-88233121D01*
X136013321Y-88235021D01*
X135422376Y-88235021D01*
X135422376Y-88420402D01*
X136524400Y-88420402D01*
X136524400Y-88254439D01*
G37*
G36*
X136201266Y-88631061D02*
G01*
X136172690Y-88814610D01*
X136246415Y-88833878D01*
X136310354Y-88872194D01*
X136337920Y-88900339D01*
X136375162Y-88967040D01*
X136392687Y-89045033D01*
X136395439Y-89097809D01*
X136390323Y-89171282D01*
X136370677Y-89242449D01*
X136343049Y-89287586D01*
X136285713Y-89334022D01*
X136219218Y-89349501D01*
X136147548Y-89325834D01*
X136119201Y-89294547D01*
X136088905Y-89222114D01*
X136067510Y-89149656D01*
X136055820Y-89105136D01*
X136036938Y-89033017D01*
X136016146Y-88960012D01*
X135991371Y-88883769D01*
X135966427Y-88822303D01*
X135924771Y-88756830D01*
X135866496Y-88705447D01*
X135862379Y-88702868D01*
X135792221Y-88672369D01*
X135715101Y-88662202D01*
X135640247Y-88671611D01*
X135579180Y-88695541D01*
X135518716Y-88737892D01*
X135475499Y-88786766D01*
X135439206Y-88853112D01*
X135421277Y-88904735D01*
X135405236Y-88977137D01*
X135399016Y-89054207D01*
X135398928Y-89064836D01*
X135402506Y-89142324D01*
X135414706Y-89220370D01*
X135435565Y-89290883D01*
X135469625Y-89361659D01*
X135515907Y-89419081D01*
X135534850Y-89434864D01*
X135602920Y-89472044D01*
X135677022Y-89493849D01*
X135702644Y-89498612D01*
X135727191Y-89317261D01*
X135653460Y-89293356D01*
X135597864Y-89245820D01*
X135564468Y-89179472D01*
X135552063Y-89104650D01*
X135551336Y-89078392D01*
X135556358Y-88999145D01*
X135575241Y-88927816D01*
X135593834Y-88895942D01*
X135652682Y-88849031D01*
X135693485Y-88841354D01*
X135758698Y-88864069D01*
X135803418Y-88923454D01*
X135808524Y-88935143D01*
X135830263Y-89006309D01*
X135851586Y-89082340D01*
X135856151Y-89098908D01*
X135878320Y-89179283D01*
X135901424Y-89257187D01*
X135924570Y-89327039D01*
X135942613Y-89373315D01*
X135980893Y-89439067D01*
X136036455Y-89492877D01*
X136040432Y-89495681D01*
X136107381Y-89527500D01*
X136182214Y-89539621D01*
X136199801Y-89540011D01*
X136273893Y-89531062D01*
X136344357Y-89504216D01*
X136375656Y-89485789D01*
X136432001Y-89438597D01*
X136477940Y-89377803D01*
X136502784Y-89329718D01*
X136528440Y-89256493D01*
X136542522Y-89184365D01*
X136547803Y-89106942D01*
X136547847Y-89098908D01*
X136544781Y-89022517D01*
X136533456Y-88942412D01*
X136510295Y-88862757D01*
X136476235Y-88795786D01*
X136460652Y-88773943D01*
X136404734Y-88717464D01*
X136335484Y-88673737D01*
X136262738Y-88645572D01*
X136201266Y-88631061D01*
G37*
G36*
X135211350Y-89755799D02*
G01*
X135000324Y-89755799D01*
X135000324Y-89941180D01*
X135211350Y-89941180D01*
X135211350Y-89755799D01*
G37*
G36*
X136524400Y-89755799D02*
G01*
X135422376Y-89755799D01*
X135422376Y-89941180D01*
X136524400Y-89941180D01*
X136524400Y-89755799D01*
G37*
G36*
X136524400Y-90220716D02*
G01*
X135422376Y-90220716D01*
X135422376Y-90387411D01*
X135576981Y-90387411D01*
X135516471Y-90436385D01*
X135468480Y-90492907D01*
X135428314Y-90568388D01*
X135407449Y-90641263D01*
X135399102Y-90721686D01*
X135398928Y-90735824D01*
X135404854Y-90813534D01*
X135422631Y-90885924D01*
X135434832Y-90917540D01*
X135470275Y-90982245D01*
X135521429Y-91036444D01*
X135528621Y-91041738D01*
X135596329Y-91078693D01*
X135666374Y-91099623D01*
X135743284Y-91107628D01*
X135824093Y-91109792D01*
X135847725Y-91109882D01*
X136524400Y-91109882D01*
X136524400Y-90924501D01*
X135852487Y-90924501D01*
X135774898Y-90921462D01*
X135700806Y-90909113D01*
X135681762Y-90902886D01*
X135619795Y-90862700D01*
X135591270Y-90825949D01*
X135563719Y-90757982D01*
X135557198Y-90696623D01*
X135566159Y-90619077D01*
X135593043Y-90549150D01*
X135633035Y-90492192D01*
X135693779Y-90446790D01*
X135771268Y-90420305D01*
X135846484Y-90409123D01*
X135921364Y-90406096D01*
X136524400Y-90406096D01*
X136524400Y-90220716D01*
G37*
G36*
X135996260Y-91318093D02*
G01*
X136078305Y-91325327D01*
X136155765Y-91341242D01*
X136228640Y-91365839D01*
X136296930Y-91399116D01*
X136360635Y-91441075D01*
X136416289Y-91491092D01*
X136466666Y-91558497D01*
X136501370Y-91635649D01*
X136518642Y-91709537D01*
X136524400Y-91790586D01*
X136523150Y-91824062D01*
X136510518Y-91898063D01*
X136479423Y-91975595D01*
X136437638Y-92037274D01*
X136382250Y-92093203D01*
X136465461Y-92092791D01*
X136547449Y-92089571D01*
X136621120Y-92080014D01*
X136643737Y-92073082D01*
X136712709Y-92037729D01*
X136765834Y-91985126D01*
X136793075Y-91935631D01*
X136812446Y-91861030D01*
X136817491Y-91786190D01*
X136815688Y-91743180D01*
X136801262Y-91667823D01*
X136766200Y-91597879D01*
X136716832Y-91556297D01*
X136644933Y-91534864D01*
X136618189Y-91354613D01*
X136681155Y-91357481D01*
X136755412Y-91374929D01*
X136825705Y-91413170D01*
X136881971Y-91471117D01*
X136892618Y-91486477D01*
X136928339Y-91553785D01*
X136953069Y-91630481D01*
X136965691Y-91705291D01*
X136969898Y-91787289D01*
X136967709Y-91847284D01*
X136957977Y-91921587D01*
X136937724Y-91997406D01*
X136907617Y-92064993D01*
X136899655Y-92078861D01*
X136854568Y-92141071D01*
X136800680Y-92191403D01*
X136737990Y-92229857D01*
X136692592Y-92247537D01*
X136615633Y-92265420D01*
X136532891Y-92275734D01*
X136450528Y-92280611D01*
X136373824Y-92281881D01*
X135422376Y-92281881D01*
X135422376Y-92110789D01*
X135554267Y-92110789D01*
X135517859Y-92078308D01*
X135465827Y-92016343D01*
X135428661Y-91947857D01*
X135406362Y-91872849D01*
X135400164Y-91804875D01*
X135551336Y-91804875D01*
X135551740Y-91820439D01*
X135565865Y-91893970D01*
X135600168Y-91960345D01*
X135654651Y-92019564D01*
X135661183Y-92025064D01*
X135728761Y-92066705D01*
X135802114Y-92091847D01*
X135876553Y-92104679D01*
X135960565Y-92108957D01*
X135973735Y-92108872D01*
X136059758Y-92103530D01*
X136134981Y-92089879D01*
X136207728Y-92064101D01*
X136272707Y-92022129D01*
X136284730Y-92011159D01*
X136333209Y-91951460D01*
X136362296Y-91883676D01*
X136371992Y-91807806D01*
X136371601Y-91791899D01*
X136357927Y-91717388D01*
X136324718Y-91651249D01*
X136271975Y-91593483D01*
X136259013Y-91583146D01*
X136189316Y-91544882D01*
X136111744Y-91522208D01*
X136031810Y-91511121D01*
X135954337Y-91508120D01*
X135941931Y-91508204D01*
X135860479Y-91513524D01*
X135788458Y-91527118D01*
X135717699Y-91552786D01*
X135652819Y-91594582D01*
X135646575Y-91600022D01*
X135595041Y-91658440D01*
X135561246Y-91731130D01*
X135551336Y-91804875D01*
X135400164Y-91804875D01*
X135398928Y-91791319D01*
X135400062Y-91755633D01*
X135410900Y-91679609D01*
X135433215Y-91609497D01*
X135471469Y-91538528D01*
X135490554Y-91512396D01*
X135546582Y-91454028D01*
X135607163Y-91410001D01*
X135677365Y-91374030D01*
X135736723Y-91352046D01*
X135816492Y-91331715D01*
X135890658Y-91321136D01*
X135967892Y-91317610D01*
X135996260Y-91318093D01*
G37*
G36*
X136524400Y-93427136D02*
G01*
X135000324Y-93026333D01*
X135000324Y-93231497D01*
X136000865Y-93461208D01*
X136079313Y-93479091D01*
X136157486Y-93495737D01*
X136235384Y-93511148D01*
X136313007Y-93525321D01*
X136241591Y-93542142D01*
X136169257Y-93559281D01*
X136095492Y-93576964D01*
X136030907Y-93593099D01*
X135000324Y-93880695D01*
X135000324Y-94121762D01*
X135772620Y-94338284D01*
X135843975Y-94357907D01*
X135931640Y-94380440D01*
X136017605Y-94400754D01*
X136101870Y-94418851D01*
X136184436Y-94434729D01*
X136265303Y-94448389D01*
X136313007Y-94455520D01*
X136237994Y-94471091D01*
X136157669Y-94488859D01*
X136083026Y-94506210D01*
X136004317Y-94525244D01*
X135981081Y-94530991D01*
X135000324Y-94767663D01*
X135000324Y-94968797D01*
X136524400Y-94554439D01*
X136524400Y-94361731D01*
X135361926Y-94043360D01*
X135288803Y-94023477D01*
X135214594Y-94003863D01*
X135182774Y-93996099D01*
X135257254Y-93978703D01*
X135333079Y-93959579D01*
X135361926Y-93951769D01*
X136524400Y-93631201D01*
X136524400Y-93427136D01*
G37*
G36*
X136025411Y-95076874D02*
G01*
X136008559Y-95265185D01*
X136084893Y-95278661D01*
X136156711Y-95302841D01*
X136202732Y-95327467D01*
X136259573Y-95376243D01*
X136303562Y-95437046D01*
X136325464Y-95479508D01*
X136351954Y-95553524D01*
X136366494Y-95625996D01*
X136371947Y-95703404D01*
X136371992Y-95711417D01*
X136367966Y-95786842D01*
X136354390Y-95861915D01*
X136337920Y-95913284D01*
X136302948Y-95981525D01*
X136251130Y-96038220D01*
X136243764Y-96043709D01*
X136176927Y-96077155D01*
X136112972Y-96086574D01*
X136038281Y-96073475D01*
X135988042Y-96045175D01*
X135938583Y-95990678D01*
X135902519Y-95920904D01*
X135897917Y-95909254D01*
X135874215Y-95835534D01*
X135852705Y-95756019D01*
X135833090Y-95678066D01*
X135823911Y-95640342D01*
X135805158Y-95566686D01*
X135783800Y-95491823D01*
X135760078Y-95420863D01*
X135728656Y-95348716D01*
X135685908Y-95280907D01*
X135636753Y-95226084D01*
X135586507Y-95187516D01*
X135520149Y-95155144D01*
X135448021Y-95137713D01*
X135396730Y-95134393D01*
X135319208Y-95142056D01*
X135245322Y-95165043D01*
X135181308Y-95199240D01*
X135123291Y-95245794D01*
X135074719Y-95303940D01*
X135035592Y-95373678D01*
X135028901Y-95389016D01*
X135003752Y-95461315D01*
X134986834Y-95538077D01*
X134978147Y-95619301D01*
X134976877Y-95666354D01*
X134980289Y-95747779D01*
X134990524Y-95824257D01*
X135007583Y-95895790D01*
X135031465Y-95962376D01*
X135066051Y-96029810D01*
X135114065Y-96093723D01*
X135172168Y-96146044D01*
X135191566Y-96159480D01*
X135260460Y-96196496D01*
X135334792Y-96220990D01*
X135414562Y-96232961D01*
X135431169Y-96233852D01*
X135445823Y-96042244D01*
X135369838Y-96027735D01*
X135298597Y-95997882D01*
X135236266Y-95948349D01*
X135226737Y-95937464D01*
X135187711Y-95873522D01*
X135164945Y-95801780D01*
X135154538Y-95726721D01*
X135152732Y-95674414D01*
X135155940Y-95599772D01*
X135167463Y-95525972D01*
X135193652Y-95450982D01*
X135219776Y-95409899D01*
X135273701Y-95359444D01*
X135346510Y-95330012D01*
X135380977Y-95327101D01*
X135455715Y-95341847D01*
X135515799Y-95386085D01*
X135555778Y-95455397D01*
X135582889Y-95530685D01*
X135603463Y-95602418D01*
X135624242Y-95687237D01*
X135641199Y-95759642D01*
X135660674Y-95836682D01*
X135682190Y-95912985D01*
X135707946Y-95989604D01*
X135721329Y-96021727D01*
X135758324Y-96090439D01*
X135805479Y-96153937D01*
X135864705Y-96208165D01*
X135876301Y-96216267D01*
X135944158Y-96252143D01*
X136018768Y-96273128D01*
X136092456Y-96279282D01*
X136166888Y-96272520D01*
X136238601Y-96252234D01*
X136307595Y-96218424D01*
X136321067Y-96210039D01*
X136383507Y-96161088D01*
X136436644Y-96100330D01*
X136476514Y-96035553D01*
X136488129Y-96011836D01*
X136516997Y-95936539D01*
X136534725Y-95865327D01*
X136544989Y-95790085D01*
X136547847Y-95720942D01*
X136545696Y-95646337D01*
X136537749Y-95565191D01*
X136523947Y-95490391D01*
X136501004Y-95412675D01*
X136486664Y-95376926D01*
X136452249Y-95311416D01*
X136404390Y-95246639D01*
X136346852Y-95191310D01*
X136303115Y-95159672D01*
X136231528Y-95121277D01*
X136154841Y-95094706D01*
X136082392Y-95081013D01*
X136025411Y-95076874D01*
G37*
G36*
X136348545Y-97443954D02*
G01*
X136524400Y-97443954D01*
X136524400Y-96445245D01*
X136450597Y-96451182D01*
X136395439Y-96466860D01*
X136325556Y-96498675D01*
X136262701Y-96536914D01*
X136200491Y-96584026D01*
X136194305Y-96589226D01*
X136136023Y-96642330D01*
X136080130Y-96699460D01*
X136028068Y-96757112D01*
X135973060Y-96821917D01*
X135964961Y-96831759D01*
X135915359Y-96890812D01*
X135857075Y-96957609D01*
X135802924Y-97016607D01*
X135743397Y-97077108D01*
X135681469Y-97133498D01*
X135642194Y-97164418D01*
X135576233Y-97206390D01*
X135505321Y-97236916D01*
X135430211Y-97250907D01*
X135416880Y-97251246D01*
X135338295Y-97240118D01*
X135269602Y-97206733D01*
X135229302Y-97172111D01*
X135185708Y-97112330D01*
X135160209Y-97041293D01*
X135152732Y-96966947D01*
X135160925Y-96888365D01*
X135188863Y-96813991D01*
X135236629Y-96752258D01*
X135301971Y-96706448D01*
X135374671Y-96681031D01*
X135450931Y-96671371D01*
X135469270Y-96670925D01*
X135449120Y-96480416D01*
X135370634Y-96491509D01*
X135299489Y-96510228D01*
X135225766Y-96541704D01*
X135162035Y-96583559D01*
X135115363Y-96627694D01*
X135070538Y-96687823D01*
X135036723Y-96756332D01*
X135013918Y-96833221D01*
X135003133Y-96905796D01*
X135000324Y-96970977D01*
X135004587Y-97049266D01*
X135020338Y-97132561D01*
X135047694Y-97207196D01*
X135086656Y-97273171D01*
X135121591Y-97314993D01*
X135177415Y-97364386D01*
X135247997Y-97405980D01*
X135325815Y-97431728D01*
X135399842Y-97441260D01*
X135422009Y-97441755D01*
X135495646Y-97435648D01*
X135568315Y-97417328D01*
X135601528Y-97404753D01*
X135668813Y-97370097D01*
X135732844Y-97326200D01*
X135786908Y-97281654D01*
X135847464Y-97224213D01*
X135902496Y-97167074D01*
X135955192Y-97109419D01*
X136012989Y-97043752D01*
X136054354Y-96995524D01*
X136104316Y-96937199D01*
X136154497Y-96879734D01*
X136206188Y-96822595D01*
X136246695Y-96781201D01*
X136303805Y-96733248D01*
X136348545Y-96703165D01*
X136348545Y-97443954D01*
G37*
G36*
X136134576Y-97636970D02*
G01*
X136214283Y-97651020D01*
X136287748Y-97678183D01*
X136354972Y-97718460D01*
X136415956Y-97771850D01*
X136460778Y-97826396D01*
X136501350Y-97897685D01*
X136529300Y-97977214D01*
X136543210Y-98051939D01*
X136547847Y-98132718D01*
X136544636Y-98200446D01*
X136532305Y-98276146D01*
X136506232Y-98356779D01*
X136467570Y-98429137D01*
X136416322Y-98493221D01*
X136382473Y-98525335D01*
X136318583Y-98571231D01*
X136248766Y-98604015D01*
X136173024Y-98623684D01*
X136091357Y-98630241D01*
X136065461Y-98629604D01*
X135991906Y-98620040D01*
X135917453Y-98595955D01*
X135850656Y-98557701D01*
X135826338Y-98538524D01*
X135773158Y-98481466D01*
X135734595Y-98418978D01*
X135704843Y-98345942D01*
X135684532Y-98392397D01*
X135641718Y-98459227D01*
X135583942Y-98513371D01*
X135548166Y-98534927D01*
X135474749Y-98560912D01*
X135398928Y-98568692D01*
X135318763Y-98561136D01*
X135244964Y-98538467D01*
X135177530Y-98500686D01*
X135116462Y-98447792D01*
X135095707Y-98424512D01*
X135050340Y-98355790D01*
X135022554Y-98287732D01*
X135005881Y-98212276D01*
X135000471Y-98131619D01*
X135152732Y-98131619D01*
X135155218Y-98169826D01*
X135177659Y-98244211D01*
X135223440Y-98307108D01*
X135255792Y-98334659D01*
X135324247Y-98367873D01*
X135397097Y-98377816D01*
X135433246Y-98375408D01*
X135504148Y-98353664D01*
X135564891Y-98309306D01*
X135591586Y-98277492D01*
X135623767Y-98208642D01*
X135633402Y-98133817D01*
X135633037Y-98128688D01*
X135785809Y-98128688D01*
X135786150Y-98145229D01*
X135798071Y-98222695D01*
X135827022Y-98291431D01*
X135873004Y-98351438D01*
X135884083Y-98362263D01*
X135944891Y-98405912D01*
X136014715Y-98432101D01*
X136093555Y-98440831D01*
X136101730Y-98440746D01*
X136178524Y-98430571D01*
X136252583Y-98399791D01*
X136310443Y-98354002D01*
X136315672Y-98348553D01*
X136362238Y-98282664D01*
X136387139Y-98213298D01*
X136395439Y-98134917D01*
X136395282Y-98124245D01*
X136384066Y-98047035D01*
X136355139Y-97974815D01*
X136349926Y-97965706D01*
X136302522Y-97906421D01*
X136240467Y-97863074D01*
X136235837Y-97860775D01*
X136165271Y-97835047D01*
X136087693Y-97825705D01*
X136079653Y-97825789D01*
X136003890Y-97835835D01*
X135930303Y-97866226D01*
X135872271Y-97911434D01*
X135861801Y-97922372D01*
X135819583Y-97982343D01*
X135794253Y-98051115D01*
X135785809Y-98128688D01*
X135633037Y-98128688D01*
X135630106Y-98087535D01*
X135609120Y-98017331D01*
X135564525Y-97954299D01*
X135532481Y-97927461D01*
X135462830Y-97895108D01*
X135386838Y-97885423D01*
X135357399Y-97887131D01*
X135282105Y-97910092D01*
X135221608Y-97955398D01*
X135194771Y-97987748D01*
X135162417Y-98057036D01*
X135152732Y-98131619D01*
X135000471Y-98131619D01*
X135000324Y-98129421D01*
X135000768Y-98105134D01*
X135009308Y-98024929D01*
X135028717Y-97952192D01*
X135064209Y-97878210D01*
X135113897Y-97813981D01*
X135173843Y-97762210D01*
X135240476Y-97725230D01*
X135313795Y-97703042D01*
X135393799Y-97695646D01*
X135440555Y-97698311D01*
X135513773Y-97715278D01*
X135583210Y-97751333D01*
X135624825Y-97787381D01*
X135671296Y-97850141D01*
X135704843Y-97922425D01*
X135712132Y-97897085D01*
X135740683Y-97827749D01*
X135784168Y-97762469D01*
X135840031Y-97709568D01*
X135865596Y-97692051D01*
X135936021Y-97658477D01*
X136007357Y-97640741D01*
X136086228Y-97634829D01*
X136134576Y-97636970D01*
G37*
G36*
X136524400Y-99503653D02*
G01*
X136524400Y-99318273D01*
X135336647Y-99318273D01*
X135385281Y-99262116D01*
X135429863Y-99200320D01*
X135466339Y-99142418D01*
X135503491Y-99076594D01*
X135537085Y-99009230D01*
X135563060Y-98947146D01*
X135375481Y-98947146D01*
X135342290Y-99013391D01*
X135300793Y-99084506D01*
X135255496Y-99150721D01*
X135206397Y-99212035D01*
X135199993Y-99219355D01*
X135148908Y-99273348D01*
X135092368Y-99323908D01*
X135030701Y-99367443D01*
X135000324Y-99384219D01*
X135000324Y-99503653D01*
X136524400Y-99503653D01*
G37*
G36*
X136348545Y-100947861D02*
G01*
X136524400Y-100947861D01*
X136524400Y-99949152D01*
X136450597Y-99955090D01*
X136395439Y-99970768D01*
X136325556Y-100002583D01*
X136262701Y-100040822D01*
X136200491Y-100087934D01*
X136194305Y-100093134D01*
X136136023Y-100146238D01*
X136080130Y-100203368D01*
X136028068Y-100261020D01*
X135973060Y-100325825D01*
X135964961Y-100335667D01*
X135915359Y-100394720D01*
X135857075Y-100461517D01*
X135802924Y-100520515D01*
X135743397Y-100581016D01*
X135681469Y-100637406D01*
X135642194Y-100668326D01*
X135576233Y-100710298D01*
X135505321Y-100740824D01*
X135430211Y-100754815D01*
X135416880Y-100755154D01*
X135338295Y-100744026D01*
X135269602Y-100710641D01*
X135229302Y-100676019D01*
X135185708Y-100616238D01*
X135160209Y-100545201D01*
X135152732Y-100470855D01*
X135160925Y-100392273D01*
X135188863Y-100317899D01*
X135236629Y-100256166D01*
X135301971Y-100210356D01*
X135374671Y-100184939D01*
X135450931Y-100175279D01*
X135469270Y-100174833D01*
X135449120Y-99984323D01*
X135370634Y-99995417D01*
X135299489Y-100014136D01*
X135225766Y-100045612D01*
X135162035Y-100087466D01*
X135115363Y-100131602D01*
X135070538Y-100191731D01*
X135036723Y-100260240D01*
X135013918Y-100337129D01*
X135003133Y-100409703D01*
X135000324Y-100474885D01*
X135004587Y-100553174D01*
X135020338Y-100636469D01*
X135047694Y-100711104D01*
X135086656Y-100777079D01*
X135121591Y-100818901D01*
X135177415Y-100868294D01*
X135247997Y-100909888D01*
X135325815Y-100935636D01*
X135399842Y-100945168D01*
X135422009Y-100945663D01*
X135495646Y-100939556D01*
X135568315Y-100921236D01*
X135601528Y-100908660D01*
X135668813Y-100874005D01*
X135732844Y-100830108D01*
X135786908Y-100785562D01*
X135847464Y-100728121D01*
X135902496Y-100670982D01*
X135955192Y-100613327D01*
X136012989Y-100547660D01*
X136054354Y-100499432D01*
X136104316Y-100441107D01*
X136154497Y-100383642D01*
X136206188Y-100326503D01*
X136246695Y-100285108D01*
X136303805Y-100237156D01*
X136348545Y-100207073D01*
X136348545Y-100947861D01*
G37*
G36*
X136149242Y-101539906D02*
G01*
X136093189Y-101538807D01*
X136014758Y-101543135D01*
X135939443Y-101557590D01*
X135903046Y-101569582D01*
X135834988Y-101603945D01*
X135781413Y-101642854D01*
X135726550Y-101694695D01*
X135672059Y-101753050D01*
X135651353Y-101776211D01*
X135601172Y-101829813D01*
X135546098Y-101879706D01*
X135514700Y-101901141D01*
X135443759Y-101926664D01*
X135403325Y-101930084D01*
X135325427Y-101918183D01*
X135254947Y-101882480D01*
X135212083Y-101845454D01*
X135164943Y-101783020D01*
X135137370Y-101711582D01*
X135129284Y-101638824D01*
X135138375Y-101561849D01*
X135169030Y-101488442D01*
X135206221Y-101440621D01*
X135269080Y-101392623D01*
X135343955Y-101360109D01*
X135416014Y-101341722D01*
X135445823Y-101336574D01*
X135423109Y-101146065D01*
X135345605Y-101159249D01*
X135264171Y-101183650D01*
X135192414Y-101217763D01*
X135130333Y-101261588D01*
X135091915Y-101298838D01*
X135047091Y-101358527D01*
X135013276Y-101426034D01*
X134990470Y-101501360D01*
X134978674Y-101584505D01*
X134976877Y-101635527D01*
X134981153Y-101715490D01*
X134993981Y-101789143D01*
X135019757Y-101867093D01*
X135057174Y-101936454D01*
X135098510Y-101989069D01*
X135154001Y-102040460D01*
X135223387Y-102083737D01*
X135299138Y-102110527D01*
X135381255Y-102120831D01*
X135391968Y-102120960D01*
X135470334Y-102113281D01*
X135543501Y-102090244D01*
X135575516Y-102074432D01*
X135637525Y-102032176D01*
X135694699Y-101981953D01*
X135750386Y-101925487D01*
X135779947Y-101893081D01*
X135830590Y-101838271D01*
X135883462Y-101787389D01*
X135899382Y-101774746D01*
X135966072Y-101739961D01*
X135987309Y-101733346D01*
X136063070Y-101721986D01*
X136142297Y-101718107D01*
X136149242Y-101717959D01*
X136149242Y-101539906D01*
G37*
G36*
X136524400Y-101528549D02*
G01*
X136313374Y-101528549D01*
X136313374Y-101739575D01*
X136524400Y-101739575D01*
X136524400Y-101528549D01*
G37*
G36*
X136524400Y-102941616D02*
G01*
X135422376Y-102941616D01*
X135422376Y-103108678D01*
X135591270Y-103108678D01*
X135525603Y-103147554D01*
X135463664Y-103195205D01*
X135436298Y-103226281D01*
X135405096Y-103294544D01*
X135398928Y-103345716D01*
X135408845Y-103422403D01*
X135435601Y-103494050D01*
X135459012Y-103536225D01*
X135632303Y-103472478D01*
X135602352Y-103404334D01*
X135592369Y-103336190D01*
X135608305Y-103261733D01*
X135629372Y-103227014D01*
X135686330Y-103177440D01*
X135731221Y-103158137D01*
X135808312Y-103139161D01*
X135883595Y-103129459D01*
X135948475Y-103126996D01*
X136524400Y-103126996D01*
X136524400Y-102941616D01*
G37*
G36*
X136031781Y-103582158D02*
G01*
X136109171Y-103589714D01*
X136194343Y-103607849D01*
X136271116Y-103635876D01*
X136339491Y-103673795D01*
X136399469Y-103721605D01*
X136417437Y-103739579D01*
X136464384Y-103798153D01*
X136500899Y-103863707D01*
X136526981Y-103936243D01*
X136542630Y-104015760D01*
X136547847Y-104102258D01*
X136547486Y-104125807D01*
X136540544Y-104204058D01*
X136524766Y-104275823D01*
X136495915Y-104349897D01*
X136455523Y-104415499D01*
X136449680Y-104423095D01*
X136397679Y-104478421D01*
X136336336Y-104524085D01*
X136265650Y-104560086D01*
X136196137Y-104583660D01*
X136172690Y-104391686D01*
X136220627Y-104371815D01*
X136288694Y-104331063D01*
X136342316Y-104277380D01*
X136357620Y-104254101D01*
X136386672Y-104181212D01*
X136395439Y-104103357D01*
X136395074Y-104086405D01*
X136382302Y-104006929D01*
X136351282Y-103936253D01*
X136302016Y-103874379D01*
X136249970Y-103833667D01*
X136179101Y-103800018D01*
X136105158Y-103780910D01*
X136032006Y-103772530D01*
X136032006Y-104588790D01*
X135981448Y-104589522D01*
X135914145Y-104587347D01*
X135835475Y-104578510D01*
X135762870Y-104562875D01*
X135683748Y-104535140D01*
X135613359Y-104497616D01*
X135551702Y-104450304D01*
X135499783Y-104395401D01*
X135452787Y-104324184D01*
X135420412Y-104245254D01*
X135404299Y-104171461D01*
X135399077Y-104094198D01*
X135551336Y-104094198D01*
X135553088Y-104128642D01*
X135569838Y-104200155D01*
X135609251Y-104269893D01*
X135663443Y-104323908D01*
X135727500Y-104360711D01*
X135804141Y-104383313D01*
X135879598Y-104393884D01*
X135879598Y-103782788D01*
X135852100Y-103785254D01*
X135775940Y-103800803D01*
X135702467Y-103832423D01*
X135640729Y-103879142D01*
X135635229Y-103884631D01*
X135589834Y-103943894D01*
X135560066Y-104018256D01*
X135551336Y-104094198D01*
X135399077Y-104094198D01*
X135398928Y-104092000D01*
X135399527Y-104063983D01*
X135408500Y-103983899D01*
X135428240Y-103909766D01*
X135458749Y-103841584D01*
X135500025Y-103779352D01*
X135552069Y-103723071D01*
X135602957Y-103682120D01*
X135672028Y-103642140D01*
X135749832Y-103612155D01*
X135821339Y-103594803D01*
X135898911Y-103584392D01*
X135982547Y-103580921D01*
X136031781Y-103582158D01*
G37*
G36*
X136524400Y-104810806D02*
G01*
X135422376Y-104810806D01*
X135422376Y-104976769D01*
X135574783Y-104976769D01*
X135515565Y-105024066D01*
X135466505Y-105082610D01*
X135447289Y-105113423D01*
X135417819Y-105181017D01*
X135401951Y-105255206D01*
X135398928Y-105308329D01*
X135404816Y-105386757D01*
X135424668Y-105460465D01*
X135448754Y-105507631D01*
X135499995Y-105567077D01*
X135566523Y-105608851D01*
X135588339Y-105617540D01*
X135523969Y-105668932D01*
X135472917Y-105725835D01*
X135430189Y-105799191D01*
X135405587Y-105880049D01*
X135398928Y-105955328D01*
X135404607Y-106032127D01*
X135424571Y-106107250D01*
X135463612Y-106176716D01*
X135489787Y-106205921D01*
X135555933Y-106252096D01*
X135631860Y-106279032D01*
X135712392Y-106291345D01*
X135768956Y-106293483D01*
X136524400Y-106293483D01*
X136524400Y-106108835D01*
X135828674Y-106108835D01*
X135753231Y-106106310D01*
X135680371Y-106095091D01*
X135667107Y-106090883D01*
X135606041Y-106049747D01*
X135587606Y-106025304D01*
X135560791Y-105956174D01*
X135557198Y-105914296D01*
X135566376Y-105839587D01*
X135597322Y-105768652D01*
X135634867Y-105722687D01*
X135699052Y-105679301D01*
X135776561Y-105655488D01*
X135851706Y-105647153D01*
X135882896Y-105646483D01*
X136524400Y-105646483D01*
X136524400Y-105460737D01*
X135806692Y-105460737D01*
X135728414Y-105455368D01*
X135654880Y-105435183D01*
X135619846Y-105415307D01*
X135572860Y-105355773D01*
X135557443Y-105279939D01*
X135557198Y-105267296D01*
X135567639Y-105191825D01*
X135598963Y-105122216D01*
X135650071Y-105064972D01*
X135715620Y-105027775D01*
X135720596Y-105025862D01*
X135797219Y-105006648D01*
X135872123Y-104998534D01*
X135951406Y-104996187D01*
X136524400Y-104996187D01*
X136524400Y-104810806D01*
G37*
G36*
X136040959Y-106492069D02*
G01*
X136119691Y-106501069D01*
X136192056Y-106516992D01*
X136270486Y-106545238D01*
X136339746Y-106583453D01*
X136399836Y-106631637D01*
X136417759Y-106649703D01*
X136464591Y-106708024D01*
X136501015Y-106772527D01*
X136527033Y-106843212D01*
X136542643Y-106920080D01*
X136547847Y-107003130D01*
X136546210Y-107047350D01*
X136535014Y-107124195D01*
X136513211Y-107197505D01*
X136480802Y-107267279D01*
X136458412Y-107303761D01*
X136411439Y-107362307D01*
X136355888Y-107411696D01*
X136291758Y-107451926D01*
X136259936Y-107466781D01*
X136187808Y-107490549D01*
X136115417Y-107504847D01*
X136034366Y-107513079D01*
X135958000Y-107515307D01*
X135909883Y-107514048D01*
X135834123Y-107506354D01*
X135750532Y-107487889D01*
X135674927Y-107459351D01*
X135607307Y-107420741D01*
X135547672Y-107372059D01*
X135529660Y-107353831D01*
X135482597Y-107295283D01*
X135445992Y-107230939D01*
X135419846Y-107160798D01*
X135404158Y-107084862D01*
X135398928Y-107003130D01*
X135551336Y-107003130D01*
X135552263Y-107028425D01*
X135568750Y-107107022D01*
X135605844Y-107176817D01*
X135656849Y-107232108D01*
X135670381Y-107243288D01*
X135740912Y-107284671D01*
X135816841Y-107309195D01*
X135893497Y-107321186D01*
X135966793Y-107324432D01*
X135993470Y-107324074D01*
X136068299Y-107318707D01*
X136145734Y-107304307D01*
X136221222Y-107277115D01*
X136289560Y-107232841D01*
X136308482Y-107215258D01*
X136358113Y-107150744D01*
X136387064Y-107077142D01*
X136395439Y-107003130D01*
X136394515Y-106977445D01*
X136378086Y-106897876D01*
X136341120Y-106827608D01*
X136290293Y-106772321D01*
X136269575Y-106755952D01*
X136205198Y-106720175D01*
X136127540Y-106695846D01*
X136048696Y-106683950D01*
X135973021Y-106680730D01*
X135946925Y-106681087D01*
X135873668Y-106686454D01*
X135797741Y-106700855D01*
X135723546Y-106728046D01*
X135656116Y-106772321D01*
X135637391Y-106789913D01*
X135588275Y-106854599D01*
X135559624Y-106928587D01*
X135551336Y-107003130D01*
X135398928Y-107003130D01*
X135400835Y-106953356D01*
X135413344Y-106870907D01*
X135437530Y-106794384D01*
X135473391Y-106723786D01*
X135520928Y-106659114D01*
X135530287Y-106648701D01*
X135592918Y-106593162D01*
X135666652Y-106549525D01*
X135736578Y-106522251D01*
X135814213Y-106503243D01*
X135899560Y-106492498D01*
X135973388Y-106489854D01*
X136040959Y-106492069D01*
G37*
G36*
X136524400Y-108030782D02*
G01*
X135422376Y-107614592D01*
X135422376Y-107810597D01*
X136083663Y-108045436D01*
X136158207Y-108070896D01*
X136234741Y-108094883D01*
X136306046Y-108115412D01*
X136235653Y-108136776D01*
X136162345Y-108161066D01*
X136096120Y-108184289D01*
X135422376Y-108427554D01*
X135422376Y-108618430D01*
X136524400Y-108204072D01*
X136524400Y-108030782D01*
G37*
G36*
X136031781Y-108715654D02*
G01*
X136109171Y-108723210D01*
X136194343Y-108741345D01*
X136271116Y-108769372D01*
X136339491Y-108807291D01*
X136399469Y-108855102D01*
X136417437Y-108873075D01*
X136464384Y-108931649D01*
X136500899Y-108997204D01*
X136526981Y-109069739D01*
X136542630Y-109149256D01*
X136547847Y-109235754D01*
X136547486Y-109259303D01*
X136540544Y-109337554D01*
X136524766Y-109409319D01*
X136495915Y-109483393D01*
X136455523Y-109548995D01*
X136449680Y-109556591D01*
X136397679Y-109611917D01*
X136336336Y-109657581D01*
X136265650Y-109693582D01*
X136196137Y-109717157D01*
X136172690Y-109525182D01*
X136220627Y-109505312D01*
X136288694Y-109464559D01*
X136342316Y-109410876D01*
X136357620Y-109387597D01*
X136386672Y-109314708D01*
X136395439Y-109236853D01*
X136395074Y-109219902D01*
X136382302Y-109140425D01*
X136351282Y-109069749D01*
X136302016Y-109007875D01*
X136249970Y-108967163D01*
X136179101Y-108933514D01*
X136105158Y-108914406D01*
X136032006Y-108906026D01*
X136032006Y-109722286D01*
X135981448Y-109723018D01*
X135914145Y-109720843D01*
X135835475Y-109712006D01*
X135762870Y-109696371D01*
X135683748Y-109668636D01*
X135613359Y-109631113D01*
X135551702Y-109583800D01*
X135499783Y-109528897D01*
X135452787Y-109457681D01*
X135420412Y-109378751D01*
X135404299Y-109304957D01*
X135399077Y-109227694D01*
X135551336Y-109227694D01*
X135553088Y-109262138D01*
X135569838Y-109333651D01*
X135609251Y-109403389D01*
X135663443Y-109457404D01*
X135727500Y-109494207D01*
X135804141Y-109516809D01*
X135879598Y-109527380D01*
X135879598Y-108916284D01*
X135852100Y-108918750D01*
X135775940Y-108934299D01*
X135702467Y-108965920D01*
X135640729Y-109012638D01*
X135635229Y-109018128D01*
X135589834Y-109077390D01*
X135560066Y-109151752D01*
X135551336Y-109227694D01*
X135399077Y-109227694D01*
X135398928Y-109225496D01*
X135399527Y-109197479D01*
X135408500Y-109117395D01*
X135428240Y-109043262D01*
X135458749Y-108975080D01*
X135500025Y-108912848D01*
X135552069Y-108856567D01*
X135602957Y-108815616D01*
X135672028Y-108775636D01*
X135749832Y-108745652D01*
X135821339Y-108728299D01*
X135898911Y-108717888D01*
X135982547Y-108714418D01*
X136031781Y-108715654D01*
G37*
G36*
X136103813Y-110449152D02*
G01*
X136078901Y-110629404D01*
X136156524Y-110636204D01*
X136234877Y-110653528D01*
X136301510Y-110687256D01*
X136309710Y-110694250D01*
X136354414Y-110758178D01*
X136371445Y-110835275D01*
X136371992Y-110853985D01*
X136362169Y-110928279D01*
X136337187Y-110984044D01*
X136283950Y-111038970D01*
X136242665Y-111059149D01*
X136170720Y-111073875D01*
X136090675Y-111079164D01*
X136051423Y-111079665D01*
X135000324Y-111079665D01*
X135000324Y-111279700D01*
X136037135Y-111279700D01*
X136116541Y-111277509D01*
X136197244Y-111269638D01*
X136275226Y-111253940D01*
X136333157Y-111233905D01*
X136399306Y-111196056D01*
X136453680Y-111145481D01*
X136492892Y-111088458D01*
X136524180Y-111016087D01*
X136541353Y-110943158D01*
X136547793Y-110863431D01*
X136547847Y-110855084D01*
X136542500Y-110772520D01*
X136526459Y-110698897D01*
X136495032Y-110625704D01*
X136449637Y-110564189D01*
X136436106Y-110550635D01*
X136373435Y-110504725D01*
X136297162Y-110472508D01*
X136219266Y-110455551D01*
X136144210Y-110449360D01*
X136103813Y-110449152D01*
G37*
G36*
X136155104Y-112119774D02*
G01*
X136524400Y-112119774D01*
X136524400Y-112305154D01*
X136155104Y-112305154D01*
X136155104Y-112509219D01*
X135985111Y-112509219D01*
X135985111Y-112305154D01*
X135000324Y-112305154D01*
X135000324Y-112153845D01*
X135048987Y-112119774D01*
X135300010Y-112119774D01*
X135985111Y-112119774D01*
X135985111Y-111646797D01*
X135300010Y-112119774D01*
X135048987Y-112119774D01*
X135985111Y-111464348D01*
X136155104Y-111464348D01*
X136155104Y-112119774D01*
G37*
M02*
