%TF.GenerationSoftware,KiCad,Pcbnew,8.0.1*%
%TF.CreationDate,2024-05-28T12:59:40-03:00*%
%TF.ProjectId,ESP32C6-dev-board,45535033-3243-4362-9d64-65762d626f61,rev?*%
%TF.SameCoordinates,Original*%
%TF.FileFunction,Copper,L1,Top*%
%TF.FilePolarity,Positive*%
%FSLAX46Y46*%
G04 Gerber Fmt 4.6, Leading zero omitted, Abs format (unit mm)*
G04 Created by KiCad (PCBNEW 8.0.1) date 2024-05-28 12:59:40*
%MOMM*%
%LPD*%
G01*
G04 APERTURE LIST*
G04 Aperture macros list*
%AMRoundRect*
0 Rectangle with rounded corners*
0 $1 Rounding radius*
0 $2 $3 $4 $5 $6 $7 $8 $9 X,Y pos of 4 corners*
0 Add a 4 corners polygon primitive as box body*
4,1,4,$2,$3,$4,$5,$6,$7,$8,$9,$2,$3,0*
0 Add four circle primitives for the rounded corners*
1,1,$1+$1,$2,$3*
1,1,$1+$1,$4,$5*
1,1,$1+$1,$6,$7*
1,1,$1+$1,$8,$9*
0 Add four rect primitives between the rounded corners*
20,1,$1+$1,$2,$3,$4,$5,0*
20,1,$1+$1,$4,$5,$6,$7,0*
20,1,$1+$1,$6,$7,$8,$9,0*
20,1,$1+$1,$8,$9,$2,$3,0*%
G04 Aperture macros list end*
%TA.AperFunction,ComponentPad*%
%ADD10R,1.700000X1.700000*%
%TD*%
%TA.AperFunction,ComponentPad*%
%ADD11O,1.700000X1.700000*%
%TD*%
%TA.AperFunction,SMDPad,CuDef*%
%ADD12RoundRect,0.250000X0.475000X-0.250000X0.475000X0.250000X-0.475000X0.250000X-0.475000X-0.250000X0*%
%TD*%
%TA.AperFunction,SMDPad,CuDef*%
%ADD13RoundRect,0.250000X0.550000X-1.050000X0.550000X1.050000X-0.550000X1.050000X-0.550000X-1.050000X0*%
%TD*%
%TA.AperFunction,SMDPad,CuDef*%
%ADD14RoundRect,0.250000X0.450000X-0.262500X0.450000X0.262500X-0.450000X0.262500X-0.450000X-0.262500X0*%
%TD*%
%TA.AperFunction,SMDPad,CuDef*%
%ADD15O,2.748280X1.998980*%
%TD*%
%TA.AperFunction,SMDPad,CuDef*%
%ADD16O,1.016000X2.032000*%
%TD*%
%TA.AperFunction,SMDPad,CuDef*%
%ADD17C,1.143000*%
%TD*%
%TA.AperFunction,SMDPad,CuDef*%
%ADD18RoundRect,0.250000X-0.450000X0.262500X-0.450000X-0.262500X0.450000X-0.262500X0.450000X0.262500X0*%
%TD*%
%TA.AperFunction,SMDPad,CuDef*%
%ADD19RoundRect,0.250000X-1.050000X-0.550000X1.050000X-0.550000X1.050000X0.550000X-1.050000X0.550000X0*%
%TD*%
%TA.AperFunction,ComponentPad*%
%ADD20R,1.500000X1.500000*%
%TD*%
%TA.AperFunction,ComponentPad*%
%ADD21C,1.500000*%
%TD*%
%TA.AperFunction,SMDPad,CuDef*%
%ADD22RoundRect,0.250000X0.262500X0.450000X-0.262500X0.450000X-0.262500X-0.450000X0.262500X-0.450000X0*%
%TD*%
%TA.AperFunction,ComponentPad*%
%ADD23R,1.500000X1.050000*%
%TD*%
%TA.AperFunction,ComponentPad*%
%ADD24O,1.500000X1.050000*%
%TD*%
%TA.AperFunction,SMDPad,CuDef*%
%ADD25RoundRect,0.250000X0.250000X0.475000X-0.250000X0.475000X-0.250000X-0.475000X0.250000X-0.475000X0*%
%TD*%
%TA.AperFunction,SMDPad,CuDef*%
%ADD26RoundRect,0.375000X0.625000X0.375000X-0.625000X0.375000X-0.625000X-0.375000X0.625000X-0.375000X0*%
%TD*%
%TA.AperFunction,SMDPad,CuDef*%
%ADD27RoundRect,0.500000X0.500000X1.400000X-0.500000X1.400000X-0.500000X-1.400000X0.500000X-1.400000X0*%
%TD*%
%TA.AperFunction,SMDPad,CuDef*%
%ADD28R,1.500000X1.000000*%
%TD*%
%TA.AperFunction,SMDPad,CuDef*%
%ADD29RoundRect,0.250000X-0.250000X-0.475000X0.250000X-0.475000X0.250000X0.475000X-0.250000X0.475000X0*%
%TD*%
%TA.AperFunction,ViaPad*%
%ADD30C,0.600000*%
%TD*%
%TA.AperFunction,Conductor*%
%ADD31C,0.500000*%
%TD*%
G04 APERTURE END LIST*
D10*
%TO.P,J2,1,Pin_1*%
%TO.N,D0-A0*%
X144780000Y-103881000D03*
D11*
%TO.P,J2,2,Pin_2*%
%TO.N,Net-(J2-Pin_2)*%
X144780000Y-106421000D03*
%TD*%
D12*
%TO.P,C3,1*%
%TO.N,5V*%
X135250000Y-107000000D03*
%TO.P,C3,2*%
%TO.N,GND*%
X135250000Y-105100000D03*
%TD*%
D13*
%TO.P,C1,1*%
%TO.N,5V*%
X131500000Y-108100000D03*
%TO.P,C1,2*%
%TO.N,GND*%
X131500000Y-104500000D03*
%TD*%
D14*
%TO.P,R4,1*%
%TO.N,5V*%
X154750000Y-90825000D03*
%TO.P,R4,2*%
%TO.N,Net-(D1-VCC)*%
X154750000Y-89000000D03*
%TD*%
D15*
%TO.P,U1,1,PA02_A0_D0*%
%TO.N,D0-A0*%
X128718710Y-80500490D03*
%TO.P,U1,2,PA4_A1_D1*%
%TO.N,D1-A1*%
X128718710Y-83040490D03*
%TO.P,U1,3,PA10_A2_D2*%
%TO.N,D2-A2*%
X128718710Y-85580490D03*
%TO.P,U1,4,PA11_A3_D3*%
%TO.N,D3*%
X128718710Y-88120490D03*
%TO.P,U1,5,PA8_A4_D4_SDA*%
%TO.N,D4-SDA*%
X128718710Y-90660490D03*
%TO.P,U1,6,PA9_A5_D5_SCL*%
%TO.N,D5-SCL*%
X128718710Y-93200490D03*
%TO.P,U1,7,PB08_A6_D6_TX*%
%TO.N,D6-TX*%
X128718710Y-95740490D03*
%TO.P,U1,8,PB09_A7_D7_RX*%
%TO.N,D7-RX*%
X144883270Y-95740490D03*
%TO.P,U1,9,PA7_A8_D8_SCK*%
%TO.N,D8-SCK*%
X144883270Y-93200490D03*
%TO.P,U1,10,PA5_A9_D9_MISO*%
%TO.N,D9-MISO*%
X144883270Y-90660490D03*
%TO.P,U1,11,PA6_A10_D10_MOSI*%
%TO.N,D10-MOSI*%
X144883270Y-88120490D03*
%TO.P,U1,12,3V3*%
%TO.N,3V3*%
X144883270Y-85580490D03*
%TO.P,U1,13,GND*%
%TO.N,GND*%
X144883270Y-83040490D03*
%TO.P,U1,14,5V*%
%TO.N,VIN*%
X144883270Y-80500490D03*
D16*
%TO.P,U1,15,5V*%
%TO.N,unconnected-(U1-5V-Pad15)*%
X135585590Y-96818310D03*
%TO.P,U1,16,GND*%
%TO.N,unconnected-(U1-GND-Pad16)*%
X138135590Y-96818310D03*
D17*
%TO.P,U1,17,PA31_SWDIO*%
%TO.N,unconnected-(U1-PA31_SWDIO-Pad17)*%
X135584393Y-79814123D03*
%TO.P,U1,18,PA30_SWCLK*%
%TO.N,unconnected-(U1-PA30_SWCLK-Pad18)*%
X138124393Y-79814123D03*
%TO.P,U1,19,RESET*%
%TO.N,unconnected-(U1-RESET-Pad19)*%
X135584393Y-82354123D03*
%TO.P,U1,20,GND*%
%TO.N,unconnected-(U1-GND-Pad20)*%
X138124393Y-82354123D03*
%TD*%
D18*
%TO.P,R2,1*%
%TO.N,Net-(J3-Pin_1)*%
X154750000Y-113925000D03*
%TO.P,R2,2*%
%TO.N,3V3*%
X154750000Y-115750000D03*
%TD*%
D19*
%TO.P,C2,1*%
%TO.N,3V3*%
X140450000Y-112000000D03*
%TO.P,C2,2*%
%TO.N,GND*%
X144050000Y-112000000D03*
%TD*%
D10*
%TO.P,J4,1,Pin_1*%
%TO.N,D4-SDA*%
X151500000Y-91975000D03*
D11*
%TO.P,J4,2,Pin_2*%
%TO.N,Net-(J4-Pin_2)*%
X151500000Y-94515000D03*
%TD*%
D20*
%TO.P,U4,1,VDD*%
%TO.N,3V3*%
X150368000Y-115790000D03*
D21*
%TO.P,U4,2,DATA*%
%TO.N,Net-(J3-Pin_1)*%
X150368000Y-113250000D03*
%TO.P,U4,3,NC*%
%TO.N,unconnected-(U4-NC-Pad3)*%
X150368000Y-110710000D03*
%TO.P,U4,4,GND*%
%TO.N,GND*%
X150368000Y-108170000D03*
%TD*%
D22*
%TO.P,R1,1*%
%TO.N,Net-(U3-V_{OUT})*%
X136548500Y-102616000D03*
%TO.P,R1,2*%
%TO.N,Net-(J2-Pin_2)*%
X134723500Y-102616000D03*
%TD*%
D23*
%TO.P,U3,1,+V_{S}*%
%TO.N,3V3*%
X139848000Y-103378000D03*
D24*
%TO.P,U3,2,V_{OUT}*%
%TO.N,Net-(U3-V_{OUT})*%
X139848000Y-104648000D03*
%TO.P,U3,3,GND*%
%TO.N,GND*%
X139848000Y-105918000D03*
%TD*%
D10*
%TO.P,J1,1,Pin_1*%
%TO.N,D0-A0*%
X123952000Y-80840000D03*
D11*
%TO.P,J1,2,Pin_2*%
%TO.N,D1-A1*%
X123952000Y-83380000D03*
%TO.P,J1,3,Pin_3*%
%TO.N,D2-A2*%
X123952000Y-85920000D03*
%TO.P,J1,4,Pin_4*%
%TO.N,D3*%
X123952000Y-88460000D03*
%TO.P,J1,5,Pin_5*%
%TO.N,D4-SDA*%
X123952000Y-91000000D03*
%TO.P,J1,6,Pin_6*%
%TO.N,D5-SCL*%
X123952000Y-93540000D03*
%TO.P,J1,7,Pin_7*%
%TO.N,D6-TX*%
X123952000Y-96080000D03*
%TO.P,J1,8,Pin_8*%
%TO.N,D7-RX*%
X123952000Y-98620000D03*
%TO.P,J1,9,Pin_9*%
%TO.N,D8-SCK*%
X123952000Y-101160000D03*
%TO.P,J1,10,Pin_10*%
%TO.N,D9-MISO*%
X123952000Y-103700000D03*
%TO.P,J1,11,Pin_11*%
%TO.N,D10-MOSI*%
X123952000Y-106240000D03*
%TO.P,J1,12,Pin_12*%
%TO.N,3V3*%
X123952000Y-108780000D03*
%TO.P,J1,13,Pin_13*%
%TO.N,GND*%
X123952000Y-111320000D03*
%TO.P,J1,14,Pin_14*%
%TO.N,5V*%
X123952000Y-113860000D03*
%TO.P,J1,15,Pin_15*%
%TO.N,VIN*%
X123952000Y-116400000D03*
%TD*%
D10*
%TO.P,J3,1,Pin_1*%
%TO.N,Net-(J3-Pin_1)*%
X151384000Y-102108000D03*
D11*
%TO.P,J3,2,Pin_2*%
%TO.N,D3*%
X151384000Y-99568000D03*
%TD*%
D25*
%TO.P,C6,1*%
%TO.N,Net-(D1-VCC)*%
X154900000Y-86750000D03*
%TO.P,C6,2*%
%TO.N,GND*%
X153000000Y-86750000D03*
%TD*%
D18*
%TO.P,R3,1*%
%TO.N,Net-(D1-DIN)*%
X154750000Y-92837500D03*
%TO.P,R3,2*%
%TO.N,Net-(J4-Pin_2)*%
X154750000Y-94662500D03*
%TD*%
D26*
%TO.P,U2,1,GND*%
%TO.N,GND*%
X137150000Y-115800000D03*
%TO.P,U2,2,VO*%
%TO.N,3V3*%
X137150000Y-113500000D03*
D27*
X130850000Y-113500000D03*
D26*
%TO.P,U2,3,VI*%
%TO.N,5V*%
X137150000Y-111200000D03*
%TD*%
D25*
%TO.P,C5,1*%
%TO.N,Net-(J2-Pin_2)*%
X140142000Y-108712000D03*
%TO.P,C5,2*%
%TO.N,GND*%
X138242000Y-108712000D03*
%TD*%
D28*
%TO.P,D1,1,DOUT*%
%TO.N,unconnected-(D1-DOUT-Pad1)*%
X150548000Y-80112000D03*
%TO.P,D1,2,DIN*%
%TO.N,Net-(D1-DIN)*%
X150548000Y-81712000D03*
%TO.P,D1,3,VCC*%
%TO.N,Net-(D1-VCC)*%
X150548000Y-83312000D03*
%TO.P,D1,4,NC*%
%TO.N,unconnected-(D1-NC-Pad4)*%
X155448000Y-83312000D03*
%TO.P,D1,5,VDD*%
%TO.N,5V*%
X155448000Y-81712000D03*
%TO.P,D1,6,VSS*%
%TO.N,GND*%
X155448000Y-80112000D03*
%TD*%
D29*
%TO.P,C4,1*%
%TO.N,3V3*%
X141600000Y-115750000D03*
%TO.P,C4,2*%
%TO.N,GND*%
X143500000Y-115750000D03*
%TD*%
D30*
%TO.N,GND*%
X153750000Y-79500000D03*
%TO.N,D3*%
X126250000Y-100250000D03*
X149000000Y-99500000D03*
%TO.N,3V3*%
X128750000Y-112750000D03*
%TO.N,D8-SCK*%
X137000000Y-94500000D03*
%TO.N,VIN*%
X146500000Y-80500000D03*
%TO.N,D4-SDA*%
X148500000Y-80000000D03*
X130500000Y-89250000D03*
%TO.N,D0-A0*%
X131572000Y-80772000D03*
%TO.N,D9-MISO*%
X142500000Y-90750000D03*
%TO.N,D10-MOSI*%
X142750000Y-88250000D03*
%TO.N,GND*%
X133750000Y-115500000D03*
X152000000Y-86500000D03*
X147000000Y-84000000D03*
X146500000Y-114250000D03*
X133750000Y-104500000D03*
X146000000Y-111500000D03*
X149000000Y-112000000D03*
%TD*%
D31*
%TO.N,GND*%
X153776000Y-79500000D02*
X154388000Y-80112000D01*
X153750000Y-79500000D02*
X153776000Y-79500000D01*
X153750000Y-79474000D02*
X153750000Y-79500000D01*
%TO.N,D3*%
X123839510Y-88120490D02*
X123500000Y-88460000D01*
X128718710Y-88120490D02*
X123839510Y-88120490D01*
X149000000Y-99500000D02*
X148250000Y-100250000D01*
X148250000Y-100250000D02*
X126250000Y-100250000D01*
%TO.N,D2-A2*%
X128718710Y-85580490D02*
X123839510Y-85580490D01*
X123839510Y-85580490D02*
X123500000Y-85920000D01*
%TO.N,3V3*%
X141500000Y-110250000D02*
X140450000Y-111300000D01*
X144883270Y-85580490D02*
X144963760Y-85500000D01*
X141366000Y-101860000D02*
X147732000Y-101860000D01*
X148500000Y-101092000D02*
X148500000Y-109500000D01*
X137150000Y-113500000D02*
X140450000Y-113500000D01*
X154750000Y-115750000D02*
X150408000Y-115750000D01*
X148500000Y-91000000D02*
X149750000Y-92250000D01*
X148500000Y-87500000D02*
X148500000Y-91000000D01*
X140450000Y-113500000D02*
X140450000Y-112000000D01*
X140450000Y-111300000D02*
X140450000Y-112000000D01*
X149750000Y-100500000D02*
X149158000Y-101092000D01*
X139848000Y-103378000D02*
X141366000Y-101860000D01*
X148500000Y-109500000D02*
X147750000Y-110250000D01*
X149158000Y-101092000D02*
X148500000Y-101092000D01*
X141600000Y-115750000D02*
X140450000Y-114600000D01*
X130850000Y-113500000D02*
X137150000Y-113500000D01*
X147250000Y-110250000D02*
X141500000Y-110250000D01*
X144963760Y-85500000D02*
X146500000Y-85500000D01*
X150368000Y-115790000D02*
X147250000Y-112672000D01*
X140450000Y-114600000D02*
X140450000Y-113500000D01*
X147250000Y-112672000D02*
X147250000Y-110250000D01*
X129500000Y-113500000D02*
X128750000Y-112750000D01*
X150408000Y-115750000D02*
X150368000Y-115790000D01*
X147750000Y-110250000D02*
X147250000Y-110250000D01*
X130850000Y-113500000D02*
X129500000Y-113500000D01*
X147732000Y-101860000D02*
X148500000Y-101092000D01*
X149750000Y-92250000D02*
X149750000Y-100500000D01*
X146500000Y-85500000D02*
X148500000Y-87500000D01*
%TO.N,D8-SCK*%
X138299510Y-93200490D02*
X144883270Y-93200490D01*
X137000000Y-94500000D02*
X138299510Y-93200490D01*
%TO.N,D5-SCL*%
X123839510Y-93200490D02*
X123500000Y-93540000D01*
X128718710Y-93200490D02*
X123839510Y-93200490D01*
%TO.N,VIN*%
X144883760Y-80500000D02*
X144883270Y-80500490D01*
X146500000Y-80500000D02*
X144883760Y-80500000D01*
%TO.N,D4-SDA*%
X150725000Y-91975000D02*
X151500000Y-91975000D01*
X129089510Y-90660490D02*
X130500000Y-89250000D01*
X123839510Y-90660490D02*
X123500000Y-91000000D01*
X149250000Y-86750000D02*
X149250000Y-90500000D01*
X148000000Y-81500000D02*
X148000000Y-85500000D01*
X148500000Y-80000000D02*
X148500000Y-81000000D01*
X128718710Y-90660490D02*
X129089510Y-90660490D01*
X149250000Y-90500000D02*
X150725000Y-91975000D01*
X148500000Y-81000000D02*
X148000000Y-81500000D01*
X128718710Y-90660490D02*
X123839510Y-90660490D01*
X148000000Y-85500000D02*
X149250000Y-86750000D01*
%TO.N,D1-A1*%
X128718710Y-83040490D02*
X123839510Y-83040490D01*
X123839510Y-83040490D02*
X123500000Y-83380000D01*
%TO.N,D0-A0*%
X128990220Y-80772000D02*
X128718710Y-80500490D01*
X128718710Y-80500490D02*
X123839510Y-80500490D01*
X123839510Y-80500490D02*
X123500000Y-80840000D01*
X131572000Y-80772000D02*
X128990220Y-80772000D01*
%TO.N,D6-TX*%
X123839510Y-95740490D02*
X123500000Y-96080000D01*
X128718710Y-95740490D02*
X123839510Y-95740490D01*
%TO.N,D9-MISO*%
X144883270Y-90660490D02*
X142589510Y-90660490D01*
X142589510Y-90660490D02*
X142500000Y-90750000D01*
%TO.N,D10-MOSI*%
X144883270Y-88120490D02*
X142879510Y-88120490D01*
X142879510Y-88120490D02*
X142750000Y-88250000D01*
%TO.N,GND*%
X143250000Y-116250000D02*
X142250000Y-117250000D01*
X153000000Y-86750000D02*
X152250000Y-86750000D01*
X152250000Y-86750000D02*
X152000000Y-86500000D01*
X148250000Y-79090000D02*
X151410000Y-79090000D01*
X155448000Y-80112000D02*
X154388000Y-80112000D01*
X142250000Y-117250000D02*
X138600000Y-117250000D01*
X138600000Y-117250000D02*
X137150000Y-115800000D01*
X137150000Y-115800000D02*
X134050000Y-115800000D01*
X144050000Y-112000000D02*
X144050000Y-115200000D01*
X133750000Y-104500000D02*
X131500000Y-104500000D01*
X144050000Y-112000000D02*
X145500000Y-112000000D01*
X138242000Y-108092000D02*
X135250000Y-105100000D01*
X149000000Y-109989950D02*
X149000000Y-112000000D01*
X147250000Y-83750000D02*
X147250000Y-80090000D01*
X134650000Y-104500000D02*
X133750000Y-104500000D01*
X134050000Y-115800000D02*
X133750000Y-115500000D01*
X150368000Y-108170000D02*
X150368000Y-108621950D01*
X144883270Y-83040490D02*
X146040490Y-83040490D01*
X147250000Y-80090000D02*
X148250000Y-79090000D01*
X151590000Y-79090000D02*
X153366000Y-79090000D01*
X150368000Y-108621950D02*
X149000000Y-109989950D01*
X146040490Y-83040490D02*
X147000000Y-84000000D01*
X143500000Y-115750000D02*
X143250000Y-116000000D01*
X146500000Y-114250000D02*
X146000000Y-113750000D01*
X153366000Y-79090000D02*
X153750000Y-79474000D01*
X145500000Y-112000000D02*
X146000000Y-111500000D01*
X143250000Y-116000000D02*
X143250000Y-116250000D01*
X144050000Y-115200000D02*
X143500000Y-115750000D01*
X124680000Y-111320000D02*
X123500000Y-111320000D01*
X135250000Y-105100000D02*
X134650000Y-104500000D01*
X146000000Y-113750000D02*
X146000000Y-111500000D01*
X138242000Y-108712000D02*
X138242000Y-108092000D01*
X147000000Y-84000000D02*
X147250000Y-83750000D01*
X131500000Y-104500000D02*
X124680000Y-111320000D01*
%TO.N,D7-RX*%
X143500000Y-97123760D02*
X143500000Y-97250000D01*
X143500000Y-97250000D02*
X141500000Y-99250000D01*
X124130000Y-99250000D02*
X123500000Y-98620000D01*
X144883270Y-95740490D02*
X143500000Y-97123760D01*
X141500000Y-99250000D02*
X124130000Y-99250000D01*
%TO.N,5V*%
X154250000Y-81750000D02*
X154194975Y-81805025D01*
X155925000Y-90825000D02*
X154750000Y-90825000D01*
X156250000Y-91250000D02*
X156250000Y-117500000D01*
X154194975Y-84444975D02*
X155000000Y-85250000D01*
X155448000Y-81712000D02*
X154898000Y-81712000D01*
X156250000Y-117500000D02*
X155750000Y-118000000D01*
X155750000Y-118000000D02*
X128092000Y-118000000D01*
X137150000Y-108900000D02*
X135250000Y-107000000D01*
X154860000Y-81750000D02*
X154250000Y-81750000D01*
X156500000Y-86000000D02*
X156500000Y-90250000D01*
X155750000Y-85250000D02*
X156500000Y-86000000D01*
X155000000Y-85250000D02*
X155750000Y-85250000D01*
X137150000Y-111200000D02*
X137150000Y-108900000D01*
X135250000Y-107000000D02*
X132600000Y-107000000D01*
X154750000Y-90825000D02*
X155825000Y-90825000D01*
X156500000Y-90250000D02*
X155925000Y-90825000D01*
X154194975Y-81805025D02*
X154194975Y-84444975D01*
X125740000Y-113860000D02*
X131500000Y-108100000D01*
X123500000Y-113860000D02*
X125740000Y-113860000D01*
X132600000Y-107000000D02*
X131500000Y-108100000D01*
X155825000Y-90825000D02*
X156250000Y-91250000D01*
X128092000Y-118000000D02*
X123952000Y-113860000D01*
X154898000Y-81712000D02*
X154860000Y-81750000D01*
%TO.N,Net-(J2-Pin_2)*%
X142433000Y-106421000D02*
X144780000Y-106421000D01*
X140142000Y-108034500D02*
X140142000Y-108712000D01*
X140142000Y-108712000D02*
X142433000Y-106421000D01*
X134723500Y-102616000D02*
X140142000Y-108034500D01*
%TO.N,Net-(U3-V_{OUT})*%
X138580500Y-104648000D02*
X136548500Y-102616000D01*
X139848000Y-104648000D02*
X138580500Y-104648000D01*
%TO.N,Net-(J3-Pin_1)*%
X152500000Y-113925000D02*
X151043000Y-113925000D01*
X151043000Y-113925000D02*
X150368000Y-113250000D01*
X151384000Y-102108000D02*
X152500000Y-103224000D01*
X152500000Y-103224000D02*
X152500000Y-113925000D01*
X154750000Y-113925000D02*
X152500000Y-113925000D01*
%TO.N,Net-(D1-VCC)*%
X154750000Y-86900000D02*
X154900000Y-86750000D01*
X154750000Y-89000000D02*
X154750000Y-86900000D01*
X151462000Y-83312000D02*
X154900000Y-86750000D01*
X150548000Y-83312000D02*
X151462000Y-83312000D01*
%TO.N,Net-(D1-DIN)*%
X153250000Y-92500000D02*
X153587500Y-92837500D01*
X150250000Y-89250000D02*
X151500000Y-89250000D01*
X153250000Y-91000000D02*
X153250000Y-92500000D01*
X150548000Y-81712000D02*
X149538000Y-81712000D01*
X151500000Y-89250000D02*
X153250000Y-91000000D01*
X149250000Y-85000000D02*
X150250000Y-86000000D01*
X150250000Y-86000000D02*
X150250000Y-89250000D01*
X149250000Y-82000000D02*
X149250000Y-85000000D01*
X149538000Y-81712000D02*
X149250000Y-82000000D01*
X153587500Y-92837500D02*
X154750000Y-92837500D01*
%TO.N,Net-(J4-Pin_2)*%
X154602500Y-94515000D02*
X154750000Y-94662500D01*
X151500000Y-94515000D02*
X154602500Y-94515000D01*
%TD*%
M02*
