%TF.GenerationSoftware,KiCad,Pcbnew,8.0.1*%
%TF.CreationDate,2024-05-28T10:15:11-03:00*%
%TF.ProjectId,ESP32C6-dev-board,45535033-3243-4362-9d64-65762d626f61,rev?*%
%TF.SameCoordinates,Original*%
%TF.FileFunction,Paste,Top*%
%TF.FilePolarity,Positive*%
%FSLAX46Y46*%
G04 Gerber Fmt 4.6, Leading zero omitted, Abs format (unit mm)*
G04 Created by KiCad (PCBNEW 8.0.1) date 2024-05-28 10:15:11*
%MOMM*%
%LPD*%
G01*
G04 APERTURE LIST*
G04 Aperture macros list*
%AMRoundRect*
0 Rectangle with rounded corners*
0 $1 Rounding radius*
0 $2 $3 $4 $5 $6 $7 $8 $9 X,Y pos of 4 corners*
0 Add a 4 corners polygon primitive as box body*
4,1,4,$2,$3,$4,$5,$6,$7,$8,$9,$2,$3,0*
0 Add four circle primitives for the rounded corners*
1,1,$1+$1,$2,$3*
1,1,$1+$1,$4,$5*
1,1,$1+$1,$6,$7*
1,1,$1+$1,$8,$9*
0 Add four rect primitives between the rounded corners*
20,1,$1+$1,$2,$3,$4,$5,0*
20,1,$1+$1,$4,$5,$6,$7,0*
20,1,$1+$1,$6,$7,$8,$9,0*
20,1,$1+$1,$8,$9,$2,$3,0*%
G04 Aperture macros list end*
%ADD10RoundRect,0.250000X0.450000X-0.262500X0.450000X0.262500X-0.450000X0.262500X-0.450000X-0.262500X0*%
%ADD11RoundRect,0.250000X-0.450000X0.262500X-0.450000X-0.262500X0.450000X-0.262500X0.450000X0.262500X0*%
%ADD12RoundRect,0.250000X0.250000X0.475000X-0.250000X0.475000X-0.250000X-0.475000X0.250000X-0.475000X0*%
%ADD13RoundRect,0.250000X0.475000X-0.250000X0.475000X0.250000X-0.475000X0.250000X-0.475000X-0.250000X0*%
%ADD14RoundRect,0.250000X0.550000X-1.050000X0.550000X1.050000X-0.550000X1.050000X-0.550000X-1.050000X0*%
%ADD15O,2.748280X1.998980*%
%ADD16O,1.016000X2.032000*%
%ADD17C,1.143000*%
%ADD18RoundRect,0.250000X-1.050000X-0.550000X1.050000X-0.550000X1.050000X0.550000X-1.050000X0.550000X0*%
%ADD19RoundRect,0.250000X0.262500X0.450000X-0.262500X0.450000X-0.262500X-0.450000X0.262500X-0.450000X0*%
%ADD20RoundRect,0.375000X0.625000X0.375000X-0.625000X0.375000X-0.625000X-0.375000X0.625000X-0.375000X0*%
%ADD21RoundRect,0.500000X0.500000X1.400000X-0.500000X1.400000X-0.500000X-1.400000X0.500000X-1.400000X0*%
%ADD22R,1.500000X1.000000*%
%ADD23RoundRect,0.250000X-0.250000X-0.475000X0.250000X-0.475000X0.250000X0.475000X-0.250000X0.475000X0*%
G04 APERTURE END LIST*
D10*
%TO.C,R4*%
X154750000Y-90825000D03*
X154750000Y-89000000D03*
%TD*%
D11*
%TO.C,R3*%
X154750000Y-92837500D03*
X154750000Y-94662500D03*
%TD*%
D12*
%TO.C,C6*%
X153000000Y-86750000D03*
X154900000Y-86750000D03*
%TD*%
D13*
%TO.C,C3*%
X135250000Y-107000000D03*
X135250000Y-105100000D03*
%TD*%
D14*
%TO.C,C1*%
X131500000Y-108100000D03*
X131500000Y-104500000D03*
%TD*%
D15*
%TO.C,U1*%
X128718710Y-80500490D03*
X128718710Y-83040490D03*
X128718710Y-85580490D03*
X128718710Y-88120490D03*
X128718710Y-90660490D03*
X128718710Y-93200490D03*
X128718710Y-95740490D03*
X144883270Y-95740490D03*
X144883270Y-93200490D03*
X144883270Y-90660490D03*
X144883270Y-88120490D03*
X144883270Y-85580490D03*
X144883270Y-83040490D03*
X144883270Y-80500490D03*
D16*
X135585590Y-96818310D03*
X138135590Y-96818310D03*
D17*
X135584393Y-79814123D03*
X138124393Y-79814123D03*
X135584393Y-82354123D03*
X138124393Y-82354123D03*
%TD*%
D11*
%TO.C,R2*%
X154750000Y-113925000D03*
X154750000Y-115750000D03*
%TD*%
D18*
%TO.C,C2*%
X140450000Y-112000000D03*
X144050000Y-112000000D03*
%TD*%
D19*
%TO.C,R1*%
X136548500Y-102616000D03*
X134723500Y-102616000D03*
%TD*%
D20*
%TO.C,U2*%
X137150000Y-115800000D03*
X137150000Y-113500000D03*
D21*
X130850000Y-113500000D03*
D20*
X137150000Y-111200000D03*
%TD*%
D12*
%TO.C,C5*%
X140142000Y-108712000D03*
X138242000Y-108712000D03*
%TD*%
D22*
%TO.C,D1*%
X150548000Y-80112000D03*
X150548000Y-81712000D03*
X150548000Y-83312000D03*
X155448000Y-83312000D03*
X155448000Y-81712000D03*
X155448000Y-80112000D03*
%TD*%
D23*
%TO.C,C4*%
X141600000Y-115750000D03*
X143500000Y-115750000D03*
%TD*%
M02*
