%TF.GenerationSoftware,KiCad,Pcbnew,8.0.1*%
%TF.CreationDate,2024-05-28T10:15:12-03:00*%
%TF.ProjectId,ESP32C6-dev-board,45535033-3243-4362-9d64-65762d626f61,rev?*%
%TF.SameCoordinates,Original*%
%TF.FileFunction,Legend,Top*%
%TF.FilePolarity,Positive*%
%FSLAX46Y46*%
G04 Gerber Fmt 4.6, Leading zero omitted, Abs format (unit mm)*
G04 Created by KiCad (PCBNEW 8.0.1) date 2024-05-28 10:15:12*
%MOMM*%
%LPD*%
G01*
G04 APERTURE LIST*
%ADD10C,0.187500*%
%ADD11C,0.162500*%
%ADD12C,0.300000*%
%ADD13C,0.150000*%
%ADD14C,0.101600*%
%ADD15C,0.076200*%
%ADD16C,0.120000*%
%ADD17C,0.127000*%
%ADD18C,0.066040*%
%ADD19C,0.254000*%
G04 APERTURE END LIST*
D10*
G36*
X126158618Y-103269892D02*
G01*
X126201695Y-103272468D01*
X126241293Y-103277506D01*
X126257829Y-103280883D01*
X126299076Y-103293454D01*
X126336353Y-103311139D01*
X126369662Y-103333937D01*
X126375847Y-103339110D01*
X126405767Y-103368163D01*
X126431632Y-103401002D01*
X126453443Y-103437626D01*
X126471200Y-103478036D01*
X126483534Y-103516125D01*
X126492838Y-103556532D01*
X126499113Y-103599259D01*
X126502359Y-103644304D01*
X126502854Y-103671085D01*
X126501825Y-103710595D01*
X126498131Y-103753277D01*
X126491750Y-103793320D01*
X126481360Y-103835217D01*
X126468406Y-103873496D01*
X126451729Y-103911460D01*
X126430607Y-103947667D01*
X126426454Y-103953625D01*
X126400488Y-103985994D01*
X126370312Y-104014734D01*
X126353182Y-104027484D01*
X126318054Y-104047106D01*
X126280763Y-104061440D01*
X126256852Y-104068127D01*
X126216179Y-104076025D01*
X126175756Y-104080360D01*
X126136570Y-104081945D01*
X126127501Y-104082000D01*
X125836755Y-104082000D01*
X125836755Y-103362949D01*
X125943440Y-103362949D01*
X125943440Y-103988210D01*
X126115387Y-103988210D01*
X126157510Y-103987020D01*
X126197932Y-103982906D01*
X126237572Y-103974091D01*
X126240439Y-103973165D01*
X126276589Y-103957644D01*
X126309293Y-103934136D01*
X126312735Y-103930764D01*
X126338802Y-103898158D01*
X126358545Y-103861703D01*
X126371744Y-103827205D01*
X126382040Y-103788426D01*
X126388966Y-103745289D01*
X126392293Y-103703285D01*
X126393042Y-103669522D01*
X126391579Y-103623411D01*
X126387189Y-103581503D01*
X126378370Y-103537925D01*
X126365567Y-103500068D01*
X126351423Y-103472174D01*
X126326700Y-103436977D01*
X126299134Y-103408983D01*
X126265169Y-103386326D01*
X126250600Y-103379752D01*
X126211142Y-103369513D01*
X126171884Y-103364934D01*
X126130033Y-103363096D01*
X126112651Y-103362949D01*
X125943440Y-103362949D01*
X125836755Y-103362949D01*
X125836755Y-103269159D01*
X126114410Y-103269159D01*
X126158618Y-103269892D01*
G37*
G36*
X126901393Y-103272529D02*
G01*
X126942377Y-103282637D01*
X126981228Y-103299484D01*
X127001891Y-103311755D01*
X127036017Y-103338465D01*
X127065198Y-103370893D01*
X127086985Y-103404519D01*
X127100760Y-103432704D01*
X127113932Y-103470435D01*
X127123868Y-103514898D01*
X127129810Y-103558367D01*
X127132946Y-103598370D01*
X127134431Y-103641807D01*
X127134563Y-103660143D01*
X127133743Y-103706967D01*
X127131281Y-103750719D01*
X127127179Y-103791399D01*
X127120090Y-103836160D01*
X127110637Y-103876496D01*
X127100956Y-103906731D01*
X127084767Y-103944814D01*
X127062419Y-103983209D01*
X127035967Y-104016133D01*
X127005412Y-104043586D01*
X127001304Y-104046633D01*
X126966769Y-104067577D01*
X126929399Y-104082537D01*
X126889197Y-104091513D01*
X126846161Y-104094505D01*
X126806442Y-104091952D01*
X126765100Y-104082784D01*
X126728082Y-104066948D01*
X126695387Y-104044444D01*
X126691605Y-104041162D01*
X126664689Y-104011694D01*
X126643733Y-103976829D01*
X126628736Y-103936565D01*
X126620503Y-103896907D01*
X126619699Y-103890904D01*
X126714856Y-103881916D01*
X126724462Y-103921342D01*
X126741681Y-103958931D01*
X126760774Y-103982153D01*
X126794359Y-104003391D01*
X126835274Y-104012735D01*
X126848311Y-104013221D01*
X126888545Y-104008713D01*
X126926067Y-103993967D01*
X126928227Y-103992704D01*
X126959490Y-103968769D01*
X126984501Y-103937994D01*
X127003612Y-103900473D01*
X127016613Y-103862852D01*
X127021430Y-103845182D01*
X127029885Y-103804785D01*
X127034830Y-103763927D01*
X127036280Y-103726382D01*
X127035694Y-103706842D01*
X127010369Y-103737892D01*
X126978944Y-103764215D01*
X126954605Y-103779138D01*
X126918283Y-103794935D01*
X126879975Y-103804175D01*
X126843426Y-103806884D01*
X126801125Y-103803406D01*
X126761761Y-103792972D01*
X126725332Y-103775581D01*
X126691840Y-103751234D01*
X126674019Y-103734198D01*
X126647067Y-103700096D01*
X126626735Y-103661562D01*
X126613023Y-103618597D01*
X126606538Y-103578242D01*
X126605141Y-103548378D01*
X126706454Y-103548378D01*
X126710133Y-103590337D01*
X126722849Y-103631485D01*
X126744648Y-103666869D01*
X126752958Y-103676361D01*
X126784122Y-103702327D01*
X126823251Y-103719782D01*
X126863231Y-103725552D01*
X126867459Y-103725600D01*
X126908042Y-103720792D01*
X126947129Y-103704395D01*
X126977613Y-103679390D01*
X126980397Y-103676361D01*
X127003787Y-103641885D01*
X127017432Y-103604526D01*
X127024059Y-103561170D01*
X127024752Y-103539976D01*
X127021919Y-103498650D01*
X127011958Y-103457530D01*
X126994826Y-103422098D01*
X126979420Y-103401637D01*
X126949294Y-103374640D01*
X126912013Y-103356493D01*
X126870390Y-103350443D01*
X126830773Y-103355824D01*
X126794477Y-103371967D01*
X126761500Y-103398872D01*
X126755303Y-103405545D01*
X126731690Y-103439120D01*
X126715804Y-103477858D01*
X126708172Y-103516625D01*
X126706454Y-103548378D01*
X126605141Y-103548378D01*
X126604849Y-103542125D01*
X126607391Y-103497719D01*
X126615016Y-103456680D01*
X126627724Y-103419006D01*
X126648975Y-103379308D01*
X126677145Y-103344191D01*
X126710523Y-103314955D01*
X126747398Y-103292900D01*
X126787770Y-103278025D01*
X126831638Y-103270332D01*
X126858276Y-103269159D01*
X126901393Y-103272529D01*
G37*
G36*
X126158618Y-100769892D02*
G01*
X126201695Y-100772468D01*
X126241293Y-100777506D01*
X126257829Y-100780883D01*
X126299076Y-100793454D01*
X126336353Y-100811139D01*
X126369662Y-100833937D01*
X126375847Y-100839110D01*
X126405767Y-100868163D01*
X126431632Y-100901002D01*
X126453443Y-100937626D01*
X126471200Y-100978036D01*
X126483534Y-101016125D01*
X126492838Y-101056532D01*
X126499113Y-101099259D01*
X126502359Y-101144304D01*
X126502854Y-101171085D01*
X126501825Y-101210595D01*
X126498131Y-101253277D01*
X126491750Y-101293320D01*
X126481360Y-101335217D01*
X126468406Y-101373496D01*
X126451729Y-101411460D01*
X126430607Y-101447667D01*
X126426454Y-101453625D01*
X126400488Y-101485994D01*
X126370312Y-101514734D01*
X126353182Y-101527484D01*
X126318054Y-101547106D01*
X126280763Y-101561440D01*
X126256852Y-101568127D01*
X126216179Y-101576025D01*
X126175756Y-101580360D01*
X126136570Y-101581945D01*
X126127501Y-101582000D01*
X125836755Y-101582000D01*
X125836755Y-100862949D01*
X125943440Y-100862949D01*
X125943440Y-101488210D01*
X126115387Y-101488210D01*
X126157510Y-101487020D01*
X126197932Y-101482906D01*
X126237572Y-101474091D01*
X126240439Y-101473165D01*
X126276589Y-101457644D01*
X126309293Y-101434136D01*
X126312735Y-101430764D01*
X126338802Y-101398158D01*
X126358545Y-101361703D01*
X126371744Y-101327205D01*
X126382040Y-101288426D01*
X126388966Y-101245289D01*
X126392293Y-101203285D01*
X126393042Y-101169522D01*
X126391579Y-101123411D01*
X126387189Y-101081503D01*
X126378370Y-101037925D01*
X126365567Y-101000068D01*
X126351423Y-100972174D01*
X126326700Y-100936977D01*
X126299134Y-100908983D01*
X126265169Y-100886326D01*
X126250600Y-100879752D01*
X126211142Y-100869513D01*
X126171884Y-100864934D01*
X126130033Y-100863096D01*
X126112651Y-100862949D01*
X125943440Y-100862949D01*
X125836755Y-100862949D01*
X125836755Y-100769159D01*
X126114410Y-100769159D01*
X126158618Y-100769892D01*
G37*
G36*
X126911648Y-100772123D02*
G01*
X126951892Y-100781015D01*
X126988190Y-100795835D01*
X127024841Y-100820030D01*
X127037257Y-100831099D01*
X127065467Y-100863669D01*
X127085617Y-100899634D01*
X127097707Y-100938994D01*
X127101737Y-100981748D01*
X127097588Y-101022186D01*
X127083729Y-101061342D01*
X127072233Y-101080422D01*
X127043356Y-101111236D01*
X127007713Y-101134070D01*
X126982937Y-101144903D01*
X127021890Y-101160771D01*
X127055216Y-101181337D01*
X127085648Y-101209700D01*
X127095875Y-101222669D01*
X127116277Y-101258295D01*
X127129123Y-101298003D01*
X127134223Y-101337232D01*
X127134563Y-101351043D01*
X127131066Y-101394599D01*
X127120576Y-101434995D01*
X127103092Y-101472230D01*
X127078613Y-101506306D01*
X127061486Y-101524358D01*
X127027308Y-101551691D01*
X126988717Y-101572310D01*
X126945712Y-101586216D01*
X126905339Y-101592792D01*
X126869218Y-101594505D01*
X126826136Y-101592032D01*
X126786282Y-101584613D01*
X126743867Y-101569706D01*
X126705846Y-101548068D01*
X126676755Y-101524163D01*
X126648280Y-101491638D01*
X126626799Y-101455785D01*
X126612312Y-101416604D01*
X126604819Y-101374094D01*
X126603712Y-101349090D01*
X126705478Y-101349090D01*
X126710460Y-101390464D01*
X126724182Y-101428100D01*
X126725408Y-101430569D01*
X126748526Y-101463665D01*
X126780145Y-101488947D01*
X126785003Y-101491727D01*
X126823520Y-101507155D01*
X126864699Y-101513137D01*
X126870390Y-101513221D01*
X126912194Y-101508794D01*
X126949189Y-101495513D01*
X126984330Y-101470678D01*
X126987236Y-101467889D01*
X127011657Y-101437031D01*
X127028073Y-101397532D01*
X127033499Y-101356576D01*
X127033545Y-101352216D01*
X127028889Y-101310168D01*
X127014921Y-101272928D01*
X126991642Y-101240498D01*
X126985868Y-101234588D01*
X126953865Y-101210065D01*
X126917206Y-101194624D01*
X126875890Y-101188266D01*
X126867069Y-101188085D01*
X126825696Y-101192588D01*
X126789018Y-101206098D01*
X126757033Y-101228614D01*
X126751200Y-101234198D01*
X126727088Y-101265148D01*
X126710880Y-101304394D01*
X126705522Y-101344801D01*
X126705478Y-101349090D01*
X126603712Y-101349090D01*
X126603677Y-101348308D01*
X126606830Y-101306244D01*
X126616289Y-101268198D01*
X126634195Y-101230638D01*
X126643538Y-101217003D01*
X126671751Y-101187209D01*
X126706567Y-101164018D01*
X126743547Y-101148790D01*
X126757062Y-101144903D01*
X126718510Y-101127011D01*
X126685038Y-101102226D01*
X126665812Y-101080032D01*
X126646583Y-101042999D01*
X126637534Y-101003949D01*
X126636113Y-100979013D01*
X126636456Y-100975300D01*
X126737327Y-100975300D01*
X126742493Y-101015829D01*
X126759748Y-101052976D01*
X126774061Y-101070066D01*
X126807678Y-101093850D01*
X126845120Y-101105043D01*
X126869804Y-101106801D01*
X126909710Y-101101662D01*
X126946431Y-101084499D01*
X126963398Y-101070262D01*
X126987055Y-101037865D01*
X126998652Y-101000051D01*
X126999937Y-100980771D01*
X126994634Y-100941918D01*
X126976920Y-100905409D01*
X126962226Y-100888154D01*
X126928681Y-100863738D01*
X126889008Y-100851769D01*
X126868632Y-100850443D01*
X126828854Y-100855609D01*
X126791900Y-100872864D01*
X126774647Y-100887177D01*
X126750484Y-100919443D01*
X126738238Y-100959599D01*
X126737327Y-100975300D01*
X126636456Y-100975300D01*
X126640057Y-100936344D01*
X126651891Y-100897240D01*
X126671613Y-100861703D01*
X126699225Y-100829732D01*
X126733480Y-100803231D01*
X126772937Y-100784302D01*
X126811730Y-100773951D01*
X126854506Y-100769396D01*
X126867459Y-100769159D01*
X126911648Y-100772123D01*
G37*
G36*
X126158618Y-98269892D02*
G01*
X126201695Y-98272468D01*
X126241293Y-98277506D01*
X126257829Y-98280883D01*
X126299076Y-98293454D01*
X126336353Y-98311139D01*
X126369662Y-98333937D01*
X126375847Y-98339110D01*
X126405767Y-98368163D01*
X126431632Y-98401002D01*
X126453443Y-98437626D01*
X126471200Y-98478036D01*
X126483534Y-98516125D01*
X126492838Y-98556532D01*
X126499113Y-98599259D01*
X126502359Y-98644304D01*
X126502854Y-98671085D01*
X126501825Y-98710595D01*
X126498131Y-98753277D01*
X126491750Y-98793320D01*
X126481360Y-98835217D01*
X126468406Y-98873496D01*
X126451729Y-98911460D01*
X126430607Y-98947667D01*
X126426454Y-98953625D01*
X126400488Y-98985994D01*
X126370312Y-99014734D01*
X126353182Y-99027484D01*
X126318054Y-99047106D01*
X126280763Y-99061440D01*
X126256852Y-99068127D01*
X126216179Y-99076025D01*
X126175756Y-99080360D01*
X126136570Y-99081945D01*
X126127501Y-99082000D01*
X125836755Y-99082000D01*
X125836755Y-98362949D01*
X125943440Y-98362949D01*
X125943440Y-98988210D01*
X126115387Y-98988210D01*
X126157510Y-98987020D01*
X126197932Y-98982906D01*
X126237572Y-98974091D01*
X126240439Y-98973165D01*
X126276589Y-98957644D01*
X126309293Y-98934136D01*
X126312735Y-98930764D01*
X126338802Y-98898158D01*
X126358545Y-98861703D01*
X126371744Y-98827205D01*
X126382040Y-98788426D01*
X126388966Y-98745289D01*
X126392293Y-98703285D01*
X126393042Y-98669522D01*
X126391579Y-98623411D01*
X126387189Y-98581503D01*
X126378370Y-98537925D01*
X126365567Y-98500068D01*
X126351423Y-98472174D01*
X126326700Y-98436977D01*
X126299134Y-98408983D01*
X126265169Y-98386326D01*
X126250600Y-98379752D01*
X126211142Y-98369513D01*
X126171884Y-98364934D01*
X126130033Y-98363096D01*
X126112651Y-98362949D01*
X125943440Y-98362949D01*
X125836755Y-98362949D01*
X125836755Y-98269159D01*
X126114410Y-98269159D01*
X126158618Y-98269892D01*
G37*
G36*
X126611493Y-98375454D02*
G01*
X126611493Y-98281665D01*
X127133000Y-98281665D01*
X127133000Y-98358650D01*
X127104179Y-98391481D01*
X127075454Y-98428131D01*
X127051589Y-98461590D01*
X127027792Y-98497702D01*
X127004061Y-98536466D01*
X126980397Y-98577882D01*
X126957663Y-98620759D01*
X126936598Y-98664027D01*
X126917202Y-98707687D01*
X126899477Y-98751737D01*
X126883420Y-98796179D01*
X126869034Y-98841012D01*
X126863747Y-98859055D01*
X126853365Y-98897910D01*
X126844494Y-98938125D01*
X126837135Y-98979701D01*
X126831287Y-99022636D01*
X126826950Y-99066932D01*
X126825840Y-99082000D01*
X126724040Y-99082000D01*
X126726427Y-99038119D01*
X126731048Y-98997471D01*
X126738045Y-98954020D01*
X126745692Y-98915670D01*
X126754990Y-98875374D01*
X126761360Y-98850262D01*
X126773293Y-98808007D01*
X126786742Y-98766239D01*
X126801709Y-98724957D01*
X126818193Y-98684161D01*
X126836193Y-98643853D01*
X126855711Y-98604031D01*
X126863942Y-98588238D01*
X126885030Y-98549761D01*
X126906528Y-98513221D01*
X126928437Y-98478618D01*
X126950755Y-98445951D01*
X126978079Y-98409308D01*
X127005994Y-98375454D01*
X126611493Y-98375454D01*
G37*
G36*
X126158618Y-95269892D02*
G01*
X126201695Y-95272468D01*
X126241293Y-95277506D01*
X126257829Y-95280883D01*
X126299076Y-95293454D01*
X126336353Y-95311139D01*
X126369662Y-95333937D01*
X126375847Y-95339110D01*
X126405767Y-95368163D01*
X126431632Y-95401002D01*
X126453443Y-95437626D01*
X126471200Y-95478036D01*
X126483534Y-95516125D01*
X126492838Y-95556532D01*
X126499113Y-95599259D01*
X126502359Y-95644304D01*
X126502854Y-95671085D01*
X126501825Y-95710595D01*
X126498131Y-95753277D01*
X126491750Y-95793320D01*
X126481360Y-95835217D01*
X126468406Y-95873496D01*
X126451729Y-95911460D01*
X126430607Y-95947667D01*
X126426454Y-95953625D01*
X126400488Y-95985994D01*
X126370312Y-96014734D01*
X126353182Y-96027484D01*
X126318054Y-96047106D01*
X126280763Y-96061440D01*
X126256852Y-96068127D01*
X126216179Y-96076025D01*
X126175756Y-96080360D01*
X126136570Y-96081945D01*
X126127501Y-96082000D01*
X125836755Y-96082000D01*
X125836755Y-95362949D01*
X125943440Y-95362949D01*
X125943440Y-95988210D01*
X126115387Y-95988210D01*
X126157510Y-95987020D01*
X126197932Y-95982906D01*
X126237572Y-95974091D01*
X126240439Y-95973165D01*
X126276589Y-95957644D01*
X126309293Y-95934136D01*
X126312735Y-95930764D01*
X126338802Y-95898158D01*
X126358545Y-95861703D01*
X126371744Y-95827205D01*
X126382040Y-95788426D01*
X126388966Y-95745289D01*
X126392293Y-95703285D01*
X126393042Y-95669522D01*
X126391579Y-95623411D01*
X126387189Y-95581503D01*
X126378370Y-95537925D01*
X126365567Y-95500068D01*
X126351423Y-95472174D01*
X126326700Y-95436977D01*
X126299134Y-95408983D01*
X126265169Y-95386326D01*
X126250600Y-95379752D01*
X126211142Y-95369513D01*
X126171884Y-95364934D01*
X126130033Y-95363096D01*
X126112651Y-95362949D01*
X125943440Y-95362949D01*
X125836755Y-95362949D01*
X125836755Y-95269159D01*
X126114410Y-95269159D01*
X126158618Y-95269892D01*
G37*
G36*
X126929515Y-95271768D02*
G01*
X126971149Y-95281138D01*
X127008461Y-95297322D01*
X127041449Y-95320320D01*
X127045268Y-95323674D01*
X127072611Y-95353435D01*
X127093872Y-95388399D01*
X127109052Y-95428564D01*
X127117346Y-95467977D01*
X127118150Y-95473933D01*
X127019867Y-95481748D01*
X127008363Y-95441228D01*
X126991052Y-95405624D01*
X126982351Y-95394212D01*
X126949672Y-95367540D01*
X126911716Y-95353179D01*
X126883482Y-95350443D01*
X126844314Y-95355417D01*
X126807245Y-95371787D01*
X126800439Y-95376431D01*
X126770665Y-95403184D01*
X126745555Y-95437233D01*
X126726775Y-95474519D01*
X126713743Y-95515022D01*
X126705557Y-95558317D01*
X126701020Y-95601830D01*
X126699081Y-95643310D01*
X126698834Y-95657994D01*
X126725287Y-95625804D01*
X126755481Y-95599895D01*
X126786175Y-95581790D01*
X126825669Y-95566549D01*
X126866482Y-95558343D01*
X126894424Y-95556780D01*
X126936343Y-95560277D01*
X126975421Y-95570767D01*
X127011656Y-95588252D01*
X127045048Y-95612730D01*
X127062854Y-95629857D01*
X127089958Y-95663791D01*
X127110405Y-95701819D01*
X127124194Y-95743944D01*
X127130716Y-95783309D01*
X127132414Y-95818413D01*
X127129817Y-95860333D01*
X127122028Y-95900584D01*
X127109045Y-95939165D01*
X127099588Y-95959878D01*
X127079285Y-95994177D01*
X127052159Y-96026630D01*
X127020224Y-96053131D01*
X127009706Y-96059920D01*
X126972540Y-96078158D01*
X126932358Y-96089641D01*
X126889161Y-96094370D01*
X126880160Y-96094505D01*
X126835386Y-96091297D01*
X126793826Y-96081673D01*
X126755482Y-96065633D01*
X126720352Y-96043177D01*
X126688437Y-96014305D01*
X126678513Y-96003256D01*
X126652018Y-95964881D01*
X126634126Y-95926553D01*
X126620041Y-95882453D01*
X126611514Y-95843017D01*
X126607680Y-95815872D01*
X126714270Y-95815872D01*
X126717850Y-95857519D01*
X126728588Y-95897682D01*
X126735959Y-95915719D01*
X126756419Y-95950715D01*
X126784800Y-95980037D01*
X126796531Y-95988406D01*
X126834026Y-96006217D01*
X126873239Y-96013124D01*
X126878597Y-96013221D01*
X126919529Y-96007125D01*
X126956351Y-95988839D01*
X126986259Y-95961637D01*
X127010061Y-95925771D01*
X127023946Y-95887293D01*
X127030293Y-95848159D01*
X127031395Y-95821344D01*
X127028611Y-95781007D01*
X127018822Y-95741029D01*
X126999679Y-95703316D01*
X126986845Y-95687108D01*
X126956750Y-95661245D01*
X126918444Y-95643859D01*
X126878892Y-95638112D01*
X126874689Y-95638064D01*
X126834786Y-95642853D01*
X126795476Y-95659185D01*
X126763908Y-95684090D01*
X126760969Y-95687108D01*
X126736343Y-95720756D01*
X126720837Y-95760396D01*
X126714681Y-95801194D01*
X126714270Y-95815872D01*
X126607680Y-95815872D01*
X126605423Y-95799887D01*
X126601769Y-95753062D01*
X126600551Y-95702544D01*
X126601308Y-95659740D01*
X126603580Y-95619182D01*
X126608966Y-95568600D01*
X126617044Y-95522010D01*
X126627815Y-95479414D01*
X126641279Y-95440812D01*
X126661896Y-95398174D01*
X126686720Y-95361776D01*
X126716771Y-95330301D01*
X126750504Y-95305338D01*
X126787919Y-95286887D01*
X126829016Y-95274948D01*
X126873794Y-95269521D01*
X126889539Y-95269159D01*
X126929515Y-95271768D01*
G37*
G36*
X126158618Y-92769892D02*
G01*
X126201695Y-92772468D01*
X126241293Y-92777506D01*
X126257829Y-92780883D01*
X126299076Y-92793454D01*
X126336353Y-92811139D01*
X126369662Y-92833937D01*
X126375847Y-92839110D01*
X126405767Y-92868163D01*
X126431632Y-92901002D01*
X126453443Y-92937626D01*
X126471200Y-92978036D01*
X126483534Y-93016125D01*
X126492838Y-93056532D01*
X126499113Y-93099259D01*
X126502359Y-93144304D01*
X126502854Y-93171085D01*
X126501825Y-93210595D01*
X126498131Y-93253277D01*
X126491750Y-93293320D01*
X126481360Y-93335217D01*
X126468406Y-93373496D01*
X126451729Y-93411460D01*
X126430607Y-93447667D01*
X126426454Y-93453625D01*
X126400488Y-93485994D01*
X126370312Y-93514734D01*
X126353182Y-93527484D01*
X126318054Y-93547106D01*
X126280763Y-93561440D01*
X126256852Y-93568127D01*
X126216179Y-93576025D01*
X126175756Y-93580360D01*
X126136570Y-93581945D01*
X126127501Y-93582000D01*
X125836755Y-93582000D01*
X125836755Y-92862949D01*
X125943440Y-92862949D01*
X125943440Y-93488210D01*
X126115387Y-93488210D01*
X126157510Y-93487020D01*
X126197932Y-93482906D01*
X126237572Y-93474091D01*
X126240439Y-93473165D01*
X126276589Y-93457644D01*
X126309293Y-93434136D01*
X126312735Y-93430764D01*
X126338802Y-93398158D01*
X126358545Y-93361703D01*
X126371744Y-93327205D01*
X126382040Y-93288426D01*
X126388966Y-93245289D01*
X126392293Y-93203285D01*
X126393042Y-93169522D01*
X126391579Y-93123411D01*
X126387189Y-93081503D01*
X126378370Y-93037925D01*
X126365567Y-93000068D01*
X126351423Y-92972174D01*
X126326700Y-92936977D01*
X126299134Y-92908983D01*
X126265169Y-92886326D01*
X126250600Y-92879752D01*
X126211142Y-92869513D01*
X126171884Y-92864934D01*
X126130033Y-92863096D01*
X126112651Y-92862949D01*
X125943440Y-92862949D01*
X125836755Y-92862949D01*
X125836755Y-92769159D01*
X126114410Y-92769159D01*
X126158618Y-92769892D01*
G37*
G36*
X126604849Y-93369411D02*
G01*
X126708799Y-93360618D01*
X126717695Y-93400389D01*
X126733235Y-93437583D01*
X126757205Y-93469989D01*
X126762337Y-93474923D01*
X126796290Y-93498261D01*
X126835134Y-93510827D01*
X126863747Y-93513221D01*
X126906184Y-93507840D01*
X126944347Y-93491697D01*
X126978236Y-93464792D01*
X126984501Y-93458120D01*
X127008492Y-93424297D01*
X127024631Y-93384817D01*
X127032386Y-93344975D01*
X127034131Y-93312160D01*
X127031151Y-93271164D01*
X127020675Y-93230503D01*
X127002657Y-93195622D01*
X126986454Y-93175579D01*
X126953898Y-93149201D01*
X126915578Y-93132593D01*
X126876164Y-93125998D01*
X126861988Y-93125558D01*
X126822029Y-93129897D01*
X126783118Y-93144174D01*
X126775819Y-93148224D01*
X126743339Y-93172295D01*
X126718071Y-93202377D01*
X126715247Y-93206842D01*
X126622435Y-93194728D01*
X126700397Y-92781665D01*
X127101151Y-92781665D01*
X127101151Y-92875454D01*
X126779532Y-92875454D01*
X126736154Y-93091951D01*
X126772925Y-93071092D01*
X126810551Y-93056193D01*
X126849031Y-93047254D01*
X126888367Y-93044274D01*
X126932948Y-93047790D01*
X126974370Y-93058337D01*
X127012631Y-93075915D01*
X127047732Y-93100524D01*
X127066371Y-93117743D01*
X127094693Y-93151819D01*
X127116059Y-93189935D01*
X127130468Y-93232090D01*
X127137283Y-93271437D01*
X127139057Y-93306494D01*
X127136818Y-93346622D01*
X127128545Y-93390782D01*
X127114175Y-93432080D01*
X127093710Y-93470518D01*
X127075359Y-93496221D01*
X127044284Y-93529622D01*
X127009239Y-93556113D01*
X126970224Y-93575693D01*
X126927238Y-93588362D01*
X126888383Y-93593641D01*
X126863747Y-93594505D01*
X126823916Y-93592341D01*
X126781041Y-93584347D01*
X126742038Y-93570462D01*
X126706905Y-93550687D01*
X126684180Y-93532956D01*
X126656675Y-93504026D01*
X126634855Y-93471262D01*
X126618719Y-93434665D01*
X126608269Y-93394235D01*
X126604849Y-93369411D01*
G37*
G36*
X126158618Y-90269892D02*
G01*
X126201695Y-90272468D01*
X126241293Y-90277506D01*
X126257829Y-90280883D01*
X126299076Y-90293454D01*
X126336353Y-90311139D01*
X126369662Y-90333937D01*
X126375847Y-90339110D01*
X126405767Y-90368163D01*
X126431632Y-90401002D01*
X126453443Y-90437626D01*
X126471200Y-90478036D01*
X126483534Y-90516125D01*
X126492838Y-90556532D01*
X126499113Y-90599259D01*
X126502359Y-90644304D01*
X126502854Y-90671085D01*
X126501825Y-90710595D01*
X126498131Y-90753277D01*
X126491750Y-90793320D01*
X126481360Y-90835217D01*
X126468406Y-90873496D01*
X126451729Y-90911460D01*
X126430607Y-90947667D01*
X126426454Y-90953625D01*
X126400488Y-90985994D01*
X126370312Y-91014734D01*
X126353182Y-91027484D01*
X126318054Y-91047106D01*
X126280763Y-91061440D01*
X126256852Y-91068127D01*
X126216179Y-91076025D01*
X126175756Y-91080360D01*
X126136570Y-91081945D01*
X126127501Y-91082000D01*
X125836755Y-91082000D01*
X125836755Y-90362949D01*
X125943440Y-90362949D01*
X125943440Y-90988210D01*
X126115387Y-90988210D01*
X126157510Y-90987020D01*
X126197932Y-90982906D01*
X126237572Y-90974091D01*
X126240439Y-90973165D01*
X126276589Y-90957644D01*
X126309293Y-90934136D01*
X126312735Y-90930764D01*
X126338802Y-90898158D01*
X126358545Y-90861703D01*
X126371744Y-90827205D01*
X126382040Y-90788426D01*
X126388966Y-90745289D01*
X126392293Y-90703285D01*
X126393042Y-90669522D01*
X126391579Y-90623411D01*
X126387189Y-90581503D01*
X126378370Y-90537925D01*
X126365567Y-90500068D01*
X126351423Y-90472174D01*
X126326700Y-90436977D01*
X126299134Y-90408983D01*
X126265169Y-90386326D01*
X126250600Y-90379752D01*
X126211142Y-90369513D01*
X126171884Y-90364934D01*
X126130033Y-90363096D01*
X126112651Y-90362949D01*
X125943440Y-90362949D01*
X125836755Y-90362949D01*
X125836755Y-90269159D01*
X126114410Y-90269159D01*
X126158618Y-90269892D01*
G37*
G36*
X127020844Y-90794379D02*
G01*
X127129678Y-90794379D01*
X127129678Y-90885042D01*
X127020844Y-90885042D01*
X127020844Y-91082000D01*
X126921974Y-91082000D01*
X126921974Y-90885042D01*
X126572414Y-90885042D01*
X126572414Y-90794379D01*
X126669720Y-90794379D01*
X126921974Y-90794379D01*
X126921974Y-90428992D01*
X126669720Y-90794379D01*
X126572414Y-90794379D01*
X126940146Y-90269159D01*
X127020844Y-90269159D01*
X127020844Y-90794379D01*
G37*
G36*
X126158618Y-87769892D02*
G01*
X126201695Y-87772468D01*
X126241293Y-87777506D01*
X126257829Y-87780883D01*
X126299076Y-87793454D01*
X126336353Y-87811139D01*
X126369662Y-87833937D01*
X126375847Y-87839110D01*
X126405767Y-87868163D01*
X126431632Y-87901002D01*
X126453443Y-87937626D01*
X126471200Y-87978036D01*
X126483534Y-88016125D01*
X126492838Y-88056532D01*
X126499113Y-88099259D01*
X126502359Y-88144304D01*
X126502854Y-88171085D01*
X126501825Y-88210595D01*
X126498131Y-88253277D01*
X126491750Y-88293320D01*
X126481360Y-88335217D01*
X126468406Y-88373496D01*
X126451729Y-88411460D01*
X126430607Y-88447667D01*
X126426454Y-88453625D01*
X126400488Y-88485994D01*
X126370312Y-88514734D01*
X126353182Y-88527484D01*
X126318054Y-88547106D01*
X126280763Y-88561440D01*
X126256852Y-88568127D01*
X126216179Y-88576025D01*
X126175756Y-88580360D01*
X126136570Y-88581945D01*
X126127501Y-88582000D01*
X125836755Y-88582000D01*
X125836755Y-87862949D01*
X125943440Y-87862949D01*
X125943440Y-88488210D01*
X126115387Y-88488210D01*
X126157510Y-88487020D01*
X126197932Y-88482906D01*
X126237572Y-88474091D01*
X126240439Y-88473165D01*
X126276589Y-88457644D01*
X126309293Y-88434136D01*
X126312735Y-88430764D01*
X126338802Y-88398158D01*
X126358545Y-88361703D01*
X126371744Y-88327205D01*
X126382040Y-88288426D01*
X126388966Y-88245289D01*
X126392293Y-88203285D01*
X126393042Y-88169522D01*
X126391579Y-88123411D01*
X126387189Y-88081503D01*
X126378370Y-88037925D01*
X126365567Y-88000068D01*
X126351423Y-87972174D01*
X126326700Y-87936977D01*
X126299134Y-87908983D01*
X126265169Y-87886326D01*
X126250600Y-87879752D01*
X126211142Y-87869513D01*
X126171884Y-87864934D01*
X126130033Y-87863096D01*
X126112651Y-87862949D01*
X125943440Y-87862949D01*
X125836755Y-87862949D01*
X125836755Y-87769159D01*
X126114410Y-87769159D01*
X126158618Y-87769892D01*
G37*
G36*
X126605436Y-88370192D02*
G01*
X126704305Y-88356905D01*
X126714295Y-88395532D01*
X126729095Y-88432069D01*
X126752305Y-88466775D01*
X126762142Y-88476682D01*
X126795417Y-88498948D01*
X126833693Y-88510937D01*
X126861988Y-88513221D01*
X126903571Y-88508489D01*
X126940879Y-88494292D01*
X126973913Y-88470631D01*
X126980006Y-88464763D01*
X127005354Y-88432225D01*
X127021314Y-88395184D01*
X127027886Y-88353640D01*
X127028073Y-88344791D01*
X127023723Y-88304517D01*
X127008887Y-88265638D01*
X126983524Y-88232439D01*
X126950056Y-88207187D01*
X126910908Y-88192416D01*
X126870390Y-88188085D01*
X126829877Y-88192359D01*
X126800439Y-88199027D01*
X126811577Y-88105824D01*
X126827404Y-88106801D01*
X126869404Y-88102968D01*
X126908356Y-88091470D01*
X126941123Y-88074365D01*
X126969935Y-88047910D01*
X126987727Y-88009570D01*
X126991730Y-87974323D01*
X126985635Y-87933855D01*
X126965439Y-87897054D01*
X126954801Y-87885614D01*
X126921407Y-87862842D01*
X126880919Y-87851680D01*
X126859839Y-87850443D01*
X126819301Y-87855499D01*
X126781462Y-87872387D01*
X126763705Y-87886396D01*
X126738710Y-87918416D01*
X126722604Y-87956651D01*
X126714270Y-87994254D01*
X126615401Y-87976668D01*
X126625481Y-87935544D01*
X126639994Y-87898684D01*
X126662006Y-87861779D01*
X126689807Y-87830443D01*
X126697662Y-87823479D01*
X126731770Y-87799714D01*
X126769811Y-87782739D01*
X126811784Y-87772554D01*
X126851736Y-87769212D01*
X126857690Y-87769159D01*
X126897833Y-87771907D01*
X126939655Y-87781277D01*
X126979030Y-87797296D01*
X127014086Y-87819088D01*
X127042955Y-87845774D01*
X127063831Y-87874281D01*
X127081810Y-87911623D01*
X127091491Y-87950668D01*
X127093335Y-87977645D01*
X127088724Y-88018359D01*
X127074889Y-88056042D01*
X127065394Y-88072411D01*
X127038209Y-88104150D01*
X127005158Y-88128353D01*
X126982351Y-88140213D01*
X127020043Y-88152384D01*
X127055977Y-88172541D01*
X127085653Y-88199683D01*
X127093335Y-88209187D01*
X127114252Y-88244492D01*
X127127422Y-88284948D01*
X127132652Y-88325764D01*
X127133000Y-88340297D01*
X127129316Y-88385258D01*
X127118265Y-88427134D01*
X127099845Y-88465924D01*
X127074058Y-88501628D01*
X127056015Y-88520646D01*
X127025723Y-88545746D01*
X126986789Y-88568467D01*
X126943984Y-88584118D01*
X126904213Y-88591908D01*
X126861598Y-88594505D01*
X126816900Y-88591522D01*
X126775642Y-88582574D01*
X126737826Y-88567661D01*
X126703450Y-88546783D01*
X126685352Y-88532174D01*
X126657619Y-88503052D01*
X126635626Y-88470395D01*
X126619375Y-88434204D01*
X126608864Y-88394479D01*
X126605436Y-88370192D01*
G37*
G36*
X126158618Y-85019892D02*
G01*
X126201695Y-85022468D01*
X126241293Y-85027506D01*
X126257829Y-85030883D01*
X126299076Y-85043454D01*
X126336353Y-85061139D01*
X126369662Y-85083937D01*
X126375847Y-85089110D01*
X126405767Y-85118163D01*
X126431632Y-85151002D01*
X126453443Y-85187626D01*
X126471200Y-85228036D01*
X126483534Y-85266125D01*
X126492838Y-85306532D01*
X126499113Y-85349259D01*
X126502359Y-85394304D01*
X126502854Y-85421085D01*
X126501825Y-85460595D01*
X126498131Y-85503277D01*
X126491750Y-85543320D01*
X126481360Y-85585217D01*
X126468406Y-85623496D01*
X126451729Y-85661460D01*
X126430607Y-85697667D01*
X126426454Y-85703625D01*
X126400488Y-85735994D01*
X126370312Y-85764734D01*
X126353182Y-85777484D01*
X126318054Y-85797106D01*
X126280763Y-85811440D01*
X126256852Y-85818127D01*
X126216179Y-85826025D01*
X126175756Y-85830360D01*
X126136570Y-85831945D01*
X126127501Y-85832000D01*
X125836755Y-85832000D01*
X125836755Y-85112949D01*
X125943440Y-85112949D01*
X125943440Y-85738210D01*
X126115387Y-85738210D01*
X126157510Y-85737020D01*
X126197932Y-85732906D01*
X126237572Y-85724091D01*
X126240439Y-85723165D01*
X126276589Y-85707644D01*
X126309293Y-85684136D01*
X126312735Y-85680764D01*
X126338802Y-85648158D01*
X126358545Y-85611703D01*
X126371744Y-85577205D01*
X126382040Y-85538426D01*
X126388966Y-85495289D01*
X126392293Y-85453285D01*
X126393042Y-85419522D01*
X126391579Y-85373411D01*
X126387189Y-85331503D01*
X126378370Y-85287925D01*
X126365567Y-85250068D01*
X126351423Y-85222174D01*
X126326700Y-85186977D01*
X126299134Y-85158983D01*
X126265169Y-85136326D01*
X126250600Y-85129752D01*
X126211142Y-85119513D01*
X126171884Y-85114934D01*
X126130033Y-85113096D01*
X126112651Y-85112949D01*
X125943440Y-85112949D01*
X125836755Y-85112949D01*
X125836755Y-85019159D01*
X126114410Y-85019159D01*
X126158618Y-85019892D01*
G37*
G36*
X127124794Y-85738210D02*
G01*
X127124794Y-85832000D01*
X126592149Y-85832000D01*
X126595316Y-85792638D01*
X126603677Y-85763221D01*
X126620645Y-85725949D01*
X126641039Y-85692427D01*
X126666166Y-85659248D01*
X126668939Y-85655949D01*
X126697261Y-85624866D01*
X126727730Y-85595056D01*
X126758478Y-85567289D01*
X126793041Y-85537952D01*
X126798290Y-85533632D01*
X126829785Y-85507178D01*
X126865410Y-85476093D01*
X126896875Y-85447212D01*
X126929143Y-85415465D01*
X126959218Y-85382437D01*
X126975708Y-85361490D01*
X126998093Y-85326311D01*
X127014374Y-85288491D01*
X127021835Y-85248432D01*
X127022016Y-85241323D01*
X127016081Y-85199411D01*
X126998276Y-85162774D01*
X126979811Y-85141281D01*
X126947928Y-85118031D01*
X126910042Y-85104431D01*
X126870390Y-85100443D01*
X126828480Y-85104813D01*
X126788814Y-85119714D01*
X126755889Y-85145189D01*
X126731457Y-85180038D01*
X126717902Y-85218811D01*
X126712750Y-85259483D01*
X126712512Y-85269264D01*
X126610907Y-85258517D01*
X126616823Y-85216658D01*
X126626807Y-85178714D01*
X126643594Y-85139395D01*
X126665916Y-85105405D01*
X126689455Y-85080513D01*
X126721524Y-85056607D01*
X126758062Y-85038572D01*
X126799070Y-85026409D01*
X126837776Y-85020657D01*
X126872540Y-85019159D01*
X126914294Y-85021433D01*
X126958718Y-85029833D01*
X126998523Y-85044423D01*
X127033710Y-85065203D01*
X127056015Y-85083835D01*
X127082358Y-85113608D01*
X127104541Y-85151252D01*
X127118273Y-85192755D01*
X127123357Y-85232235D01*
X127123621Y-85244058D01*
X127120364Y-85283331D01*
X127110593Y-85322088D01*
X127103886Y-85339801D01*
X127085403Y-85375687D01*
X127061992Y-85409837D01*
X127038234Y-85438671D01*
X127007598Y-85470967D01*
X126977124Y-85500318D01*
X126946375Y-85528422D01*
X126911353Y-85559247D01*
X126885631Y-85581309D01*
X126854524Y-85607955D01*
X126823877Y-85634718D01*
X126793403Y-85662287D01*
X126771325Y-85683891D01*
X126745751Y-85714349D01*
X126729706Y-85738210D01*
X127124794Y-85738210D01*
G37*
G36*
X126158618Y-82519892D02*
G01*
X126201695Y-82522468D01*
X126241293Y-82527506D01*
X126257829Y-82530883D01*
X126299076Y-82543454D01*
X126336353Y-82561139D01*
X126369662Y-82583937D01*
X126375847Y-82589110D01*
X126405767Y-82618163D01*
X126431632Y-82651002D01*
X126453443Y-82687626D01*
X126471200Y-82728036D01*
X126483534Y-82766125D01*
X126492838Y-82806532D01*
X126499113Y-82849259D01*
X126502359Y-82894304D01*
X126502854Y-82921085D01*
X126501825Y-82960595D01*
X126498131Y-83003277D01*
X126491750Y-83043320D01*
X126481360Y-83085217D01*
X126468406Y-83123496D01*
X126451729Y-83161460D01*
X126430607Y-83197667D01*
X126426454Y-83203625D01*
X126400488Y-83235994D01*
X126370312Y-83264734D01*
X126353182Y-83277484D01*
X126318054Y-83297106D01*
X126280763Y-83311440D01*
X126256852Y-83318127D01*
X126216179Y-83326025D01*
X126175756Y-83330360D01*
X126136570Y-83331945D01*
X126127501Y-83332000D01*
X125836755Y-83332000D01*
X125836755Y-82612949D01*
X125943440Y-82612949D01*
X125943440Y-83238210D01*
X126115387Y-83238210D01*
X126157510Y-83237020D01*
X126197932Y-83232906D01*
X126237572Y-83224091D01*
X126240439Y-83223165D01*
X126276589Y-83207644D01*
X126309293Y-83184136D01*
X126312735Y-83180764D01*
X126338802Y-83148158D01*
X126358545Y-83111703D01*
X126371744Y-83077205D01*
X126382040Y-83038426D01*
X126388966Y-82995289D01*
X126392293Y-82953285D01*
X126393042Y-82919522D01*
X126391579Y-82873411D01*
X126387189Y-82831503D01*
X126378370Y-82787925D01*
X126365567Y-82750068D01*
X126351423Y-82722174D01*
X126326700Y-82686977D01*
X126299134Y-82658983D01*
X126265169Y-82636326D01*
X126250600Y-82629752D01*
X126211142Y-82619513D01*
X126171884Y-82614934D01*
X126130033Y-82613096D01*
X126112651Y-82612949D01*
X125943440Y-82612949D01*
X125836755Y-82612949D01*
X125836755Y-82519159D01*
X126114410Y-82519159D01*
X126158618Y-82519892D01*
G37*
G36*
X126977466Y-83332000D02*
G01*
X126878597Y-83332000D01*
X126878597Y-82698531D01*
X126848647Y-82724470D01*
X126815689Y-82748247D01*
X126784808Y-82767701D01*
X126749702Y-82787515D01*
X126713774Y-82805432D01*
X126680662Y-82819285D01*
X126680662Y-82719243D01*
X126715993Y-82701541D01*
X126753921Y-82679410D01*
X126789235Y-82655251D01*
X126821937Y-82629065D01*
X126825840Y-82625649D01*
X126854637Y-82598404D01*
X126881602Y-82568249D01*
X126904821Y-82535360D01*
X126913768Y-82519159D01*
X126977466Y-82519159D01*
X126977466Y-83332000D01*
G37*
G36*
X126193085Y-80051892D02*
G01*
X126236162Y-80054468D01*
X126275760Y-80059506D01*
X126292296Y-80062883D01*
X126333543Y-80075454D01*
X126370820Y-80093139D01*
X126404129Y-80115937D01*
X126410314Y-80121110D01*
X126440234Y-80150163D01*
X126466099Y-80183002D01*
X126487910Y-80219626D01*
X126505667Y-80260036D01*
X126518001Y-80298125D01*
X126527305Y-80338532D01*
X126533580Y-80381259D01*
X126536826Y-80426304D01*
X126537321Y-80453085D01*
X126536292Y-80492595D01*
X126532598Y-80535277D01*
X126526217Y-80575320D01*
X126515827Y-80617217D01*
X126502873Y-80655496D01*
X126486196Y-80693460D01*
X126465074Y-80729667D01*
X126460921Y-80735625D01*
X126434955Y-80767994D01*
X126404779Y-80796734D01*
X126387649Y-80809484D01*
X126352521Y-80829106D01*
X126315230Y-80843440D01*
X126291319Y-80850127D01*
X126250646Y-80858025D01*
X126210223Y-80862360D01*
X126171037Y-80863945D01*
X126161968Y-80864000D01*
X125871222Y-80864000D01*
X125871222Y-80144949D01*
X125977907Y-80144949D01*
X125977907Y-80770210D01*
X126149854Y-80770210D01*
X126191977Y-80769020D01*
X126232399Y-80764906D01*
X126272039Y-80756091D01*
X126274906Y-80755165D01*
X126311056Y-80739644D01*
X126343760Y-80716136D01*
X126347202Y-80712764D01*
X126373269Y-80680158D01*
X126393012Y-80643703D01*
X126406211Y-80609205D01*
X126416507Y-80570426D01*
X126423433Y-80527289D01*
X126426760Y-80485285D01*
X126427509Y-80451522D01*
X126426046Y-80405411D01*
X126421656Y-80363503D01*
X126412837Y-80319925D01*
X126400034Y-80282068D01*
X126385890Y-80254174D01*
X126361167Y-80218977D01*
X126333601Y-80190983D01*
X126299636Y-80168326D01*
X126285067Y-80161752D01*
X126245609Y-80151513D01*
X126206351Y-80146934D01*
X126164500Y-80145096D01*
X126147118Y-80144949D01*
X125977907Y-80144949D01*
X125871222Y-80144949D01*
X125871222Y-80051159D01*
X126148877Y-80051159D01*
X126193085Y-80051892D01*
G37*
G36*
X126944632Y-80054253D02*
G01*
X126983551Y-80063535D01*
X127015646Y-80077342D01*
X127050011Y-80100249D01*
X127079540Y-80129696D01*
X127096539Y-80152960D01*
X127116819Y-80189375D01*
X127132451Y-80226927D01*
X127144235Y-80264346D01*
X127146560Y-80273127D01*
X127154510Y-80311583D01*
X127160189Y-80356219D01*
X127163294Y-80400344D01*
X127164572Y-80441930D01*
X127164732Y-80464027D01*
X127164021Y-80507144D01*
X127161889Y-80547589D01*
X127157453Y-80592597D01*
X127150971Y-80633758D01*
X127140821Y-80676917D01*
X127135618Y-80693811D01*
X127119254Y-80735003D01*
X127099275Y-80771236D01*
X127075681Y-80802511D01*
X127048472Y-80828829D01*
X127013418Y-80851875D01*
X126973541Y-80867379D01*
X126934047Y-80874829D01*
X126901926Y-80876505D01*
X126860014Y-80873558D01*
X126821619Y-80864717D01*
X126781270Y-80846953D01*
X126745709Y-80821168D01*
X126719037Y-80792681D01*
X126696071Y-80758073D01*
X126676997Y-80717263D01*
X126664541Y-80680150D01*
X126654576Y-80639069D01*
X126647102Y-80594018D01*
X126642119Y-80544998D01*
X126640017Y-80505629D01*
X126639316Y-80464027D01*
X126639319Y-80463832D01*
X126740921Y-80463832D01*
X126741648Y-80511575D01*
X126743828Y-80555154D01*
X126747461Y-80594569D01*
X126754046Y-80637981D01*
X126764945Y-80681487D01*
X126781794Y-80720401D01*
X126787425Y-80729177D01*
X126815284Y-80761103D01*
X126850226Y-80784321D01*
X126889366Y-80794640D01*
X126901926Y-80795221D01*
X126942429Y-80788752D01*
X126978695Y-80769346D01*
X127007713Y-80740820D01*
X127016623Y-80728982D01*
X127034743Y-80693654D01*
X127046732Y-80653267D01*
X127054226Y-80612485D01*
X127059448Y-80565225D01*
X127061991Y-80522753D01*
X127063081Y-80476134D01*
X127063127Y-80463832D01*
X127062400Y-80415957D01*
X127060220Y-80372278D01*
X127056587Y-80332793D01*
X127050002Y-80289336D01*
X127039103Y-80245839D01*
X127022254Y-80207022D01*
X127016623Y-80198291D01*
X126988672Y-80166460D01*
X126953409Y-80143311D01*
X126913719Y-80133022D01*
X126900949Y-80132443D01*
X126861020Y-80138111D01*
X126823312Y-80157436D01*
X126794682Y-80186905D01*
X126792115Y-80190475D01*
X126772167Y-80228868D01*
X126758969Y-80271315D01*
X126750720Y-80313416D01*
X126744971Y-80361632D01*
X126742171Y-80404608D01*
X126740971Y-80451498D01*
X126740921Y-80463832D01*
X126639319Y-80463832D01*
X126640032Y-80420634D01*
X126642179Y-80379970D01*
X126646644Y-80334774D01*
X126653170Y-80293508D01*
X126663388Y-80250330D01*
X126668626Y-80233462D01*
X126685149Y-80192210D01*
X126705213Y-80155988D01*
X126728819Y-80124799D01*
X126755967Y-80098640D01*
X126790975Y-80075688D01*
X126830712Y-80060247D01*
X126870005Y-80052829D01*
X126901926Y-80051159D01*
X126944632Y-80054253D01*
G37*
G36*
X126158618Y-105769892D02*
G01*
X126201695Y-105772468D01*
X126241293Y-105777506D01*
X126257829Y-105780883D01*
X126299076Y-105793454D01*
X126336353Y-105811139D01*
X126369662Y-105833937D01*
X126375847Y-105839110D01*
X126405767Y-105868163D01*
X126431632Y-105901002D01*
X126453443Y-105937626D01*
X126471200Y-105978036D01*
X126483534Y-106016125D01*
X126492838Y-106056532D01*
X126499113Y-106099259D01*
X126502359Y-106144304D01*
X126502854Y-106171085D01*
X126501825Y-106210595D01*
X126498131Y-106253277D01*
X126491750Y-106293320D01*
X126481360Y-106335217D01*
X126468406Y-106373496D01*
X126451729Y-106411460D01*
X126430607Y-106447667D01*
X126426454Y-106453625D01*
X126400488Y-106485994D01*
X126370312Y-106514734D01*
X126353182Y-106527484D01*
X126318054Y-106547106D01*
X126280763Y-106561440D01*
X126256852Y-106568127D01*
X126216179Y-106576025D01*
X126175756Y-106580360D01*
X126136570Y-106581945D01*
X126127501Y-106582000D01*
X125836755Y-106582000D01*
X125836755Y-105862949D01*
X125943440Y-105862949D01*
X125943440Y-106488210D01*
X126115387Y-106488210D01*
X126157510Y-106487020D01*
X126197932Y-106482906D01*
X126237572Y-106474091D01*
X126240439Y-106473165D01*
X126276589Y-106457644D01*
X126309293Y-106434136D01*
X126312735Y-106430764D01*
X126338802Y-106398158D01*
X126358545Y-106361703D01*
X126371744Y-106327205D01*
X126382040Y-106288426D01*
X126388966Y-106245289D01*
X126392293Y-106203285D01*
X126393042Y-106169522D01*
X126391579Y-106123411D01*
X126387189Y-106081503D01*
X126378370Y-106037925D01*
X126365567Y-106000068D01*
X126351423Y-105972174D01*
X126326700Y-105936977D01*
X126299134Y-105908983D01*
X126265169Y-105886326D01*
X126250600Y-105879752D01*
X126211142Y-105869513D01*
X126171884Y-105864934D01*
X126130033Y-105863096D01*
X126112651Y-105862949D01*
X125943440Y-105862949D01*
X125836755Y-105862949D01*
X125836755Y-105769159D01*
X126114410Y-105769159D01*
X126158618Y-105769892D01*
G37*
G36*
X126977466Y-106582000D02*
G01*
X126878597Y-106582000D01*
X126878597Y-105948531D01*
X126848647Y-105974470D01*
X126815689Y-105998247D01*
X126784808Y-106017701D01*
X126749702Y-106037515D01*
X126713774Y-106055432D01*
X126680662Y-106069285D01*
X126680662Y-105969243D01*
X126715993Y-105951541D01*
X126753921Y-105929410D01*
X126789235Y-105905251D01*
X126821937Y-105879065D01*
X126825840Y-105875649D01*
X126854637Y-105848404D01*
X126881602Y-105818249D01*
X126904821Y-105785360D01*
X126913768Y-105769159D01*
X126977466Y-105769159D01*
X126977466Y-106582000D01*
G37*
G36*
X127533082Y-105772253D02*
G01*
X127572001Y-105781535D01*
X127604096Y-105795342D01*
X127638461Y-105818249D01*
X127667990Y-105847696D01*
X127684989Y-105870960D01*
X127705269Y-105907375D01*
X127720901Y-105944927D01*
X127732685Y-105982346D01*
X127735010Y-105991127D01*
X127742960Y-106029583D01*
X127748639Y-106074219D01*
X127751744Y-106118344D01*
X127753022Y-106159930D01*
X127753182Y-106182027D01*
X127752471Y-106225144D01*
X127750338Y-106265589D01*
X127745903Y-106310597D01*
X127739421Y-106351758D01*
X127729271Y-106394917D01*
X127724068Y-106411811D01*
X127707704Y-106453003D01*
X127687725Y-106489236D01*
X127664131Y-106520511D01*
X127636922Y-106546829D01*
X127601868Y-106569875D01*
X127561991Y-106585379D01*
X127522497Y-106592829D01*
X127490376Y-106594505D01*
X127448464Y-106591558D01*
X127410069Y-106582717D01*
X127369720Y-106564953D01*
X127334159Y-106539168D01*
X127307487Y-106510681D01*
X127284521Y-106476073D01*
X127265447Y-106435263D01*
X127252991Y-106398150D01*
X127243025Y-106357069D01*
X127235552Y-106312018D01*
X127230569Y-106262998D01*
X127228467Y-106223629D01*
X127227766Y-106182027D01*
X127227769Y-106181832D01*
X127329371Y-106181832D01*
X127330098Y-106229575D01*
X127332278Y-106273154D01*
X127335911Y-106312569D01*
X127342496Y-106355981D01*
X127353395Y-106399487D01*
X127370244Y-106438401D01*
X127375875Y-106447177D01*
X127403734Y-106479103D01*
X127438676Y-106502321D01*
X127477816Y-106512640D01*
X127490376Y-106513221D01*
X127530879Y-106506752D01*
X127567145Y-106487346D01*
X127596163Y-106458820D01*
X127605073Y-106446982D01*
X127623193Y-106411654D01*
X127635182Y-106371267D01*
X127642675Y-106330485D01*
X127647898Y-106283225D01*
X127650441Y-106240753D01*
X127651531Y-106194134D01*
X127651577Y-106181832D01*
X127650850Y-106133957D01*
X127648670Y-106090278D01*
X127645037Y-106050793D01*
X127638452Y-106007336D01*
X127627553Y-105963839D01*
X127610704Y-105925022D01*
X127605073Y-105916291D01*
X127577121Y-105884460D01*
X127541859Y-105861311D01*
X127502169Y-105851022D01*
X127489399Y-105850443D01*
X127449469Y-105856111D01*
X127411762Y-105875436D01*
X127383132Y-105904905D01*
X127380565Y-105908475D01*
X127360617Y-105946868D01*
X127347419Y-105989315D01*
X127339170Y-106031416D01*
X127333421Y-106079632D01*
X127330621Y-106122608D01*
X127329421Y-106169498D01*
X127329371Y-106181832D01*
X127227769Y-106181832D01*
X127228482Y-106138634D01*
X127230629Y-106097970D01*
X127235094Y-106052774D01*
X127241620Y-106011508D01*
X127251838Y-105968330D01*
X127257076Y-105951462D01*
X127273599Y-105910210D01*
X127293663Y-105873988D01*
X127317269Y-105842799D01*
X127344417Y-105816640D01*
X127379425Y-105793688D01*
X127419162Y-105778247D01*
X127458455Y-105770829D01*
X127490376Y-105769159D01*
X127533082Y-105772253D01*
G37*
G36*
X125801165Y-108902192D02*
G01*
X125900034Y-108888905D01*
X125910024Y-108927532D01*
X125924824Y-108964069D01*
X125948034Y-108998775D01*
X125957871Y-109008682D01*
X125991146Y-109030948D01*
X126029422Y-109042937D01*
X126057718Y-109045221D01*
X126099300Y-109040489D01*
X126136608Y-109026292D01*
X126169642Y-109002631D01*
X126175736Y-108996763D01*
X126201084Y-108964225D01*
X126217043Y-108927184D01*
X126223615Y-108885640D01*
X126223803Y-108876791D01*
X126219452Y-108836517D01*
X126204617Y-108797638D01*
X126179253Y-108764439D01*
X126145785Y-108739187D01*
X126106637Y-108724416D01*
X126066120Y-108720085D01*
X126025606Y-108724359D01*
X125996168Y-108731027D01*
X126007306Y-108637824D01*
X126023133Y-108638801D01*
X126065133Y-108634968D01*
X126104086Y-108623470D01*
X126136852Y-108606365D01*
X126165665Y-108579910D01*
X126183456Y-108541570D01*
X126187459Y-108506323D01*
X126181365Y-108465855D01*
X126161169Y-108429054D01*
X126150530Y-108417614D01*
X126117136Y-108394842D01*
X126076648Y-108383680D01*
X126055568Y-108382443D01*
X126015030Y-108387499D01*
X125977191Y-108404387D01*
X125959434Y-108418396D01*
X125934439Y-108450416D01*
X125918334Y-108488651D01*
X125910000Y-108526254D01*
X125811130Y-108508668D01*
X125821211Y-108467544D01*
X125835723Y-108430684D01*
X125857735Y-108393779D01*
X125885536Y-108362443D01*
X125893391Y-108355479D01*
X125927500Y-108331714D01*
X125965540Y-108314739D01*
X126007513Y-108304554D01*
X126047466Y-108301212D01*
X126053419Y-108301159D01*
X126093563Y-108303907D01*
X126135384Y-108313277D01*
X126174759Y-108329296D01*
X126209816Y-108351088D01*
X126238685Y-108377774D01*
X126259560Y-108406281D01*
X126277539Y-108443623D01*
X126287220Y-108482668D01*
X126289064Y-108509645D01*
X126284453Y-108550359D01*
X126270619Y-108588042D01*
X126261123Y-108604411D01*
X126233938Y-108636150D01*
X126200888Y-108660353D01*
X126178080Y-108672213D01*
X126215772Y-108684384D01*
X126251707Y-108704541D01*
X126281382Y-108731683D01*
X126289064Y-108741187D01*
X126309982Y-108776492D01*
X126323152Y-108816948D01*
X126328381Y-108857764D01*
X126328729Y-108872297D01*
X126325046Y-108917258D01*
X126313994Y-108959134D01*
X126295575Y-108997924D01*
X126269788Y-109033628D01*
X126251744Y-109052646D01*
X126221453Y-109077746D01*
X126182518Y-109100467D01*
X126139713Y-109116118D01*
X126099942Y-109123908D01*
X126057327Y-109126505D01*
X126012629Y-109123522D01*
X125971372Y-109114574D01*
X125933555Y-109099661D01*
X125899180Y-109078783D01*
X125881081Y-109064174D01*
X125853348Y-109035052D01*
X125831356Y-109002395D01*
X125815104Y-108966204D01*
X125804593Y-108926479D01*
X125801165Y-108902192D01*
G37*
G36*
X126693921Y-109114000D02*
G01*
X126381681Y-108301159D01*
X126497159Y-108301159D01*
X126706622Y-108892227D01*
X126720151Y-108931523D01*
X126732382Y-108969397D01*
X126744449Y-109009812D01*
X126748827Y-109025486D01*
X126761123Y-108983842D01*
X126773169Y-108946363D01*
X126786141Y-108908884D01*
X126792205Y-108892227D01*
X127009874Y-108301159D01*
X127118709Y-108301159D01*
X126803342Y-109114000D01*
X126693921Y-109114000D01*
G37*
G36*
X127170488Y-108902192D02*
G01*
X127269358Y-108888905D01*
X127279347Y-108927532D01*
X127294147Y-108964069D01*
X127317357Y-108998775D01*
X127327194Y-109008682D01*
X127360469Y-109030948D01*
X127398745Y-109042937D01*
X127427041Y-109045221D01*
X127468623Y-109040489D01*
X127505931Y-109026292D01*
X127538965Y-109002631D01*
X127545059Y-108996763D01*
X127570407Y-108964225D01*
X127586366Y-108927184D01*
X127592938Y-108885640D01*
X127593126Y-108876791D01*
X127588775Y-108836517D01*
X127573940Y-108797638D01*
X127548576Y-108764439D01*
X127515108Y-108739187D01*
X127475960Y-108724416D01*
X127435443Y-108720085D01*
X127394929Y-108724359D01*
X127365492Y-108731027D01*
X127376629Y-108637824D01*
X127392456Y-108638801D01*
X127434456Y-108634968D01*
X127473409Y-108623470D01*
X127506175Y-108606365D01*
X127534988Y-108579910D01*
X127552779Y-108541570D01*
X127556783Y-108506323D01*
X127550688Y-108465855D01*
X127530492Y-108429054D01*
X127519853Y-108417614D01*
X127486459Y-108394842D01*
X127445971Y-108383680D01*
X127424891Y-108382443D01*
X127384353Y-108387499D01*
X127346514Y-108404387D01*
X127328757Y-108418396D01*
X127303762Y-108450416D01*
X127287657Y-108488651D01*
X127279323Y-108526254D01*
X127180453Y-108508668D01*
X127190534Y-108467544D01*
X127205046Y-108430684D01*
X127227058Y-108393779D01*
X127254859Y-108362443D01*
X127262714Y-108355479D01*
X127296823Y-108331714D01*
X127334863Y-108314739D01*
X127376837Y-108304554D01*
X127416789Y-108301212D01*
X127422742Y-108301159D01*
X127462886Y-108303907D01*
X127504707Y-108313277D01*
X127544082Y-108329296D01*
X127579139Y-108351088D01*
X127608008Y-108377774D01*
X127628883Y-108406281D01*
X127646862Y-108443623D01*
X127656543Y-108482668D01*
X127658388Y-108509645D01*
X127653776Y-108550359D01*
X127639942Y-108588042D01*
X127630446Y-108604411D01*
X127603261Y-108636150D01*
X127570211Y-108660353D01*
X127547404Y-108672213D01*
X127585096Y-108684384D01*
X127621030Y-108704541D01*
X127650705Y-108731683D01*
X127658388Y-108741187D01*
X127679305Y-108776492D01*
X127692475Y-108816948D01*
X127697704Y-108857764D01*
X127698053Y-108872297D01*
X127694369Y-108917258D01*
X127683317Y-108959134D01*
X127664898Y-108997924D01*
X127639111Y-109033628D01*
X127621067Y-109052646D01*
X127590776Y-109077746D01*
X127551841Y-109100467D01*
X127509036Y-109116118D01*
X127469265Y-109123908D01*
X127426650Y-109126505D01*
X127381952Y-109123522D01*
X127340695Y-109114574D01*
X127302878Y-109099661D01*
X127268503Y-109078783D01*
X127250404Y-109064174D01*
X127222671Y-109035052D01*
X127200679Y-109002395D01*
X127184427Y-108966204D01*
X127173917Y-108926479D01*
X127170488Y-108902192D01*
G37*
D11*
G36*
X126213866Y-111263116D02*
G01*
X126213866Y-111169327D01*
X126555024Y-111168741D01*
X126555024Y-111469452D01*
X126520416Y-111495245D01*
X126485322Y-111518083D01*
X126449741Y-111537966D01*
X126413674Y-111554895D01*
X126392847Y-111563242D01*
X126350849Y-111576919D01*
X126308290Y-111586689D01*
X126265169Y-111592551D01*
X126221486Y-111594505D01*
X126177765Y-111592712D01*
X126135555Y-111587333D01*
X126094857Y-111578369D01*
X126055669Y-111565818D01*
X126017993Y-111549682D01*
X126005771Y-111543507D01*
X125971097Y-111522709D01*
X125939761Y-111498710D01*
X125907422Y-111466665D01*
X125883320Y-111435730D01*
X125862556Y-111401594D01*
X125859420Y-111395593D01*
X125842620Y-111358526D01*
X125829296Y-111319866D01*
X125819448Y-111279612D01*
X125813075Y-111237764D01*
X125810179Y-111194322D01*
X125809986Y-111179487D01*
X125811710Y-111135707D01*
X125816882Y-111093025D01*
X125825503Y-111051443D01*
X125837573Y-111010960D01*
X125853091Y-110971576D01*
X125859030Y-110958692D01*
X125879006Y-110922085D01*
X125902004Y-110889202D01*
X125928025Y-110860041D01*
X125962203Y-110830727D01*
X126000495Y-110806480D01*
X126036135Y-110789547D01*
X126073740Y-110776117D01*
X126113310Y-110766191D01*
X126154844Y-110759768D01*
X126198343Y-110756849D01*
X126213279Y-110756654D01*
X126255900Y-110758400D01*
X126296420Y-110763639D01*
X126334839Y-110772371D01*
X126371158Y-110784595D01*
X126408518Y-110802059D01*
X126444338Y-110825560D01*
X126474166Y-110853373D01*
X126481946Y-110862558D01*
X126505195Y-110896778D01*
X126522856Y-110932635D01*
X126537426Y-110973282D01*
X126542909Y-110992886D01*
X126446775Y-111019264D01*
X126433243Y-110980580D01*
X126416111Y-110945437D01*
X126401639Y-110923912D01*
X126373766Y-110896134D01*
X126339913Y-110875096D01*
X126324849Y-110868224D01*
X126285795Y-110855484D01*
X126243663Y-110848624D01*
X126213866Y-110847317D01*
X126174320Y-110849110D01*
X126134043Y-110855308D01*
X126094190Y-110867238D01*
X126087445Y-110869983D01*
X126050324Y-110888988D01*
X126016620Y-110914104D01*
X126001277Y-110929578D01*
X125977183Y-110960650D01*
X125956645Y-110996853D01*
X125950669Y-111010471D01*
X125937163Y-111049281D01*
X125927515Y-111089704D01*
X125921727Y-111131738D01*
X125919797Y-111175384D01*
X125921102Y-111215167D01*
X125925924Y-111258419D01*
X125934299Y-111298269D01*
X125948221Y-111339643D01*
X125956922Y-111358664D01*
X125977585Y-111393127D01*
X126005852Y-111426233D01*
X126039436Y-111453343D01*
X126064780Y-111468085D01*
X126100793Y-111483728D01*
X126142622Y-111495985D01*
X126185842Y-111502585D01*
X126215429Y-111503842D01*
X126258438Y-111501209D01*
X126300761Y-111493309D01*
X126338264Y-111481696D01*
X126350642Y-111476877D01*
X126388789Y-111459681D01*
X126423523Y-111439972D01*
X126450683Y-111419431D01*
X126450683Y-111263116D01*
X126213866Y-111263116D01*
G37*
G36*
X126706454Y-111582000D02*
G01*
X126706454Y-110769159D01*
X126815680Y-110769159D01*
X127238904Y-111407317D01*
X127238904Y-110769159D01*
X127341095Y-110769159D01*
X127341095Y-111582000D01*
X127231870Y-111582000D01*
X126808646Y-110943256D01*
X126808646Y-111582000D01*
X126706454Y-111582000D01*
G37*
G36*
X127837445Y-110769892D02*
G01*
X127880523Y-110772468D01*
X127920121Y-110777506D01*
X127936657Y-110780883D01*
X127977903Y-110793454D01*
X128015181Y-110811139D01*
X128048490Y-110833937D01*
X128054675Y-110839110D01*
X128084595Y-110868163D01*
X128110460Y-110901002D01*
X128132271Y-110937626D01*
X128150027Y-110978036D01*
X128162361Y-111016125D01*
X128171666Y-111056532D01*
X128177941Y-111099259D01*
X128181187Y-111144304D01*
X128181681Y-111171085D01*
X128180653Y-111210595D01*
X128176959Y-111253277D01*
X128170578Y-111293320D01*
X128160188Y-111335217D01*
X128147234Y-111373496D01*
X128130557Y-111411460D01*
X128109435Y-111447667D01*
X128105282Y-111453625D01*
X128079316Y-111485994D01*
X128049140Y-111514734D01*
X128032009Y-111527484D01*
X127996882Y-111547106D01*
X127959590Y-111561440D01*
X127935680Y-111568127D01*
X127895006Y-111576025D01*
X127854584Y-111580360D01*
X127815398Y-111581945D01*
X127806329Y-111582000D01*
X127515582Y-111582000D01*
X127515582Y-110862949D01*
X127622267Y-110862949D01*
X127622267Y-111488210D01*
X127794214Y-111488210D01*
X127836337Y-111487020D01*
X127876759Y-111482906D01*
X127916400Y-111474091D01*
X127919267Y-111473165D01*
X127955416Y-111457644D01*
X127988120Y-111434136D01*
X127991563Y-111430764D01*
X128017629Y-111398158D01*
X128037372Y-111361703D01*
X128050572Y-111327205D01*
X128060867Y-111288426D01*
X128067793Y-111245289D01*
X128071121Y-111203285D01*
X128071870Y-111169522D01*
X128070407Y-111123411D01*
X128066017Y-111081503D01*
X128057197Y-111037925D01*
X128044395Y-111000068D01*
X128030251Y-110972174D01*
X128005528Y-110936977D01*
X127977961Y-110908983D01*
X127943996Y-110886326D01*
X127929427Y-110879752D01*
X127889970Y-110869513D01*
X127850712Y-110864934D01*
X127808861Y-110863096D01*
X127791479Y-110862949D01*
X127622267Y-110862949D01*
X127515582Y-110862949D01*
X127515582Y-110769159D01*
X127793237Y-110769159D01*
X127837445Y-110769892D01*
G37*
D10*
G36*
X125796699Y-113869411D02*
G01*
X125900648Y-113860618D01*
X125909544Y-113900389D01*
X125925084Y-113937583D01*
X125949054Y-113969989D01*
X125954187Y-113974923D01*
X125988139Y-113998261D01*
X126026983Y-114010827D01*
X126055596Y-114013221D01*
X126098033Y-114007840D01*
X126136196Y-113991697D01*
X126170085Y-113964792D01*
X126176350Y-113958120D01*
X126200341Y-113924297D01*
X126216480Y-113884817D01*
X126224235Y-113844975D01*
X126225980Y-113812160D01*
X126223000Y-113771164D01*
X126212524Y-113730503D01*
X126194506Y-113695622D01*
X126178304Y-113675579D01*
X126145747Y-113649201D01*
X126107428Y-113632593D01*
X126068013Y-113625998D01*
X126053838Y-113625558D01*
X126013879Y-113629897D01*
X125974967Y-113644174D01*
X125967669Y-113648224D01*
X125935188Y-113672295D01*
X125909921Y-113702377D01*
X125907096Y-113706842D01*
X125814284Y-113694728D01*
X125892247Y-113281665D01*
X126293000Y-113281665D01*
X126293000Y-113375454D01*
X125971381Y-113375454D01*
X125928004Y-113591951D01*
X125964774Y-113571092D01*
X126002400Y-113556193D01*
X126040881Y-113547254D01*
X126080216Y-113544274D01*
X126124798Y-113547790D01*
X126166219Y-113558337D01*
X126204480Y-113575915D01*
X126239581Y-113600524D01*
X126258220Y-113617743D01*
X126286542Y-113651819D01*
X126307908Y-113689935D01*
X126322318Y-113732090D01*
X126329132Y-113771437D01*
X126330907Y-113806494D01*
X126328667Y-113846622D01*
X126320394Y-113890782D01*
X126306024Y-113932080D01*
X126285559Y-113970518D01*
X126267208Y-113996221D01*
X126236134Y-114029622D01*
X126201089Y-114056113D01*
X126162073Y-114075693D01*
X126119087Y-114088362D01*
X126080232Y-114093641D01*
X126055596Y-114094505D01*
X126015765Y-114092341D01*
X125972891Y-114084347D01*
X125933887Y-114070462D01*
X125898754Y-114050687D01*
X125876029Y-114032956D01*
X125848524Y-114004026D01*
X125826704Y-113971262D01*
X125810569Y-113934665D01*
X125800118Y-113894235D01*
X125796699Y-113869411D01*
G37*
G36*
X126690041Y-114082000D02*
G01*
X126377801Y-113269159D01*
X126493279Y-113269159D01*
X126702742Y-113860227D01*
X126716271Y-113899523D01*
X126728502Y-113937397D01*
X126740569Y-113977812D01*
X126744947Y-113993486D01*
X126757243Y-113951842D01*
X126769289Y-113914363D01*
X126782261Y-113876884D01*
X126788325Y-113860227D01*
X127005994Y-113269159D01*
X127114829Y-113269159D01*
X126799462Y-114082000D01*
X126690041Y-114082000D01*
G37*
G36*
X126317124Y-116160000D02*
G01*
X126004884Y-115347159D01*
X126120362Y-115347159D01*
X126329825Y-115938227D01*
X126343354Y-115977523D01*
X126355585Y-116015397D01*
X126367652Y-116055812D01*
X126372030Y-116071486D01*
X126384326Y-116029842D01*
X126396372Y-115992363D01*
X126409344Y-115954884D01*
X126415408Y-115938227D01*
X126633077Y-115347159D01*
X126741912Y-115347159D01*
X126426545Y-116160000D01*
X126317124Y-116160000D01*
G37*
G36*
X126800921Y-115459706D02*
G01*
X126800921Y-115347159D01*
X126899790Y-115347159D01*
X126899790Y-115459706D01*
X126800921Y-115459706D01*
G37*
G36*
X126800921Y-116160000D02*
G01*
X126800921Y-115572254D01*
X126899790Y-115572254D01*
X126899790Y-116160000D01*
X126800921Y-116160000D01*
G37*
G36*
X127048876Y-116160000D02*
G01*
X127048876Y-115572254D01*
X127137780Y-115572254D01*
X127137780Y-115654710D01*
X127163900Y-115622438D01*
X127194045Y-115596843D01*
X127234302Y-115575421D01*
X127273168Y-115564292D01*
X127316060Y-115559841D01*
X127323600Y-115559748D01*
X127365046Y-115562909D01*
X127403654Y-115572389D01*
X127420516Y-115578897D01*
X127455025Y-115597800D01*
X127483931Y-115625082D01*
X127486755Y-115628918D01*
X127506464Y-115665028D01*
X127517627Y-115702386D01*
X127521896Y-115743405D01*
X127523050Y-115786503D01*
X127523098Y-115799106D01*
X127523098Y-116160000D01*
X127424228Y-116160000D01*
X127424228Y-115801646D01*
X127422607Y-115760266D01*
X127416021Y-115720750D01*
X127412700Y-115710593D01*
X127391268Y-115677544D01*
X127371667Y-115662330D01*
X127335418Y-115647637D01*
X127302693Y-115644159D01*
X127261335Y-115648938D01*
X127224041Y-115663276D01*
X127193663Y-115684605D01*
X127169449Y-115717002D01*
X127155324Y-115758329D01*
X127149360Y-115798445D01*
X127147745Y-115838381D01*
X127147745Y-116160000D01*
X127048876Y-116160000D01*
G37*
G36*
X126428560Y-116692686D02*
G01*
X126467822Y-116697265D01*
X126506533Y-116706067D01*
X126532644Y-116715584D01*
X126568201Y-116735381D01*
X126598031Y-116761459D01*
X126620181Y-116790615D01*
X126638203Y-116825962D01*
X126649331Y-116865785D01*
X126651835Y-116896519D01*
X126647191Y-116937305D01*
X126633260Y-116976156D01*
X126623698Y-116993434D01*
X126598703Y-117024987D01*
X126565629Y-117051650D01*
X126539092Y-117066707D01*
X126577524Y-117081459D01*
X126613955Y-117103578D01*
X126643783Y-117131727D01*
X126651444Y-117141348D01*
X126672155Y-117176087D01*
X126685195Y-117214605D01*
X126690565Y-117256901D01*
X126690718Y-117265814D01*
X126687366Y-117307918D01*
X126677309Y-117347770D01*
X126666880Y-117373085D01*
X126647408Y-117407121D01*
X126620662Y-117438771D01*
X126607871Y-117449680D01*
X126573656Y-117470634D01*
X126535723Y-117485672D01*
X126519553Y-117490322D01*
X126480309Y-117498109D01*
X126439703Y-117502383D01*
X126399145Y-117503946D01*
X126389616Y-117504000D01*
X126082456Y-117504000D01*
X126082456Y-117122590D01*
X126189141Y-117122590D01*
X126189141Y-117410210D01*
X126389616Y-117410210D01*
X126428880Y-117409462D01*
X126462107Y-117406302D01*
X126499758Y-117395703D01*
X126523656Y-117383441D01*
X126552355Y-117356185D01*
X126564298Y-117336937D01*
X126577254Y-117299520D01*
X126580321Y-117266400D01*
X126575254Y-117225281D01*
X126558682Y-117187289D01*
X126557264Y-117185116D01*
X126529713Y-117155709D01*
X126493175Y-117136658D01*
X126454028Y-117127550D01*
X126411585Y-117123469D01*
X126375352Y-117122590D01*
X126189141Y-117122590D01*
X126082456Y-117122590D01*
X126082456Y-116784949D01*
X126189141Y-116784949D01*
X126189141Y-117028801D01*
X126363237Y-117028801D01*
X126403637Y-117027885D01*
X126444403Y-117023955D01*
X126464842Y-117019422D01*
X126500600Y-117003351D01*
X126526196Y-116979366D01*
X126542786Y-116943199D01*
X126546713Y-116908829D01*
X126541308Y-116868819D01*
X126527564Y-116838096D01*
X126498970Y-116808650D01*
X126472658Y-116796281D01*
X126431609Y-116788534D01*
X126390336Y-116785657D01*
X126350146Y-116784949D01*
X126189141Y-116784949D01*
X126082456Y-116784949D01*
X126082456Y-116691159D01*
X126384731Y-116691159D01*
X126428560Y-116692686D01*
G37*
G36*
X127107214Y-116905155D02*
G01*
X127146224Y-116910017D01*
X127185832Y-116920435D01*
X127188778Y-116921529D01*
X127224890Y-116938674D01*
X127255970Y-116964220D01*
X127257362Y-116965884D01*
X127277997Y-117000512D01*
X127288234Y-117033685D01*
X127292184Y-117075183D01*
X127293100Y-117117205D01*
X127293119Y-117125325D01*
X127293119Y-117257998D01*
X127293271Y-117298861D01*
X127293858Y-117341323D01*
X127295097Y-117381797D01*
X127297906Y-117422685D01*
X127299371Y-117433462D01*
X127309697Y-117471665D01*
X127324577Y-117504000D01*
X127221214Y-117504000D01*
X127207372Y-117465050D01*
X127201479Y-117430140D01*
X127170904Y-117454544D01*
X127137656Y-117476510D01*
X127101965Y-117494414D01*
X127095575Y-117496965D01*
X127056429Y-117508872D01*
X127015195Y-117515284D01*
X126986545Y-117516505D01*
X126946609Y-117514233D01*
X126906165Y-117506072D01*
X126867294Y-117489797D01*
X126838632Y-117469024D01*
X126811429Y-117436772D01*
X126794302Y-117399369D01*
X126787249Y-117356813D01*
X126787048Y-117347684D01*
X126787392Y-117344558D01*
X126892561Y-117344558D01*
X126900998Y-117383520D01*
X126922456Y-117411578D01*
X126956720Y-117430792D01*
X126996208Y-117437929D01*
X127010188Y-117438347D01*
X127051312Y-117434802D01*
X127091771Y-117422963D01*
X127111793Y-117413141D01*
X127144088Y-117389439D01*
X127170139Y-117357062D01*
X127177250Y-117343776D01*
X127188750Y-117304959D01*
X127192881Y-117263642D01*
X127193272Y-117243734D01*
X127193272Y-117207000D01*
X127154319Y-117219926D01*
X127115601Y-117229360D01*
X127076212Y-117236953D01*
X127031681Y-117243930D01*
X126990960Y-117250973D01*
X126952223Y-117261305D01*
X126945317Y-117264055D01*
X126912850Y-117287778D01*
X126906238Y-117296686D01*
X126893041Y-117334838D01*
X126892561Y-117344558D01*
X126787392Y-117344558D01*
X126791341Y-117308692D01*
X126805385Y-117270792D01*
X126806587Y-117268549D01*
X126829106Y-117236212D01*
X126857585Y-117211103D01*
X126893478Y-117191037D01*
X126928904Y-117178277D01*
X126968219Y-117170138D01*
X127009596Y-117164138D01*
X127016831Y-117163232D01*
X127059529Y-117157617D01*
X127103734Y-117150581D01*
X127146858Y-117141898D01*
X127185943Y-117131312D01*
X127193272Y-117128842D01*
X127193663Y-117103050D01*
X127189734Y-117063034D01*
X127173771Y-117027002D01*
X127165722Y-117018445D01*
X127132099Y-116998084D01*
X127092153Y-116987675D01*
X127052979Y-116985032D01*
X127012950Y-116987322D01*
X126974335Y-116996115D01*
X126950006Y-117008480D01*
X126922644Y-117038361D01*
X126905041Y-117077039D01*
X126900767Y-117091327D01*
X126804047Y-117078040D01*
X126815167Y-117039413D01*
X126831828Y-117003541D01*
X126847424Y-116980929D01*
X126876450Y-116953603D01*
X126911085Y-116933416D01*
X126934766Y-116923874D01*
X126976273Y-116912416D01*
X127017733Y-116906126D01*
X127058082Y-116903827D01*
X127067438Y-116903748D01*
X127107214Y-116905155D01*
G37*
G36*
X127659483Y-117413337D02*
G01*
X127673747Y-117504000D01*
X127634180Y-117513378D01*
X127599106Y-117516505D01*
X127559288Y-117513667D01*
X127521259Y-117502383D01*
X127515478Y-117499310D01*
X127485222Y-117473375D01*
X127473663Y-117453783D01*
X127465108Y-117413709D01*
X127462314Y-117371776D01*
X127461744Y-117335179D01*
X127461744Y-116994411D01*
X127389057Y-116994411D01*
X127389057Y-116916254D01*
X127461744Y-116916254D01*
X127461744Y-116774397D01*
X127560027Y-116716170D01*
X127560027Y-116916254D01*
X127659483Y-116916254D01*
X127659483Y-116994411D01*
X127560027Y-116994411D01*
X127560027Y-117343190D01*
X127561818Y-117383748D01*
X127565108Y-117398877D01*
X127582107Y-117418612D01*
X127616106Y-117425842D01*
X127654520Y-117415571D01*
X127659483Y-117413337D01*
G37*
G36*
X127970551Y-117413337D02*
G01*
X127984815Y-117504000D01*
X127945247Y-117513378D01*
X127910174Y-117516505D01*
X127870356Y-117513667D01*
X127832327Y-117502383D01*
X127826545Y-117499310D01*
X127796290Y-117473375D01*
X127784731Y-117453783D01*
X127776176Y-117413709D01*
X127773382Y-117371776D01*
X127772812Y-117335179D01*
X127772812Y-116994411D01*
X127700125Y-116994411D01*
X127700125Y-116916254D01*
X127772812Y-116916254D01*
X127772812Y-116774397D01*
X127871095Y-116716170D01*
X127871095Y-116916254D01*
X127970551Y-116916254D01*
X127970551Y-116994411D01*
X127871095Y-116994411D01*
X127871095Y-117343190D01*
X127872886Y-117383748D01*
X127876175Y-117398877D01*
X127893175Y-117418612D01*
X127927173Y-117425842D01*
X127965588Y-117415571D01*
X127970551Y-117413337D01*
G37*
D12*
G36*
X156995000Y-112344295D02*
G01*
X155470924Y-112344295D01*
X155470924Y-111308949D01*
X155728845Y-111308949D01*
X155728845Y-112039480D01*
X156080554Y-112039480D01*
X156080554Y-111408967D01*
X156338475Y-111408967D01*
X156338475Y-112039480D01*
X156995000Y-112039480D01*
X156995000Y-112344295D01*
G37*
G36*
X156995000Y-110789078D02*
G01*
X156995000Y-111078506D01*
X155892976Y-111078506D01*
X155892976Y-110809595D01*
X156048681Y-110809595D01*
X155987164Y-110767907D01*
X155929337Y-110717777D01*
X155903967Y-110685764D01*
X155875212Y-110614774D01*
X155869528Y-110560101D01*
X155877875Y-110486942D01*
X155902913Y-110415845D01*
X155928879Y-110369591D01*
X156198524Y-110459351D01*
X156164338Y-110525709D01*
X156150896Y-110595272D01*
X156165096Y-110667204D01*
X156183869Y-110698586D01*
X156245836Y-110744239D01*
X156302937Y-110764898D01*
X156384171Y-110778665D01*
X156459082Y-110784450D01*
X156537662Y-110787567D01*
X156613280Y-110788866D01*
X156663073Y-110789078D01*
X156995000Y-110789078D01*
G37*
G36*
X155728845Y-110250157D02*
G01*
X155470924Y-110250157D01*
X155470924Y-109960362D01*
X155728845Y-109960362D01*
X155728845Y-110250157D01*
G37*
G36*
X156995000Y-110250157D02*
G01*
X155892976Y-110250157D01*
X155892976Y-109960362D01*
X156995000Y-109960362D01*
X156995000Y-110250157D01*
G37*
G36*
X155892976Y-109164986D02*
G01*
X156104002Y-109164986D01*
X156104002Y-109362822D01*
X156582473Y-109362822D01*
X156661535Y-109362286D01*
X156735718Y-109359468D01*
X156752100Y-109357327D01*
X156792034Y-109331315D01*
X156807421Y-109282588D01*
X156794261Y-109210206D01*
X156779577Y-109166085D01*
X156980345Y-109141172D01*
X157002038Y-109213806D01*
X157014726Y-109292675D01*
X157018447Y-109369783D01*
X157011669Y-109444338D01*
X156991336Y-109511200D01*
X156951293Y-109576630D01*
X156921360Y-109603524D01*
X156852005Y-109634261D01*
X156805223Y-109644190D01*
X156726729Y-109651059D01*
X156650787Y-109653027D01*
X156595296Y-109653349D01*
X156104002Y-109653349D01*
X156104002Y-109786339D01*
X155892976Y-109786339D01*
X155892976Y-109653349D01*
X155681950Y-109653349D01*
X155517819Y-109362822D01*
X155892976Y-109362822D01*
X155892976Y-109164986D01*
G37*
G36*
X156995000Y-109084019D02*
G01*
X156807421Y-109084019D01*
X156285718Y-108674057D01*
X156226276Y-108626796D01*
X156165110Y-108576994D01*
X156107418Y-108527655D01*
X156104002Y-108524581D01*
X156104002Y-108600229D01*
X156104002Y-108657571D01*
X156104002Y-109044085D01*
X155892976Y-109044085D01*
X155892976Y-108139166D01*
X156080554Y-108139166D01*
X156608852Y-108557554D01*
X156783974Y-108704832D01*
X156783974Y-108627312D01*
X156783974Y-108555355D01*
X156783974Y-108107292D01*
X156995000Y-108107292D01*
X156995000Y-109084019D01*
G37*
G36*
X156526053Y-106980722D02*
G01*
X156526053Y-107706123D01*
X156603605Y-107698030D01*
X156675523Y-107674665D01*
X156733415Y-107636147D01*
X156781331Y-107576232D01*
X156804819Y-107505433D01*
X156807421Y-107469085D01*
X156795668Y-107396220D01*
X156774082Y-107355146D01*
X156716523Y-107305859D01*
X156666737Y-107284804D01*
X156713632Y-106996109D01*
X156783745Y-107027983D01*
X156852002Y-107073475D01*
X156909016Y-107129168D01*
X156940778Y-107171964D01*
X156978323Y-107244134D01*
X157001381Y-107316313D01*
X157014730Y-107396049D01*
X157018447Y-107472016D01*
X157013876Y-107557686D01*
X157000164Y-107636093D01*
X156977311Y-107707237D01*
X156937821Y-107783023D01*
X156885168Y-107848350D01*
X156831235Y-107894801D01*
X156761766Y-107936913D01*
X156684795Y-107968682D01*
X156612847Y-107987680D01*
X156535387Y-107999078D01*
X156452414Y-108002878D01*
X156369903Y-107999408D01*
X156293189Y-107988996D01*
X156208782Y-107967341D01*
X156132721Y-107935690D01*
X156065007Y-107894045D01*
X156024501Y-107860729D01*
X155971834Y-107804769D01*
X155930064Y-107743504D01*
X155899191Y-107676931D01*
X155879214Y-107605052D01*
X155870134Y-107527867D01*
X155869528Y-107500959D01*
X155870449Y-107483740D01*
X156080554Y-107483740D01*
X156093808Y-107560206D01*
X156133568Y-107624189D01*
X156149797Y-107640177D01*
X156214517Y-107680084D01*
X156288749Y-107698459D01*
X156338475Y-107700994D01*
X156338475Y-107268318D01*
X156265417Y-107275910D01*
X156193426Y-107300227D01*
X156146500Y-107333164D01*
X156101420Y-107392459D01*
X156081134Y-107467351D01*
X156080554Y-107483740D01*
X155870449Y-107483740D01*
X155873473Y-107427223D01*
X155888620Y-107345375D01*
X155915127Y-107270765D01*
X155952994Y-107203394D01*
X156002221Y-107143262D01*
X156031095Y-107115910D01*
X156097723Y-107068070D01*
X156176433Y-107030610D01*
X156251253Y-107007324D01*
X156334463Y-106991248D01*
X156426063Y-106982380D01*
X156505384Y-106980477D01*
X156526053Y-106980722D01*
G37*
G36*
X156995000Y-105755233D02*
G01*
X156995000Y-106044661D01*
X156426036Y-106044661D01*
X156343695Y-106045829D01*
X156270112Y-106049934D01*
X156195740Y-106062196D01*
X156192295Y-106063346D01*
X156128234Y-106101791D01*
X156109863Y-106123429D01*
X156082873Y-106192173D01*
X156080554Y-106223813D01*
X156092445Y-106299555D01*
X156122686Y-106359002D01*
X156174920Y-106411905D01*
X156234061Y-106441067D01*
X156309730Y-106455300D01*
X156384856Y-106460902D01*
X156467253Y-106462963D01*
X156490150Y-106463049D01*
X156995000Y-106463049D01*
X156995000Y-106752477D01*
X155892976Y-106752477D01*
X155892976Y-106483565D01*
X156053810Y-106483565D01*
X155991183Y-106427246D01*
X155941513Y-106365722D01*
X155904801Y-106298995D01*
X155881046Y-106227065D01*
X155870248Y-106149931D01*
X155869528Y-106123063D01*
X155875273Y-106047855D01*
X155894306Y-105973082D01*
X155904333Y-105947941D01*
X155941148Y-105881942D01*
X155992993Y-105827773D01*
X156058218Y-105789906D01*
X156115359Y-105771353D01*
X156192285Y-105759783D01*
X156272604Y-105755627D01*
X156310997Y-105755233D01*
X156995000Y-105755233D01*
G37*
G36*
X156995000Y-105457745D02*
G01*
X155470924Y-105457745D01*
X155470924Y-105152930D01*
X156737079Y-105152930D01*
X156737079Y-104394556D01*
X156995000Y-104394556D01*
X156995000Y-105457745D01*
G37*
G36*
X156995000Y-103521144D02*
G01*
X156923438Y-103543961D01*
X156905607Y-103548988D01*
X156870069Y-103559246D01*
X156920593Y-103616467D01*
X156963467Y-103681713D01*
X156981444Y-103718248D01*
X157005402Y-103788647D01*
X157017146Y-103862916D01*
X157018447Y-103898499D01*
X157012631Y-103978481D01*
X156992184Y-104057786D01*
X156957015Y-104125790D01*
X156925390Y-104164846D01*
X156869134Y-104211955D01*
X156797449Y-104246215D01*
X156724674Y-104260776D01*
X156689818Y-104262299D01*
X156616703Y-104254983D01*
X156545536Y-104230740D01*
X156522023Y-104217969D01*
X156463930Y-104172378D01*
X156419161Y-104113183D01*
X156408817Y-104093771D01*
X156380807Y-104023927D01*
X156359591Y-103950533D01*
X156342148Y-103872670D01*
X156340307Y-103863328D01*
X156323579Y-103780491D01*
X156305107Y-103700418D01*
X156285146Y-103628947D01*
X156268133Y-103581960D01*
X156479159Y-103581960D01*
X156498484Y-103653859D01*
X156515263Y-103729061D01*
X156521290Y-103758182D01*
X156537828Y-103831178D01*
X156561573Y-103902116D01*
X156568918Y-103915718D01*
X156624559Y-103964519D01*
X156665638Y-103972505D01*
X156737785Y-103951032D01*
X156765655Y-103927076D01*
X156801548Y-103860701D01*
X156807421Y-103811671D01*
X156795239Y-103735101D01*
X156761692Y-103666644D01*
X156758695Y-103662194D01*
X156705686Y-103610731D01*
X156667836Y-103593318D01*
X156594221Y-103583302D01*
X156533747Y-103581960D01*
X156479159Y-103581960D01*
X156268133Y-103581960D01*
X156238457Y-103581960D01*
X156165368Y-103592310D01*
X156116824Y-103623360D01*
X156087497Y-103692705D01*
X156080590Y-103771625D01*
X156080554Y-103778698D01*
X156090407Y-103854999D01*
X156111695Y-103899598D01*
X156169083Y-103947197D01*
X156221238Y-103969574D01*
X156174344Y-104232257D01*
X156101712Y-104206108D01*
X156032044Y-104167165D01*
X155975127Y-104118137D01*
X155944267Y-104079849D01*
X155908138Y-104010562D01*
X155885950Y-103935056D01*
X155874200Y-103858245D01*
X155869820Y-103784425D01*
X155869528Y-103758182D01*
X155871737Y-103678142D01*
X155879671Y-103598303D01*
X155895495Y-103523319D01*
X155915690Y-103469853D01*
X155953815Y-103406621D01*
X156007150Y-103352905D01*
X156032927Y-103336496D01*
X156102702Y-103312832D01*
X156177010Y-103302251D01*
X156258875Y-103298003D01*
X156293412Y-103297662D01*
X156633398Y-103300959D01*
X156708978Y-103299858D01*
X156784981Y-103295521D01*
X156847355Y-103287037D01*
X156918704Y-103267070D01*
X156990086Y-103237371D01*
X156995000Y-103235013D01*
X156995000Y-103521144D01*
G37*
G36*
X156517409Y-101965153D02*
G01*
X156595891Y-101974921D01*
X156668077Y-101991200D01*
X156746387Y-102019330D01*
X156815630Y-102056836D01*
X156866406Y-102095254D01*
X156918076Y-102147272D01*
X156964846Y-102213039D01*
X156997066Y-102284275D01*
X157014735Y-102360981D01*
X157018447Y-102419120D01*
X157010828Y-102494901D01*
X156987973Y-102569835D01*
X156972285Y-102604134D01*
X156931223Y-102668998D01*
X156877282Y-102726752D01*
X156834166Y-102761304D01*
X156995000Y-102761304D01*
X156995000Y-103030216D01*
X155470924Y-103030216D01*
X155470924Y-102740788D01*
X156021936Y-102740788D01*
X155970141Y-102688779D01*
X155923258Y-102623738D01*
X155890961Y-102554000D01*
X155878307Y-102500819D01*
X156080554Y-102500819D01*
X156092507Y-102573961D01*
X156132432Y-102642151D01*
X156165551Y-102674110D01*
X156234167Y-102713324D01*
X156305828Y-102733300D01*
X156381253Y-102741910D01*
X156423105Y-102742986D01*
X156496568Y-102740427D01*
X156569663Y-102731233D01*
X156644739Y-102710339D01*
X156686521Y-102689497D01*
X156744964Y-102643161D01*
X156787468Y-102582568D01*
X156806949Y-102504841D01*
X156807421Y-102489462D01*
X156793272Y-102416189D01*
X156750826Y-102352347D01*
X156721692Y-102326064D01*
X156650856Y-102287684D01*
X156575575Y-102268132D01*
X156495571Y-102259706D01*
X156450949Y-102258653D01*
X156370278Y-102261913D01*
X156290920Y-102273626D01*
X156218010Y-102296984D01*
X156167749Y-102326796D01*
X156114615Y-102383039D01*
X156084727Y-102456178D01*
X156080554Y-102500819D01*
X155878307Y-102500819D01*
X155873249Y-102479562D01*
X155869528Y-102423517D01*
X155876488Y-102339315D01*
X155897368Y-102261740D01*
X155932167Y-102190791D01*
X155980886Y-102126470D01*
X156014975Y-102092690D01*
X156073974Y-102048241D01*
X156141886Y-102012988D01*
X156218711Y-101986932D01*
X156304449Y-101970072D01*
X156382705Y-101963047D01*
X156432630Y-101961898D01*
X156517409Y-101965153D01*
G37*
G36*
X156995000Y-101735851D02*
G01*
X156713632Y-101735851D01*
X156713632Y-101446057D01*
X156995000Y-101446057D01*
X156995000Y-101735851D01*
G37*
G36*
X156197791Y-100198220D02*
G01*
X156244685Y-100483618D01*
X156173153Y-100507157D01*
X156121953Y-100549197D01*
X156088478Y-100616109D01*
X156080554Y-100681454D01*
X156091786Y-100756382D01*
X156129301Y-100823716D01*
X156160422Y-100854012D01*
X156228015Y-100890723D01*
X156302187Y-100909425D01*
X156382375Y-100917485D01*
X156427501Y-100918492D01*
X156501248Y-100916200D01*
X156576444Y-100907730D01*
X156648085Y-100890407D01*
X156716192Y-100857291D01*
X156721692Y-100853279D01*
X156773933Y-100797809D01*
X156802063Y-100729769D01*
X156807421Y-100677424D01*
X156795606Y-100602503D01*
X156760160Y-100542602D01*
X156700456Y-100499986D01*
X156631016Y-100475746D01*
X156596395Y-100468230D01*
X156643290Y-100183932D01*
X156720206Y-100207218D01*
X156788427Y-100238288D01*
X156855747Y-100283328D01*
X156911709Y-100338535D01*
X156923925Y-100353925D01*
X156965278Y-100422114D01*
X156991770Y-100490571D01*
X157009216Y-100567232D01*
X157017616Y-100652097D01*
X157018447Y-100690980D01*
X157013102Y-100777555D01*
X156997066Y-100857304D01*
X156970340Y-100930226D01*
X156932924Y-100996322D01*
X156884817Y-101055591D01*
X156866406Y-101073831D01*
X156805157Y-101122264D01*
X156735717Y-101160676D01*
X156658085Y-101189068D01*
X156572261Y-101207439D01*
X156494484Y-101215094D01*
X156445087Y-101216346D01*
X156362964Y-101212849D01*
X156286727Y-101202357D01*
X156203012Y-101180534D01*
X156127771Y-101148639D01*
X156061005Y-101106672D01*
X156021203Y-101073098D01*
X155969658Y-101015825D01*
X155928776Y-100951442D01*
X155898560Y-100879950D01*
X155879008Y-100801347D01*
X155870121Y-100715635D01*
X155869528Y-100685484D01*
X155873420Y-100602039D01*
X155885096Y-100526412D01*
X155907971Y-100449556D01*
X155941012Y-100382912D01*
X155950861Y-100367847D01*
X156003128Y-100306734D01*
X156060877Y-100261219D01*
X156129249Y-100223993D01*
X156197791Y-100198220D01*
G37*
G36*
X156516834Y-98926091D02*
G01*
X156602288Y-98941135D01*
X156681767Y-98967461D01*
X156755268Y-99005071D01*
X156822794Y-99053964D01*
X156854316Y-99082641D01*
X156910095Y-99145590D01*
X156954333Y-99214360D01*
X156987031Y-99288953D01*
X157008189Y-99369367D01*
X157017806Y-99455603D01*
X157018447Y-99485642D01*
X157014188Y-99560059D01*
X157001411Y-99632737D01*
X156980116Y-99703674D01*
X156950303Y-99772871D01*
X156912087Y-99836939D01*
X156859623Y-99899272D01*
X156797133Y-99951288D01*
X156749902Y-99980233D01*
X156680361Y-100011328D01*
X156603631Y-100033539D01*
X156530594Y-100045686D01*
X156452052Y-100051030D01*
X156428600Y-100051308D01*
X156347746Y-100045686D01*
X156268399Y-100028819D01*
X156199133Y-100004388D01*
X156147965Y-99980233D01*
X156084195Y-99940987D01*
X156022033Y-99887966D01*
X155970014Y-99825556D01*
X155940969Y-99778733D01*
X155909714Y-99711642D01*
X155887389Y-99640797D01*
X155873994Y-99566196D01*
X155869528Y-99487840D01*
X155869586Y-99486741D01*
X156080554Y-99486741D01*
X156091637Y-99560328D01*
X156129006Y-99630927D01*
X156174344Y-99677250D01*
X156240819Y-99718015D01*
X156314473Y-99741795D01*
X156390940Y-99752666D01*
X156443988Y-99754553D01*
X156526946Y-99749721D01*
X156599601Y-99735227D01*
X156669021Y-99707371D01*
X156713998Y-99677250D01*
X156767187Y-99619862D01*
X156800031Y-99547579D01*
X156807421Y-99486741D01*
X156796382Y-99413240D01*
X156759159Y-99342933D01*
X156713998Y-99296964D01*
X156647115Y-99256392D01*
X156572788Y-99232725D01*
X156495479Y-99221906D01*
X156441789Y-99220027D01*
X156359815Y-99224836D01*
X156287916Y-99239262D01*
X156219073Y-99266986D01*
X156174344Y-99296964D01*
X156120946Y-99353935D01*
X156087973Y-99425960D01*
X156080554Y-99486741D01*
X155869586Y-99486741D01*
X155873482Y-99412408D01*
X155888663Y-99327674D01*
X155915230Y-99249252D01*
X155953183Y-99177142D01*
X156002522Y-99111342D01*
X156031461Y-99080809D01*
X156095200Y-99026898D01*
X156164967Y-98984140D01*
X156240761Y-98952537D01*
X156322584Y-98932088D01*
X156395374Y-98923568D01*
X156441057Y-98922173D01*
X156516834Y-98926091D01*
G37*
G36*
X155892976Y-98723970D02*
G01*
X155892976Y-98456891D01*
X156042452Y-98456891D01*
X155983685Y-98401253D01*
X155937077Y-98341778D01*
X155898068Y-98267539D01*
X155875608Y-98188075D01*
X155869528Y-98115806D01*
X155875350Y-98040861D01*
X155894797Y-97968508D01*
X155910928Y-97933356D01*
X155954966Y-97871046D01*
X156010426Y-97822730D01*
X156035491Y-97806594D01*
X155978820Y-97750867D01*
X155934100Y-97691945D01*
X155910928Y-97650889D01*
X155884123Y-97581206D01*
X155870984Y-97507896D01*
X155869528Y-97472836D01*
X155875373Y-97394342D01*
X155895079Y-97318685D01*
X155918988Y-97268771D01*
X155966494Y-97207916D01*
X156029238Y-97161089D01*
X156063335Y-97144207D01*
X156134879Y-97124757D01*
X156209497Y-97116542D01*
X156291214Y-97114166D01*
X156995000Y-97114166D01*
X156995000Y-97403960D01*
X156357892Y-97403960D01*
X156282261Y-97405837D01*
X156208394Y-97413465D01*
X156143569Y-97434002D01*
X156094400Y-97488735D01*
X156080554Y-97557466D01*
X156095295Y-97630768D01*
X156118290Y-97672138D01*
X156171986Y-97722924D01*
X156229298Y-97749441D01*
X156302502Y-97764622D01*
X156377821Y-97771034D01*
X156459741Y-97772889D01*
X156995000Y-97772889D01*
X156995000Y-98062316D01*
X156383904Y-98062316D01*
X156309784Y-98063278D01*
X156231423Y-98067741D01*
X156173977Y-98077704D01*
X156111438Y-98115928D01*
X156103635Y-98125697D01*
X156081118Y-98196795D01*
X156080554Y-98213625D01*
X156093599Y-98288461D01*
X156117557Y-98334159D01*
X156172558Y-98387086D01*
X156223436Y-98411095D01*
X156301485Y-98426873D01*
X156378615Y-98432733D01*
X156453147Y-98434176D01*
X156995000Y-98434176D01*
X156995000Y-98723970D01*
X155892976Y-98723970D01*
G37*
G36*
X156995000Y-96835362D02*
G01*
X156713632Y-96835362D01*
X156713632Y-96545568D01*
X156995000Y-96545568D01*
X156995000Y-96835362D01*
G37*
G36*
X156517409Y-95199138D02*
G01*
X156595891Y-95208905D01*
X156668077Y-95225184D01*
X156746387Y-95253314D01*
X156815630Y-95290821D01*
X156866406Y-95329239D01*
X156918076Y-95381257D01*
X156964846Y-95447024D01*
X156997066Y-95518260D01*
X157014735Y-95594966D01*
X157018447Y-95653105D01*
X157010828Y-95728885D01*
X156987973Y-95803819D01*
X156972285Y-95838119D01*
X156931223Y-95902982D01*
X156877282Y-95960736D01*
X156834166Y-95995289D01*
X156995000Y-95995289D01*
X156995000Y-96264200D01*
X155470924Y-96264200D01*
X155470924Y-95974773D01*
X156021936Y-95974773D01*
X155970141Y-95922763D01*
X155923258Y-95857723D01*
X155890961Y-95787984D01*
X155878307Y-95734804D01*
X156080554Y-95734804D01*
X156092507Y-95807945D01*
X156132432Y-95876135D01*
X156165551Y-95908094D01*
X156234167Y-95947308D01*
X156305828Y-95967285D01*
X156381253Y-95975895D01*
X156423105Y-95976971D01*
X156496568Y-95974411D01*
X156569663Y-95965218D01*
X156644739Y-95944324D01*
X156686521Y-95923482D01*
X156744964Y-95877146D01*
X156787468Y-95816553D01*
X156806949Y-95738826D01*
X156807421Y-95723447D01*
X156793272Y-95650173D01*
X156750826Y-95586332D01*
X156721692Y-95560048D01*
X156650856Y-95521669D01*
X156575575Y-95502117D01*
X156495571Y-95493691D01*
X156450949Y-95492637D01*
X156370278Y-95495898D01*
X156290920Y-95507610D01*
X156218010Y-95530968D01*
X156167749Y-95560781D01*
X156114615Y-95617024D01*
X156084727Y-95690162D01*
X156080554Y-95734804D01*
X155878307Y-95734804D01*
X155873249Y-95713547D01*
X155869528Y-95657501D01*
X155876488Y-95573299D01*
X155897368Y-95495724D01*
X155932167Y-95424776D01*
X155980886Y-95360454D01*
X156014975Y-95326674D01*
X156073974Y-95282225D01*
X156141886Y-95246973D01*
X156218711Y-95220917D01*
X156304449Y-95204057D01*
X156382705Y-95197032D01*
X156432630Y-95195882D01*
X156517409Y-95199138D01*
G37*
G36*
X156995000Y-94692498D02*
G01*
X156995000Y-94981926D01*
X155892976Y-94981926D01*
X155892976Y-94713014D01*
X156048681Y-94713014D01*
X155987164Y-94671326D01*
X155929337Y-94621196D01*
X155903967Y-94589183D01*
X155875212Y-94518194D01*
X155869528Y-94463520D01*
X155877875Y-94390362D01*
X155902913Y-94319264D01*
X155928879Y-94273011D01*
X156198524Y-94362770D01*
X156164338Y-94429129D01*
X156150896Y-94498691D01*
X156165096Y-94570624D01*
X156183869Y-94602006D01*
X156245836Y-94647658D01*
X156302937Y-94668318D01*
X156384171Y-94682084D01*
X156459082Y-94687870D01*
X156537662Y-94690987D01*
X156613280Y-94692285D01*
X156663073Y-94692498D01*
X156995000Y-94692498D01*
G37*
G36*
X154995000Y-112344295D02*
G01*
X153470924Y-112344295D01*
X153470924Y-111308949D01*
X153728845Y-111308949D01*
X153728845Y-112039480D01*
X154080554Y-112039480D01*
X154080554Y-111408967D01*
X154338475Y-111408967D01*
X154338475Y-112039480D01*
X154995000Y-112039480D01*
X154995000Y-112344295D01*
G37*
G36*
X154995000Y-110789078D02*
G01*
X154995000Y-111078506D01*
X153892976Y-111078506D01*
X153892976Y-110809595D01*
X154048681Y-110809595D01*
X153987164Y-110767907D01*
X153929337Y-110717777D01*
X153903967Y-110685764D01*
X153875212Y-110614774D01*
X153869528Y-110560101D01*
X153877875Y-110486942D01*
X153902913Y-110415845D01*
X153928879Y-110369591D01*
X154198524Y-110459351D01*
X154164338Y-110525709D01*
X154150896Y-110595272D01*
X154165096Y-110667204D01*
X154183869Y-110698586D01*
X154245836Y-110744239D01*
X154302937Y-110764898D01*
X154384171Y-110778665D01*
X154459082Y-110784450D01*
X154537662Y-110787567D01*
X154613280Y-110788866D01*
X154663073Y-110789078D01*
X154995000Y-110789078D01*
G37*
G36*
X153728845Y-110250157D02*
G01*
X153470924Y-110250157D01*
X153470924Y-109960362D01*
X153728845Y-109960362D01*
X153728845Y-110250157D01*
G37*
G36*
X154995000Y-110250157D02*
G01*
X153892976Y-110250157D01*
X153892976Y-109960362D01*
X154995000Y-109960362D01*
X154995000Y-110250157D01*
G37*
G36*
X153892976Y-109164986D02*
G01*
X154104002Y-109164986D01*
X154104002Y-109362822D01*
X154582473Y-109362822D01*
X154661535Y-109362286D01*
X154735718Y-109359468D01*
X154752100Y-109357327D01*
X154792034Y-109331315D01*
X154807421Y-109282588D01*
X154794261Y-109210206D01*
X154779577Y-109166085D01*
X154980345Y-109141172D01*
X155002038Y-109213806D01*
X155014726Y-109292675D01*
X155018447Y-109369783D01*
X155011669Y-109444338D01*
X154991336Y-109511200D01*
X154951293Y-109576630D01*
X154921360Y-109603524D01*
X154852005Y-109634261D01*
X154805223Y-109644190D01*
X154726729Y-109651059D01*
X154650787Y-109653027D01*
X154595296Y-109653349D01*
X154104002Y-109653349D01*
X154104002Y-109786339D01*
X153892976Y-109786339D01*
X153892976Y-109653349D01*
X153681950Y-109653349D01*
X153517819Y-109362822D01*
X153892976Y-109362822D01*
X153892976Y-109164986D01*
G37*
G36*
X154995000Y-109084019D02*
G01*
X154807421Y-109084019D01*
X154285718Y-108674057D01*
X154226276Y-108626796D01*
X154165110Y-108576994D01*
X154107418Y-108527655D01*
X154104002Y-108524581D01*
X154104002Y-108600229D01*
X154104002Y-108657571D01*
X154104002Y-109044085D01*
X153892976Y-109044085D01*
X153892976Y-108139166D01*
X154080554Y-108139166D01*
X154608852Y-108557554D01*
X154783974Y-108704832D01*
X154783974Y-108627312D01*
X154783974Y-108555355D01*
X154783974Y-108107292D01*
X154995000Y-108107292D01*
X154995000Y-109084019D01*
G37*
G36*
X154526053Y-106980722D02*
G01*
X154526053Y-107706123D01*
X154603605Y-107698030D01*
X154675523Y-107674665D01*
X154733415Y-107636147D01*
X154781331Y-107576232D01*
X154804819Y-107505433D01*
X154807421Y-107469085D01*
X154795668Y-107396220D01*
X154774082Y-107355146D01*
X154716523Y-107305859D01*
X154666737Y-107284804D01*
X154713632Y-106996109D01*
X154783745Y-107027983D01*
X154852002Y-107073475D01*
X154909016Y-107129168D01*
X154940778Y-107171964D01*
X154978323Y-107244134D01*
X155001381Y-107316313D01*
X155014730Y-107396049D01*
X155018447Y-107472016D01*
X155013876Y-107557686D01*
X155000164Y-107636093D01*
X154977311Y-107707237D01*
X154937821Y-107783023D01*
X154885168Y-107848350D01*
X154831235Y-107894801D01*
X154761766Y-107936913D01*
X154684795Y-107968682D01*
X154612847Y-107987680D01*
X154535387Y-107999078D01*
X154452414Y-108002878D01*
X154369903Y-107999408D01*
X154293189Y-107988996D01*
X154208782Y-107967341D01*
X154132721Y-107935690D01*
X154065007Y-107894045D01*
X154024501Y-107860729D01*
X153971834Y-107804769D01*
X153930064Y-107743504D01*
X153899191Y-107676931D01*
X153879214Y-107605052D01*
X153870134Y-107527867D01*
X153869528Y-107500959D01*
X153870449Y-107483740D01*
X154080554Y-107483740D01*
X154093808Y-107560206D01*
X154133568Y-107624189D01*
X154149797Y-107640177D01*
X154214517Y-107680084D01*
X154288749Y-107698459D01*
X154338475Y-107700994D01*
X154338475Y-107268318D01*
X154265417Y-107275910D01*
X154193426Y-107300227D01*
X154146500Y-107333164D01*
X154101420Y-107392459D01*
X154081134Y-107467351D01*
X154080554Y-107483740D01*
X153870449Y-107483740D01*
X153873473Y-107427223D01*
X153888620Y-107345375D01*
X153915127Y-107270765D01*
X153952994Y-107203394D01*
X154002221Y-107143262D01*
X154031095Y-107115910D01*
X154097723Y-107068070D01*
X154176433Y-107030610D01*
X154251253Y-107007324D01*
X154334463Y-106991248D01*
X154426063Y-106982380D01*
X154505384Y-106980477D01*
X154526053Y-106980722D01*
G37*
G36*
X154995000Y-105755233D02*
G01*
X154995000Y-106044661D01*
X154426036Y-106044661D01*
X154343695Y-106045829D01*
X154270112Y-106049934D01*
X154195740Y-106062196D01*
X154192295Y-106063346D01*
X154128234Y-106101791D01*
X154109863Y-106123429D01*
X154082873Y-106192173D01*
X154080554Y-106223813D01*
X154092445Y-106299555D01*
X154122686Y-106359002D01*
X154174920Y-106411905D01*
X154234061Y-106441067D01*
X154309730Y-106455300D01*
X154384856Y-106460902D01*
X154467253Y-106462963D01*
X154490150Y-106463049D01*
X154995000Y-106463049D01*
X154995000Y-106752477D01*
X153892976Y-106752477D01*
X153892976Y-106483565D01*
X154053810Y-106483565D01*
X153991183Y-106427246D01*
X153941513Y-106365722D01*
X153904801Y-106298995D01*
X153881046Y-106227065D01*
X153870248Y-106149931D01*
X153869528Y-106123063D01*
X153875273Y-106047855D01*
X153894306Y-105973082D01*
X153904333Y-105947941D01*
X153941148Y-105881942D01*
X153992993Y-105827773D01*
X154058218Y-105789906D01*
X154115359Y-105771353D01*
X154192285Y-105759783D01*
X154272604Y-105755627D01*
X154310997Y-105755233D01*
X154995000Y-105755233D01*
G37*
G36*
X154995000Y-105457745D02*
G01*
X153470924Y-105457745D01*
X153470924Y-105152930D01*
X154737079Y-105152930D01*
X154737079Y-104394556D01*
X154995000Y-104394556D01*
X154995000Y-105457745D01*
G37*
G36*
X154995000Y-103521144D02*
G01*
X154923438Y-103543961D01*
X154905607Y-103548988D01*
X154870069Y-103559246D01*
X154920593Y-103616467D01*
X154963467Y-103681713D01*
X154981444Y-103718248D01*
X155005402Y-103788647D01*
X155017146Y-103862916D01*
X155018447Y-103898499D01*
X155012631Y-103978481D01*
X154992184Y-104057786D01*
X154957015Y-104125790D01*
X154925390Y-104164846D01*
X154869134Y-104211955D01*
X154797449Y-104246215D01*
X154724674Y-104260776D01*
X154689818Y-104262299D01*
X154616703Y-104254983D01*
X154545536Y-104230740D01*
X154522023Y-104217969D01*
X154463930Y-104172378D01*
X154419161Y-104113183D01*
X154408817Y-104093771D01*
X154380807Y-104023927D01*
X154359591Y-103950533D01*
X154342148Y-103872670D01*
X154340307Y-103863328D01*
X154323579Y-103780491D01*
X154305107Y-103700418D01*
X154285146Y-103628947D01*
X154268133Y-103581960D01*
X154479159Y-103581960D01*
X154498484Y-103653859D01*
X154515263Y-103729061D01*
X154521290Y-103758182D01*
X154537828Y-103831178D01*
X154561573Y-103902116D01*
X154568918Y-103915718D01*
X154624559Y-103964519D01*
X154665638Y-103972505D01*
X154737785Y-103951032D01*
X154765655Y-103927076D01*
X154801548Y-103860701D01*
X154807421Y-103811671D01*
X154795239Y-103735101D01*
X154761692Y-103666644D01*
X154758695Y-103662194D01*
X154705686Y-103610731D01*
X154667836Y-103593318D01*
X154594221Y-103583302D01*
X154533747Y-103581960D01*
X154479159Y-103581960D01*
X154268133Y-103581960D01*
X154238457Y-103581960D01*
X154165368Y-103592310D01*
X154116824Y-103623360D01*
X154087497Y-103692705D01*
X154080590Y-103771625D01*
X154080554Y-103778698D01*
X154090407Y-103854999D01*
X154111695Y-103899598D01*
X154169083Y-103947197D01*
X154221238Y-103969574D01*
X154174344Y-104232257D01*
X154101712Y-104206108D01*
X154032044Y-104167165D01*
X153975127Y-104118137D01*
X153944267Y-104079849D01*
X153908138Y-104010562D01*
X153885950Y-103935056D01*
X153874200Y-103858245D01*
X153869820Y-103784425D01*
X153869528Y-103758182D01*
X153871737Y-103678142D01*
X153879671Y-103598303D01*
X153895495Y-103523319D01*
X153915690Y-103469853D01*
X153953815Y-103406621D01*
X154007150Y-103352905D01*
X154032927Y-103336496D01*
X154102702Y-103312832D01*
X154177010Y-103302251D01*
X154258875Y-103298003D01*
X154293412Y-103297662D01*
X154633398Y-103300959D01*
X154708978Y-103299858D01*
X154784981Y-103295521D01*
X154847355Y-103287037D01*
X154918704Y-103267070D01*
X154990086Y-103237371D01*
X154995000Y-103235013D01*
X154995000Y-103521144D01*
G37*
G36*
X154517409Y-101965153D02*
G01*
X154595891Y-101974921D01*
X154668077Y-101991200D01*
X154746387Y-102019330D01*
X154815630Y-102056836D01*
X154866406Y-102095254D01*
X154918076Y-102147272D01*
X154964846Y-102213039D01*
X154997066Y-102284275D01*
X155014735Y-102360981D01*
X155018447Y-102419120D01*
X155010828Y-102494901D01*
X154987973Y-102569835D01*
X154972285Y-102604134D01*
X154931223Y-102668998D01*
X154877282Y-102726752D01*
X154834166Y-102761304D01*
X154995000Y-102761304D01*
X154995000Y-103030216D01*
X153470924Y-103030216D01*
X153470924Y-102740788D01*
X154021936Y-102740788D01*
X153970141Y-102688779D01*
X153923258Y-102623738D01*
X153890961Y-102554000D01*
X153878307Y-102500819D01*
X154080554Y-102500819D01*
X154092507Y-102573961D01*
X154132432Y-102642151D01*
X154165551Y-102674110D01*
X154234167Y-102713324D01*
X154305828Y-102733300D01*
X154381253Y-102741910D01*
X154423105Y-102742986D01*
X154496568Y-102740427D01*
X154569663Y-102731233D01*
X154644739Y-102710339D01*
X154686521Y-102689497D01*
X154744964Y-102643161D01*
X154787468Y-102582568D01*
X154806949Y-102504841D01*
X154807421Y-102489462D01*
X154793272Y-102416189D01*
X154750826Y-102352347D01*
X154721692Y-102326064D01*
X154650856Y-102287684D01*
X154575575Y-102268132D01*
X154495571Y-102259706D01*
X154450949Y-102258653D01*
X154370278Y-102261913D01*
X154290920Y-102273626D01*
X154218010Y-102296984D01*
X154167749Y-102326796D01*
X154114615Y-102383039D01*
X154084727Y-102456178D01*
X154080554Y-102500819D01*
X153878307Y-102500819D01*
X153873249Y-102479562D01*
X153869528Y-102423517D01*
X153876488Y-102339315D01*
X153897368Y-102261740D01*
X153932167Y-102190791D01*
X153980886Y-102126470D01*
X154014975Y-102092690D01*
X154073974Y-102048241D01*
X154141886Y-102012988D01*
X154218711Y-101986932D01*
X154304449Y-101970072D01*
X154382705Y-101963047D01*
X154432630Y-101961898D01*
X154517409Y-101965153D01*
G37*
G36*
X154995000Y-101735851D02*
G01*
X154713632Y-101735851D01*
X154713632Y-101446057D01*
X154995000Y-101446057D01*
X154995000Y-101735851D01*
G37*
G36*
X154995000Y-100157187D02*
G01*
X154995000Y-100446615D01*
X154426036Y-100446615D01*
X154343695Y-100447783D01*
X154270112Y-100451888D01*
X154195740Y-100464150D01*
X154192295Y-100465300D01*
X154128234Y-100503745D01*
X154109863Y-100525383D01*
X154082873Y-100594127D01*
X154080554Y-100625767D01*
X154092445Y-100701509D01*
X154122686Y-100760956D01*
X154174920Y-100813859D01*
X154234061Y-100843021D01*
X154309730Y-100857254D01*
X154384856Y-100862856D01*
X154467253Y-100864917D01*
X154490150Y-100865003D01*
X154995000Y-100865003D01*
X154995000Y-101154431D01*
X153892976Y-101154431D01*
X153892976Y-100885519D01*
X154053810Y-100885519D01*
X153991183Y-100829199D01*
X153941513Y-100767676D01*
X153904801Y-100700949D01*
X153881046Y-100629019D01*
X153870248Y-100551885D01*
X153869528Y-100525017D01*
X153875273Y-100449809D01*
X153894306Y-100375036D01*
X153904333Y-100349895D01*
X153941148Y-100283896D01*
X153992993Y-100229727D01*
X154058218Y-100191860D01*
X154115359Y-100173307D01*
X154192285Y-100161737D01*
X154272604Y-100157581D01*
X154310997Y-100157187D01*
X154995000Y-100157187D01*
G37*
G36*
X154526053Y-98932431D02*
G01*
X154526053Y-99657833D01*
X154603605Y-99649740D01*
X154675523Y-99626374D01*
X154733415Y-99587857D01*
X154781331Y-99527942D01*
X154804819Y-99457142D01*
X154807421Y-99420795D01*
X154795668Y-99347930D01*
X154774082Y-99306856D01*
X154716523Y-99257568D01*
X154666737Y-99236514D01*
X154713632Y-98947819D01*
X154783745Y-98979692D01*
X154852002Y-99025185D01*
X154909016Y-99080878D01*
X154940778Y-99123674D01*
X154978323Y-99195843D01*
X155001381Y-99268023D01*
X155014730Y-99347759D01*
X155018447Y-99423726D01*
X155013876Y-99509396D01*
X155000164Y-99587803D01*
X154977311Y-99658947D01*
X154937821Y-99734733D01*
X154885168Y-99800060D01*
X154831235Y-99846510D01*
X154761766Y-99888623D01*
X154684795Y-99920391D01*
X154612847Y-99939389D01*
X154535387Y-99950788D01*
X154452414Y-99954588D01*
X154369903Y-99951117D01*
X154293189Y-99940706D01*
X154208782Y-99919050D01*
X154132721Y-99887400D01*
X154065007Y-99845755D01*
X154024501Y-99812438D01*
X153971834Y-99756479D01*
X153930064Y-99695213D01*
X153899191Y-99628641D01*
X153879214Y-99556762D01*
X153870134Y-99479576D01*
X153869528Y-99452669D01*
X153870449Y-99435450D01*
X154080554Y-99435450D01*
X154093808Y-99511915D01*
X154133568Y-99575899D01*
X154149797Y-99591887D01*
X154214517Y-99631794D01*
X154288749Y-99650169D01*
X154338475Y-99652704D01*
X154338475Y-99220027D01*
X154265417Y-99227619D01*
X154193426Y-99251937D01*
X154146500Y-99284874D01*
X154101420Y-99344169D01*
X154081134Y-99419061D01*
X154080554Y-99435450D01*
X153870449Y-99435450D01*
X153873473Y-99378933D01*
X153888620Y-99297084D01*
X153915127Y-99222475D01*
X153952994Y-99155104D01*
X154002221Y-99094972D01*
X154031095Y-99067620D01*
X154097723Y-99019779D01*
X154176433Y-98982320D01*
X154251253Y-98959034D01*
X154334463Y-98942957D01*
X154426063Y-98934090D01*
X154505384Y-98932186D01*
X154526053Y-98932431D01*
G37*
G36*
X153892976Y-98200436D02*
G01*
X154104002Y-98200436D01*
X154104002Y-98398272D01*
X154582473Y-98398272D01*
X154661535Y-98397736D01*
X154735718Y-98394918D01*
X154752100Y-98392777D01*
X154792034Y-98366765D01*
X154807421Y-98318039D01*
X154794261Y-98245656D01*
X154779577Y-98201535D01*
X154980345Y-98176622D01*
X155002038Y-98249257D01*
X155014726Y-98328125D01*
X155018447Y-98405233D01*
X155011669Y-98479788D01*
X154991336Y-98546650D01*
X154951293Y-98612080D01*
X154921360Y-98638974D01*
X154852005Y-98669711D01*
X154805223Y-98679640D01*
X154726729Y-98686509D01*
X154650787Y-98688477D01*
X154595296Y-98688799D01*
X154104002Y-98688799D01*
X154104002Y-98821789D01*
X153892976Y-98821789D01*
X153892976Y-98688799D01*
X153681950Y-98688799D01*
X153517819Y-98398272D01*
X153892976Y-98398272D01*
X153892976Y-98200436D01*
G37*
D13*
X156954819Y-89166666D02*
X156478628Y-89499999D01*
X156954819Y-89738094D02*
X155954819Y-89738094D01*
X155954819Y-89738094D02*
X155954819Y-89357142D01*
X155954819Y-89357142D02*
X156002438Y-89261904D01*
X156002438Y-89261904D02*
X156050057Y-89214285D01*
X156050057Y-89214285D02*
X156145295Y-89166666D01*
X156145295Y-89166666D02*
X156288152Y-89166666D01*
X156288152Y-89166666D02*
X156383390Y-89214285D01*
X156383390Y-89214285D02*
X156431009Y-89261904D01*
X156431009Y-89261904D02*
X156478628Y-89357142D01*
X156478628Y-89357142D02*
X156478628Y-89738094D01*
X156288152Y-88309523D02*
X156954819Y-88309523D01*
X155907200Y-88547618D02*
X156621485Y-88785713D01*
X156621485Y-88785713D02*
X156621485Y-88166666D01*
X156954819Y-92666666D02*
X156478628Y-92999999D01*
X156954819Y-93238094D02*
X155954819Y-93238094D01*
X155954819Y-93238094D02*
X155954819Y-92857142D01*
X155954819Y-92857142D02*
X156002438Y-92761904D01*
X156002438Y-92761904D02*
X156050057Y-92714285D01*
X156050057Y-92714285D02*
X156145295Y-92666666D01*
X156145295Y-92666666D02*
X156288152Y-92666666D01*
X156288152Y-92666666D02*
X156383390Y-92714285D01*
X156383390Y-92714285D02*
X156431009Y-92761904D01*
X156431009Y-92761904D02*
X156478628Y-92857142D01*
X156478628Y-92857142D02*
X156478628Y-93238094D01*
X155954819Y-92333332D02*
X155954819Y-91714285D01*
X155954819Y-91714285D02*
X156335771Y-92047618D01*
X156335771Y-92047618D02*
X156335771Y-91904761D01*
X156335771Y-91904761D02*
X156383390Y-91809523D01*
X156383390Y-91809523D02*
X156431009Y-91761904D01*
X156431009Y-91761904D02*
X156526247Y-91714285D01*
X156526247Y-91714285D02*
X156764342Y-91714285D01*
X156764342Y-91714285D02*
X156859580Y-91761904D01*
X156859580Y-91761904D02*
X156907200Y-91809523D01*
X156907200Y-91809523D02*
X156954819Y-91904761D01*
X156954819Y-91904761D02*
X156954819Y-92190475D01*
X156954819Y-92190475D02*
X156907200Y-92285713D01*
X156907200Y-92285713D02*
X156859580Y-92333332D01*
X148416666Y-91204819D02*
X148416666Y-91919104D01*
X148416666Y-91919104D02*
X148369047Y-92061961D01*
X148369047Y-92061961D02*
X148273809Y-92157200D01*
X148273809Y-92157200D02*
X148130952Y-92204819D01*
X148130952Y-92204819D02*
X148035714Y-92204819D01*
X149321428Y-91538152D02*
X149321428Y-92204819D01*
X149083333Y-91157200D02*
X148845238Y-91871485D01*
X148845238Y-91871485D02*
X149464285Y-91871485D01*
X151083333Y-87859580D02*
X151035714Y-87907200D01*
X151035714Y-87907200D02*
X150892857Y-87954819D01*
X150892857Y-87954819D02*
X150797619Y-87954819D01*
X150797619Y-87954819D02*
X150654762Y-87907200D01*
X150654762Y-87907200D02*
X150559524Y-87811961D01*
X150559524Y-87811961D02*
X150511905Y-87716723D01*
X150511905Y-87716723D02*
X150464286Y-87526247D01*
X150464286Y-87526247D02*
X150464286Y-87383390D01*
X150464286Y-87383390D02*
X150511905Y-87192914D01*
X150511905Y-87192914D02*
X150559524Y-87097676D01*
X150559524Y-87097676D02*
X150654762Y-87002438D01*
X150654762Y-87002438D02*
X150797619Y-86954819D01*
X150797619Y-86954819D02*
X150892857Y-86954819D01*
X150892857Y-86954819D02*
X151035714Y-87002438D01*
X151035714Y-87002438D02*
X151083333Y-87050057D01*
X151940476Y-86954819D02*
X151750000Y-86954819D01*
X151750000Y-86954819D02*
X151654762Y-87002438D01*
X151654762Y-87002438D02*
X151607143Y-87050057D01*
X151607143Y-87050057D02*
X151511905Y-87192914D01*
X151511905Y-87192914D02*
X151464286Y-87383390D01*
X151464286Y-87383390D02*
X151464286Y-87764342D01*
X151464286Y-87764342D02*
X151511905Y-87859580D01*
X151511905Y-87859580D02*
X151559524Y-87907200D01*
X151559524Y-87907200D02*
X151654762Y-87954819D01*
X151654762Y-87954819D02*
X151845238Y-87954819D01*
X151845238Y-87954819D02*
X151940476Y-87907200D01*
X151940476Y-87907200D02*
X151988095Y-87859580D01*
X151988095Y-87859580D02*
X152035714Y-87764342D01*
X152035714Y-87764342D02*
X152035714Y-87526247D01*
X152035714Y-87526247D02*
X151988095Y-87431009D01*
X151988095Y-87431009D02*
X151940476Y-87383390D01*
X151940476Y-87383390D02*
X151845238Y-87335771D01*
X151845238Y-87335771D02*
X151654762Y-87335771D01*
X151654762Y-87335771D02*
X151559524Y-87383390D01*
X151559524Y-87383390D02*
X151511905Y-87431009D01*
X151511905Y-87431009D02*
X151464286Y-87526247D01*
X145666666Y-101204819D02*
X145666666Y-101919104D01*
X145666666Y-101919104D02*
X145619047Y-102061961D01*
X145619047Y-102061961D02*
X145523809Y-102157200D01*
X145523809Y-102157200D02*
X145380952Y-102204819D01*
X145380952Y-102204819D02*
X145285714Y-102204819D01*
X146095238Y-101300057D02*
X146142857Y-101252438D01*
X146142857Y-101252438D02*
X146238095Y-101204819D01*
X146238095Y-101204819D02*
X146476190Y-101204819D01*
X146476190Y-101204819D02*
X146571428Y-101252438D01*
X146571428Y-101252438D02*
X146619047Y-101300057D01*
X146619047Y-101300057D02*
X146666666Y-101395295D01*
X146666666Y-101395295D02*
X146666666Y-101490533D01*
X146666666Y-101490533D02*
X146619047Y-101633390D01*
X146619047Y-101633390D02*
X146047619Y-102204819D01*
X146047619Y-102204819D02*
X146666666Y-102204819D01*
X134333333Y-108859580D02*
X134285714Y-108907200D01*
X134285714Y-108907200D02*
X134142857Y-108954819D01*
X134142857Y-108954819D02*
X134047619Y-108954819D01*
X134047619Y-108954819D02*
X133904762Y-108907200D01*
X133904762Y-108907200D02*
X133809524Y-108811961D01*
X133809524Y-108811961D02*
X133761905Y-108716723D01*
X133761905Y-108716723D02*
X133714286Y-108526247D01*
X133714286Y-108526247D02*
X133714286Y-108383390D01*
X133714286Y-108383390D02*
X133761905Y-108192914D01*
X133761905Y-108192914D02*
X133809524Y-108097676D01*
X133809524Y-108097676D02*
X133904762Y-108002438D01*
X133904762Y-108002438D02*
X134047619Y-107954819D01*
X134047619Y-107954819D02*
X134142857Y-107954819D01*
X134142857Y-107954819D02*
X134285714Y-108002438D01*
X134285714Y-108002438D02*
X134333333Y-108050057D01*
X134666667Y-107954819D02*
X135285714Y-107954819D01*
X135285714Y-107954819D02*
X134952381Y-108335771D01*
X134952381Y-108335771D02*
X135095238Y-108335771D01*
X135095238Y-108335771D02*
X135190476Y-108383390D01*
X135190476Y-108383390D02*
X135238095Y-108431009D01*
X135238095Y-108431009D02*
X135285714Y-108526247D01*
X135285714Y-108526247D02*
X135285714Y-108764342D01*
X135285714Y-108764342D02*
X135238095Y-108859580D01*
X135238095Y-108859580D02*
X135190476Y-108907200D01*
X135190476Y-108907200D02*
X135095238Y-108954819D01*
X135095238Y-108954819D02*
X134809524Y-108954819D01*
X134809524Y-108954819D02*
X134714286Y-108907200D01*
X134714286Y-108907200D02*
X134666667Y-108859580D01*
X130083333Y-102609580D02*
X130035714Y-102657200D01*
X130035714Y-102657200D02*
X129892857Y-102704819D01*
X129892857Y-102704819D02*
X129797619Y-102704819D01*
X129797619Y-102704819D02*
X129654762Y-102657200D01*
X129654762Y-102657200D02*
X129559524Y-102561961D01*
X129559524Y-102561961D02*
X129511905Y-102466723D01*
X129511905Y-102466723D02*
X129464286Y-102276247D01*
X129464286Y-102276247D02*
X129464286Y-102133390D01*
X129464286Y-102133390D02*
X129511905Y-101942914D01*
X129511905Y-101942914D02*
X129559524Y-101847676D01*
X129559524Y-101847676D02*
X129654762Y-101752438D01*
X129654762Y-101752438D02*
X129797619Y-101704819D01*
X129797619Y-101704819D02*
X129892857Y-101704819D01*
X129892857Y-101704819D02*
X130035714Y-101752438D01*
X130035714Y-101752438D02*
X130083333Y-101800057D01*
X131035714Y-102704819D02*
X130464286Y-102704819D01*
X130750000Y-102704819D02*
X130750000Y-101704819D01*
X130750000Y-101704819D02*
X130654762Y-101847676D01*
X130654762Y-101847676D02*
X130559524Y-101942914D01*
X130559524Y-101942914D02*
X130464286Y-101990533D01*
D14*
X136542756Y-76354795D02*
X136542756Y-77074462D01*
X136542756Y-77074462D02*
X136585090Y-77159128D01*
X136585090Y-77159128D02*
X136627423Y-77201462D01*
X136627423Y-77201462D02*
X136712090Y-77243795D01*
X136712090Y-77243795D02*
X136881423Y-77243795D01*
X136881423Y-77243795D02*
X136966090Y-77201462D01*
X136966090Y-77201462D02*
X137008423Y-77159128D01*
X137008423Y-77159128D02*
X137050756Y-77074462D01*
X137050756Y-77074462D02*
X137050756Y-76354795D01*
X137939756Y-77243795D02*
X137431756Y-77243795D01*
X137685756Y-77243795D02*
X137685756Y-76354795D01*
X137685756Y-76354795D02*
X137601089Y-76481795D01*
X137601089Y-76481795D02*
X137516423Y-76566462D01*
X137516423Y-76566462D02*
X137431756Y-76608795D01*
D15*
X130331430Y-99749021D02*
X130418516Y-99778049D01*
X130418516Y-99778049D02*
X130563658Y-99778049D01*
X130563658Y-99778049D02*
X130621716Y-99749021D01*
X130621716Y-99749021D02*
X130650744Y-99719992D01*
X130650744Y-99719992D02*
X130679773Y-99661935D01*
X130679773Y-99661935D02*
X130679773Y-99603878D01*
X130679773Y-99603878D02*
X130650744Y-99545821D01*
X130650744Y-99545821D02*
X130621716Y-99516792D01*
X130621716Y-99516792D02*
X130563658Y-99487763D01*
X130563658Y-99487763D02*
X130447544Y-99458735D01*
X130447544Y-99458735D02*
X130389487Y-99429706D01*
X130389487Y-99429706D02*
X130360458Y-99400678D01*
X130360458Y-99400678D02*
X130331430Y-99342621D01*
X130331430Y-99342621D02*
X130331430Y-99284563D01*
X130331430Y-99284563D02*
X130360458Y-99226506D01*
X130360458Y-99226506D02*
X130389487Y-99197478D01*
X130389487Y-99197478D02*
X130447544Y-99168449D01*
X130447544Y-99168449D02*
X130592687Y-99168449D01*
X130592687Y-99168449D02*
X130679773Y-99197478D01*
X131173258Y-99749021D02*
X131115201Y-99778049D01*
X131115201Y-99778049D02*
X130999087Y-99778049D01*
X130999087Y-99778049D02*
X130941029Y-99749021D01*
X130941029Y-99749021D02*
X130912001Y-99690963D01*
X130912001Y-99690963D02*
X130912001Y-99458735D01*
X130912001Y-99458735D02*
X130941029Y-99400678D01*
X130941029Y-99400678D02*
X130999087Y-99371649D01*
X130999087Y-99371649D02*
X131115201Y-99371649D01*
X131115201Y-99371649D02*
X131173258Y-99400678D01*
X131173258Y-99400678D02*
X131202287Y-99458735D01*
X131202287Y-99458735D02*
X131202287Y-99516792D01*
X131202287Y-99516792D02*
X130912001Y-99574849D01*
X131695772Y-99749021D02*
X131637715Y-99778049D01*
X131637715Y-99778049D02*
X131521601Y-99778049D01*
X131521601Y-99778049D02*
X131463543Y-99749021D01*
X131463543Y-99749021D02*
X131434515Y-99690963D01*
X131434515Y-99690963D02*
X131434515Y-99458735D01*
X131434515Y-99458735D02*
X131463543Y-99400678D01*
X131463543Y-99400678D02*
X131521601Y-99371649D01*
X131521601Y-99371649D02*
X131637715Y-99371649D01*
X131637715Y-99371649D02*
X131695772Y-99400678D01*
X131695772Y-99400678D02*
X131724801Y-99458735D01*
X131724801Y-99458735D02*
X131724801Y-99516792D01*
X131724801Y-99516792D02*
X131434515Y-99574849D01*
X132218286Y-99749021D02*
X132160229Y-99778049D01*
X132160229Y-99778049D02*
X132044115Y-99778049D01*
X132044115Y-99778049D02*
X131986057Y-99749021D01*
X131986057Y-99749021D02*
X131957029Y-99690963D01*
X131957029Y-99690963D02*
X131957029Y-99458735D01*
X131957029Y-99458735D02*
X131986057Y-99400678D01*
X131986057Y-99400678D02*
X132044115Y-99371649D01*
X132044115Y-99371649D02*
X132160229Y-99371649D01*
X132160229Y-99371649D02*
X132218286Y-99400678D01*
X132218286Y-99400678D02*
X132247315Y-99458735D01*
X132247315Y-99458735D02*
X132247315Y-99516792D01*
X132247315Y-99516792D02*
X131957029Y-99574849D01*
X132769829Y-99778049D02*
X132769829Y-99168449D01*
X132769829Y-99749021D02*
X132711771Y-99778049D01*
X132711771Y-99778049D02*
X132595657Y-99778049D01*
X132595657Y-99778049D02*
X132537600Y-99749021D01*
X132537600Y-99749021D02*
X132508571Y-99719992D01*
X132508571Y-99719992D02*
X132479543Y-99661935D01*
X132479543Y-99661935D02*
X132479543Y-99487763D01*
X132479543Y-99487763D02*
X132508571Y-99429706D01*
X132508571Y-99429706D02*
X132537600Y-99400678D01*
X132537600Y-99400678D02*
X132595657Y-99371649D01*
X132595657Y-99371649D02*
X132711771Y-99371649D01*
X132711771Y-99371649D02*
X132769829Y-99400678D01*
X133495543Y-99749021D02*
X133582629Y-99778049D01*
X133582629Y-99778049D02*
X133727771Y-99778049D01*
X133727771Y-99778049D02*
X133785829Y-99749021D01*
X133785829Y-99749021D02*
X133814857Y-99719992D01*
X133814857Y-99719992D02*
X133843886Y-99661935D01*
X133843886Y-99661935D02*
X133843886Y-99603878D01*
X133843886Y-99603878D02*
X133814857Y-99545821D01*
X133814857Y-99545821D02*
X133785829Y-99516792D01*
X133785829Y-99516792D02*
X133727771Y-99487763D01*
X133727771Y-99487763D02*
X133611657Y-99458735D01*
X133611657Y-99458735D02*
X133553600Y-99429706D01*
X133553600Y-99429706D02*
X133524571Y-99400678D01*
X133524571Y-99400678D02*
X133495543Y-99342621D01*
X133495543Y-99342621D02*
X133495543Y-99284563D01*
X133495543Y-99284563D02*
X133524571Y-99226506D01*
X133524571Y-99226506D02*
X133553600Y-99197478D01*
X133553600Y-99197478D02*
X133611657Y-99168449D01*
X133611657Y-99168449D02*
X133756800Y-99168449D01*
X133756800Y-99168449D02*
X133843886Y-99197478D01*
X134018057Y-99371649D02*
X134250285Y-99371649D01*
X134105142Y-99168449D02*
X134105142Y-99690963D01*
X134105142Y-99690963D02*
X134134171Y-99749021D01*
X134134171Y-99749021D02*
X134192228Y-99778049D01*
X134192228Y-99778049D02*
X134250285Y-99778049D01*
X134714743Y-99371649D02*
X134714743Y-99778049D01*
X134453485Y-99371649D02*
X134453485Y-99690963D01*
X134453485Y-99690963D02*
X134482514Y-99749021D01*
X134482514Y-99749021D02*
X134540571Y-99778049D01*
X134540571Y-99778049D02*
X134627657Y-99778049D01*
X134627657Y-99778049D02*
X134685714Y-99749021D01*
X134685714Y-99749021D02*
X134714743Y-99719992D01*
X135266286Y-99778049D02*
X135266286Y-99168449D01*
X135266286Y-99749021D02*
X135208228Y-99778049D01*
X135208228Y-99778049D02*
X135092114Y-99778049D01*
X135092114Y-99778049D02*
X135034057Y-99749021D01*
X135034057Y-99749021D02*
X135005028Y-99719992D01*
X135005028Y-99719992D02*
X134976000Y-99661935D01*
X134976000Y-99661935D02*
X134976000Y-99487763D01*
X134976000Y-99487763D02*
X135005028Y-99429706D01*
X135005028Y-99429706D02*
X135034057Y-99400678D01*
X135034057Y-99400678D02*
X135092114Y-99371649D01*
X135092114Y-99371649D02*
X135208228Y-99371649D01*
X135208228Y-99371649D02*
X135266286Y-99400678D01*
X135556571Y-99778049D02*
X135556571Y-99371649D01*
X135556571Y-99168449D02*
X135527543Y-99197478D01*
X135527543Y-99197478D02*
X135556571Y-99226506D01*
X135556571Y-99226506D02*
X135585600Y-99197478D01*
X135585600Y-99197478D02*
X135556571Y-99168449D01*
X135556571Y-99168449D02*
X135556571Y-99226506D01*
X135933943Y-99778049D02*
X135875886Y-99749021D01*
X135875886Y-99749021D02*
X135846857Y-99719992D01*
X135846857Y-99719992D02*
X135817829Y-99661935D01*
X135817829Y-99661935D02*
X135817829Y-99487763D01*
X135817829Y-99487763D02*
X135846857Y-99429706D01*
X135846857Y-99429706D02*
X135875886Y-99400678D01*
X135875886Y-99400678D02*
X135933943Y-99371649D01*
X135933943Y-99371649D02*
X136021029Y-99371649D01*
X136021029Y-99371649D02*
X136079086Y-99400678D01*
X136079086Y-99400678D02*
X136108115Y-99429706D01*
X136108115Y-99429706D02*
X136137143Y-99487763D01*
X136137143Y-99487763D02*
X136137143Y-99661935D01*
X136137143Y-99661935D02*
X136108115Y-99719992D01*
X136108115Y-99719992D02*
X136079086Y-99749021D01*
X136079086Y-99749021D02*
X136021029Y-99778049D01*
X136021029Y-99778049D02*
X135933943Y-99778049D01*
X136804800Y-99168449D02*
X137211200Y-99778049D01*
X137211200Y-99168449D02*
X136804800Y-99778049D01*
X137443428Y-99778049D02*
X137443428Y-99168449D01*
X137704686Y-99603878D02*
X137994972Y-99603878D01*
X137646629Y-99778049D02*
X137849829Y-99168449D01*
X137849829Y-99168449D02*
X138053029Y-99778049D01*
X138372343Y-99168449D02*
X138488457Y-99168449D01*
X138488457Y-99168449D02*
X138546514Y-99197478D01*
X138546514Y-99197478D02*
X138604571Y-99255535D01*
X138604571Y-99255535D02*
X138633600Y-99371649D01*
X138633600Y-99371649D02*
X138633600Y-99574849D01*
X138633600Y-99574849D02*
X138604571Y-99690963D01*
X138604571Y-99690963D02*
X138546514Y-99749021D01*
X138546514Y-99749021D02*
X138488457Y-99778049D01*
X138488457Y-99778049D02*
X138372343Y-99778049D01*
X138372343Y-99778049D02*
X138314286Y-99749021D01*
X138314286Y-99749021D02*
X138256228Y-99690963D01*
X138256228Y-99690963D02*
X138227200Y-99574849D01*
X138227200Y-99574849D02*
X138227200Y-99371649D01*
X138227200Y-99371649D02*
X138256228Y-99255535D01*
X138256228Y-99255535D02*
X138314286Y-99197478D01*
X138314286Y-99197478D02*
X138372343Y-99168449D01*
X139330286Y-99749021D02*
X139417372Y-99778049D01*
X139417372Y-99778049D02*
X139562514Y-99778049D01*
X139562514Y-99778049D02*
X139620572Y-99749021D01*
X139620572Y-99749021D02*
X139649600Y-99719992D01*
X139649600Y-99719992D02*
X139678629Y-99661935D01*
X139678629Y-99661935D02*
X139678629Y-99603878D01*
X139678629Y-99603878D02*
X139649600Y-99545821D01*
X139649600Y-99545821D02*
X139620572Y-99516792D01*
X139620572Y-99516792D02*
X139562514Y-99487763D01*
X139562514Y-99487763D02*
X139446400Y-99458735D01*
X139446400Y-99458735D02*
X139388343Y-99429706D01*
X139388343Y-99429706D02*
X139359314Y-99400678D01*
X139359314Y-99400678D02*
X139330286Y-99342621D01*
X139330286Y-99342621D02*
X139330286Y-99284563D01*
X139330286Y-99284563D02*
X139359314Y-99226506D01*
X139359314Y-99226506D02*
X139388343Y-99197478D01*
X139388343Y-99197478D02*
X139446400Y-99168449D01*
X139446400Y-99168449D02*
X139591543Y-99168449D01*
X139591543Y-99168449D02*
X139678629Y-99197478D01*
X139910857Y-99603878D02*
X140201143Y-99603878D01*
X139852800Y-99778049D02*
X140056000Y-99168449D01*
X140056000Y-99168449D02*
X140259200Y-99778049D01*
X140462399Y-99778049D02*
X140462399Y-99168449D01*
X140462399Y-99168449D02*
X140665599Y-99603878D01*
X140665599Y-99603878D02*
X140868799Y-99168449D01*
X140868799Y-99168449D02*
X140868799Y-99778049D01*
X141159085Y-99778049D02*
X141159085Y-99168449D01*
X141159085Y-99168449D02*
X141304228Y-99168449D01*
X141304228Y-99168449D02*
X141391314Y-99197478D01*
X141391314Y-99197478D02*
X141449371Y-99255535D01*
X141449371Y-99255535D02*
X141478400Y-99313592D01*
X141478400Y-99313592D02*
X141507428Y-99429706D01*
X141507428Y-99429706D02*
X141507428Y-99516792D01*
X141507428Y-99516792D02*
X141478400Y-99632906D01*
X141478400Y-99632906D02*
X141449371Y-99690963D01*
X141449371Y-99690963D02*
X141391314Y-99749021D01*
X141391314Y-99749021D02*
X141304228Y-99778049D01*
X141304228Y-99778049D02*
X141159085Y-99778049D01*
X141739657Y-99226506D02*
X141768685Y-99197478D01*
X141768685Y-99197478D02*
X141826743Y-99168449D01*
X141826743Y-99168449D02*
X141971885Y-99168449D01*
X141971885Y-99168449D02*
X142029943Y-99197478D01*
X142029943Y-99197478D02*
X142058971Y-99226506D01*
X142058971Y-99226506D02*
X142088000Y-99284563D01*
X142088000Y-99284563D02*
X142088000Y-99342621D01*
X142088000Y-99342621D02*
X142058971Y-99429706D01*
X142058971Y-99429706D02*
X141710628Y-99778049D01*
X141710628Y-99778049D02*
X142088000Y-99778049D01*
X142668571Y-99778049D02*
X142320228Y-99778049D01*
X142494399Y-99778049D02*
X142494399Y-99168449D01*
X142494399Y-99168449D02*
X142436342Y-99255535D01*
X142436342Y-99255535D02*
X142378285Y-99313592D01*
X142378285Y-99313592D02*
X142320228Y-99342621D01*
D13*
X156954819Y-115416666D02*
X156478628Y-115749999D01*
X156954819Y-115988094D02*
X155954819Y-115988094D01*
X155954819Y-115988094D02*
X155954819Y-115607142D01*
X155954819Y-115607142D02*
X156002438Y-115511904D01*
X156002438Y-115511904D02*
X156050057Y-115464285D01*
X156050057Y-115464285D02*
X156145295Y-115416666D01*
X156145295Y-115416666D02*
X156288152Y-115416666D01*
X156288152Y-115416666D02*
X156383390Y-115464285D01*
X156383390Y-115464285D02*
X156431009Y-115511904D01*
X156431009Y-115511904D02*
X156478628Y-115607142D01*
X156478628Y-115607142D02*
X156478628Y-115988094D01*
X156050057Y-115035713D02*
X156002438Y-114988094D01*
X156002438Y-114988094D02*
X155954819Y-114892856D01*
X155954819Y-114892856D02*
X155954819Y-114654761D01*
X155954819Y-114654761D02*
X156002438Y-114559523D01*
X156002438Y-114559523D02*
X156050057Y-114511904D01*
X156050057Y-114511904D02*
X156145295Y-114464285D01*
X156145295Y-114464285D02*
X156240533Y-114464285D01*
X156240533Y-114464285D02*
X156383390Y-114511904D01*
X156383390Y-114511904D02*
X156954819Y-115083332D01*
X156954819Y-115083332D02*
X156954819Y-114464285D01*
X145583333Y-110609580D02*
X145535714Y-110657200D01*
X145535714Y-110657200D02*
X145392857Y-110704819D01*
X145392857Y-110704819D02*
X145297619Y-110704819D01*
X145297619Y-110704819D02*
X145154762Y-110657200D01*
X145154762Y-110657200D02*
X145059524Y-110561961D01*
X145059524Y-110561961D02*
X145011905Y-110466723D01*
X145011905Y-110466723D02*
X144964286Y-110276247D01*
X144964286Y-110276247D02*
X144964286Y-110133390D01*
X144964286Y-110133390D02*
X145011905Y-109942914D01*
X145011905Y-109942914D02*
X145059524Y-109847676D01*
X145059524Y-109847676D02*
X145154762Y-109752438D01*
X145154762Y-109752438D02*
X145297619Y-109704819D01*
X145297619Y-109704819D02*
X145392857Y-109704819D01*
X145392857Y-109704819D02*
X145535714Y-109752438D01*
X145535714Y-109752438D02*
X145583333Y-109800057D01*
X145964286Y-109800057D02*
X146011905Y-109752438D01*
X146011905Y-109752438D02*
X146107143Y-109704819D01*
X146107143Y-109704819D02*
X146345238Y-109704819D01*
X146345238Y-109704819D02*
X146440476Y-109752438D01*
X146440476Y-109752438D02*
X146488095Y-109800057D01*
X146488095Y-109800057D02*
X146535714Y-109895295D01*
X146535714Y-109895295D02*
X146535714Y-109990533D01*
X146535714Y-109990533D02*
X146488095Y-110133390D01*
X146488095Y-110133390D02*
X145916667Y-110704819D01*
X145916667Y-110704819D02*
X146535714Y-110704819D01*
X145488095Y-117204819D02*
X145488095Y-118014342D01*
X145488095Y-118014342D02*
X145535714Y-118109580D01*
X145535714Y-118109580D02*
X145583333Y-118157200D01*
X145583333Y-118157200D02*
X145678571Y-118204819D01*
X145678571Y-118204819D02*
X145869047Y-118204819D01*
X145869047Y-118204819D02*
X145964285Y-118157200D01*
X145964285Y-118157200D02*
X146011904Y-118109580D01*
X146011904Y-118109580D02*
X146059523Y-118014342D01*
X146059523Y-118014342D02*
X146059523Y-117204819D01*
X146964285Y-117538152D02*
X146964285Y-118204819D01*
X146726190Y-117157200D02*
X146488095Y-117871485D01*
X146488095Y-117871485D02*
X147107142Y-117871485D01*
X148880952Y-105204819D02*
X148880952Y-104204819D01*
X148880952Y-104204819D02*
X149119047Y-104204819D01*
X149119047Y-104204819D02*
X149261904Y-104252438D01*
X149261904Y-104252438D02*
X149357142Y-104347676D01*
X149357142Y-104347676D02*
X149404761Y-104442914D01*
X149404761Y-104442914D02*
X149452380Y-104633390D01*
X149452380Y-104633390D02*
X149452380Y-104776247D01*
X149452380Y-104776247D02*
X149404761Y-104966723D01*
X149404761Y-104966723D02*
X149357142Y-105061961D01*
X149357142Y-105061961D02*
X149261904Y-105157200D01*
X149261904Y-105157200D02*
X149119047Y-105204819D01*
X149119047Y-105204819D02*
X148880952Y-105204819D01*
X149880952Y-105204819D02*
X149880952Y-104204819D01*
X149880952Y-104681009D02*
X150452380Y-104681009D01*
X150452380Y-105204819D02*
X150452380Y-104204819D01*
X150785714Y-104204819D02*
X151357142Y-104204819D01*
X151071428Y-105204819D02*
X151071428Y-104204819D01*
X152214285Y-105204819D02*
X151642857Y-105204819D01*
X151928571Y-105204819D02*
X151928571Y-104204819D01*
X151928571Y-104204819D02*
X151833333Y-104347676D01*
X151833333Y-104347676D02*
X151738095Y-104442914D01*
X151738095Y-104442914D02*
X151642857Y-104490533D01*
X153166666Y-105204819D02*
X152595238Y-105204819D01*
X152880952Y-105204819D02*
X152880952Y-104204819D01*
X152880952Y-104204819D02*
X152785714Y-104347676D01*
X152785714Y-104347676D02*
X152690476Y-104442914D01*
X152690476Y-104442914D02*
X152595238Y-104490533D01*
X132833333Y-102204819D02*
X132500000Y-101728628D01*
X132261905Y-102204819D02*
X132261905Y-101204819D01*
X132261905Y-101204819D02*
X132642857Y-101204819D01*
X132642857Y-101204819D02*
X132738095Y-101252438D01*
X132738095Y-101252438D02*
X132785714Y-101300057D01*
X132785714Y-101300057D02*
X132833333Y-101395295D01*
X132833333Y-101395295D02*
X132833333Y-101538152D01*
X132833333Y-101538152D02*
X132785714Y-101633390D01*
X132785714Y-101633390D02*
X132738095Y-101681009D01*
X132738095Y-101681009D02*
X132642857Y-101728628D01*
X132642857Y-101728628D02*
X132261905Y-101728628D01*
X133785714Y-102204819D02*
X133214286Y-102204819D01*
X133500000Y-102204819D02*
X133500000Y-101204819D01*
X133500000Y-101204819D02*
X133404762Y-101347676D01*
X133404762Y-101347676D02*
X133309524Y-101442914D01*
X133309524Y-101442914D02*
X133214286Y-101490533D01*
X141738095Y-100704819D02*
X141738095Y-101514342D01*
X141738095Y-101514342D02*
X141785714Y-101609580D01*
X141785714Y-101609580D02*
X141833333Y-101657200D01*
X141833333Y-101657200D02*
X141928571Y-101704819D01*
X141928571Y-101704819D02*
X142119047Y-101704819D01*
X142119047Y-101704819D02*
X142214285Y-101657200D01*
X142214285Y-101657200D02*
X142261904Y-101609580D01*
X142261904Y-101609580D02*
X142309523Y-101514342D01*
X142309523Y-101514342D02*
X142309523Y-100704819D01*
X142690476Y-100704819D02*
X143309523Y-100704819D01*
X143309523Y-100704819D02*
X142976190Y-101085771D01*
X142976190Y-101085771D02*
X143119047Y-101085771D01*
X143119047Y-101085771D02*
X143214285Y-101133390D01*
X143214285Y-101133390D02*
X143261904Y-101181009D01*
X143261904Y-101181009D02*
X143309523Y-101276247D01*
X143309523Y-101276247D02*
X143309523Y-101514342D01*
X143309523Y-101514342D02*
X143261904Y-101609580D01*
X143261904Y-101609580D02*
X143214285Y-101657200D01*
X143214285Y-101657200D02*
X143119047Y-101704819D01*
X143119047Y-101704819D02*
X142833333Y-101704819D01*
X142833333Y-101704819D02*
X142738095Y-101657200D01*
X142738095Y-101657200D02*
X142690476Y-101609580D01*
X136511904Y-101704819D02*
X136035714Y-101704819D01*
X136035714Y-101704819D02*
X136035714Y-100704819D01*
X136845238Y-101704819D02*
X136845238Y-100704819D01*
X136845238Y-100704819D02*
X137178571Y-101419104D01*
X137178571Y-101419104D02*
X137511904Y-100704819D01*
X137511904Y-100704819D02*
X137511904Y-101704819D01*
X137892857Y-100704819D02*
X138511904Y-100704819D01*
X138511904Y-100704819D02*
X138178571Y-101085771D01*
X138178571Y-101085771D02*
X138321428Y-101085771D01*
X138321428Y-101085771D02*
X138416666Y-101133390D01*
X138416666Y-101133390D02*
X138464285Y-101181009D01*
X138464285Y-101181009D02*
X138511904Y-101276247D01*
X138511904Y-101276247D02*
X138511904Y-101514342D01*
X138511904Y-101514342D02*
X138464285Y-101609580D01*
X138464285Y-101609580D02*
X138416666Y-101657200D01*
X138416666Y-101657200D02*
X138321428Y-101704819D01*
X138321428Y-101704819D02*
X138035714Y-101704819D01*
X138035714Y-101704819D02*
X137940476Y-101657200D01*
X137940476Y-101657200D02*
X137892857Y-101609580D01*
X139416666Y-100704819D02*
X138940476Y-100704819D01*
X138940476Y-100704819D02*
X138892857Y-101181009D01*
X138892857Y-101181009D02*
X138940476Y-101133390D01*
X138940476Y-101133390D02*
X139035714Y-101085771D01*
X139035714Y-101085771D02*
X139273809Y-101085771D01*
X139273809Y-101085771D02*
X139369047Y-101133390D01*
X139369047Y-101133390D02*
X139416666Y-101181009D01*
X139416666Y-101181009D02*
X139464285Y-101276247D01*
X139464285Y-101276247D02*
X139464285Y-101514342D01*
X139464285Y-101514342D02*
X139416666Y-101609580D01*
X139416666Y-101609580D02*
X139369047Y-101657200D01*
X139369047Y-101657200D02*
X139273809Y-101704819D01*
X139273809Y-101704819D02*
X139035714Y-101704819D01*
X139035714Y-101704819D02*
X138940476Y-101657200D01*
X138940476Y-101657200D02*
X138892857Y-101609580D01*
X139892857Y-101323866D02*
X140654762Y-101323866D01*
X141607142Y-101704819D02*
X141130952Y-101704819D01*
X141130952Y-101704819D02*
X141130952Y-100704819D01*
X141940476Y-101704819D02*
X141940476Y-100704819D01*
X141940476Y-100704819D02*
X142321428Y-100704819D01*
X142321428Y-100704819D02*
X142416666Y-100752438D01*
X142416666Y-100752438D02*
X142464285Y-100800057D01*
X142464285Y-100800057D02*
X142511904Y-100895295D01*
X142511904Y-100895295D02*
X142511904Y-101038152D01*
X142511904Y-101038152D02*
X142464285Y-101133390D01*
X142464285Y-101133390D02*
X142416666Y-101181009D01*
X142416666Y-101181009D02*
X142321428Y-101228628D01*
X142321428Y-101228628D02*
X141940476Y-101228628D01*
X148416666Y-97954819D02*
X148416666Y-98669104D01*
X148416666Y-98669104D02*
X148369047Y-98811961D01*
X148369047Y-98811961D02*
X148273809Y-98907200D01*
X148273809Y-98907200D02*
X148130952Y-98954819D01*
X148130952Y-98954819D02*
X148035714Y-98954819D01*
X148797619Y-97954819D02*
X149416666Y-97954819D01*
X149416666Y-97954819D02*
X149083333Y-98335771D01*
X149083333Y-98335771D02*
X149226190Y-98335771D01*
X149226190Y-98335771D02*
X149321428Y-98383390D01*
X149321428Y-98383390D02*
X149369047Y-98431009D01*
X149369047Y-98431009D02*
X149416666Y-98526247D01*
X149416666Y-98526247D02*
X149416666Y-98764342D01*
X149416666Y-98764342D02*
X149369047Y-98859580D01*
X149369047Y-98859580D02*
X149321428Y-98907200D01*
X149321428Y-98907200D02*
X149226190Y-98954819D01*
X149226190Y-98954819D02*
X148940476Y-98954819D01*
X148940476Y-98954819D02*
X148845238Y-98907200D01*
X148845238Y-98907200D02*
X148797619Y-98859580D01*
X135738095Y-108704819D02*
X135738095Y-109514342D01*
X135738095Y-109514342D02*
X135785714Y-109609580D01*
X135785714Y-109609580D02*
X135833333Y-109657200D01*
X135833333Y-109657200D02*
X135928571Y-109704819D01*
X135928571Y-109704819D02*
X136119047Y-109704819D01*
X136119047Y-109704819D02*
X136214285Y-109657200D01*
X136214285Y-109657200D02*
X136261904Y-109609580D01*
X136261904Y-109609580D02*
X136309523Y-109514342D01*
X136309523Y-109514342D02*
X136309523Y-108704819D01*
X136738095Y-108800057D02*
X136785714Y-108752438D01*
X136785714Y-108752438D02*
X136880952Y-108704819D01*
X136880952Y-108704819D02*
X137119047Y-108704819D01*
X137119047Y-108704819D02*
X137214285Y-108752438D01*
X137214285Y-108752438D02*
X137261904Y-108800057D01*
X137261904Y-108800057D02*
X137309523Y-108895295D01*
X137309523Y-108895295D02*
X137309523Y-108990533D01*
X137309523Y-108990533D02*
X137261904Y-109133390D01*
X137261904Y-109133390D02*
X136690476Y-109704819D01*
X136690476Y-109704819D02*
X137309523Y-109704819D01*
X129250000Y-118169104D02*
X129726190Y-118169104D01*
X129154762Y-118454819D02*
X129488095Y-117454819D01*
X129488095Y-117454819D02*
X129821428Y-118454819D01*
X130154762Y-118454819D02*
X130154762Y-117454819D01*
X130154762Y-117454819D02*
X130488095Y-118169104D01*
X130488095Y-118169104D02*
X130821428Y-117454819D01*
X130821428Y-117454819D02*
X130821428Y-118454819D01*
X131250000Y-118407200D02*
X131392857Y-118454819D01*
X131392857Y-118454819D02*
X131630952Y-118454819D01*
X131630952Y-118454819D02*
X131726190Y-118407200D01*
X131726190Y-118407200D02*
X131773809Y-118359580D01*
X131773809Y-118359580D02*
X131821428Y-118264342D01*
X131821428Y-118264342D02*
X131821428Y-118169104D01*
X131821428Y-118169104D02*
X131773809Y-118073866D01*
X131773809Y-118073866D02*
X131726190Y-118026247D01*
X131726190Y-118026247D02*
X131630952Y-117978628D01*
X131630952Y-117978628D02*
X131440476Y-117931009D01*
X131440476Y-117931009D02*
X131345238Y-117883390D01*
X131345238Y-117883390D02*
X131297619Y-117835771D01*
X131297619Y-117835771D02*
X131250000Y-117740533D01*
X131250000Y-117740533D02*
X131250000Y-117645295D01*
X131250000Y-117645295D02*
X131297619Y-117550057D01*
X131297619Y-117550057D02*
X131345238Y-117502438D01*
X131345238Y-117502438D02*
X131440476Y-117454819D01*
X131440476Y-117454819D02*
X131678571Y-117454819D01*
X131678571Y-117454819D02*
X131821428Y-117502438D01*
X132773809Y-118454819D02*
X132202381Y-118454819D01*
X132488095Y-118454819D02*
X132488095Y-117454819D01*
X132488095Y-117454819D02*
X132392857Y-117597676D01*
X132392857Y-117597676D02*
X132297619Y-117692914D01*
X132297619Y-117692914D02*
X132202381Y-117740533D01*
X133726190Y-118454819D02*
X133154762Y-118454819D01*
X133440476Y-118454819D02*
X133440476Y-117454819D01*
X133440476Y-117454819D02*
X133345238Y-117597676D01*
X133345238Y-117597676D02*
X133250000Y-117692914D01*
X133250000Y-117692914D02*
X133154762Y-117740533D01*
X134678571Y-118454819D02*
X134107143Y-118454819D01*
X134392857Y-118454819D02*
X134392857Y-117454819D01*
X134392857Y-117454819D02*
X134297619Y-117597676D01*
X134297619Y-117597676D02*
X134202381Y-117692914D01*
X134202381Y-117692914D02*
X134107143Y-117740533D01*
X135011905Y-117454819D02*
X135678571Y-117454819D01*
X135678571Y-117454819D02*
X135250000Y-118454819D01*
X136059524Y-118073866D02*
X136821429Y-118073866D01*
X137202381Y-117454819D02*
X137821428Y-117454819D01*
X137821428Y-117454819D02*
X137488095Y-117835771D01*
X137488095Y-117835771D02*
X137630952Y-117835771D01*
X137630952Y-117835771D02*
X137726190Y-117883390D01*
X137726190Y-117883390D02*
X137773809Y-117931009D01*
X137773809Y-117931009D02*
X137821428Y-118026247D01*
X137821428Y-118026247D02*
X137821428Y-118264342D01*
X137821428Y-118264342D02*
X137773809Y-118359580D01*
X137773809Y-118359580D02*
X137726190Y-118407200D01*
X137726190Y-118407200D02*
X137630952Y-118454819D01*
X137630952Y-118454819D02*
X137345238Y-118454819D01*
X137345238Y-118454819D02*
X137250000Y-118407200D01*
X137250000Y-118407200D02*
X137202381Y-118359580D01*
X138250000Y-118359580D02*
X138297619Y-118407200D01*
X138297619Y-118407200D02*
X138250000Y-118454819D01*
X138250000Y-118454819D02*
X138202381Y-118407200D01*
X138202381Y-118407200D02*
X138250000Y-118359580D01*
X138250000Y-118359580D02*
X138250000Y-118454819D01*
X138630952Y-117454819D02*
X139249999Y-117454819D01*
X139249999Y-117454819D02*
X138916666Y-117835771D01*
X138916666Y-117835771D02*
X139059523Y-117835771D01*
X139059523Y-117835771D02*
X139154761Y-117883390D01*
X139154761Y-117883390D02*
X139202380Y-117931009D01*
X139202380Y-117931009D02*
X139249999Y-118026247D01*
X139249999Y-118026247D02*
X139249999Y-118264342D01*
X139249999Y-118264342D02*
X139202380Y-118359580D01*
X139202380Y-118359580D02*
X139154761Y-118407200D01*
X139154761Y-118407200D02*
X139059523Y-118454819D01*
X139059523Y-118454819D02*
X138773809Y-118454819D01*
X138773809Y-118454819D02*
X138678571Y-118407200D01*
X138678571Y-118407200D02*
X138630952Y-118359580D01*
X141833333Y-109109580D02*
X141785714Y-109157200D01*
X141785714Y-109157200D02*
X141642857Y-109204819D01*
X141642857Y-109204819D02*
X141547619Y-109204819D01*
X141547619Y-109204819D02*
X141404762Y-109157200D01*
X141404762Y-109157200D02*
X141309524Y-109061961D01*
X141309524Y-109061961D02*
X141261905Y-108966723D01*
X141261905Y-108966723D02*
X141214286Y-108776247D01*
X141214286Y-108776247D02*
X141214286Y-108633390D01*
X141214286Y-108633390D02*
X141261905Y-108442914D01*
X141261905Y-108442914D02*
X141309524Y-108347676D01*
X141309524Y-108347676D02*
X141404762Y-108252438D01*
X141404762Y-108252438D02*
X141547619Y-108204819D01*
X141547619Y-108204819D02*
X141642857Y-108204819D01*
X141642857Y-108204819D02*
X141785714Y-108252438D01*
X141785714Y-108252438D02*
X141833333Y-108300057D01*
X142738095Y-108204819D02*
X142261905Y-108204819D01*
X142261905Y-108204819D02*
X142214286Y-108681009D01*
X142214286Y-108681009D02*
X142261905Y-108633390D01*
X142261905Y-108633390D02*
X142357143Y-108585771D01*
X142357143Y-108585771D02*
X142595238Y-108585771D01*
X142595238Y-108585771D02*
X142690476Y-108633390D01*
X142690476Y-108633390D02*
X142738095Y-108681009D01*
X142738095Y-108681009D02*
X142785714Y-108776247D01*
X142785714Y-108776247D02*
X142785714Y-109014342D01*
X142785714Y-109014342D02*
X142738095Y-109109580D01*
X142738095Y-109109580D02*
X142690476Y-109157200D01*
X142690476Y-109157200D02*
X142595238Y-109204819D01*
X142595238Y-109204819D02*
X142357143Y-109204819D01*
X142357143Y-109204819D02*
X142261905Y-109157200D01*
X142261905Y-109157200D02*
X142214286Y-109109580D01*
X147761905Y-79454819D02*
X147761905Y-78454819D01*
X147761905Y-78454819D02*
X148000000Y-78454819D01*
X148000000Y-78454819D02*
X148142857Y-78502438D01*
X148142857Y-78502438D02*
X148238095Y-78597676D01*
X148238095Y-78597676D02*
X148285714Y-78692914D01*
X148285714Y-78692914D02*
X148333333Y-78883390D01*
X148333333Y-78883390D02*
X148333333Y-79026247D01*
X148333333Y-79026247D02*
X148285714Y-79216723D01*
X148285714Y-79216723D02*
X148238095Y-79311961D01*
X148238095Y-79311961D02*
X148142857Y-79407200D01*
X148142857Y-79407200D02*
X148000000Y-79454819D01*
X148000000Y-79454819D02*
X147761905Y-79454819D01*
X149285714Y-79454819D02*
X148714286Y-79454819D01*
X149000000Y-79454819D02*
X149000000Y-78454819D01*
X149000000Y-78454819D02*
X148904762Y-78597676D01*
X148904762Y-78597676D02*
X148809524Y-78692914D01*
X148809524Y-78692914D02*
X148714286Y-78740533D01*
G36*
X150350070Y-85665000D02*
G01*
X150082868Y-84648949D01*
X150219644Y-84648949D01*
X150372785Y-85315976D01*
X150384707Y-85368275D01*
X150395805Y-85420390D01*
X150406078Y-85472322D01*
X150415527Y-85524071D01*
X150426741Y-85476461D01*
X150438167Y-85428238D01*
X150449956Y-85379061D01*
X150460712Y-85336004D01*
X150652443Y-84648949D01*
X150813155Y-84648949D01*
X150957502Y-85163813D01*
X150970584Y-85211383D01*
X150985606Y-85269826D01*
X150999149Y-85327136D01*
X151011214Y-85383313D01*
X151021799Y-85438357D01*
X151030906Y-85492269D01*
X151035660Y-85524071D01*
X151046040Y-85474063D01*
X151057886Y-85420512D01*
X151069453Y-85370751D01*
X151082142Y-85318278D01*
X151085974Y-85302787D01*
X151243755Y-84648949D01*
X151377844Y-84648949D01*
X151101605Y-85665000D01*
X150973134Y-85665000D01*
X150760887Y-84890017D01*
X150747631Y-84841268D01*
X150734555Y-84791796D01*
X150729379Y-84770582D01*
X150717782Y-84820236D01*
X150705032Y-84870786D01*
X150699826Y-84890017D01*
X150486113Y-85665000D01*
X150350070Y-85665000D01*
G37*
G36*
X151449896Y-85332341D02*
G01*
X151575437Y-85321106D01*
X151584420Y-85371995D01*
X151600540Y-85419874D01*
X151616958Y-85450554D01*
X151649475Y-85488448D01*
X151690010Y-85517775D01*
X151718319Y-85532376D01*
X151767663Y-85550036D01*
X151815977Y-85559729D01*
X151867583Y-85563364D01*
X151872924Y-85563394D01*
X151923208Y-85560710D01*
X151973256Y-85551660D01*
X152007502Y-85540680D01*
X152052996Y-85517365D01*
X152090793Y-85482820D01*
X152094453Y-85477909D01*
X152116750Y-85433351D01*
X152123029Y-85390715D01*
X152114296Y-85340921D01*
X152095430Y-85307428D01*
X152059098Y-85274455D01*
X152012583Y-85250413D01*
X152004815Y-85247344D01*
X151955669Y-85231543D01*
X151902659Y-85217203D01*
X151850690Y-85204127D01*
X151825541Y-85198007D01*
X151776437Y-85185505D01*
X151726528Y-85171266D01*
X151679222Y-85155452D01*
X151631124Y-85134504D01*
X151585918Y-85106005D01*
X151549369Y-85073235D01*
X151523657Y-85039738D01*
X151502076Y-84995499D01*
X151490455Y-84947414D01*
X151488242Y-84913220D01*
X151493350Y-84861538D01*
X151508675Y-84812281D01*
X151531473Y-84769605D01*
X151562509Y-84730927D01*
X151601273Y-84698546D01*
X151647765Y-84672461D01*
X151657991Y-84668000D01*
X151706190Y-84651235D01*
X151757364Y-84639956D01*
X151811514Y-84634164D01*
X151842882Y-84633318D01*
X151897165Y-84635592D01*
X151948151Y-84642416D01*
X151995840Y-84653788D01*
X152040231Y-84669710D01*
X152085186Y-84692767D01*
X152127795Y-84724776D01*
X152162676Y-84763512D01*
X152171633Y-84776444D01*
X152196310Y-84822373D01*
X152212639Y-84871928D01*
X152220620Y-84925108D01*
X152221215Y-84936179D01*
X152093476Y-84945949D01*
X152083803Y-84895292D01*
X152063901Y-84847798D01*
X152030879Y-84806244D01*
X152023622Y-84799891D01*
X151980994Y-84773874D01*
X151933166Y-84758697D01*
X151883127Y-84751759D01*
X151848256Y-84750554D01*
X151798494Y-84752693D01*
X151749295Y-84760375D01*
X151699301Y-84777835D01*
X151671912Y-84795251D01*
X151638276Y-84831200D01*
X151618654Y-84879740D01*
X151616714Y-84902718D01*
X151626544Y-84952543D01*
X151656037Y-84992599D01*
X151702244Y-85019252D01*
X151752436Y-85037326D01*
X151800258Y-85051042D01*
X151856804Y-85064895D01*
X151905074Y-85076199D01*
X151956434Y-85089182D01*
X152007303Y-85103526D01*
X152058383Y-85120697D01*
X152079798Y-85129619D01*
X152125606Y-85154282D01*
X152167938Y-85185719D01*
X152204090Y-85225203D01*
X152209491Y-85232934D01*
X152233409Y-85278172D01*
X152247398Y-85327912D01*
X152251501Y-85377037D01*
X152246993Y-85426659D01*
X152233469Y-85474467D01*
X152210929Y-85520463D01*
X152205339Y-85529445D01*
X152172705Y-85571071D01*
X152132200Y-85606496D01*
X152089015Y-85633076D01*
X152073203Y-85640819D01*
X152023006Y-85660064D01*
X151975531Y-85671883D01*
X151925370Y-85678726D01*
X151879275Y-85680631D01*
X151829538Y-85679197D01*
X151775440Y-85673899D01*
X151725573Y-85664698D01*
X151673763Y-85649402D01*
X151649931Y-85639842D01*
X151606257Y-85616899D01*
X151563072Y-85584993D01*
X151526186Y-85546634D01*
X151505095Y-85517477D01*
X151479498Y-85469752D01*
X151461783Y-85418627D01*
X151452655Y-85370328D01*
X151449896Y-85332341D01*
G37*
G36*
X153027949Y-85547763D02*
G01*
X153027949Y-85665000D01*
X152362143Y-85665000D01*
X152366101Y-85615798D01*
X152376553Y-85579026D01*
X152397763Y-85532437D01*
X152423256Y-85490534D01*
X152454664Y-85449060D01*
X152458130Y-85444937D01*
X152493533Y-85406082D01*
X152531620Y-85368820D01*
X152570054Y-85334112D01*
X152613258Y-85297440D01*
X152619819Y-85292041D01*
X152659188Y-85258972D01*
X152703719Y-85220117D01*
X152743051Y-85184016D01*
X152783385Y-85144331D01*
X152820979Y-85103046D01*
X152841591Y-85076863D01*
X152869573Y-85032888D01*
X152889924Y-84985614D01*
X152899251Y-84935541D01*
X152899477Y-84926653D01*
X152892058Y-84874263D01*
X152869802Y-84828468D01*
X152846721Y-84801601D01*
X152806867Y-84772538D01*
X152759509Y-84755539D01*
X152709945Y-84750554D01*
X152657556Y-84756016D01*
X152607974Y-84774642D01*
X152566818Y-84806486D01*
X152536278Y-84850047D01*
X152519334Y-84898514D01*
X152512894Y-84949354D01*
X152512596Y-84961580D01*
X152385590Y-84948147D01*
X152392986Y-84895822D01*
X152405465Y-84848393D01*
X152426449Y-84799244D01*
X152454352Y-84756757D01*
X152483776Y-84725642D01*
X152523862Y-84695758D01*
X152569535Y-84673215D01*
X152620794Y-84658012D01*
X152669177Y-84650822D01*
X152712631Y-84648949D01*
X152764824Y-84651791D01*
X152820354Y-84662292D01*
X152870111Y-84680529D01*
X152914094Y-84706504D01*
X152941975Y-84729794D01*
X152974904Y-84767010D01*
X153002633Y-84814065D01*
X153019799Y-84865943D01*
X153026153Y-84915294D01*
X153026483Y-84930073D01*
X153022412Y-84979164D01*
X153010198Y-85027610D01*
X153001815Y-85049752D01*
X152978711Y-85094608D01*
X152949446Y-85137296D01*
X152919749Y-85173339D01*
X152881455Y-85213709D01*
X152843362Y-85250397D01*
X152804925Y-85285528D01*
X152761148Y-85324059D01*
X152728996Y-85351636D01*
X152690112Y-85384944D01*
X152651803Y-85418398D01*
X152613710Y-85452858D01*
X152586113Y-85479863D01*
X152554145Y-85517937D01*
X152534090Y-85547763D01*
X153027949Y-85547763D01*
G37*
G36*
X153540163Y-84652654D02*
G01*
X153590468Y-84663769D01*
X153635840Y-84682293D01*
X153681654Y-84712538D01*
X153697174Y-84726374D01*
X153732437Y-84767086D01*
X153757624Y-84812042D01*
X153772737Y-84861242D01*
X153777774Y-84914685D01*
X153772588Y-84965232D01*
X153755264Y-85014177D01*
X153740894Y-85038028D01*
X153704798Y-85076545D01*
X153660245Y-85105088D01*
X153629275Y-85118628D01*
X153677965Y-85138463D01*
X153719624Y-85164172D01*
X153757662Y-85199625D01*
X153770447Y-85215837D01*
X153795949Y-85260368D01*
X153812006Y-85310004D01*
X153818382Y-85359040D01*
X153818807Y-85376304D01*
X153814436Y-85430749D01*
X153801323Y-85481244D01*
X153779467Y-85527788D01*
X153748870Y-85570382D01*
X153727460Y-85592948D01*
X153684738Y-85627113D01*
X153636499Y-85652888D01*
X153582744Y-85670270D01*
X153532277Y-85678490D01*
X153487125Y-85680631D01*
X153433273Y-85677540D01*
X153383456Y-85668266D01*
X153330437Y-85649633D01*
X153282911Y-85622585D01*
X153246546Y-85592704D01*
X153210953Y-85552048D01*
X153184102Y-85507232D01*
X153165993Y-85458255D01*
X153156627Y-85405117D01*
X153155242Y-85373862D01*
X153282450Y-85373862D01*
X153288678Y-85425580D01*
X153305830Y-85472625D01*
X153307363Y-85475711D01*
X153336260Y-85517081D01*
X153375784Y-85548684D01*
X153381857Y-85552159D01*
X153430003Y-85571444D01*
X153481476Y-85578921D01*
X153488591Y-85579026D01*
X153540845Y-85573492D01*
X153587089Y-85556892D01*
X153631015Y-85525848D01*
X153634648Y-85522362D01*
X153665174Y-85483788D01*
X153685694Y-85434416D01*
X153692477Y-85383220D01*
X153692534Y-85377770D01*
X153686714Y-85325210D01*
X153669254Y-85278661D01*
X153640155Y-85238122D01*
X153632938Y-85230736D01*
X153592934Y-85200081D01*
X153547110Y-85180780D01*
X153495466Y-85172833D01*
X153484439Y-85172606D01*
X153432723Y-85178235D01*
X153386875Y-85195122D01*
X153346895Y-85223267D01*
X153339603Y-85230247D01*
X153309463Y-85268935D01*
X153289203Y-85317993D01*
X153282506Y-85368502D01*
X153282450Y-85373862D01*
X153155242Y-85373862D01*
X153155199Y-85372885D01*
X153159141Y-85320305D01*
X153170964Y-85272747D01*
X153193347Y-85225797D01*
X153205025Y-85208754D01*
X153240292Y-85171512D01*
X153283812Y-85142522D01*
X153330036Y-85123488D01*
X153346930Y-85118628D01*
X153298740Y-85096264D01*
X153256900Y-85065283D01*
X153232868Y-85037540D01*
X153208832Y-84991249D01*
X153197520Y-84942436D01*
X153195744Y-84911266D01*
X153196173Y-84906625D01*
X153322261Y-84906625D01*
X153328719Y-84957287D01*
X153350287Y-85003720D01*
X153368179Y-85025083D01*
X153410200Y-85054813D01*
X153457003Y-85068804D01*
X153487858Y-85071001D01*
X153537741Y-85064578D01*
X153583641Y-85043124D01*
X153604850Y-85025327D01*
X153634422Y-84984832D01*
X153648918Y-84937564D01*
X153650524Y-84913464D01*
X153643895Y-84864898D01*
X153621752Y-84819261D01*
X153603385Y-84797693D01*
X153561454Y-84767173D01*
X153511863Y-84752212D01*
X153486393Y-84750554D01*
X153436670Y-84757011D01*
X153390478Y-84778580D01*
X153368912Y-84796472D01*
X153338707Y-84836803D01*
X153323400Y-84886999D01*
X153322261Y-84906625D01*
X153196173Y-84906625D01*
X153200674Y-84857930D01*
X153215466Y-84809050D01*
X153240119Y-84764629D01*
X153274634Y-84724665D01*
X153317453Y-84691539D01*
X153366775Y-84667878D01*
X153415266Y-84654938D01*
X153468736Y-84649245D01*
X153484927Y-84648949D01*
X153540163Y-84652654D01*
G37*
G36*
X154401082Y-85665000D02*
G01*
X154277495Y-85665000D01*
X154277495Y-84873164D01*
X154240057Y-84905587D01*
X154198860Y-84935309D01*
X154160259Y-84959626D01*
X154116376Y-84984394D01*
X154071466Y-85006790D01*
X154030077Y-85024106D01*
X154030077Y-84899054D01*
X154074241Y-84876926D01*
X154121650Y-84849262D01*
X154165793Y-84819064D01*
X154206670Y-84786331D01*
X154211550Y-84782062D01*
X154247545Y-84748005D01*
X154281252Y-84710312D01*
X154310275Y-84669201D01*
X154321459Y-84648949D01*
X154401082Y-84648949D01*
X154401082Y-85665000D01*
G37*
G36*
X155363887Y-85547763D02*
G01*
X155363887Y-85665000D01*
X154698081Y-85665000D01*
X154702040Y-85615798D01*
X154712492Y-85579026D01*
X154733702Y-85532437D01*
X154759195Y-85490534D01*
X154790603Y-85449060D01*
X154794069Y-85444937D01*
X154829472Y-85406082D01*
X154867558Y-85368820D01*
X154905993Y-85334112D01*
X154949196Y-85297440D01*
X154955758Y-85292041D01*
X154995126Y-85258972D01*
X155039658Y-85220117D01*
X155078990Y-85184016D01*
X155119324Y-85144331D01*
X155156917Y-85103046D01*
X155177530Y-85076863D01*
X155205512Y-85032888D01*
X155225862Y-84985614D01*
X155235189Y-84935541D01*
X155235416Y-84926653D01*
X155227997Y-84874263D01*
X155205740Y-84828468D01*
X155182659Y-84801601D01*
X155142805Y-84772538D01*
X155095447Y-84755539D01*
X155045883Y-84750554D01*
X154993495Y-84756016D01*
X154943912Y-84774642D01*
X154902757Y-84806486D01*
X154872217Y-84850047D01*
X154855273Y-84898514D01*
X154848833Y-84949354D01*
X154848535Y-84961580D01*
X154721529Y-84948147D01*
X154728925Y-84895822D01*
X154741404Y-84848393D01*
X154762388Y-84799244D01*
X154790291Y-84756757D01*
X154819714Y-84725642D01*
X154859800Y-84695758D01*
X154905473Y-84673215D01*
X154956732Y-84658012D01*
X155005115Y-84650822D01*
X155048570Y-84648949D01*
X155100762Y-84651791D01*
X155156293Y-84662292D01*
X155206049Y-84680529D01*
X155250032Y-84706504D01*
X155277914Y-84729794D01*
X155310842Y-84767010D01*
X155338571Y-84814065D01*
X155355737Y-84865943D01*
X155362092Y-84915294D01*
X155362422Y-84930073D01*
X155358351Y-84979164D01*
X155346137Y-85027610D01*
X155337753Y-85049752D01*
X155314650Y-85094608D01*
X155285385Y-85137296D01*
X155255688Y-85173339D01*
X155217393Y-85213709D01*
X155179301Y-85250397D01*
X155140864Y-85285528D01*
X155097086Y-85324059D01*
X155064934Y-85351636D01*
X155026051Y-85384944D01*
X154987741Y-85418398D01*
X154949649Y-85452858D01*
X154922052Y-85479863D01*
X154890084Y-85517937D01*
X154870028Y-85547763D01*
X155363887Y-85547763D01*
G37*
X145083333Y-116359580D02*
X145035714Y-116407200D01*
X145035714Y-116407200D02*
X144892857Y-116454819D01*
X144892857Y-116454819D02*
X144797619Y-116454819D01*
X144797619Y-116454819D02*
X144654762Y-116407200D01*
X144654762Y-116407200D02*
X144559524Y-116311961D01*
X144559524Y-116311961D02*
X144511905Y-116216723D01*
X144511905Y-116216723D02*
X144464286Y-116026247D01*
X144464286Y-116026247D02*
X144464286Y-115883390D01*
X144464286Y-115883390D02*
X144511905Y-115692914D01*
X144511905Y-115692914D02*
X144559524Y-115597676D01*
X144559524Y-115597676D02*
X144654762Y-115502438D01*
X144654762Y-115502438D02*
X144797619Y-115454819D01*
X144797619Y-115454819D02*
X144892857Y-115454819D01*
X144892857Y-115454819D02*
X145035714Y-115502438D01*
X145035714Y-115502438D02*
X145083333Y-115550057D01*
X145940476Y-115788152D02*
X145940476Y-116454819D01*
X145702381Y-115407200D02*
X145464286Y-116121485D01*
X145464286Y-116121485D02*
X146083333Y-116121485D01*
D16*
%TO.C,R4*%
X154015000Y-90139564D02*
X154015000Y-89685436D01*
X155485000Y-90139564D02*
X155485000Y-89685436D01*
%TO.C,R3*%
X155485000Y-93522936D02*
X155485000Y-93977064D01*
X154015000Y-93522936D02*
X154015000Y-93977064D01*
%TO.C,J4*%
X150170000Y-90645000D02*
X151500000Y-90645000D01*
X150170000Y-91975000D02*
X150170000Y-90645000D01*
X150170000Y-93245000D02*
X150170000Y-95845000D01*
X150170000Y-93245000D02*
X152830000Y-93245000D01*
X150170000Y-95845000D02*
X152830000Y-95845000D01*
X152830000Y-93245000D02*
X152830000Y-95845000D01*
%TO.C,C6*%
X154211252Y-86015000D02*
X153688748Y-86015000D01*
X154211252Y-87485000D02*
X153688748Y-87485000D01*
%TO.C,J2*%
X143450000Y-102551000D02*
X144780000Y-102551000D01*
X143450000Y-103881000D02*
X143450000Y-102551000D01*
X143450000Y-105151000D02*
X143450000Y-107751000D01*
X143450000Y-105151000D02*
X146110000Y-105151000D01*
X143450000Y-107751000D02*
X146110000Y-107751000D01*
X146110000Y-105151000D02*
X146110000Y-107751000D01*
%TO.C,C3*%
X134515000Y-106311252D02*
X134515000Y-105788748D01*
X135985000Y-106311252D02*
X135985000Y-105788748D01*
%TO.C,C1*%
X129240000Y-104040000D02*
X130440000Y-104040000D01*
X129240000Y-107495563D02*
X129240000Y-104040000D01*
X129690000Y-109050000D02*
X130190000Y-109050000D01*
X129940000Y-109300000D02*
X129940000Y-108800000D01*
X130304437Y-108560000D02*
X129240000Y-107495563D01*
X130304437Y-108560000D02*
X130440000Y-108560000D01*
X132695563Y-108560000D02*
X132560000Y-108560000D01*
X132695563Y-108560000D02*
X133760000Y-107495563D01*
X133760000Y-104040000D02*
X132560000Y-104040000D01*
X133760000Y-107495563D02*
X133760000Y-104040000D01*
D17*
%TO.C,U1*%
X127885590Y-78290690D02*
X127885590Y-98618310D01*
X127885590Y-98618310D02*
X145683370Y-98618310D01*
X128556150Y-77620130D02*
X127885590Y-78290690D01*
D18*
X131568590Y-77536310D02*
X133346590Y-77536310D01*
X131568590Y-80203310D02*
X131568590Y-77536310D01*
X131568590Y-80203310D02*
X133346590Y-80203310D01*
X131568590Y-81600310D02*
X133346590Y-81600310D01*
X131568590Y-84269850D02*
X131568590Y-81600310D01*
X131568590Y-84269850D02*
X133346590Y-84269850D01*
D17*
X132279790Y-83548490D02*
X132279790Y-76195190D01*
X132284870Y-76195190D02*
X141279010Y-76195190D01*
D18*
X133346590Y-80203310D02*
X133346590Y-77536310D01*
X133346590Y-84269850D02*
X133346590Y-81600310D01*
X134235590Y-78298310D02*
X139315590Y-78298310D01*
X134235590Y-80838310D02*
X134235590Y-78298310D01*
X134235590Y-80838310D02*
X139315590Y-80838310D01*
X134235590Y-95443310D02*
X139950590Y-95443310D01*
X134235590Y-97983310D02*
X134235590Y-95443310D01*
X134235590Y-97983310D02*
X139950590Y-97983310D01*
X139315590Y-80838310D02*
X139315590Y-78298310D01*
X139950590Y-97983310D02*
X139950590Y-95443310D01*
X140204590Y-77536310D02*
X141982590Y-77536310D01*
X140204590Y-80203310D02*
X140204590Y-77536310D01*
X140204590Y-80203310D02*
X141982590Y-80203310D01*
X140204590Y-81600310D02*
X141982590Y-81600310D01*
X140204590Y-84269850D02*
X140204590Y-81600310D01*
X140204590Y-84269850D02*
X141982590Y-84269850D01*
D17*
X141279010Y-76195190D02*
X141279010Y-83548490D01*
X141279010Y-83548490D02*
X132279790Y-83548490D01*
D18*
X141982590Y-80203310D02*
X141982590Y-77536310D01*
X141982590Y-84269850D02*
X141982590Y-81600310D01*
D17*
X145683370Y-77620130D02*
X128556150Y-77620130D01*
X145683370Y-98618310D02*
X145683370Y-77620130D01*
D19*
X127123590Y-80457310D02*
G75*
G02*
X126869590Y-80457310I-127000J0D01*
G01*
X126869590Y-80457310D02*
G75*
G02*
X127123590Y-80457310I127000J0D01*
G01*
D16*
%TO.C,R2*%
X155485000Y-114610436D02*
X155485000Y-115064564D01*
X154015000Y-114610436D02*
X154015000Y-115064564D01*
%TO.C,C2*%
X139250000Y-110440000D02*
X139750000Y-110440000D01*
X139500000Y-110190000D02*
X139500000Y-110690000D01*
X139990000Y-110804437D02*
X139990000Y-110940000D01*
X139990000Y-110804437D02*
X141054437Y-109740000D01*
X139990000Y-113195563D02*
X139990000Y-113060000D01*
X139990000Y-113195563D02*
X141054437Y-114260000D01*
X141054437Y-109740000D02*
X144510000Y-109740000D01*
X141054437Y-114260000D02*
X144510000Y-114260000D01*
X144510000Y-109740000D02*
X144510000Y-110940000D01*
X144510000Y-114260000D02*
X144510000Y-113060000D01*
%TO.C,U4*%
X153528000Y-118390000D02*
X153528000Y-116390000D01*
X153528000Y-118390000D02*
X151918000Y-118390000D01*
X153248000Y-105850000D02*
X153248000Y-118100000D01*
X153238000Y-118110000D02*
X147498000Y-118110000D01*
X147488000Y-118110000D02*
X147488000Y-105850000D01*
X147488000Y-105850000D02*
X153248000Y-105850000D01*
%TO.C,R1*%
X135863064Y-101881000D02*
X135408936Y-101881000D01*
X135863064Y-103351000D02*
X135408936Y-103351000D01*
%TO.C,U3*%
X137998000Y-102848000D02*
X137998000Y-106448000D01*
X138009522Y-102809522D02*
G75*
G02*
X142448000Y-104648000I1838478J-1838478D01*
G01*
X142448000Y-104648000D02*
G75*
G02*
X138009522Y-106486478I-2600000J0D01*
G01*
%TO.C,J1*%
X122622000Y-79510000D02*
X123952000Y-79510000D01*
X122622000Y-80840000D02*
X122622000Y-79510000D01*
X122622000Y-82110000D02*
X122622000Y-117730000D01*
X122622000Y-82110000D02*
X125282000Y-82110000D01*
X122622000Y-117730000D02*
X125282000Y-117730000D01*
X125282000Y-82110000D02*
X125282000Y-117730000D01*
%TO.C,J3*%
X150054000Y-100838000D02*
X150054000Y-98238000D01*
X152714000Y-98238000D02*
X150054000Y-98238000D01*
X152714000Y-100838000D02*
X150054000Y-100838000D01*
X152714000Y-100838000D02*
X152714000Y-98238000D01*
X152714000Y-102108000D02*
X152714000Y-103438000D01*
X152714000Y-103438000D02*
X151384000Y-103438000D01*
%TO.C,U2*%
X132090000Y-110090000D02*
X132090000Y-111350000D01*
X132090000Y-116910000D02*
X132090000Y-115650000D01*
X135850000Y-110090000D02*
X132090000Y-110090000D01*
X135850000Y-116910000D02*
X132090000Y-116910000D01*
X137370000Y-117140000D02*
X136890000Y-117140000D01*
X137130000Y-116810000D01*
X137370000Y-117140000D01*
G36*
X137370000Y-117140000D02*
G01*
X136890000Y-117140000D01*
X137130000Y-116810000D01*
X137370000Y-117140000D01*
G37*
%TO.C,C5*%
X139453252Y-107977000D02*
X138930748Y-107977000D01*
X139453252Y-109447000D02*
X138930748Y-109447000D01*
%TO.C,D1*%
X149348000Y-78962000D02*
X156648000Y-78962000D01*
X149348000Y-80112000D02*
X149348000Y-78962000D01*
X149348000Y-84462000D02*
X156648000Y-84462000D01*
%TO.C,C4*%
X142288748Y-115015000D02*
X142811252Y-115015000D01*
X142288748Y-116485000D02*
X142811252Y-116485000D01*
%TD*%
M02*
