%TF.GenerationSoftware,KiCad,Pcbnew,8.0.6*%
%TF.CreationDate,2024-10-18T13:19:48-03:00*%
%TF.ProjectId,ESP32C6-dev-board,45535033-3243-4362-9d64-65762d626f61,rev?*%
%TF.SameCoordinates,Original*%
%TF.FileFunction,Copper,L1,Top*%
%TF.FilePolarity,Positive*%
%FSLAX46Y46*%
G04 Gerber Fmt 4.6, Leading zero omitted, Abs format (unit mm)*
G04 Created by KiCad (PCBNEW 8.0.6) date 2024-10-18 13:19:48*
%MOMM*%
%LPD*%
G01*
G04 APERTURE LIST*
G04 Aperture macros list*
%AMRoundRect*
0 Rectangle with rounded corners*
0 $1 Rounding radius*
0 $2 $3 $4 $5 $6 $7 $8 $9 X,Y pos of 4 corners*
0 Add a 4 corners polygon primitive as box body*
4,1,4,$2,$3,$4,$5,$6,$7,$8,$9,$2,$3,0*
0 Add four circle primitives for the rounded corners*
1,1,$1+$1,$2,$3*
1,1,$1+$1,$4,$5*
1,1,$1+$1,$6,$7*
1,1,$1+$1,$8,$9*
0 Add four rect primitives between the rounded corners*
20,1,$1+$1,$2,$3,$4,$5,0*
20,1,$1+$1,$4,$5,$6,$7,0*
20,1,$1+$1,$6,$7,$8,$9,0*
20,1,$1+$1,$8,$9,$2,$3,0*%
G04 Aperture macros list end*
%TA.AperFunction,ComponentPad*%
%ADD10R,1.700000X1.700000*%
%TD*%
%TA.AperFunction,ComponentPad*%
%ADD11O,1.700000X1.700000*%
%TD*%
%TA.AperFunction,SMDPad,CuDef*%
%ADD12RoundRect,0.250000X-0.475000X0.250000X-0.475000X-0.250000X0.475000X-0.250000X0.475000X0.250000X0*%
%TD*%
%TA.AperFunction,SMDPad,CuDef*%
%ADD13RoundRect,0.250000X-0.262500X-0.450000X0.262500X-0.450000X0.262500X0.450000X-0.262500X0.450000X0*%
%TD*%
%TA.AperFunction,SMDPad,CuDef*%
%ADD14RoundRect,0.250000X-0.550000X1.050000X-0.550000X-1.050000X0.550000X-1.050000X0.550000X1.050000X0*%
%TD*%
%TA.AperFunction,ComponentPad*%
%ADD15C,1.600000*%
%TD*%
%TA.AperFunction,SMDPad,CuDef*%
%ADD16O,2.748280X1.998980*%
%TD*%
%TA.AperFunction,SMDPad,CuDef*%
%ADD17O,1.016000X2.032000*%
%TD*%
%TA.AperFunction,SMDPad,CuDef*%
%ADD18C,1.143000*%
%TD*%
%TA.AperFunction,SMDPad,CuDef*%
%ADD19RoundRect,0.250000X0.262500X0.450000X-0.262500X0.450000X-0.262500X-0.450000X0.262500X-0.450000X0*%
%TD*%
%TA.AperFunction,SMDPad,CuDef*%
%ADD20R,0.900000X1.500000*%
%TD*%
%TA.AperFunction,ViaPad*%
%ADD21C,0.600000*%
%TD*%
%TA.AperFunction,Conductor*%
%ADD22C,0.500000*%
%TD*%
G04 APERTURE END LIST*
D10*
%TO.P,J2,1,Pin_1*%
%TO.N,D0-A0*%
X136600000Y-102725000D03*
D11*
%TO.P,J2,2,Pin_2*%
%TO.N,Net-(J2-Pin_2)*%
X136600000Y-105265000D03*
%TD*%
D12*
%TO.P,C3,1*%
%TO.N,VIN*%
X148100000Y-81350000D03*
%TO.P,C3,2*%
%TO.N,GND*%
X148100000Y-83250000D03*
%TD*%
D10*
%TO.P,J3,1,Pin_1*%
%TO.N,Net-(J3-Pin_1)*%
X152900000Y-105120000D03*
D11*
%TO.P,J3,2,Pin_2*%
%TO.N,GND*%
X152900000Y-107660000D03*
%TO.P,J3,3,Pin_3*%
%TO.N,Net-(J3-Pin_3)*%
X152900000Y-110200000D03*
%TO.P,J3,4,Pin_4*%
%TO.N,Net-(J3-Pin_4)*%
X152900000Y-112740000D03*
%TD*%
D13*
%TO.P,R5,1*%
%TO.N,D4-SDA*%
X148287500Y-112800000D03*
%TO.P,R5,2*%
%TO.N,Net-(J3-Pin_4)*%
X150112500Y-112800000D03*
%TD*%
D14*
%TO.P,C1,1*%
%TO.N,VIN*%
X152100000Y-80300000D03*
%TO.P,C1,2*%
%TO.N,GND*%
X152100000Y-83900000D03*
%TD*%
D15*
%TO.P,R2,1*%
%TO.N,3V3*%
X129300000Y-105900000D03*
%TO.P,R2,2*%
%TO.N,Net-(J2-Pin_2)*%
X132300000Y-105900000D03*
%TD*%
D16*
%TO.P,U1,1,PA02_A0_D0*%
%TO.N,D0-A0*%
X128718710Y-80500490D03*
%TO.P,U1,2,PA4_A1_D1*%
%TO.N,D1-A1*%
X128718710Y-83040490D03*
%TO.P,U1,3,PA10_A2_D2*%
%TO.N,D2-A2*%
X128718710Y-85580490D03*
%TO.P,U1,4,PA11_A3_D3*%
%TO.N,D3*%
X128718710Y-88120490D03*
%TO.P,U1,5,PA8_A4_D4_SDA*%
%TO.N,D4-SDA*%
X128718710Y-90660490D03*
%TO.P,U1,6,PA9_A5_D5_SCL*%
%TO.N,D5-SCL*%
X128718710Y-93200490D03*
%TO.P,U1,7,PB08_A6_D6_TX*%
%TO.N,D6-TX*%
X128718710Y-95740490D03*
%TO.P,U1,8,PB09_A7_D7_RX*%
%TO.N,D7-RX*%
X144883270Y-95740490D03*
%TO.P,U1,9,PA7_A8_D8_SCK*%
%TO.N,D8-SCK*%
X144883270Y-93200490D03*
%TO.P,U1,10,PA5_A9_D9_MISO*%
%TO.N,D9-MISO*%
X144883270Y-90660490D03*
%TO.P,U1,11,PA6_A10_D10_MOSI*%
%TO.N,D10-MOSI*%
X144883270Y-88120490D03*
%TO.P,U1,12,3V3*%
%TO.N,3V3*%
X144883270Y-85580490D03*
%TO.P,U1,13,GND*%
%TO.N,GND*%
X144883270Y-83040490D03*
%TO.P,U1,14,5V*%
%TO.N,VIN*%
X144883270Y-80500490D03*
D17*
%TO.P,U1,15,5V*%
%TO.N,unconnected-(U1-5V-Pad15)*%
X135585590Y-96818310D03*
%TO.P,U1,16,GND*%
%TO.N,unconnected-(U1-GND-Pad16)*%
X138135590Y-96818310D03*
D18*
%TO.P,U1,17,PA31_SWDIO*%
%TO.N,unconnected-(U1-PA31_SWDIO-Pad17)*%
X135584393Y-79814123D03*
%TO.P,U1,18,PA30_SWCLK*%
%TO.N,unconnected-(U1-PA30_SWCLK-Pad18)*%
X138124393Y-79814123D03*
%TO.P,U1,19,RESET*%
%TO.N,unconnected-(U1-RESET-Pad19)*%
X135584393Y-82354123D03*
%TO.P,U1,20,GND*%
%TO.N,unconnected-(U1-GND-Pad20)*%
X138124393Y-82354123D03*
%TD*%
D10*
%TO.P,J5,1,Pin_1*%
%TO.N,3V3*%
X143225000Y-105000000D03*
D11*
%TO.P,J5,2,Pin_2*%
%TO.N,Net-(J3-Pin_1)*%
X145765000Y-105000000D03*
%TD*%
D10*
%TO.P,J4,1,Pin_1*%
%TO.N,D1-A1*%
X148600000Y-99375000D03*
D11*
%TO.P,J4,2,Pin_2*%
%TO.N,Net-(J4-Pin_2)*%
X148600000Y-96835000D03*
%TD*%
D13*
%TO.P,R1,1*%
%TO.N,GND*%
X129887500Y-109600000D03*
%TO.P,R1,2*%
%TO.N,Net-(J2-Pin_2)*%
X131712500Y-109600000D03*
%TD*%
D10*
%TO.P,J1,1,Pin_1*%
%TO.N,D0-A0*%
X123952000Y-80840000D03*
D11*
%TO.P,J1,2,Pin_2*%
%TO.N,D1-A1*%
X123952000Y-83380000D03*
%TO.P,J1,3,Pin_3*%
%TO.N,D2-A2*%
X123952000Y-85920000D03*
%TO.P,J1,4,Pin_4*%
%TO.N,D3*%
X123952000Y-88460000D03*
%TO.P,J1,5,Pin_5*%
%TO.N,D4-SDA*%
X123952000Y-91000000D03*
%TO.P,J1,6,Pin_6*%
%TO.N,D5-SCL*%
X123952000Y-93540000D03*
%TO.P,J1,7,Pin_7*%
%TO.N,D6-TX*%
X123952000Y-96080000D03*
%TO.P,J1,8,Pin_8*%
%TO.N,D7-RX*%
X123952000Y-98620000D03*
%TO.P,J1,9,Pin_9*%
%TO.N,D8-SCK*%
X123952000Y-101160000D03*
%TO.P,J1,10,Pin_10*%
%TO.N,D9-MISO*%
X123952000Y-103700000D03*
%TO.P,J1,11,Pin_11*%
%TO.N,D10-MOSI*%
X123952000Y-106240000D03*
%TO.P,J1,12,Pin_12*%
%TO.N,3V3*%
X123952000Y-108780000D03*
%TO.P,J1,13,Pin_13*%
%TO.N,GND*%
X123952000Y-111320000D03*
%TO.P,J1,14,Pin_14*%
%TO.N,unconnected-(J1-Pin_14-Pad14)*%
X123952000Y-113860000D03*
%TO.P,J1,15,Pin_15*%
%TO.N,VIN*%
X123952000Y-116400000D03*
%TD*%
D13*
%TO.P,R4,1*%
%TO.N,D5-SCL*%
X148287500Y-110300000D03*
%TO.P,R4,2*%
%TO.N,Net-(J3-Pin_3)*%
X150112500Y-110300000D03*
%TD*%
D19*
%TO.P,R3,1*%
%TO.N,Net-(D2-DIN)*%
X153212500Y-96000000D03*
%TO.P,R3,2*%
%TO.N,Net-(J4-Pin_2)*%
X151387500Y-96000000D03*
%TD*%
D20*
%TO.P,D2,1,VDD*%
%TO.N,VIN*%
X153150000Y-88150000D03*
%TO.P,D2,2,DOUT*%
%TO.N,unconnected-(D2-DOUT-Pad2)*%
X149850000Y-88150000D03*
%TO.P,D2,3,VSS*%
%TO.N,GND*%
X149850000Y-93050000D03*
%TO.P,D2,4,DIN*%
%TO.N,Net-(D2-DIN)*%
X153150000Y-93050000D03*
%TD*%
D21*
%TO.N,GND*%
X128700000Y-109600000D03*
%TO.N,D8-SCK*%
X138299510Y-93200490D03*
%TO.N,D5-SCL*%
X142200000Y-96100000D03*
X145900000Y-110300000D03*
%TO.N,VIN*%
X156400000Y-85500000D03*
X154500000Y-88100000D03*
%TO.N,D4-SDA*%
X143100000Y-94700000D03*
X147200000Y-111900000D03*
%TO.N,D1-A1*%
X130800000Y-83200000D03*
%TO.N,D0-A0*%
X126600000Y-100200000D03*
%TO.N,D9-MISO*%
X142500000Y-90750000D03*
%TO.N,D10-MOSI*%
X127700000Y-104700000D03*
X142750000Y-88250000D03*
%TO.N,GND*%
X146800000Y-83100000D03*
X149900000Y-83000000D03*
X148900000Y-93000000D03*
%TD*%
D22*
%TO.N,GND*%
X129887500Y-109600000D02*
X128700000Y-109600000D01*
%TO.N,Net-(J2-Pin_2)*%
X132300000Y-109100000D02*
X132300000Y-105900000D01*
X131800000Y-109600000D02*
X132300000Y-109100000D01*
X131712500Y-109600000D02*
X131800000Y-109600000D01*
%TO.N,D3*%
X123839510Y-88120490D02*
X123500000Y-88460000D01*
X128718710Y-88120490D02*
X123839510Y-88120490D01*
%TO.N,D2-A2*%
X128718710Y-85580490D02*
X123839510Y-85580490D01*
X123839510Y-85580490D02*
X123500000Y-85920000D01*
%TO.N,3V3*%
X144883270Y-85580490D02*
X144963760Y-85500000D01*
X129300000Y-107400000D02*
X127920000Y-108780000D01*
X127920000Y-108780000D02*
X125900000Y-108780000D01*
X143225000Y-115575000D02*
X143200000Y-115600000D01*
X128100000Y-115600000D02*
X125900000Y-113400000D01*
X143200000Y-115600000D02*
X128100000Y-115600000D01*
X143225000Y-105000000D02*
X143225000Y-115575000D01*
X155700000Y-87100000D02*
X155700000Y-115100000D01*
X154700000Y-86100000D02*
X155700000Y-87100000D01*
X155200000Y-115600000D02*
X143200000Y-115600000D01*
X129300000Y-105900000D02*
X129300000Y-107400000D01*
X145402780Y-86100000D02*
X154700000Y-86100000D01*
X125900000Y-108780000D02*
X123952000Y-108780000D01*
X125900000Y-113400000D02*
X125900000Y-108780000D01*
X155700000Y-115100000D02*
X155200000Y-115600000D01*
X144883270Y-85580490D02*
X145402780Y-86100000D01*
%TO.N,D8-SCK*%
X138299510Y-93200490D02*
X144883270Y-93200490D01*
%TO.N,D5-SCL*%
X135500490Y-93200490D02*
X128718710Y-93200490D01*
X145900000Y-110300000D02*
X148287500Y-110300000D01*
X123839510Y-93200490D02*
X123500000Y-93540000D01*
X142200000Y-96100000D02*
X141200000Y-95100000D01*
X137400000Y-95100000D02*
X135500490Y-93200490D01*
X141200000Y-95100000D02*
X137400000Y-95100000D01*
X128718710Y-93200490D02*
X123839510Y-93200490D01*
%TO.N,VIN*%
X153150000Y-88150000D02*
X154450000Y-88150000D01*
X144883760Y-80500000D02*
X144883270Y-80500490D01*
X147250490Y-80500490D02*
X148100000Y-81350000D01*
X152100000Y-80300000D02*
X149150000Y-80300000D01*
X154450000Y-88150000D02*
X154500000Y-88100000D01*
X156400000Y-115900000D02*
X156400000Y-85500000D01*
X149150000Y-80300000D02*
X148100000Y-81350000D01*
X155900000Y-116400000D02*
X156400000Y-115900000D01*
X144883270Y-80500490D02*
X147250490Y-80500490D01*
X156400000Y-81100000D02*
X155600000Y-80300000D01*
X155600000Y-80300000D02*
X152100000Y-80300000D01*
X156400000Y-85500000D02*
X156400000Y-81100000D01*
X123952000Y-116400000D02*
X155900000Y-116400000D01*
%TO.N,D4-SDA*%
X142700000Y-94300000D02*
X143100000Y-94700000D01*
X137000000Y-92961641D02*
X138338359Y-94300000D01*
X123839510Y-90660490D02*
X123500000Y-91000000D01*
X135560490Y-90660490D02*
X137000000Y-92100000D01*
X148287500Y-112800000D02*
X148100000Y-112800000D01*
X128718710Y-90660490D02*
X135560490Y-90660490D01*
X142400000Y-94300000D02*
X142700000Y-94300000D01*
X128718710Y-90660490D02*
X129089510Y-90660490D01*
X148100000Y-112800000D02*
X147200000Y-111900000D01*
X137000000Y-92100000D02*
X137000000Y-92961641D01*
X128718710Y-90660490D02*
X123839510Y-90660490D01*
X138338359Y-94300000D02*
X142400000Y-94300000D01*
%TO.N,D1-A1*%
X128718710Y-83040490D02*
X123839510Y-83040490D01*
X130640490Y-83040490D02*
X130800000Y-83200000D01*
X128718710Y-83040490D02*
X130640490Y-83040490D01*
X123839510Y-83040490D02*
X123500000Y-83380000D01*
%TO.N,D0-A0*%
X134075000Y-100200000D02*
X130200000Y-100200000D01*
X128990220Y-80772000D02*
X128718710Y-80500490D01*
X128718710Y-80500490D02*
X123839510Y-80500490D01*
X123839510Y-80500490D02*
X123500000Y-80840000D01*
X136600000Y-102725000D02*
X134075000Y-100200000D01*
X130200000Y-100200000D02*
X126600000Y-100200000D01*
%TO.N,D6-TX*%
X123839510Y-95740490D02*
X123500000Y-96080000D01*
X128718710Y-95740490D02*
X123839510Y-95740490D01*
%TO.N,D9-MISO*%
X144883270Y-90660490D02*
X142589510Y-90660490D01*
X142589510Y-90660490D02*
X142500000Y-90750000D01*
%TO.N,D10-MOSI*%
X125542000Y-104650000D02*
X127650000Y-104650000D01*
X144883270Y-88120490D02*
X142879510Y-88120490D01*
X142879510Y-88120490D02*
X142750000Y-88250000D01*
X123952000Y-106240000D02*
X125542000Y-104650000D01*
X127650000Y-104650000D02*
X127700000Y-104700000D01*
%TO.N,GND*%
X149859510Y-83040490D02*
X146859510Y-83040490D01*
X146740490Y-83040490D02*
X144883270Y-83040490D01*
X145092780Y-83250000D02*
X144883270Y-83040490D01*
X146859510Y-83040490D02*
X146800000Y-83100000D01*
X146800000Y-83100000D02*
X146740490Y-83040490D01*
X149850000Y-93050000D02*
X149800000Y-93000000D01*
X151240490Y-83040490D02*
X149940490Y-83040490D01*
X149900000Y-83000000D02*
X149859510Y-83040490D01*
X149940490Y-83040490D02*
X149900000Y-83000000D01*
X152100000Y-83900000D02*
X151240490Y-83040490D01*
X149800000Y-93000000D02*
X148900000Y-93000000D01*
X148100000Y-83250000D02*
X145092780Y-83250000D01*
%TO.N,D7-RX*%
X143500000Y-97123760D02*
X143500000Y-97250000D01*
X143500000Y-97250000D02*
X141500000Y-99250000D01*
X124130000Y-99250000D02*
X123500000Y-98620000D01*
X144883270Y-95740490D02*
X143500000Y-97123760D01*
X141500000Y-99250000D02*
X124130000Y-99250000D01*
%TO.N,Net-(J2-Pin_2)*%
X132935000Y-105265000D02*
X132300000Y-105900000D01*
X136600000Y-105265000D02*
X132935000Y-105265000D01*
%TO.N,Net-(J3-Pin_3)*%
X150112500Y-110300000D02*
X152800000Y-110300000D01*
X152800000Y-110300000D02*
X152900000Y-110200000D01*
%TO.N,Net-(J4-Pin_2)*%
X151387500Y-96000000D02*
X149435000Y-96000000D01*
X149435000Y-96000000D02*
X148600000Y-96835000D01*
%TO.N,Net-(D2-DIN)*%
X153150000Y-95937500D02*
X153212500Y-96000000D01*
X153150000Y-93050000D02*
X153150000Y-95937500D01*
%TO.N,Net-(J3-Pin_4)*%
X152840000Y-112800000D02*
X152900000Y-112740000D01*
X150112500Y-112800000D02*
X152840000Y-112800000D01*
%TO.N,Net-(J3-Pin_1)*%
X152900000Y-105120000D02*
X145885000Y-105120000D01*
X145885000Y-105120000D02*
X145765000Y-105000000D01*
%TD*%
M02*
