%TF.GenerationSoftware,KiCad,Pcbnew,8.0.1*%
%TF.CreationDate,2024-05-28T10:15:20-03:00*%
%TF.ProjectId,ESP32C6-dev-board,45535033-3243-4362-9d64-65762d626f61,rev?*%
%TF.SameCoordinates,Original*%
%TF.FileFunction,Drillmap*%
%TF.FilePolarity,Positive*%
%FSLAX45Y45*%
G04 Gerber Fmt 4.5, Leading zero omitted, Abs format (unit mm)*
G04 Created by KiCad (PCBNEW 8.0.1) date 2024-05-28 10:15:20*
%MOMM*%
%LPD*%
G01*
G04 APERTURE LIST*
%ADD10C,0.100000*%
%ADD11C,0.200000*%
G04 APERTURE END LIST*
D10*
X12170000Y-7834000D02*
X15737800Y-7834000D01*
X15737800Y-11900000D01*
X12170000Y-11900000D01*
X12170000Y-7834000D01*
D11*
D10*
X12610000Y-10010000D02*
X12640000Y-10040000D01*
X12640000Y-10010000D02*
X12610000Y-10040000D01*
X12860000Y-11260000D02*
X12890000Y-11290000D01*
X12890000Y-11260000D02*
X12860000Y-11290000D01*
X13035000Y-8910000D02*
X13065000Y-8940000D01*
X13065000Y-8910000D02*
X13035000Y-8940000D01*
X13142200Y-8062200D02*
X13172200Y-8092200D01*
X13172200Y-8062200D02*
X13142200Y-8092200D01*
X13360000Y-10435000D02*
X13390000Y-10465000D01*
X13390000Y-10435000D02*
X13360000Y-10465000D01*
X13360000Y-11535000D02*
X13390000Y-11565000D01*
X13390000Y-11535000D02*
X13360000Y-11565000D01*
X13685000Y-9435000D02*
X13715000Y-9465000D01*
X13715000Y-9435000D02*
X13685000Y-9465000D01*
X14235000Y-9060000D02*
X14265000Y-9090000D01*
X14265000Y-9060000D02*
X14235000Y-9090000D01*
X14260000Y-8810000D02*
X14290000Y-8840000D01*
X14290000Y-8810000D02*
X14260000Y-8840000D01*
X14585000Y-11135000D02*
X14615000Y-11165000D01*
X14615000Y-11135000D02*
X14585000Y-11165000D01*
X14635000Y-8035000D02*
X14665000Y-8065000D01*
X14665000Y-8035000D02*
X14635000Y-8065000D01*
X14635000Y-11410000D02*
X14665000Y-11440000D01*
X14665000Y-11410000D02*
X14635000Y-11440000D01*
X14685000Y-8385000D02*
X14715000Y-8415000D01*
X14715000Y-8385000D02*
X14685000Y-8415000D01*
X14835000Y-7985000D02*
X14865000Y-8015000D01*
X14865000Y-7985000D02*
X14835000Y-8015000D01*
X14885000Y-9935000D02*
X14915000Y-9965000D01*
X14915000Y-9935000D02*
X14885000Y-9965000D01*
X14885000Y-11185000D02*
X14915000Y-11215000D01*
X14915000Y-11185000D02*
X14885000Y-11215000D01*
X15135000Y-7885000D02*
X15165000Y-7915000D01*
X15165000Y-7885000D02*
X15135000Y-7915000D01*
X15185000Y-8635000D02*
X15215000Y-8665000D01*
X15215000Y-8635000D02*
X15185000Y-8665000D01*
X14022300Y-10337800D02*
G75*
G02*
X13947300Y-10337800I-37500J0D01*
G01*
X13947300Y-10337800D02*
G75*
G02*
X14022300Y-10337800I37500J0D01*
G01*
X14022300Y-10464800D02*
G75*
G02*
X13947300Y-10464800I-37500J0D01*
G01*
X13947300Y-10464800D02*
G75*
G02*
X14022300Y-10464800I37500J0D01*
G01*
X14022300Y-10591800D02*
G75*
G02*
X13947300Y-10591800I-37500J0D01*
G01*
X13947300Y-10591800D02*
G75*
G02*
X14022300Y-10591800I37500J0D01*
G01*
X15036800Y-10777000D02*
X15036800Y-10857000D01*
X14996800Y-10817000D02*
X15076800Y-10817000D01*
X15036800Y-11031000D02*
X15036800Y-11111000D01*
X14996800Y-11071000D02*
X15076800Y-11071000D01*
X15036800Y-11285000D02*
X15036800Y-11365000D01*
X14996800Y-11325000D02*
X15076800Y-11325000D01*
X15036800Y-11539000D02*
X15036800Y-11619000D01*
X14996800Y-11579000D02*
X15076800Y-11579000D01*
X12430556Y-8119356D02*
X12430556Y-8048644D01*
X12359844Y-8048644D01*
X12359844Y-8119356D01*
X12430556Y-8119356D01*
X12430556Y-8373356D02*
X12430556Y-8302644D01*
X12359844Y-8302644D01*
X12359844Y-8373356D01*
X12430556Y-8373356D01*
X12430556Y-8627356D02*
X12430556Y-8556644D01*
X12359844Y-8556644D01*
X12359844Y-8627356D01*
X12430556Y-8627356D01*
X12430556Y-8881356D02*
X12430556Y-8810644D01*
X12359844Y-8810644D01*
X12359844Y-8881356D01*
X12430556Y-8881356D01*
X12430556Y-9135356D02*
X12430556Y-9064644D01*
X12359844Y-9064644D01*
X12359844Y-9135356D01*
X12430556Y-9135356D01*
X12430556Y-9389356D02*
X12430556Y-9318644D01*
X12359844Y-9318644D01*
X12359844Y-9389356D01*
X12430556Y-9389356D01*
X12430556Y-9643356D02*
X12430556Y-9572644D01*
X12359844Y-9572644D01*
X12359844Y-9643356D01*
X12430556Y-9643356D01*
X12430556Y-9897356D02*
X12430556Y-9826644D01*
X12359844Y-9826644D01*
X12359844Y-9897356D01*
X12430556Y-9897356D01*
X12430556Y-10151356D02*
X12430556Y-10080644D01*
X12359844Y-10080644D01*
X12359844Y-10151356D01*
X12430556Y-10151356D01*
X12430556Y-10405356D02*
X12430556Y-10334644D01*
X12359844Y-10334644D01*
X12359844Y-10405356D01*
X12430556Y-10405356D01*
X12430556Y-10659356D02*
X12430556Y-10588644D01*
X12359844Y-10588644D01*
X12359844Y-10659356D01*
X12430556Y-10659356D01*
X12430556Y-10913356D02*
X12430556Y-10842644D01*
X12359844Y-10842644D01*
X12359844Y-10913356D01*
X12430556Y-10913356D01*
X12430556Y-11167356D02*
X12430556Y-11096644D01*
X12359844Y-11096644D01*
X12359844Y-11167356D01*
X12430556Y-11167356D01*
X12430556Y-11421356D02*
X12430556Y-11350644D01*
X12359844Y-11350644D01*
X12359844Y-11421356D01*
X12430556Y-11421356D01*
X12430556Y-11675356D02*
X12430556Y-11604644D01*
X12359844Y-11604644D01*
X12359844Y-11675356D01*
X12430556Y-11675356D01*
X14513356Y-10423456D02*
X14513356Y-10352744D01*
X14442644Y-10352744D01*
X14442644Y-10423456D01*
X14513356Y-10423456D01*
X14513356Y-10677456D02*
X14513356Y-10606744D01*
X14442644Y-10606744D01*
X14442644Y-10677456D01*
X14513356Y-10677456D01*
X15173756Y-9992156D02*
X15173756Y-9921444D01*
X15103044Y-9921444D01*
X15103044Y-9992156D01*
X15173756Y-9992156D01*
X15173756Y-10246156D02*
X15173756Y-10175444D01*
X15103044Y-10175444D01*
X15103044Y-10246156D01*
X15173756Y-10246156D01*
X15185356Y-9232856D02*
X15185356Y-9162144D01*
X15114644Y-9162144D01*
X15114644Y-9232856D01*
X15185356Y-9232856D01*
X15185356Y-9486856D02*
X15185356Y-9416144D01*
X15114644Y-9416144D01*
X15114644Y-9486856D01*
X15185356Y-9486856D01*
D11*
X12425777Y-12216484D02*
X12425777Y-12016484D01*
X12425777Y-12016484D02*
X12473396Y-12016484D01*
X12473396Y-12016484D02*
X12501967Y-12026008D01*
X12501967Y-12026008D02*
X12521015Y-12045055D01*
X12521015Y-12045055D02*
X12530539Y-12064103D01*
X12530539Y-12064103D02*
X12540062Y-12102198D01*
X12540062Y-12102198D02*
X12540062Y-12130769D01*
X12540062Y-12130769D02*
X12530539Y-12168865D01*
X12530539Y-12168865D02*
X12521015Y-12187912D01*
X12521015Y-12187912D02*
X12501967Y-12206960D01*
X12501967Y-12206960D02*
X12473396Y-12216484D01*
X12473396Y-12216484D02*
X12425777Y-12216484D01*
X12625777Y-12216484D02*
X12625777Y-12083150D01*
X12625777Y-12121246D02*
X12635301Y-12102198D01*
X12635301Y-12102198D02*
X12644824Y-12092674D01*
X12644824Y-12092674D02*
X12663872Y-12083150D01*
X12663872Y-12083150D02*
X12682920Y-12083150D01*
X12749586Y-12216484D02*
X12749586Y-12083150D01*
X12749586Y-12016484D02*
X12740062Y-12026008D01*
X12740062Y-12026008D02*
X12749586Y-12035531D01*
X12749586Y-12035531D02*
X12759110Y-12026008D01*
X12759110Y-12026008D02*
X12749586Y-12016484D01*
X12749586Y-12016484D02*
X12749586Y-12035531D01*
X12873396Y-12216484D02*
X12854348Y-12206960D01*
X12854348Y-12206960D02*
X12844824Y-12187912D01*
X12844824Y-12187912D02*
X12844824Y-12016484D01*
X12978158Y-12216484D02*
X12959110Y-12206960D01*
X12959110Y-12206960D02*
X12949586Y-12187912D01*
X12949586Y-12187912D02*
X12949586Y-12016484D01*
X13206729Y-12216484D02*
X13206729Y-12016484D01*
X13206729Y-12016484D02*
X13273396Y-12159341D01*
X13273396Y-12159341D02*
X13340062Y-12016484D01*
X13340062Y-12016484D02*
X13340062Y-12216484D01*
X13521015Y-12216484D02*
X13521015Y-12111722D01*
X13521015Y-12111722D02*
X13511491Y-12092674D01*
X13511491Y-12092674D02*
X13492443Y-12083150D01*
X13492443Y-12083150D02*
X13454348Y-12083150D01*
X13454348Y-12083150D02*
X13435301Y-12092674D01*
X13521015Y-12206960D02*
X13501967Y-12216484D01*
X13501967Y-12216484D02*
X13454348Y-12216484D01*
X13454348Y-12216484D02*
X13435301Y-12206960D01*
X13435301Y-12206960D02*
X13425777Y-12187912D01*
X13425777Y-12187912D02*
X13425777Y-12168865D01*
X13425777Y-12168865D02*
X13435301Y-12149817D01*
X13435301Y-12149817D02*
X13454348Y-12140293D01*
X13454348Y-12140293D02*
X13501967Y-12140293D01*
X13501967Y-12140293D02*
X13521015Y-12130769D01*
X13616253Y-12083150D02*
X13616253Y-12283150D01*
X13616253Y-12092674D02*
X13635301Y-12083150D01*
X13635301Y-12083150D02*
X13673396Y-12083150D01*
X13673396Y-12083150D02*
X13692443Y-12092674D01*
X13692443Y-12092674D02*
X13701967Y-12102198D01*
X13701967Y-12102198D02*
X13711491Y-12121246D01*
X13711491Y-12121246D02*
X13711491Y-12178388D01*
X13711491Y-12178388D02*
X13701967Y-12197436D01*
X13701967Y-12197436D02*
X13692443Y-12206960D01*
X13692443Y-12206960D02*
X13673396Y-12216484D01*
X13673396Y-12216484D02*
X13635301Y-12216484D01*
X13635301Y-12216484D02*
X13616253Y-12206960D01*
X13797205Y-12197436D02*
X13806729Y-12206960D01*
X13806729Y-12206960D02*
X13797205Y-12216484D01*
X13797205Y-12216484D02*
X13787682Y-12206960D01*
X13787682Y-12206960D02*
X13797205Y-12197436D01*
X13797205Y-12197436D02*
X13797205Y-12216484D01*
X13797205Y-12092674D02*
X13806729Y-12102198D01*
X13806729Y-12102198D02*
X13797205Y-12111722D01*
X13797205Y-12111722D02*
X13787682Y-12102198D01*
X13787682Y-12102198D02*
X13797205Y-12092674D01*
X13797205Y-12092674D02*
X13797205Y-12111722D01*
D10*
X12135000Y-12530000D02*
X12165000Y-12560000D01*
X12165000Y-12530000D02*
X12135000Y-12560000D01*
D11*
X12463872Y-12436484D02*
X12482920Y-12436484D01*
X12482920Y-12436484D02*
X12501967Y-12446008D01*
X12501967Y-12446008D02*
X12511491Y-12455531D01*
X12511491Y-12455531D02*
X12521015Y-12474579D01*
X12521015Y-12474579D02*
X12530539Y-12512674D01*
X12530539Y-12512674D02*
X12530539Y-12560293D01*
X12530539Y-12560293D02*
X12521015Y-12598388D01*
X12521015Y-12598388D02*
X12511491Y-12617436D01*
X12511491Y-12617436D02*
X12501967Y-12626960D01*
X12501967Y-12626960D02*
X12482920Y-12636484D01*
X12482920Y-12636484D02*
X12463872Y-12636484D01*
X12463872Y-12636484D02*
X12444824Y-12626960D01*
X12444824Y-12626960D02*
X12435301Y-12617436D01*
X12435301Y-12617436D02*
X12425777Y-12598388D01*
X12425777Y-12598388D02*
X12416253Y-12560293D01*
X12416253Y-12560293D02*
X12416253Y-12512674D01*
X12416253Y-12512674D02*
X12425777Y-12474579D01*
X12425777Y-12474579D02*
X12435301Y-12455531D01*
X12435301Y-12455531D02*
X12444824Y-12446008D01*
X12444824Y-12446008D02*
X12463872Y-12436484D01*
X12616253Y-12617436D02*
X12625777Y-12626960D01*
X12625777Y-12626960D02*
X12616253Y-12636484D01*
X12616253Y-12636484D02*
X12606729Y-12626960D01*
X12606729Y-12626960D02*
X12616253Y-12617436D01*
X12616253Y-12617436D02*
X12616253Y-12636484D01*
X12692443Y-12436484D02*
X12816253Y-12436484D01*
X12816253Y-12436484D02*
X12749586Y-12512674D01*
X12749586Y-12512674D02*
X12778158Y-12512674D01*
X12778158Y-12512674D02*
X12797205Y-12522198D01*
X12797205Y-12522198D02*
X12806729Y-12531722D01*
X12806729Y-12531722D02*
X12816253Y-12550769D01*
X12816253Y-12550769D02*
X12816253Y-12598388D01*
X12816253Y-12598388D02*
X12806729Y-12617436D01*
X12806729Y-12617436D02*
X12797205Y-12626960D01*
X12797205Y-12626960D02*
X12778158Y-12636484D01*
X12778158Y-12636484D02*
X12721015Y-12636484D01*
X12721015Y-12636484D02*
X12701967Y-12626960D01*
X12701967Y-12626960D02*
X12692443Y-12617436D01*
X12940062Y-12436484D02*
X12959110Y-12436484D01*
X12959110Y-12436484D02*
X12978158Y-12446008D01*
X12978158Y-12446008D02*
X12987682Y-12455531D01*
X12987682Y-12455531D02*
X12997205Y-12474579D01*
X12997205Y-12474579D02*
X13006729Y-12512674D01*
X13006729Y-12512674D02*
X13006729Y-12560293D01*
X13006729Y-12560293D02*
X12997205Y-12598388D01*
X12997205Y-12598388D02*
X12987682Y-12617436D01*
X12987682Y-12617436D02*
X12978158Y-12626960D01*
X12978158Y-12626960D02*
X12959110Y-12636484D01*
X12959110Y-12636484D02*
X12940062Y-12636484D01*
X12940062Y-12636484D02*
X12921015Y-12626960D01*
X12921015Y-12626960D02*
X12911491Y-12617436D01*
X12911491Y-12617436D02*
X12901967Y-12598388D01*
X12901967Y-12598388D02*
X12892443Y-12560293D01*
X12892443Y-12560293D02*
X12892443Y-12512674D01*
X12892443Y-12512674D02*
X12901967Y-12474579D01*
X12901967Y-12474579D02*
X12911491Y-12455531D01*
X12911491Y-12455531D02*
X12921015Y-12446008D01*
X12921015Y-12446008D02*
X12940062Y-12436484D01*
X13130539Y-12436484D02*
X13149586Y-12436484D01*
X13149586Y-12436484D02*
X13168634Y-12446008D01*
X13168634Y-12446008D02*
X13178158Y-12455531D01*
X13178158Y-12455531D02*
X13187682Y-12474579D01*
X13187682Y-12474579D02*
X13197205Y-12512674D01*
X13197205Y-12512674D02*
X13197205Y-12560293D01*
X13197205Y-12560293D02*
X13187682Y-12598388D01*
X13187682Y-12598388D02*
X13178158Y-12617436D01*
X13178158Y-12617436D02*
X13168634Y-12626960D01*
X13168634Y-12626960D02*
X13149586Y-12636484D01*
X13149586Y-12636484D02*
X13130539Y-12636484D01*
X13130539Y-12636484D02*
X13111491Y-12626960D01*
X13111491Y-12626960D02*
X13101967Y-12617436D01*
X13101967Y-12617436D02*
X13092443Y-12598388D01*
X13092443Y-12598388D02*
X13082920Y-12560293D01*
X13082920Y-12560293D02*
X13082920Y-12512674D01*
X13082920Y-12512674D02*
X13092443Y-12474579D01*
X13092443Y-12474579D02*
X13101967Y-12455531D01*
X13101967Y-12455531D02*
X13111491Y-12446008D01*
X13111491Y-12446008D02*
X13130539Y-12436484D01*
X13282920Y-12636484D02*
X13282920Y-12503150D01*
X13282920Y-12522198D02*
X13292443Y-12512674D01*
X13292443Y-12512674D02*
X13311491Y-12503150D01*
X13311491Y-12503150D02*
X13340063Y-12503150D01*
X13340063Y-12503150D02*
X13359110Y-12512674D01*
X13359110Y-12512674D02*
X13368634Y-12531722D01*
X13368634Y-12531722D02*
X13368634Y-12636484D01*
X13368634Y-12531722D02*
X13378158Y-12512674D01*
X13378158Y-12512674D02*
X13397205Y-12503150D01*
X13397205Y-12503150D02*
X13425777Y-12503150D01*
X13425777Y-12503150D02*
X13444824Y-12512674D01*
X13444824Y-12512674D02*
X13454348Y-12531722D01*
X13454348Y-12531722D02*
X13454348Y-12636484D01*
X13549586Y-12636484D02*
X13549586Y-12503150D01*
X13549586Y-12522198D02*
X13559110Y-12512674D01*
X13559110Y-12512674D02*
X13578158Y-12503150D01*
X13578158Y-12503150D02*
X13606729Y-12503150D01*
X13606729Y-12503150D02*
X13625777Y-12512674D01*
X13625777Y-12512674D02*
X13635301Y-12531722D01*
X13635301Y-12531722D02*
X13635301Y-12636484D01*
X13635301Y-12531722D02*
X13644824Y-12512674D01*
X13644824Y-12512674D02*
X13663872Y-12503150D01*
X13663872Y-12503150D02*
X13692443Y-12503150D01*
X13692443Y-12503150D02*
X13711491Y-12512674D01*
X13711491Y-12512674D02*
X13721015Y-12531722D01*
X13721015Y-12531722D02*
X13721015Y-12636484D01*
X14111491Y-12426960D02*
X13940063Y-12684103D01*
X14368634Y-12436484D02*
X14387682Y-12436484D01*
X14387682Y-12436484D02*
X14406729Y-12446008D01*
X14406729Y-12446008D02*
X14416253Y-12455531D01*
X14416253Y-12455531D02*
X14425777Y-12474579D01*
X14425777Y-12474579D02*
X14435301Y-12512674D01*
X14435301Y-12512674D02*
X14435301Y-12560293D01*
X14435301Y-12560293D02*
X14425777Y-12598388D01*
X14425777Y-12598388D02*
X14416253Y-12617436D01*
X14416253Y-12617436D02*
X14406729Y-12626960D01*
X14406729Y-12626960D02*
X14387682Y-12636484D01*
X14387682Y-12636484D02*
X14368634Y-12636484D01*
X14368634Y-12636484D02*
X14349586Y-12626960D01*
X14349586Y-12626960D02*
X14340063Y-12617436D01*
X14340063Y-12617436D02*
X14330539Y-12598388D01*
X14330539Y-12598388D02*
X14321015Y-12560293D01*
X14321015Y-12560293D02*
X14321015Y-12512674D01*
X14321015Y-12512674D02*
X14330539Y-12474579D01*
X14330539Y-12474579D02*
X14340063Y-12455531D01*
X14340063Y-12455531D02*
X14349586Y-12446008D01*
X14349586Y-12446008D02*
X14368634Y-12436484D01*
X14521015Y-12617436D02*
X14530539Y-12626960D01*
X14530539Y-12626960D02*
X14521015Y-12636484D01*
X14521015Y-12636484D02*
X14511491Y-12626960D01*
X14511491Y-12626960D02*
X14521015Y-12617436D01*
X14521015Y-12617436D02*
X14521015Y-12636484D01*
X14654348Y-12436484D02*
X14673396Y-12436484D01*
X14673396Y-12436484D02*
X14692444Y-12446008D01*
X14692444Y-12446008D02*
X14701967Y-12455531D01*
X14701967Y-12455531D02*
X14711491Y-12474579D01*
X14711491Y-12474579D02*
X14721015Y-12512674D01*
X14721015Y-12512674D02*
X14721015Y-12560293D01*
X14721015Y-12560293D02*
X14711491Y-12598388D01*
X14711491Y-12598388D02*
X14701967Y-12617436D01*
X14701967Y-12617436D02*
X14692444Y-12626960D01*
X14692444Y-12626960D02*
X14673396Y-12636484D01*
X14673396Y-12636484D02*
X14654348Y-12636484D01*
X14654348Y-12636484D02*
X14635301Y-12626960D01*
X14635301Y-12626960D02*
X14625777Y-12617436D01*
X14625777Y-12617436D02*
X14616253Y-12598388D01*
X14616253Y-12598388D02*
X14606729Y-12560293D01*
X14606729Y-12560293D02*
X14606729Y-12512674D01*
X14606729Y-12512674D02*
X14616253Y-12474579D01*
X14616253Y-12474579D02*
X14625777Y-12455531D01*
X14625777Y-12455531D02*
X14635301Y-12446008D01*
X14635301Y-12446008D02*
X14654348Y-12436484D01*
X14911491Y-12636484D02*
X14797206Y-12636484D01*
X14854348Y-12636484D02*
X14854348Y-12436484D01*
X14854348Y-12436484D02*
X14835301Y-12465055D01*
X14835301Y-12465055D02*
X14816253Y-12484103D01*
X14816253Y-12484103D02*
X14797206Y-12493627D01*
X15101967Y-12636484D02*
X14987682Y-12636484D01*
X15044825Y-12636484D02*
X15044825Y-12436484D01*
X15044825Y-12436484D02*
X15025777Y-12465055D01*
X15025777Y-12465055D02*
X15006729Y-12484103D01*
X15006729Y-12484103D02*
X14987682Y-12493627D01*
X15216253Y-12522198D02*
X15197206Y-12512674D01*
X15197206Y-12512674D02*
X15187682Y-12503150D01*
X15187682Y-12503150D02*
X15178158Y-12484103D01*
X15178158Y-12484103D02*
X15178158Y-12474579D01*
X15178158Y-12474579D02*
X15187682Y-12455531D01*
X15187682Y-12455531D02*
X15197206Y-12446008D01*
X15197206Y-12446008D02*
X15216253Y-12436484D01*
X15216253Y-12436484D02*
X15254348Y-12436484D01*
X15254348Y-12436484D02*
X15273396Y-12446008D01*
X15273396Y-12446008D02*
X15282920Y-12455531D01*
X15282920Y-12455531D02*
X15292444Y-12474579D01*
X15292444Y-12474579D02*
X15292444Y-12484103D01*
X15292444Y-12484103D02*
X15282920Y-12503150D01*
X15282920Y-12503150D02*
X15273396Y-12512674D01*
X15273396Y-12512674D02*
X15254348Y-12522198D01*
X15254348Y-12522198D02*
X15216253Y-12522198D01*
X15216253Y-12522198D02*
X15197206Y-12531722D01*
X15197206Y-12531722D02*
X15187682Y-12541246D01*
X15187682Y-12541246D02*
X15178158Y-12560293D01*
X15178158Y-12560293D02*
X15178158Y-12598388D01*
X15178158Y-12598388D02*
X15187682Y-12617436D01*
X15187682Y-12617436D02*
X15197206Y-12626960D01*
X15197206Y-12626960D02*
X15216253Y-12636484D01*
X15216253Y-12636484D02*
X15254348Y-12636484D01*
X15254348Y-12636484D02*
X15273396Y-12626960D01*
X15273396Y-12626960D02*
X15282920Y-12617436D01*
X15282920Y-12617436D02*
X15292444Y-12598388D01*
X15292444Y-12598388D02*
X15292444Y-12560293D01*
X15292444Y-12560293D02*
X15282920Y-12541246D01*
X15282920Y-12541246D02*
X15273396Y-12531722D01*
X15273396Y-12531722D02*
X15254348Y-12522198D01*
X15368634Y-12436484D02*
X15368634Y-12474579D01*
X15444825Y-12436484D02*
X15444825Y-12474579D01*
X15740063Y-12712674D02*
X15730539Y-12703150D01*
X15730539Y-12703150D02*
X15711491Y-12674579D01*
X15711491Y-12674579D02*
X15701968Y-12655531D01*
X15701968Y-12655531D02*
X15692444Y-12626960D01*
X15692444Y-12626960D02*
X15682920Y-12579341D01*
X15682920Y-12579341D02*
X15682920Y-12541246D01*
X15682920Y-12541246D02*
X15692444Y-12493627D01*
X15692444Y-12493627D02*
X15701968Y-12465055D01*
X15701968Y-12465055D02*
X15711491Y-12446008D01*
X15711491Y-12446008D02*
X15730539Y-12417436D01*
X15730539Y-12417436D02*
X15740063Y-12407912D01*
X15921015Y-12636484D02*
X15806729Y-12636484D01*
X15863872Y-12636484D02*
X15863872Y-12436484D01*
X15863872Y-12436484D02*
X15844825Y-12465055D01*
X15844825Y-12465055D02*
X15825777Y-12484103D01*
X15825777Y-12484103D02*
X15806729Y-12493627D01*
X16035301Y-12522198D02*
X16016253Y-12512674D01*
X16016253Y-12512674D02*
X16006729Y-12503150D01*
X16006729Y-12503150D02*
X15997206Y-12484103D01*
X15997206Y-12484103D02*
X15997206Y-12474579D01*
X15997206Y-12474579D02*
X16006729Y-12455531D01*
X16006729Y-12455531D02*
X16016253Y-12446008D01*
X16016253Y-12446008D02*
X16035301Y-12436484D01*
X16035301Y-12436484D02*
X16073396Y-12436484D01*
X16073396Y-12436484D02*
X16092444Y-12446008D01*
X16092444Y-12446008D02*
X16101968Y-12455531D01*
X16101968Y-12455531D02*
X16111491Y-12474579D01*
X16111491Y-12474579D02*
X16111491Y-12484103D01*
X16111491Y-12484103D02*
X16101968Y-12503150D01*
X16101968Y-12503150D02*
X16092444Y-12512674D01*
X16092444Y-12512674D02*
X16073396Y-12522198D01*
X16073396Y-12522198D02*
X16035301Y-12522198D01*
X16035301Y-12522198D02*
X16016253Y-12531722D01*
X16016253Y-12531722D02*
X16006729Y-12541246D01*
X16006729Y-12541246D02*
X15997206Y-12560293D01*
X15997206Y-12560293D02*
X15997206Y-12598388D01*
X15997206Y-12598388D02*
X16006729Y-12617436D01*
X16006729Y-12617436D02*
X16016253Y-12626960D01*
X16016253Y-12626960D02*
X16035301Y-12636484D01*
X16035301Y-12636484D02*
X16073396Y-12636484D01*
X16073396Y-12636484D02*
X16092444Y-12626960D01*
X16092444Y-12626960D02*
X16101968Y-12617436D01*
X16101968Y-12617436D02*
X16111491Y-12598388D01*
X16111491Y-12598388D02*
X16111491Y-12560293D01*
X16111491Y-12560293D02*
X16101968Y-12541246D01*
X16101968Y-12541246D02*
X16092444Y-12531722D01*
X16092444Y-12531722D02*
X16073396Y-12522198D01*
X16349587Y-12636484D02*
X16349587Y-12436484D01*
X16435301Y-12636484D02*
X16435301Y-12531722D01*
X16435301Y-12531722D02*
X16425777Y-12512674D01*
X16425777Y-12512674D02*
X16406730Y-12503150D01*
X16406730Y-12503150D02*
X16378158Y-12503150D01*
X16378158Y-12503150D02*
X16359110Y-12512674D01*
X16359110Y-12512674D02*
X16349587Y-12522198D01*
X16559110Y-12636484D02*
X16540063Y-12626960D01*
X16540063Y-12626960D02*
X16530539Y-12617436D01*
X16530539Y-12617436D02*
X16521015Y-12598388D01*
X16521015Y-12598388D02*
X16521015Y-12541246D01*
X16521015Y-12541246D02*
X16530539Y-12522198D01*
X16530539Y-12522198D02*
X16540063Y-12512674D01*
X16540063Y-12512674D02*
X16559110Y-12503150D01*
X16559110Y-12503150D02*
X16587682Y-12503150D01*
X16587682Y-12503150D02*
X16606730Y-12512674D01*
X16606730Y-12512674D02*
X16616253Y-12522198D01*
X16616253Y-12522198D02*
X16625777Y-12541246D01*
X16625777Y-12541246D02*
X16625777Y-12598388D01*
X16625777Y-12598388D02*
X16616253Y-12617436D01*
X16616253Y-12617436D02*
X16606730Y-12626960D01*
X16606730Y-12626960D02*
X16587682Y-12636484D01*
X16587682Y-12636484D02*
X16559110Y-12636484D01*
X16740063Y-12636484D02*
X16721015Y-12626960D01*
X16721015Y-12626960D02*
X16711491Y-12607912D01*
X16711491Y-12607912D02*
X16711491Y-12436484D01*
X16892444Y-12626960D02*
X16873396Y-12636484D01*
X16873396Y-12636484D02*
X16835301Y-12636484D01*
X16835301Y-12636484D02*
X16816253Y-12626960D01*
X16816253Y-12626960D02*
X16806730Y-12607912D01*
X16806730Y-12607912D02*
X16806730Y-12531722D01*
X16806730Y-12531722D02*
X16816253Y-12512674D01*
X16816253Y-12512674D02*
X16835301Y-12503150D01*
X16835301Y-12503150D02*
X16873396Y-12503150D01*
X16873396Y-12503150D02*
X16892444Y-12512674D01*
X16892444Y-12512674D02*
X16901968Y-12531722D01*
X16901968Y-12531722D02*
X16901968Y-12550769D01*
X16901968Y-12550769D02*
X16806730Y-12569817D01*
X16978158Y-12626960D02*
X16997206Y-12636484D01*
X16997206Y-12636484D02*
X17035301Y-12636484D01*
X17035301Y-12636484D02*
X17054349Y-12626960D01*
X17054349Y-12626960D02*
X17063873Y-12607912D01*
X17063873Y-12607912D02*
X17063873Y-12598388D01*
X17063873Y-12598388D02*
X17054349Y-12579341D01*
X17054349Y-12579341D02*
X17035301Y-12569817D01*
X17035301Y-12569817D02*
X17006730Y-12569817D01*
X17006730Y-12569817D02*
X16987682Y-12560293D01*
X16987682Y-12560293D02*
X16978158Y-12541246D01*
X16978158Y-12541246D02*
X16978158Y-12531722D01*
X16978158Y-12531722D02*
X16987682Y-12512674D01*
X16987682Y-12512674D02*
X17006730Y-12503150D01*
X17006730Y-12503150D02*
X17035301Y-12503150D01*
X17035301Y-12503150D02*
X17054349Y-12512674D01*
X17130539Y-12712674D02*
X17140063Y-12703150D01*
X17140063Y-12703150D02*
X17159111Y-12674579D01*
X17159111Y-12674579D02*
X17168634Y-12655531D01*
X17168634Y-12655531D02*
X17178158Y-12626960D01*
X17178158Y-12626960D02*
X17187682Y-12579341D01*
X17187682Y-12579341D02*
X17187682Y-12541246D01*
X17187682Y-12541246D02*
X17178158Y-12493627D01*
X17178158Y-12493627D02*
X17168634Y-12465055D01*
X17168634Y-12465055D02*
X17159111Y-12446008D01*
X17159111Y-12446008D02*
X17140063Y-12417436D01*
X17140063Y-12417436D02*
X17130539Y-12407912D01*
D10*
X12165000Y-12809000D02*
G75*
G02*
X12090000Y-12809000I-37500J0D01*
G01*
X12090000Y-12809000D02*
G75*
G02*
X12165000Y-12809000I37500J0D01*
G01*
D11*
X12463872Y-12700484D02*
X12482920Y-12700484D01*
X12482920Y-12700484D02*
X12501967Y-12710008D01*
X12501967Y-12710008D02*
X12511491Y-12719531D01*
X12511491Y-12719531D02*
X12521015Y-12738579D01*
X12521015Y-12738579D02*
X12530539Y-12776674D01*
X12530539Y-12776674D02*
X12530539Y-12824293D01*
X12530539Y-12824293D02*
X12521015Y-12862388D01*
X12521015Y-12862388D02*
X12511491Y-12881436D01*
X12511491Y-12881436D02*
X12501967Y-12890960D01*
X12501967Y-12890960D02*
X12482920Y-12900484D01*
X12482920Y-12900484D02*
X12463872Y-12900484D01*
X12463872Y-12900484D02*
X12444824Y-12890960D01*
X12444824Y-12890960D02*
X12435301Y-12881436D01*
X12435301Y-12881436D02*
X12425777Y-12862388D01*
X12425777Y-12862388D02*
X12416253Y-12824293D01*
X12416253Y-12824293D02*
X12416253Y-12776674D01*
X12416253Y-12776674D02*
X12425777Y-12738579D01*
X12425777Y-12738579D02*
X12435301Y-12719531D01*
X12435301Y-12719531D02*
X12444824Y-12710008D01*
X12444824Y-12710008D02*
X12463872Y-12700484D01*
X12616253Y-12881436D02*
X12625777Y-12890960D01*
X12625777Y-12890960D02*
X12616253Y-12900484D01*
X12616253Y-12900484D02*
X12606729Y-12890960D01*
X12606729Y-12890960D02*
X12616253Y-12881436D01*
X12616253Y-12881436D02*
X12616253Y-12900484D01*
X12692443Y-12700484D02*
X12825777Y-12700484D01*
X12825777Y-12700484D02*
X12740062Y-12900484D01*
X12997205Y-12700484D02*
X12901967Y-12700484D01*
X12901967Y-12700484D02*
X12892443Y-12795722D01*
X12892443Y-12795722D02*
X12901967Y-12786198D01*
X12901967Y-12786198D02*
X12921015Y-12776674D01*
X12921015Y-12776674D02*
X12968634Y-12776674D01*
X12968634Y-12776674D02*
X12987682Y-12786198D01*
X12987682Y-12786198D02*
X12997205Y-12795722D01*
X12997205Y-12795722D02*
X13006729Y-12814769D01*
X13006729Y-12814769D02*
X13006729Y-12862388D01*
X13006729Y-12862388D02*
X12997205Y-12881436D01*
X12997205Y-12881436D02*
X12987682Y-12890960D01*
X12987682Y-12890960D02*
X12968634Y-12900484D01*
X12968634Y-12900484D02*
X12921015Y-12900484D01*
X12921015Y-12900484D02*
X12901967Y-12890960D01*
X12901967Y-12890960D02*
X12892443Y-12881436D01*
X13130539Y-12700484D02*
X13149586Y-12700484D01*
X13149586Y-12700484D02*
X13168634Y-12710008D01*
X13168634Y-12710008D02*
X13178158Y-12719531D01*
X13178158Y-12719531D02*
X13187682Y-12738579D01*
X13187682Y-12738579D02*
X13197205Y-12776674D01*
X13197205Y-12776674D02*
X13197205Y-12824293D01*
X13197205Y-12824293D02*
X13187682Y-12862388D01*
X13187682Y-12862388D02*
X13178158Y-12881436D01*
X13178158Y-12881436D02*
X13168634Y-12890960D01*
X13168634Y-12890960D02*
X13149586Y-12900484D01*
X13149586Y-12900484D02*
X13130539Y-12900484D01*
X13130539Y-12900484D02*
X13111491Y-12890960D01*
X13111491Y-12890960D02*
X13101967Y-12881436D01*
X13101967Y-12881436D02*
X13092443Y-12862388D01*
X13092443Y-12862388D02*
X13082920Y-12824293D01*
X13082920Y-12824293D02*
X13082920Y-12776674D01*
X13082920Y-12776674D02*
X13092443Y-12738579D01*
X13092443Y-12738579D02*
X13101967Y-12719531D01*
X13101967Y-12719531D02*
X13111491Y-12710008D01*
X13111491Y-12710008D02*
X13130539Y-12700484D01*
X13282920Y-12900484D02*
X13282920Y-12767150D01*
X13282920Y-12786198D02*
X13292443Y-12776674D01*
X13292443Y-12776674D02*
X13311491Y-12767150D01*
X13311491Y-12767150D02*
X13340063Y-12767150D01*
X13340063Y-12767150D02*
X13359110Y-12776674D01*
X13359110Y-12776674D02*
X13368634Y-12795722D01*
X13368634Y-12795722D02*
X13368634Y-12900484D01*
X13368634Y-12795722D02*
X13378158Y-12776674D01*
X13378158Y-12776674D02*
X13397205Y-12767150D01*
X13397205Y-12767150D02*
X13425777Y-12767150D01*
X13425777Y-12767150D02*
X13444824Y-12776674D01*
X13444824Y-12776674D02*
X13454348Y-12795722D01*
X13454348Y-12795722D02*
X13454348Y-12900484D01*
X13549586Y-12900484D02*
X13549586Y-12767150D01*
X13549586Y-12786198D02*
X13559110Y-12776674D01*
X13559110Y-12776674D02*
X13578158Y-12767150D01*
X13578158Y-12767150D02*
X13606729Y-12767150D01*
X13606729Y-12767150D02*
X13625777Y-12776674D01*
X13625777Y-12776674D02*
X13635301Y-12795722D01*
X13635301Y-12795722D02*
X13635301Y-12900484D01*
X13635301Y-12795722D02*
X13644824Y-12776674D01*
X13644824Y-12776674D02*
X13663872Y-12767150D01*
X13663872Y-12767150D02*
X13692443Y-12767150D01*
X13692443Y-12767150D02*
X13711491Y-12776674D01*
X13711491Y-12776674D02*
X13721015Y-12795722D01*
X13721015Y-12795722D02*
X13721015Y-12900484D01*
X14111491Y-12690960D02*
X13940063Y-12948103D01*
X14368634Y-12700484D02*
X14387682Y-12700484D01*
X14387682Y-12700484D02*
X14406729Y-12710008D01*
X14406729Y-12710008D02*
X14416253Y-12719531D01*
X14416253Y-12719531D02*
X14425777Y-12738579D01*
X14425777Y-12738579D02*
X14435301Y-12776674D01*
X14435301Y-12776674D02*
X14435301Y-12824293D01*
X14435301Y-12824293D02*
X14425777Y-12862388D01*
X14425777Y-12862388D02*
X14416253Y-12881436D01*
X14416253Y-12881436D02*
X14406729Y-12890960D01*
X14406729Y-12890960D02*
X14387682Y-12900484D01*
X14387682Y-12900484D02*
X14368634Y-12900484D01*
X14368634Y-12900484D02*
X14349586Y-12890960D01*
X14349586Y-12890960D02*
X14340063Y-12881436D01*
X14340063Y-12881436D02*
X14330539Y-12862388D01*
X14330539Y-12862388D02*
X14321015Y-12824293D01*
X14321015Y-12824293D02*
X14321015Y-12776674D01*
X14321015Y-12776674D02*
X14330539Y-12738579D01*
X14330539Y-12738579D02*
X14340063Y-12719531D01*
X14340063Y-12719531D02*
X14349586Y-12710008D01*
X14349586Y-12710008D02*
X14368634Y-12700484D01*
X14521015Y-12881436D02*
X14530539Y-12890960D01*
X14530539Y-12890960D02*
X14521015Y-12900484D01*
X14521015Y-12900484D02*
X14511491Y-12890960D01*
X14511491Y-12890960D02*
X14521015Y-12881436D01*
X14521015Y-12881436D02*
X14521015Y-12900484D01*
X14654348Y-12700484D02*
X14673396Y-12700484D01*
X14673396Y-12700484D02*
X14692444Y-12710008D01*
X14692444Y-12710008D02*
X14701967Y-12719531D01*
X14701967Y-12719531D02*
X14711491Y-12738579D01*
X14711491Y-12738579D02*
X14721015Y-12776674D01*
X14721015Y-12776674D02*
X14721015Y-12824293D01*
X14721015Y-12824293D02*
X14711491Y-12862388D01*
X14711491Y-12862388D02*
X14701967Y-12881436D01*
X14701967Y-12881436D02*
X14692444Y-12890960D01*
X14692444Y-12890960D02*
X14673396Y-12900484D01*
X14673396Y-12900484D02*
X14654348Y-12900484D01*
X14654348Y-12900484D02*
X14635301Y-12890960D01*
X14635301Y-12890960D02*
X14625777Y-12881436D01*
X14625777Y-12881436D02*
X14616253Y-12862388D01*
X14616253Y-12862388D02*
X14606729Y-12824293D01*
X14606729Y-12824293D02*
X14606729Y-12776674D01*
X14606729Y-12776674D02*
X14616253Y-12738579D01*
X14616253Y-12738579D02*
X14625777Y-12719531D01*
X14625777Y-12719531D02*
X14635301Y-12710008D01*
X14635301Y-12710008D02*
X14654348Y-12700484D01*
X14797206Y-12719531D02*
X14806729Y-12710008D01*
X14806729Y-12710008D02*
X14825777Y-12700484D01*
X14825777Y-12700484D02*
X14873396Y-12700484D01*
X14873396Y-12700484D02*
X14892444Y-12710008D01*
X14892444Y-12710008D02*
X14901967Y-12719531D01*
X14901967Y-12719531D02*
X14911491Y-12738579D01*
X14911491Y-12738579D02*
X14911491Y-12757627D01*
X14911491Y-12757627D02*
X14901967Y-12786198D01*
X14901967Y-12786198D02*
X14787682Y-12900484D01*
X14787682Y-12900484D02*
X14911491Y-12900484D01*
X15006729Y-12900484D02*
X15044825Y-12900484D01*
X15044825Y-12900484D02*
X15063872Y-12890960D01*
X15063872Y-12890960D02*
X15073396Y-12881436D01*
X15073396Y-12881436D02*
X15092444Y-12852865D01*
X15092444Y-12852865D02*
X15101967Y-12814769D01*
X15101967Y-12814769D02*
X15101967Y-12738579D01*
X15101967Y-12738579D02*
X15092444Y-12719531D01*
X15092444Y-12719531D02*
X15082920Y-12710008D01*
X15082920Y-12710008D02*
X15063872Y-12700484D01*
X15063872Y-12700484D02*
X15025777Y-12700484D01*
X15025777Y-12700484D02*
X15006729Y-12710008D01*
X15006729Y-12710008D02*
X14997206Y-12719531D01*
X14997206Y-12719531D02*
X14987682Y-12738579D01*
X14987682Y-12738579D02*
X14987682Y-12786198D01*
X14987682Y-12786198D02*
X14997206Y-12805246D01*
X14997206Y-12805246D02*
X15006729Y-12814769D01*
X15006729Y-12814769D02*
X15025777Y-12824293D01*
X15025777Y-12824293D02*
X15063872Y-12824293D01*
X15063872Y-12824293D02*
X15082920Y-12814769D01*
X15082920Y-12814769D02*
X15092444Y-12805246D01*
X15092444Y-12805246D02*
X15101967Y-12786198D01*
X15282920Y-12700484D02*
X15187682Y-12700484D01*
X15187682Y-12700484D02*
X15178158Y-12795722D01*
X15178158Y-12795722D02*
X15187682Y-12786198D01*
X15187682Y-12786198D02*
X15206729Y-12776674D01*
X15206729Y-12776674D02*
X15254348Y-12776674D01*
X15254348Y-12776674D02*
X15273396Y-12786198D01*
X15273396Y-12786198D02*
X15282920Y-12795722D01*
X15282920Y-12795722D02*
X15292444Y-12814769D01*
X15292444Y-12814769D02*
X15292444Y-12862388D01*
X15292444Y-12862388D02*
X15282920Y-12881436D01*
X15282920Y-12881436D02*
X15273396Y-12890960D01*
X15273396Y-12890960D02*
X15254348Y-12900484D01*
X15254348Y-12900484D02*
X15206729Y-12900484D01*
X15206729Y-12900484D02*
X15187682Y-12890960D01*
X15187682Y-12890960D02*
X15178158Y-12881436D01*
X15368634Y-12700484D02*
X15368634Y-12738579D01*
X15444825Y-12700484D02*
X15444825Y-12738579D01*
X15740063Y-12976674D02*
X15730539Y-12967150D01*
X15730539Y-12967150D02*
X15711491Y-12938579D01*
X15711491Y-12938579D02*
X15701968Y-12919531D01*
X15701968Y-12919531D02*
X15692444Y-12890960D01*
X15692444Y-12890960D02*
X15682920Y-12843341D01*
X15682920Y-12843341D02*
X15682920Y-12805246D01*
X15682920Y-12805246D02*
X15692444Y-12757627D01*
X15692444Y-12757627D02*
X15701968Y-12729055D01*
X15701968Y-12729055D02*
X15711491Y-12710008D01*
X15711491Y-12710008D02*
X15730539Y-12681436D01*
X15730539Y-12681436D02*
X15740063Y-12671912D01*
X15797206Y-12700484D02*
X15921015Y-12700484D01*
X15921015Y-12700484D02*
X15854348Y-12776674D01*
X15854348Y-12776674D02*
X15882920Y-12776674D01*
X15882920Y-12776674D02*
X15901968Y-12786198D01*
X15901968Y-12786198D02*
X15911491Y-12795722D01*
X15911491Y-12795722D02*
X15921015Y-12814769D01*
X15921015Y-12814769D02*
X15921015Y-12862388D01*
X15921015Y-12862388D02*
X15911491Y-12881436D01*
X15911491Y-12881436D02*
X15901968Y-12890960D01*
X15901968Y-12890960D02*
X15882920Y-12900484D01*
X15882920Y-12900484D02*
X15825777Y-12900484D01*
X15825777Y-12900484D02*
X15806729Y-12890960D01*
X15806729Y-12890960D02*
X15797206Y-12881436D01*
X16159110Y-12900484D02*
X16159110Y-12700484D01*
X16244825Y-12900484D02*
X16244825Y-12795722D01*
X16244825Y-12795722D02*
X16235301Y-12776674D01*
X16235301Y-12776674D02*
X16216253Y-12767150D01*
X16216253Y-12767150D02*
X16187682Y-12767150D01*
X16187682Y-12767150D02*
X16168634Y-12776674D01*
X16168634Y-12776674D02*
X16159110Y-12786198D01*
X16368634Y-12900484D02*
X16349587Y-12890960D01*
X16349587Y-12890960D02*
X16340063Y-12881436D01*
X16340063Y-12881436D02*
X16330539Y-12862388D01*
X16330539Y-12862388D02*
X16330539Y-12805246D01*
X16330539Y-12805246D02*
X16340063Y-12786198D01*
X16340063Y-12786198D02*
X16349587Y-12776674D01*
X16349587Y-12776674D02*
X16368634Y-12767150D01*
X16368634Y-12767150D02*
X16397206Y-12767150D01*
X16397206Y-12767150D02*
X16416253Y-12776674D01*
X16416253Y-12776674D02*
X16425777Y-12786198D01*
X16425777Y-12786198D02*
X16435301Y-12805246D01*
X16435301Y-12805246D02*
X16435301Y-12862388D01*
X16435301Y-12862388D02*
X16425777Y-12881436D01*
X16425777Y-12881436D02*
X16416253Y-12890960D01*
X16416253Y-12890960D02*
X16397206Y-12900484D01*
X16397206Y-12900484D02*
X16368634Y-12900484D01*
X16549587Y-12900484D02*
X16530539Y-12890960D01*
X16530539Y-12890960D02*
X16521015Y-12871912D01*
X16521015Y-12871912D02*
X16521015Y-12700484D01*
X16701968Y-12890960D02*
X16682920Y-12900484D01*
X16682920Y-12900484D02*
X16644825Y-12900484D01*
X16644825Y-12900484D02*
X16625777Y-12890960D01*
X16625777Y-12890960D02*
X16616253Y-12871912D01*
X16616253Y-12871912D02*
X16616253Y-12795722D01*
X16616253Y-12795722D02*
X16625777Y-12776674D01*
X16625777Y-12776674D02*
X16644825Y-12767150D01*
X16644825Y-12767150D02*
X16682920Y-12767150D01*
X16682920Y-12767150D02*
X16701968Y-12776674D01*
X16701968Y-12776674D02*
X16711491Y-12795722D01*
X16711491Y-12795722D02*
X16711491Y-12814769D01*
X16711491Y-12814769D02*
X16616253Y-12833817D01*
X16787682Y-12890960D02*
X16806730Y-12900484D01*
X16806730Y-12900484D02*
X16844825Y-12900484D01*
X16844825Y-12900484D02*
X16863873Y-12890960D01*
X16863873Y-12890960D02*
X16873396Y-12871912D01*
X16873396Y-12871912D02*
X16873396Y-12862388D01*
X16873396Y-12862388D02*
X16863873Y-12843341D01*
X16863873Y-12843341D02*
X16844825Y-12833817D01*
X16844825Y-12833817D02*
X16816253Y-12833817D01*
X16816253Y-12833817D02*
X16797206Y-12824293D01*
X16797206Y-12824293D02*
X16787682Y-12805246D01*
X16787682Y-12805246D02*
X16787682Y-12795722D01*
X16787682Y-12795722D02*
X16797206Y-12776674D01*
X16797206Y-12776674D02*
X16816253Y-12767150D01*
X16816253Y-12767150D02*
X16844825Y-12767150D01*
X16844825Y-12767150D02*
X16863873Y-12776674D01*
X16940063Y-12976674D02*
X16949587Y-12967150D01*
X16949587Y-12967150D02*
X16968634Y-12938579D01*
X16968634Y-12938579D02*
X16978158Y-12919531D01*
X16978158Y-12919531D02*
X16987682Y-12890960D01*
X16987682Y-12890960D02*
X16997206Y-12843341D01*
X16997206Y-12843341D02*
X16997206Y-12805246D01*
X16997206Y-12805246D02*
X16987682Y-12757627D01*
X16987682Y-12757627D02*
X16978158Y-12729055D01*
X16978158Y-12729055D02*
X16968634Y-12710008D01*
X16968634Y-12710008D02*
X16949587Y-12681436D01*
X16949587Y-12681436D02*
X16940063Y-12671912D01*
D10*
X12125000Y-13033000D02*
X12125000Y-13113000D01*
X12085000Y-13073000D02*
X12165000Y-13073000D01*
D11*
X12463872Y-12964484D02*
X12482920Y-12964484D01*
X12482920Y-12964484D02*
X12501967Y-12974008D01*
X12501967Y-12974008D02*
X12511491Y-12983531D01*
X12511491Y-12983531D02*
X12521015Y-13002579D01*
X12521015Y-13002579D02*
X12530539Y-13040674D01*
X12530539Y-13040674D02*
X12530539Y-13088293D01*
X12530539Y-13088293D02*
X12521015Y-13126388D01*
X12521015Y-13126388D02*
X12511491Y-13145436D01*
X12511491Y-13145436D02*
X12501967Y-13154960D01*
X12501967Y-13154960D02*
X12482920Y-13164484D01*
X12482920Y-13164484D02*
X12463872Y-13164484D01*
X12463872Y-13164484D02*
X12444824Y-13154960D01*
X12444824Y-13154960D02*
X12435301Y-13145436D01*
X12435301Y-13145436D02*
X12425777Y-13126388D01*
X12425777Y-13126388D02*
X12416253Y-13088293D01*
X12416253Y-13088293D02*
X12416253Y-13040674D01*
X12416253Y-13040674D02*
X12425777Y-13002579D01*
X12425777Y-13002579D02*
X12435301Y-12983531D01*
X12435301Y-12983531D02*
X12444824Y-12974008D01*
X12444824Y-12974008D02*
X12463872Y-12964484D01*
X12616253Y-13145436D02*
X12625777Y-13154960D01*
X12625777Y-13154960D02*
X12616253Y-13164484D01*
X12616253Y-13164484D02*
X12606729Y-13154960D01*
X12606729Y-13154960D02*
X12616253Y-13145436D01*
X12616253Y-13145436D02*
X12616253Y-13164484D01*
X12740062Y-13050198D02*
X12721015Y-13040674D01*
X12721015Y-13040674D02*
X12711491Y-13031150D01*
X12711491Y-13031150D02*
X12701967Y-13012103D01*
X12701967Y-13012103D02*
X12701967Y-13002579D01*
X12701967Y-13002579D02*
X12711491Y-12983531D01*
X12711491Y-12983531D02*
X12721015Y-12974008D01*
X12721015Y-12974008D02*
X12740062Y-12964484D01*
X12740062Y-12964484D02*
X12778158Y-12964484D01*
X12778158Y-12964484D02*
X12797205Y-12974008D01*
X12797205Y-12974008D02*
X12806729Y-12983531D01*
X12806729Y-12983531D02*
X12816253Y-13002579D01*
X12816253Y-13002579D02*
X12816253Y-13012103D01*
X12816253Y-13012103D02*
X12806729Y-13031150D01*
X12806729Y-13031150D02*
X12797205Y-13040674D01*
X12797205Y-13040674D02*
X12778158Y-13050198D01*
X12778158Y-13050198D02*
X12740062Y-13050198D01*
X12740062Y-13050198D02*
X12721015Y-13059722D01*
X12721015Y-13059722D02*
X12711491Y-13069246D01*
X12711491Y-13069246D02*
X12701967Y-13088293D01*
X12701967Y-13088293D02*
X12701967Y-13126388D01*
X12701967Y-13126388D02*
X12711491Y-13145436D01*
X12711491Y-13145436D02*
X12721015Y-13154960D01*
X12721015Y-13154960D02*
X12740062Y-13164484D01*
X12740062Y-13164484D02*
X12778158Y-13164484D01*
X12778158Y-13164484D02*
X12797205Y-13154960D01*
X12797205Y-13154960D02*
X12806729Y-13145436D01*
X12806729Y-13145436D02*
X12816253Y-13126388D01*
X12816253Y-13126388D02*
X12816253Y-13088293D01*
X12816253Y-13088293D02*
X12806729Y-13069246D01*
X12806729Y-13069246D02*
X12797205Y-13059722D01*
X12797205Y-13059722D02*
X12778158Y-13050198D01*
X12940062Y-12964484D02*
X12959110Y-12964484D01*
X12959110Y-12964484D02*
X12978158Y-12974008D01*
X12978158Y-12974008D02*
X12987682Y-12983531D01*
X12987682Y-12983531D02*
X12997205Y-13002579D01*
X12997205Y-13002579D02*
X13006729Y-13040674D01*
X13006729Y-13040674D02*
X13006729Y-13088293D01*
X13006729Y-13088293D02*
X12997205Y-13126388D01*
X12997205Y-13126388D02*
X12987682Y-13145436D01*
X12987682Y-13145436D02*
X12978158Y-13154960D01*
X12978158Y-13154960D02*
X12959110Y-13164484D01*
X12959110Y-13164484D02*
X12940062Y-13164484D01*
X12940062Y-13164484D02*
X12921015Y-13154960D01*
X12921015Y-13154960D02*
X12911491Y-13145436D01*
X12911491Y-13145436D02*
X12901967Y-13126388D01*
X12901967Y-13126388D02*
X12892443Y-13088293D01*
X12892443Y-13088293D02*
X12892443Y-13040674D01*
X12892443Y-13040674D02*
X12901967Y-13002579D01*
X12901967Y-13002579D02*
X12911491Y-12983531D01*
X12911491Y-12983531D02*
X12921015Y-12974008D01*
X12921015Y-12974008D02*
X12940062Y-12964484D01*
X13130539Y-12964484D02*
X13149586Y-12964484D01*
X13149586Y-12964484D02*
X13168634Y-12974008D01*
X13168634Y-12974008D02*
X13178158Y-12983531D01*
X13178158Y-12983531D02*
X13187682Y-13002579D01*
X13187682Y-13002579D02*
X13197205Y-13040674D01*
X13197205Y-13040674D02*
X13197205Y-13088293D01*
X13197205Y-13088293D02*
X13187682Y-13126388D01*
X13187682Y-13126388D02*
X13178158Y-13145436D01*
X13178158Y-13145436D02*
X13168634Y-13154960D01*
X13168634Y-13154960D02*
X13149586Y-13164484D01*
X13149586Y-13164484D02*
X13130539Y-13164484D01*
X13130539Y-13164484D02*
X13111491Y-13154960D01*
X13111491Y-13154960D02*
X13101967Y-13145436D01*
X13101967Y-13145436D02*
X13092443Y-13126388D01*
X13092443Y-13126388D02*
X13082920Y-13088293D01*
X13082920Y-13088293D02*
X13082920Y-13040674D01*
X13082920Y-13040674D02*
X13092443Y-13002579D01*
X13092443Y-13002579D02*
X13101967Y-12983531D01*
X13101967Y-12983531D02*
X13111491Y-12974008D01*
X13111491Y-12974008D02*
X13130539Y-12964484D01*
X13282920Y-13164484D02*
X13282920Y-13031150D01*
X13282920Y-13050198D02*
X13292443Y-13040674D01*
X13292443Y-13040674D02*
X13311491Y-13031150D01*
X13311491Y-13031150D02*
X13340063Y-13031150D01*
X13340063Y-13031150D02*
X13359110Y-13040674D01*
X13359110Y-13040674D02*
X13368634Y-13059722D01*
X13368634Y-13059722D02*
X13368634Y-13164484D01*
X13368634Y-13059722D02*
X13378158Y-13040674D01*
X13378158Y-13040674D02*
X13397205Y-13031150D01*
X13397205Y-13031150D02*
X13425777Y-13031150D01*
X13425777Y-13031150D02*
X13444824Y-13040674D01*
X13444824Y-13040674D02*
X13454348Y-13059722D01*
X13454348Y-13059722D02*
X13454348Y-13164484D01*
X13549586Y-13164484D02*
X13549586Y-13031150D01*
X13549586Y-13050198D02*
X13559110Y-13040674D01*
X13559110Y-13040674D02*
X13578158Y-13031150D01*
X13578158Y-13031150D02*
X13606729Y-13031150D01*
X13606729Y-13031150D02*
X13625777Y-13040674D01*
X13625777Y-13040674D02*
X13635301Y-13059722D01*
X13635301Y-13059722D02*
X13635301Y-13164484D01*
X13635301Y-13059722D02*
X13644824Y-13040674D01*
X13644824Y-13040674D02*
X13663872Y-13031150D01*
X13663872Y-13031150D02*
X13692443Y-13031150D01*
X13692443Y-13031150D02*
X13711491Y-13040674D01*
X13711491Y-13040674D02*
X13721015Y-13059722D01*
X13721015Y-13059722D02*
X13721015Y-13164484D01*
X14111491Y-12954960D02*
X13940063Y-13212103D01*
X14368634Y-12964484D02*
X14387682Y-12964484D01*
X14387682Y-12964484D02*
X14406729Y-12974008D01*
X14406729Y-12974008D02*
X14416253Y-12983531D01*
X14416253Y-12983531D02*
X14425777Y-13002579D01*
X14425777Y-13002579D02*
X14435301Y-13040674D01*
X14435301Y-13040674D02*
X14435301Y-13088293D01*
X14435301Y-13088293D02*
X14425777Y-13126388D01*
X14425777Y-13126388D02*
X14416253Y-13145436D01*
X14416253Y-13145436D02*
X14406729Y-13154960D01*
X14406729Y-13154960D02*
X14387682Y-13164484D01*
X14387682Y-13164484D02*
X14368634Y-13164484D01*
X14368634Y-13164484D02*
X14349586Y-13154960D01*
X14349586Y-13154960D02*
X14340063Y-13145436D01*
X14340063Y-13145436D02*
X14330539Y-13126388D01*
X14330539Y-13126388D02*
X14321015Y-13088293D01*
X14321015Y-13088293D02*
X14321015Y-13040674D01*
X14321015Y-13040674D02*
X14330539Y-13002579D01*
X14330539Y-13002579D02*
X14340063Y-12983531D01*
X14340063Y-12983531D02*
X14349586Y-12974008D01*
X14349586Y-12974008D02*
X14368634Y-12964484D01*
X14521015Y-13145436D02*
X14530539Y-13154960D01*
X14530539Y-13154960D02*
X14521015Y-13164484D01*
X14521015Y-13164484D02*
X14511491Y-13154960D01*
X14511491Y-13154960D02*
X14521015Y-13145436D01*
X14521015Y-13145436D02*
X14521015Y-13164484D01*
X14654348Y-12964484D02*
X14673396Y-12964484D01*
X14673396Y-12964484D02*
X14692444Y-12974008D01*
X14692444Y-12974008D02*
X14701967Y-12983531D01*
X14701967Y-12983531D02*
X14711491Y-13002579D01*
X14711491Y-13002579D02*
X14721015Y-13040674D01*
X14721015Y-13040674D02*
X14721015Y-13088293D01*
X14721015Y-13088293D02*
X14711491Y-13126388D01*
X14711491Y-13126388D02*
X14701967Y-13145436D01*
X14701967Y-13145436D02*
X14692444Y-13154960D01*
X14692444Y-13154960D02*
X14673396Y-13164484D01*
X14673396Y-13164484D02*
X14654348Y-13164484D01*
X14654348Y-13164484D02*
X14635301Y-13154960D01*
X14635301Y-13154960D02*
X14625777Y-13145436D01*
X14625777Y-13145436D02*
X14616253Y-13126388D01*
X14616253Y-13126388D02*
X14606729Y-13088293D01*
X14606729Y-13088293D02*
X14606729Y-13040674D01*
X14606729Y-13040674D02*
X14616253Y-13002579D01*
X14616253Y-13002579D02*
X14625777Y-12983531D01*
X14625777Y-12983531D02*
X14635301Y-12974008D01*
X14635301Y-12974008D02*
X14654348Y-12964484D01*
X14787682Y-12964484D02*
X14911491Y-12964484D01*
X14911491Y-12964484D02*
X14844825Y-13040674D01*
X14844825Y-13040674D02*
X14873396Y-13040674D01*
X14873396Y-13040674D02*
X14892444Y-13050198D01*
X14892444Y-13050198D02*
X14901967Y-13059722D01*
X14901967Y-13059722D02*
X14911491Y-13078769D01*
X14911491Y-13078769D02*
X14911491Y-13126388D01*
X14911491Y-13126388D02*
X14901967Y-13145436D01*
X14901967Y-13145436D02*
X14892444Y-13154960D01*
X14892444Y-13154960D02*
X14873396Y-13164484D01*
X14873396Y-13164484D02*
X14816253Y-13164484D01*
X14816253Y-13164484D02*
X14797206Y-13154960D01*
X14797206Y-13154960D02*
X14787682Y-13145436D01*
X15101967Y-13164484D02*
X14987682Y-13164484D01*
X15044825Y-13164484D02*
X15044825Y-12964484D01*
X15044825Y-12964484D02*
X15025777Y-12993055D01*
X15025777Y-12993055D02*
X15006729Y-13012103D01*
X15006729Y-13012103D02*
X14987682Y-13021627D01*
X15282920Y-12964484D02*
X15187682Y-12964484D01*
X15187682Y-12964484D02*
X15178158Y-13059722D01*
X15178158Y-13059722D02*
X15187682Y-13050198D01*
X15187682Y-13050198D02*
X15206729Y-13040674D01*
X15206729Y-13040674D02*
X15254348Y-13040674D01*
X15254348Y-13040674D02*
X15273396Y-13050198D01*
X15273396Y-13050198D02*
X15282920Y-13059722D01*
X15282920Y-13059722D02*
X15292444Y-13078769D01*
X15292444Y-13078769D02*
X15292444Y-13126388D01*
X15292444Y-13126388D02*
X15282920Y-13145436D01*
X15282920Y-13145436D02*
X15273396Y-13154960D01*
X15273396Y-13154960D02*
X15254348Y-13164484D01*
X15254348Y-13164484D02*
X15206729Y-13164484D01*
X15206729Y-13164484D02*
X15187682Y-13154960D01*
X15187682Y-13154960D02*
X15178158Y-13145436D01*
X15368634Y-12964484D02*
X15368634Y-13002579D01*
X15444825Y-12964484D02*
X15444825Y-13002579D01*
X15740063Y-13240674D02*
X15730539Y-13231150D01*
X15730539Y-13231150D02*
X15711491Y-13202579D01*
X15711491Y-13202579D02*
X15701968Y-13183531D01*
X15701968Y-13183531D02*
X15692444Y-13154960D01*
X15692444Y-13154960D02*
X15682920Y-13107341D01*
X15682920Y-13107341D02*
X15682920Y-13069246D01*
X15682920Y-13069246D02*
X15692444Y-13021627D01*
X15692444Y-13021627D02*
X15701968Y-12993055D01*
X15701968Y-12993055D02*
X15711491Y-12974008D01*
X15711491Y-12974008D02*
X15730539Y-12945436D01*
X15730539Y-12945436D02*
X15740063Y-12935912D01*
X15901968Y-13031150D02*
X15901968Y-13164484D01*
X15854348Y-12954960D02*
X15806729Y-13097817D01*
X15806729Y-13097817D02*
X15930539Y-13097817D01*
X16159110Y-13164484D02*
X16159110Y-12964484D01*
X16244825Y-13164484D02*
X16244825Y-13059722D01*
X16244825Y-13059722D02*
X16235301Y-13040674D01*
X16235301Y-13040674D02*
X16216253Y-13031150D01*
X16216253Y-13031150D02*
X16187682Y-13031150D01*
X16187682Y-13031150D02*
X16168634Y-13040674D01*
X16168634Y-13040674D02*
X16159110Y-13050198D01*
X16368634Y-13164484D02*
X16349587Y-13154960D01*
X16349587Y-13154960D02*
X16340063Y-13145436D01*
X16340063Y-13145436D02*
X16330539Y-13126388D01*
X16330539Y-13126388D02*
X16330539Y-13069246D01*
X16330539Y-13069246D02*
X16340063Y-13050198D01*
X16340063Y-13050198D02*
X16349587Y-13040674D01*
X16349587Y-13040674D02*
X16368634Y-13031150D01*
X16368634Y-13031150D02*
X16397206Y-13031150D01*
X16397206Y-13031150D02*
X16416253Y-13040674D01*
X16416253Y-13040674D02*
X16425777Y-13050198D01*
X16425777Y-13050198D02*
X16435301Y-13069246D01*
X16435301Y-13069246D02*
X16435301Y-13126388D01*
X16435301Y-13126388D02*
X16425777Y-13145436D01*
X16425777Y-13145436D02*
X16416253Y-13154960D01*
X16416253Y-13154960D02*
X16397206Y-13164484D01*
X16397206Y-13164484D02*
X16368634Y-13164484D01*
X16549587Y-13164484D02*
X16530539Y-13154960D01*
X16530539Y-13154960D02*
X16521015Y-13135912D01*
X16521015Y-13135912D02*
X16521015Y-12964484D01*
X16701968Y-13154960D02*
X16682920Y-13164484D01*
X16682920Y-13164484D02*
X16644825Y-13164484D01*
X16644825Y-13164484D02*
X16625777Y-13154960D01*
X16625777Y-13154960D02*
X16616253Y-13135912D01*
X16616253Y-13135912D02*
X16616253Y-13059722D01*
X16616253Y-13059722D02*
X16625777Y-13040674D01*
X16625777Y-13040674D02*
X16644825Y-13031150D01*
X16644825Y-13031150D02*
X16682920Y-13031150D01*
X16682920Y-13031150D02*
X16701968Y-13040674D01*
X16701968Y-13040674D02*
X16711491Y-13059722D01*
X16711491Y-13059722D02*
X16711491Y-13078769D01*
X16711491Y-13078769D02*
X16616253Y-13097817D01*
X16787682Y-13154960D02*
X16806730Y-13164484D01*
X16806730Y-13164484D02*
X16844825Y-13164484D01*
X16844825Y-13164484D02*
X16863873Y-13154960D01*
X16863873Y-13154960D02*
X16873396Y-13135912D01*
X16873396Y-13135912D02*
X16873396Y-13126388D01*
X16873396Y-13126388D02*
X16863873Y-13107341D01*
X16863873Y-13107341D02*
X16844825Y-13097817D01*
X16844825Y-13097817D02*
X16816253Y-13097817D01*
X16816253Y-13097817D02*
X16797206Y-13088293D01*
X16797206Y-13088293D02*
X16787682Y-13069246D01*
X16787682Y-13069246D02*
X16787682Y-13059722D01*
X16787682Y-13059722D02*
X16797206Y-13040674D01*
X16797206Y-13040674D02*
X16816253Y-13031150D01*
X16816253Y-13031150D02*
X16844825Y-13031150D01*
X16844825Y-13031150D02*
X16863873Y-13040674D01*
X16940063Y-13240674D02*
X16949587Y-13231150D01*
X16949587Y-13231150D02*
X16968634Y-13202579D01*
X16968634Y-13202579D02*
X16978158Y-13183531D01*
X16978158Y-13183531D02*
X16987682Y-13154960D01*
X16987682Y-13154960D02*
X16997206Y-13107341D01*
X16997206Y-13107341D02*
X16997206Y-13069246D01*
X16997206Y-13069246D02*
X16987682Y-13021627D01*
X16987682Y-13021627D02*
X16978158Y-12993055D01*
X16978158Y-12993055D02*
X16968634Y-12974008D01*
X16968634Y-12974008D02*
X16949587Y-12945436D01*
X16949587Y-12945436D02*
X16940063Y-12935912D01*
D10*
X12150356Y-13372356D02*
X12150356Y-13301644D01*
X12079644Y-13301644D01*
X12079644Y-13372356D01*
X12150356Y-13372356D01*
D11*
X12530539Y-13428484D02*
X12416253Y-13428484D01*
X12473396Y-13428484D02*
X12473396Y-13228484D01*
X12473396Y-13228484D02*
X12454348Y-13257055D01*
X12454348Y-13257055D02*
X12435301Y-13276103D01*
X12435301Y-13276103D02*
X12416253Y-13285627D01*
X12616253Y-13409436D02*
X12625777Y-13418960D01*
X12625777Y-13418960D02*
X12616253Y-13428484D01*
X12616253Y-13428484D02*
X12606729Y-13418960D01*
X12606729Y-13418960D02*
X12616253Y-13409436D01*
X12616253Y-13409436D02*
X12616253Y-13428484D01*
X12749586Y-13228484D02*
X12768634Y-13228484D01*
X12768634Y-13228484D02*
X12787682Y-13238008D01*
X12787682Y-13238008D02*
X12797205Y-13247531D01*
X12797205Y-13247531D02*
X12806729Y-13266579D01*
X12806729Y-13266579D02*
X12816253Y-13304674D01*
X12816253Y-13304674D02*
X12816253Y-13352293D01*
X12816253Y-13352293D02*
X12806729Y-13390388D01*
X12806729Y-13390388D02*
X12797205Y-13409436D01*
X12797205Y-13409436D02*
X12787682Y-13418960D01*
X12787682Y-13418960D02*
X12768634Y-13428484D01*
X12768634Y-13428484D02*
X12749586Y-13428484D01*
X12749586Y-13428484D02*
X12730539Y-13418960D01*
X12730539Y-13418960D02*
X12721015Y-13409436D01*
X12721015Y-13409436D02*
X12711491Y-13390388D01*
X12711491Y-13390388D02*
X12701967Y-13352293D01*
X12701967Y-13352293D02*
X12701967Y-13304674D01*
X12701967Y-13304674D02*
X12711491Y-13266579D01*
X12711491Y-13266579D02*
X12721015Y-13247531D01*
X12721015Y-13247531D02*
X12730539Y-13238008D01*
X12730539Y-13238008D02*
X12749586Y-13228484D01*
X12940062Y-13228484D02*
X12959110Y-13228484D01*
X12959110Y-13228484D02*
X12978158Y-13238008D01*
X12978158Y-13238008D02*
X12987682Y-13247531D01*
X12987682Y-13247531D02*
X12997205Y-13266579D01*
X12997205Y-13266579D02*
X13006729Y-13304674D01*
X13006729Y-13304674D02*
X13006729Y-13352293D01*
X13006729Y-13352293D02*
X12997205Y-13390388D01*
X12997205Y-13390388D02*
X12987682Y-13409436D01*
X12987682Y-13409436D02*
X12978158Y-13418960D01*
X12978158Y-13418960D02*
X12959110Y-13428484D01*
X12959110Y-13428484D02*
X12940062Y-13428484D01*
X12940062Y-13428484D02*
X12921015Y-13418960D01*
X12921015Y-13418960D02*
X12911491Y-13409436D01*
X12911491Y-13409436D02*
X12901967Y-13390388D01*
X12901967Y-13390388D02*
X12892443Y-13352293D01*
X12892443Y-13352293D02*
X12892443Y-13304674D01*
X12892443Y-13304674D02*
X12901967Y-13266579D01*
X12901967Y-13266579D02*
X12911491Y-13247531D01*
X12911491Y-13247531D02*
X12921015Y-13238008D01*
X12921015Y-13238008D02*
X12940062Y-13228484D01*
X13130539Y-13228484D02*
X13149586Y-13228484D01*
X13149586Y-13228484D02*
X13168634Y-13238008D01*
X13168634Y-13238008D02*
X13178158Y-13247531D01*
X13178158Y-13247531D02*
X13187682Y-13266579D01*
X13187682Y-13266579D02*
X13197205Y-13304674D01*
X13197205Y-13304674D02*
X13197205Y-13352293D01*
X13197205Y-13352293D02*
X13187682Y-13390388D01*
X13187682Y-13390388D02*
X13178158Y-13409436D01*
X13178158Y-13409436D02*
X13168634Y-13418960D01*
X13168634Y-13418960D02*
X13149586Y-13428484D01*
X13149586Y-13428484D02*
X13130539Y-13428484D01*
X13130539Y-13428484D02*
X13111491Y-13418960D01*
X13111491Y-13418960D02*
X13101967Y-13409436D01*
X13101967Y-13409436D02*
X13092443Y-13390388D01*
X13092443Y-13390388D02*
X13082920Y-13352293D01*
X13082920Y-13352293D02*
X13082920Y-13304674D01*
X13082920Y-13304674D02*
X13092443Y-13266579D01*
X13092443Y-13266579D02*
X13101967Y-13247531D01*
X13101967Y-13247531D02*
X13111491Y-13238008D01*
X13111491Y-13238008D02*
X13130539Y-13228484D01*
X13282920Y-13428484D02*
X13282920Y-13295150D01*
X13282920Y-13314198D02*
X13292443Y-13304674D01*
X13292443Y-13304674D02*
X13311491Y-13295150D01*
X13311491Y-13295150D02*
X13340063Y-13295150D01*
X13340063Y-13295150D02*
X13359110Y-13304674D01*
X13359110Y-13304674D02*
X13368634Y-13323722D01*
X13368634Y-13323722D02*
X13368634Y-13428484D01*
X13368634Y-13323722D02*
X13378158Y-13304674D01*
X13378158Y-13304674D02*
X13397205Y-13295150D01*
X13397205Y-13295150D02*
X13425777Y-13295150D01*
X13425777Y-13295150D02*
X13444824Y-13304674D01*
X13444824Y-13304674D02*
X13454348Y-13323722D01*
X13454348Y-13323722D02*
X13454348Y-13428484D01*
X13549586Y-13428484D02*
X13549586Y-13295150D01*
X13549586Y-13314198D02*
X13559110Y-13304674D01*
X13559110Y-13304674D02*
X13578158Y-13295150D01*
X13578158Y-13295150D02*
X13606729Y-13295150D01*
X13606729Y-13295150D02*
X13625777Y-13304674D01*
X13625777Y-13304674D02*
X13635301Y-13323722D01*
X13635301Y-13323722D02*
X13635301Y-13428484D01*
X13635301Y-13323722D02*
X13644824Y-13304674D01*
X13644824Y-13304674D02*
X13663872Y-13295150D01*
X13663872Y-13295150D02*
X13692443Y-13295150D01*
X13692443Y-13295150D02*
X13711491Y-13304674D01*
X13711491Y-13304674D02*
X13721015Y-13323722D01*
X13721015Y-13323722D02*
X13721015Y-13428484D01*
X14111491Y-13218960D02*
X13940063Y-13476103D01*
X14368634Y-13228484D02*
X14387682Y-13228484D01*
X14387682Y-13228484D02*
X14406729Y-13238008D01*
X14406729Y-13238008D02*
X14416253Y-13247531D01*
X14416253Y-13247531D02*
X14425777Y-13266579D01*
X14425777Y-13266579D02*
X14435301Y-13304674D01*
X14435301Y-13304674D02*
X14435301Y-13352293D01*
X14435301Y-13352293D02*
X14425777Y-13390388D01*
X14425777Y-13390388D02*
X14416253Y-13409436D01*
X14416253Y-13409436D02*
X14406729Y-13418960D01*
X14406729Y-13418960D02*
X14387682Y-13428484D01*
X14387682Y-13428484D02*
X14368634Y-13428484D01*
X14368634Y-13428484D02*
X14349586Y-13418960D01*
X14349586Y-13418960D02*
X14340063Y-13409436D01*
X14340063Y-13409436D02*
X14330539Y-13390388D01*
X14330539Y-13390388D02*
X14321015Y-13352293D01*
X14321015Y-13352293D02*
X14321015Y-13304674D01*
X14321015Y-13304674D02*
X14330539Y-13266579D01*
X14330539Y-13266579D02*
X14340063Y-13247531D01*
X14340063Y-13247531D02*
X14349586Y-13238008D01*
X14349586Y-13238008D02*
X14368634Y-13228484D01*
X14521015Y-13409436D02*
X14530539Y-13418960D01*
X14530539Y-13418960D02*
X14521015Y-13428484D01*
X14521015Y-13428484D02*
X14511491Y-13418960D01*
X14511491Y-13418960D02*
X14521015Y-13409436D01*
X14521015Y-13409436D02*
X14521015Y-13428484D01*
X14654348Y-13228484D02*
X14673396Y-13228484D01*
X14673396Y-13228484D02*
X14692444Y-13238008D01*
X14692444Y-13238008D02*
X14701967Y-13247531D01*
X14701967Y-13247531D02*
X14711491Y-13266579D01*
X14711491Y-13266579D02*
X14721015Y-13304674D01*
X14721015Y-13304674D02*
X14721015Y-13352293D01*
X14721015Y-13352293D02*
X14711491Y-13390388D01*
X14711491Y-13390388D02*
X14701967Y-13409436D01*
X14701967Y-13409436D02*
X14692444Y-13418960D01*
X14692444Y-13418960D02*
X14673396Y-13428484D01*
X14673396Y-13428484D02*
X14654348Y-13428484D01*
X14654348Y-13428484D02*
X14635301Y-13418960D01*
X14635301Y-13418960D02*
X14625777Y-13409436D01*
X14625777Y-13409436D02*
X14616253Y-13390388D01*
X14616253Y-13390388D02*
X14606729Y-13352293D01*
X14606729Y-13352293D02*
X14606729Y-13304674D01*
X14606729Y-13304674D02*
X14616253Y-13266579D01*
X14616253Y-13266579D02*
X14625777Y-13247531D01*
X14625777Y-13247531D02*
X14635301Y-13238008D01*
X14635301Y-13238008D02*
X14654348Y-13228484D01*
X14787682Y-13228484D02*
X14911491Y-13228484D01*
X14911491Y-13228484D02*
X14844825Y-13304674D01*
X14844825Y-13304674D02*
X14873396Y-13304674D01*
X14873396Y-13304674D02*
X14892444Y-13314198D01*
X14892444Y-13314198D02*
X14901967Y-13323722D01*
X14901967Y-13323722D02*
X14911491Y-13342769D01*
X14911491Y-13342769D02*
X14911491Y-13390388D01*
X14911491Y-13390388D02*
X14901967Y-13409436D01*
X14901967Y-13409436D02*
X14892444Y-13418960D01*
X14892444Y-13418960D02*
X14873396Y-13428484D01*
X14873396Y-13428484D02*
X14816253Y-13428484D01*
X14816253Y-13428484D02*
X14797206Y-13418960D01*
X14797206Y-13418960D02*
X14787682Y-13409436D01*
X15006729Y-13428484D02*
X15044825Y-13428484D01*
X15044825Y-13428484D02*
X15063872Y-13418960D01*
X15063872Y-13418960D02*
X15073396Y-13409436D01*
X15073396Y-13409436D02*
X15092444Y-13380865D01*
X15092444Y-13380865D02*
X15101967Y-13342769D01*
X15101967Y-13342769D02*
X15101967Y-13266579D01*
X15101967Y-13266579D02*
X15092444Y-13247531D01*
X15092444Y-13247531D02*
X15082920Y-13238008D01*
X15082920Y-13238008D02*
X15063872Y-13228484D01*
X15063872Y-13228484D02*
X15025777Y-13228484D01*
X15025777Y-13228484D02*
X15006729Y-13238008D01*
X15006729Y-13238008D02*
X14997206Y-13247531D01*
X14997206Y-13247531D02*
X14987682Y-13266579D01*
X14987682Y-13266579D02*
X14987682Y-13314198D01*
X14987682Y-13314198D02*
X14997206Y-13333246D01*
X14997206Y-13333246D02*
X15006729Y-13342769D01*
X15006729Y-13342769D02*
X15025777Y-13352293D01*
X15025777Y-13352293D02*
X15063872Y-13352293D01*
X15063872Y-13352293D02*
X15082920Y-13342769D01*
X15082920Y-13342769D02*
X15092444Y-13333246D01*
X15092444Y-13333246D02*
X15101967Y-13314198D01*
X15273396Y-13295150D02*
X15273396Y-13428484D01*
X15225777Y-13218960D02*
X15178158Y-13361817D01*
X15178158Y-13361817D02*
X15301967Y-13361817D01*
X15368634Y-13228484D02*
X15368634Y-13266579D01*
X15444825Y-13228484D02*
X15444825Y-13266579D01*
X15740063Y-13504674D02*
X15730539Y-13495150D01*
X15730539Y-13495150D02*
X15711491Y-13466579D01*
X15711491Y-13466579D02*
X15701968Y-13447531D01*
X15701968Y-13447531D02*
X15692444Y-13418960D01*
X15692444Y-13418960D02*
X15682920Y-13371341D01*
X15682920Y-13371341D02*
X15682920Y-13333246D01*
X15682920Y-13333246D02*
X15692444Y-13285627D01*
X15692444Y-13285627D02*
X15701968Y-13257055D01*
X15701968Y-13257055D02*
X15711491Y-13238008D01*
X15711491Y-13238008D02*
X15730539Y-13209436D01*
X15730539Y-13209436D02*
X15740063Y-13199912D01*
X15806729Y-13247531D02*
X15816253Y-13238008D01*
X15816253Y-13238008D02*
X15835301Y-13228484D01*
X15835301Y-13228484D02*
X15882920Y-13228484D01*
X15882920Y-13228484D02*
X15901968Y-13238008D01*
X15901968Y-13238008D02*
X15911491Y-13247531D01*
X15911491Y-13247531D02*
X15921015Y-13266579D01*
X15921015Y-13266579D02*
X15921015Y-13285627D01*
X15921015Y-13285627D02*
X15911491Y-13314198D01*
X15911491Y-13314198D02*
X15797206Y-13428484D01*
X15797206Y-13428484D02*
X15921015Y-13428484D01*
X16111491Y-13428484D02*
X15997206Y-13428484D01*
X16054348Y-13428484D02*
X16054348Y-13228484D01*
X16054348Y-13228484D02*
X16035301Y-13257055D01*
X16035301Y-13257055D02*
X16016253Y-13276103D01*
X16016253Y-13276103D02*
X15997206Y-13285627D01*
X16349587Y-13428484D02*
X16349587Y-13228484D01*
X16435301Y-13428484D02*
X16435301Y-13323722D01*
X16435301Y-13323722D02*
X16425777Y-13304674D01*
X16425777Y-13304674D02*
X16406730Y-13295150D01*
X16406730Y-13295150D02*
X16378158Y-13295150D01*
X16378158Y-13295150D02*
X16359110Y-13304674D01*
X16359110Y-13304674D02*
X16349587Y-13314198D01*
X16559110Y-13428484D02*
X16540063Y-13418960D01*
X16540063Y-13418960D02*
X16530539Y-13409436D01*
X16530539Y-13409436D02*
X16521015Y-13390388D01*
X16521015Y-13390388D02*
X16521015Y-13333246D01*
X16521015Y-13333246D02*
X16530539Y-13314198D01*
X16530539Y-13314198D02*
X16540063Y-13304674D01*
X16540063Y-13304674D02*
X16559110Y-13295150D01*
X16559110Y-13295150D02*
X16587682Y-13295150D01*
X16587682Y-13295150D02*
X16606730Y-13304674D01*
X16606730Y-13304674D02*
X16616253Y-13314198D01*
X16616253Y-13314198D02*
X16625777Y-13333246D01*
X16625777Y-13333246D02*
X16625777Y-13390388D01*
X16625777Y-13390388D02*
X16616253Y-13409436D01*
X16616253Y-13409436D02*
X16606730Y-13418960D01*
X16606730Y-13418960D02*
X16587682Y-13428484D01*
X16587682Y-13428484D02*
X16559110Y-13428484D01*
X16740063Y-13428484D02*
X16721015Y-13418960D01*
X16721015Y-13418960D02*
X16711491Y-13399912D01*
X16711491Y-13399912D02*
X16711491Y-13228484D01*
X16892444Y-13418960D02*
X16873396Y-13428484D01*
X16873396Y-13428484D02*
X16835301Y-13428484D01*
X16835301Y-13428484D02*
X16816253Y-13418960D01*
X16816253Y-13418960D02*
X16806730Y-13399912D01*
X16806730Y-13399912D02*
X16806730Y-13323722D01*
X16806730Y-13323722D02*
X16816253Y-13304674D01*
X16816253Y-13304674D02*
X16835301Y-13295150D01*
X16835301Y-13295150D02*
X16873396Y-13295150D01*
X16873396Y-13295150D02*
X16892444Y-13304674D01*
X16892444Y-13304674D02*
X16901968Y-13323722D01*
X16901968Y-13323722D02*
X16901968Y-13342769D01*
X16901968Y-13342769D02*
X16806730Y-13361817D01*
X16978158Y-13418960D02*
X16997206Y-13428484D01*
X16997206Y-13428484D02*
X17035301Y-13428484D01*
X17035301Y-13428484D02*
X17054349Y-13418960D01*
X17054349Y-13418960D02*
X17063873Y-13399912D01*
X17063873Y-13399912D02*
X17063873Y-13390388D01*
X17063873Y-13390388D02*
X17054349Y-13371341D01*
X17054349Y-13371341D02*
X17035301Y-13361817D01*
X17035301Y-13361817D02*
X17006730Y-13361817D01*
X17006730Y-13361817D02*
X16987682Y-13352293D01*
X16987682Y-13352293D02*
X16978158Y-13333246D01*
X16978158Y-13333246D02*
X16978158Y-13323722D01*
X16978158Y-13323722D02*
X16987682Y-13304674D01*
X16987682Y-13304674D02*
X17006730Y-13295150D01*
X17006730Y-13295150D02*
X17035301Y-13295150D01*
X17035301Y-13295150D02*
X17054349Y-13304674D01*
X17130539Y-13504674D02*
X17140063Y-13495150D01*
X17140063Y-13495150D02*
X17159111Y-13466579D01*
X17159111Y-13466579D02*
X17168634Y-13447531D01*
X17168634Y-13447531D02*
X17178158Y-13418960D01*
X17178158Y-13418960D02*
X17187682Y-13371341D01*
X17187682Y-13371341D02*
X17187682Y-13333246D01*
X17187682Y-13333246D02*
X17178158Y-13285627D01*
X17178158Y-13285627D02*
X17168634Y-13257055D01*
X17168634Y-13257055D02*
X17159111Y-13238008D01*
X17159111Y-13238008D02*
X17140063Y-13209436D01*
X17140063Y-13209436D02*
X17130539Y-13199912D01*
M02*
