M48
; DRILL file {KiCad 8.0.6} date 2024-10-18T13:19:58-0300
; FORMAT={-:-/ absolute / inch / decimal}
; #@! TF.CreationDate,2024-10-18T13:19:58-03:00
; #@! TF.GenerationSoftware,Kicad,Pcbnew,8.0.6
; #@! TF.FileFunction,Plated,1,2,PTH
FMAT,2
INCH
; #@! TA.AperFunction,Plated,PTH,ViaDrill
T1C0.0118
; #@! TA.AperFunction,Plated,PTH,ComponentDrill
T2C0.0315
; #@! TA.AperFunction,Plated,PTH,ComponentDrill
T3C0.0394
%
G90
G05
T1
X4.9843Y-3.9449
X5.0276Y-4.122
X5.0669Y-4.315
X5.1496Y-3.2756
X5.4449Y-3.6693
X5.5984Y-3.7835
X5.6102Y-3.5728
X5.6201Y-3.4744
X5.6339Y-3.7283
X5.7441Y-4.3425
X5.7795Y-3.2717
X5.7953Y-4.4055
X5.8622Y-3.6614
X5.9016Y-3.2677
X6.0827Y-3.4685
X6.1575Y-3.3661
T2
X5.0906Y-4.1693
X5.2087Y-4.1693
T3
X4.88Y-3.1827
X4.88Y-3.2827
X4.88Y-3.3827
X4.88Y-3.4827
X4.88Y-3.5827
X4.88Y-3.6827
X4.88Y-3.7827
X4.88Y-3.8827
X4.88Y-3.9827
X4.88Y-4.0827
X4.88Y-4.1827
X4.88Y-4.2827
X4.88Y-4.3827
X4.88Y-4.4827
X4.88Y-4.5827
X5.378Y-4.0443
X5.378Y-4.1443
X5.6388Y-4.1339
X5.7388Y-4.1339
X5.8504Y-3.8124
X5.8504Y-3.9124
X6.0197Y-4.1386
X6.0197Y-4.2386
X6.0197Y-4.3386
X6.0197Y-4.4386
M30
