%TF.GenerationSoftware,KiCad,Pcbnew,8.0.6*%
%TF.CreationDate,2024-10-18T13:19:48-03:00*%
%TF.ProjectId,ESP32C6-dev-board,45535033-3243-4362-9d64-65762d626f61,rev?*%
%TF.SameCoordinates,Original*%
%TF.FileFunction,Soldermask,Top*%
%TF.FilePolarity,Negative*%
%FSLAX46Y46*%
G04 Gerber Fmt 4.6, Leading zero omitted, Abs format (unit mm)*
G04 Created by KiCad (PCBNEW 8.0.6) date 2024-10-18 13:19:48*
%MOMM*%
%LPD*%
G01*
G04 APERTURE LIST*
G04 Aperture macros list*
%AMRoundRect*
0 Rectangle with rounded corners*
0 $1 Rounding radius*
0 $2 $3 $4 $5 $6 $7 $8 $9 X,Y pos of 4 corners*
0 Add a 4 corners polygon primitive as box body*
4,1,4,$2,$3,$4,$5,$6,$7,$8,$9,$2,$3,0*
0 Add four circle primitives for the rounded corners*
1,1,$1+$1,$2,$3*
1,1,$1+$1,$4,$5*
1,1,$1+$1,$6,$7*
1,1,$1+$1,$8,$9*
0 Add four rect primitives between the rounded corners*
20,1,$1+$1,$2,$3,$4,$5,0*
20,1,$1+$1,$4,$5,$6,$7,0*
20,1,$1+$1,$6,$7,$8,$9,0*
20,1,$1+$1,$8,$9,$2,$3,0*%
G04 Aperture macros list end*
%ADD10R,1.700000X1.700000*%
%ADD11O,1.700000X1.700000*%
%ADD12RoundRect,0.250000X-0.475000X0.250000X-0.475000X-0.250000X0.475000X-0.250000X0.475000X0.250000X0*%
%ADD13RoundRect,0.250000X-0.262500X-0.450000X0.262500X-0.450000X0.262500X0.450000X-0.262500X0.450000X0*%
%ADD14RoundRect,0.250000X-0.550000X1.050000X-0.550000X-1.050000X0.550000X-1.050000X0.550000X1.050000X0*%
%ADD15C,1.600000*%
%ADD16O,2.748280X1.998980*%
%ADD17O,1.016000X2.032000*%
%ADD18C,1.143000*%
%ADD19RoundRect,0.250000X0.262500X0.450000X-0.262500X0.450000X-0.262500X-0.450000X0.262500X-0.450000X0*%
%ADD20R,0.900000X1.500000*%
G04 APERTURE END LIST*
D10*
%TO.C,J2*%
X136600000Y-102725000D03*
D11*
X136600000Y-105265000D03*
%TD*%
D12*
%TO.C,C3*%
X148100000Y-81350000D03*
X148100000Y-83250000D03*
%TD*%
D10*
%TO.C,J3*%
X152900000Y-105120000D03*
D11*
X152900000Y-107660000D03*
X152900000Y-110200000D03*
X152900000Y-112740000D03*
%TD*%
D13*
%TO.C,R5*%
X148287500Y-112800000D03*
X150112500Y-112800000D03*
%TD*%
D14*
%TO.C,C1*%
X152100000Y-80300000D03*
X152100000Y-83900000D03*
%TD*%
D15*
%TO.C,R2*%
X129300000Y-105900000D03*
X132300000Y-105900000D03*
%TD*%
D16*
%TO.C,U1*%
X128718710Y-80500490D03*
X128718710Y-83040490D03*
X128718710Y-85580490D03*
X128718710Y-88120490D03*
X128718710Y-90660490D03*
X128718710Y-93200490D03*
X128718710Y-95740490D03*
X144883270Y-95740490D03*
X144883270Y-93200490D03*
X144883270Y-90660490D03*
X144883270Y-88120490D03*
X144883270Y-85580490D03*
X144883270Y-83040490D03*
X144883270Y-80500490D03*
D17*
X135585590Y-96818310D03*
X138135590Y-96818310D03*
D18*
X135584393Y-79814123D03*
X138124393Y-79814123D03*
X135584393Y-82354123D03*
X138124393Y-82354123D03*
%TD*%
D10*
%TO.C,J5*%
X143225000Y-105000000D03*
D11*
X145765000Y-105000000D03*
%TD*%
D10*
%TO.C,J4*%
X148600000Y-99375000D03*
D11*
X148600000Y-96835000D03*
%TD*%
D13*
%TO.C,R1*%
X129887500Y-109600000D03*
X131712500Y-109600000D03*
%TD*%
D10*
%TO.C,J1*%
X123952000Y-80840000D03*
D11*
X123952000Y-83380000D03*
X123952000Y-85920000D03*
X123952000Y-88460000D03*
X123952000Y-91000000D03*
X123952000Y-93540000D03*
X123952000Y-96080000D03*
X123952000Y-98620000D03*
X123952000Y-101160000D03*
X123952000Y-103700000D03*
X123952000Y-106240000D03*
X123952000Y-108780000D03*
X123952000Y-111320000D03*
X123952000Y-113860000D03*
X123952000Y-116400000D03*
%TD*%
D13*
%TO.C,R4*%
X148287500Y-110300000D03*
X150112500Y-110300000D03*
%TD*%
D19*
%TO.C,R3*%
X153212500Y-96000000D03*
X151387500Y-96000000D03*
%TD*%
D20*
%TO.C,D2*%
X153150000Y-88150000D03*
X149850000Y-88150000D03*
X149850000Y-93050000D03*
X153150000Y-93050000D03*
%TD*%
M02*
